0
SECTION
2
HEADER
9
$INSUNITS
70
4
9
$ACADVER
1
AC1014
9
$HANDSEED
5
FFFF
0
ENDSEC
0
SECTION
2
TABLES
0
TABLE
2
VPORT
5
8
100
AcDbSymbolTable
0
ENDTAB
0
TABLE
2
LTYPE
5
5
100
AcDbSymbolTable
0
LTYPE
5
14
100
AcDbSymbolTableRecord
100
AcDbLinetypeTableRecord
2
BYBLOCK
70
0
0
LTYPE
5
15
100
AcDbSymbolTableRecord
100
AcDbLinetypeTableRecord
2
BYLAYER
70
0
0
ENDTAB
0
TABLE
2
LAYER
5
2
100
AcDbSymbolTable
70
2
0
LAYER
5
50
100
AcDbSymbolTableRecord
100
AcDbLayerTableRecord
2
0
70
0
6
CONTINUOUS
0
ENDTAB
0
TABLE
2
STYLE
5
3
100
AcDbSymbolTable
70
1
0
STYLE
5
11
100
AcDbSymbolTableRecord
100
AcDbTextStyleTableRecord
2
STANDARD
70
0
0
ENDTAB
0
TABLE
2
VIEW
5
6
100
AcDbSymbolTable
70
0
0
ENDTAB
0
TABLE
2
UCS
5
7
100
AcDbSymbolTable
70
0
0
ENDTAB
0
TABLE
2
APPID
5
9
100
AcDbSymbolTable
70
2
0
APPID
5
12
100
AcDbSymbolTableRecord
100
AcDbRegAppTableRecord
2
ACAD
70
0
0
ENDTAB
0
TABLE
2
DIMSTYLE
5
A
100
AcDbSymbolTable
70
1
0
ENDTAB
0
TABLE
2
BLOCK_RECORD
5
1
100
AcDbSymbolTable
70
1
0
BLOCK_RECORD
5
1F
100
AcDbSymbolTableRecord
100
AcDbBlockTableRecord
2
*MODEL_SPACE
0
BLOCK_RECORD
5
1B
100
AcDbSymbolTableRecord
100
AcDbBlockTableRecord
2
*PAPER_SPACE
0
ENDTAB
0
ENDSEC
0
SECTION
2
BLOCKS
0
BLOCK
5
20
100
AcDbEntity
100
AcDbBlockBegin
2
*MODEL_SPACE
0
ENDBLK
5
21
100
AcDbEntity
100
AcDbBlockEnd
0
BLOCK
5
1C
100
AcDbEntity
100
AcDbBlockBegin
2
*PAPER_SPACE
0
ENDBLK
5
1D
100
AcDbEntity
100
AcDbBlockEnd
0
ENDSEC
0
SECTION
2
ENTITIES
0
LWPOLYLINE
5
100
100
AcDbEntity
8
0
100
AcDbPolyline
90
32
70
1
43
0.0
10
-29.944156202122048
20
-21.200000000000031
42
-0.29133614058388285
10
-30.125374955804965
20
-21.084615384615418
42
0.17606605587870128
10
-31.284615384615392
20
-19.92537495580499
42
-0.29133614058387924
10
-31.399999999999999
20
-19.744156202122078
10
-31.400000000000002
20
-18.800000000000026
42
0.41421356237309503
10
-31.600000000000001
20
-18.600000000000026
10
-33
20
-18.600000000000026
42
0.41421356237309503
10
-33.199999999999996
20
-18.800000000000026
10
-33.199999999999996
20
-19.744156202122078
42
-0.29133614058388463
10
-33.315384615384616
20
-19.925374955804998
42
0.17606605587869961
10
-34.474625044195022
20
-21.084615384615411
42
-0.29133614058386559
10
-34.655843797877949
20
-21.200000000000028
10
-35.600000000000001
20
-21.200000000000024
42
0.41421356237309503
10
-35.799999999999997
20
-21.400000000000023
10
-35.800000000000004
20
-22.800000000000026
42
0.41421356237309503
10
-35.600000000000009
20
-23.000000000000025
10
-34.655843797877949
20
-23.000000000000025
42
-0.29133614058386309
10
-34.474625044195029
20
-23.115384615384642
42
0.17606605587870047
10
-33.315384615384609
20
-24.274625044195055
42
-0.29133614058388041
10
-33.199999999999996
20
-24.455843797877975
10
-33.199999999999996
20
-25.400000000000027
42
0.41421356237309503
10
-33
20
-25.600000000000026
10
-31.600000000000001
20
-25.600000000000026
42
0.41421356237309503
10
-31.399999999999999
20
-25.400000000000027
10
-31.400000000000002
20
-24.455843797877975
42
-0.29133614058388285
10
-31.284615384615385
20
-24.274625044195055
42
0.17606605587870042
10
-30.125374955804972
20
-23.115384615384642
42
-0.29133614058390678
10
-29.944156202122052
20
-23.000000000000028
10
-29.000000000000004
20
-23.000000000000028
42
0.41421356237309503
10
-28.799999999999997
20
-22.800000000000029
10
-28.800000000000004
20
-21.400000000000034
42
0.41421356237309503
10
-29.000000000000004
20
-21.200000000000031
0
CIRCLE
5
101
100
AcDbEntity
8
0
100
AcDbCircle
10
-3.3000000000000007
20
2.3999999999999932
30
0
40
1.3500000000000023
0
CIRCLE
5
102
100
AcDbEntity
8
0
100
AcDbCircle
10
-3.3000000000000007
20
-46.600000000000044
30
0
40
1.3500000000000023
0
CIRCLE
5
103
100
AcDbEntity
8
0
100
AcDbCircle
10
-61.299999999999997
20
2.3999999999999932
30
0
40
1.3500000000000023
0
CIRCLE
5
104
100
AcDbEntity
8
0
100
AcDbCircle
10
-61.299999999999997
20
-46.600000000000044
30
0
40
1.3500000000000023
0
LWPOLYLINE
5
105
100
AcDbEntity
8
0
100
AcDbPolyline
90
16
70
1
43
0.0
10
0.20000000000000348
20
10.899999999999981
42
-0.41421356237309498
10
5.2000000000000046
20
5.8999999999999719
10
5.1999999999999869
20
-15.400000000000031
42
-0.41421356237309709
10
4.4999999999999885
20
-16.100000000000026
10
2.399999999999971
20
-16.100000000000023
42
0.41421356237309664
10
1.6999999999999726
20
-16.800000000000018
10
1.6999999999999726
20
-27.400000000000041
42
0.41421356237309809
10
2.399999999999971
20
-28.100000000000041
10
4.5000000000000062
20
-28.100000000000026
42
-0.41421356237310669
10
5.2000000000000046
20
-28.800000000000018
10
5.1999999999999975
20
-50.100000000000023
42
-0.4142135623730957
10
0.20000000000000462
20
-55.100000000000023
10
-64.799999999999997
20
-55.100000000000023
42
-0.41421356237309609
10
-69.799999999999997
20
-50.100000000000023
10
-69.800000000000011
20
5.8999999999999799
42
-0.41421356237309576
10
-64.799999999999997
20
10.899999999999981
0
ENDSEC
0
SECTION
2
OBJECTS
0
DICTIONARY
5
C
100
AcDbDictionary
3
ACAD_GROUP
350
D
3
ACAD_MLINESTYLE
350
17
0
DICTIONARY
5
D
100
AcDbDictionary
0
DICTIONARY
5
1A
330
C
100
AcDbDictionary
0
DICTIONARY
5
17
100
AcDbDictionary
0
ENDSEC
0
EOF
