G04 #@! TF.GenerationSoftware,KiCad,Pcbnew,(5.1.2)-1*
G04 #@! TF.CreationDate,2019-05-20T14:19:16+10:00*
G04 #@! TF.ProjectId,VeinCamHat,5665696e-4361-46d4-9861-742e6b696361,rev?*
G04 #@! TF.SameCoordinates,Original*
G04 #@! TF.FileFunction,Copper,L2,Bot*
G04 #@! TF.FilePolarity,Positive*
%FSLAX46Y46*%
G04 Gerber Fmt 4.6, Leading zero omitted, Abs format (unit mm)*
G04 Created by KiCad (PCBNEW (5.1.2)-1) date 2019-05-20 14:19:16*
%MOMM*%
%LPD*%
G04 APERTURE LIST*
%ADD10R,1.700000X1.700000*%
%ADD11O,1.700000X1.700000*%
%ADD12C,0.600000*%
%ADD13C,0.250000*%
%ADD14C,0.200000*%
G04 APERTURE END LIST*
D10*
X208370000Y-98770000D03*
D11*
X208370000Y-96230000D03*
X210910000Y-98770000D03*
X210910000Y-96230000D03*
X213450000Y-98770000D03*
X213450000Y-96230000D03*
X215990000Y-98770000D03*
X215990000Y-96230000D03*
X218530000Y-98770000D03*
X218530000Y-96230000D03*
X221070000Y-98770000D03*
X221070000Y-96230000D03*
X223610000Y-98770000D03*
X223610000Y-96230000D03*
X226150000Y-98770000D03*
X226150000Y-96230000D03*
X228690000Y-98770000D03*
X228690000Y-96230000D03*
X231230000Y-98770000D03*
X231230000Y-96230000D03*
X233770000Y-98770000D03*
X233770000Y-96230000D03*
X236310000Y-98770000D03*
X236310000Y-96230000D03*
X238850000Y-98770000D03*
X238850000Y-96230000D03*
X241390000Y-98770000D03*
X241390000Y-96230000D03*
X243930000Y-98770000D03*
X243930000Y-96230000D03*
X246470000Y-98770000D03*
X246470000Y-96230000D03*
X249010000Y-98770000D03*
X249010000Y-96230000D03*
X251550000Y-98770000D03*
X251550000Y-96230000D03*
X254090000Y-98770000D03*
X254090000Y-96230000D03*
X256630000Y-98770000D03*
X256630000Y-96230000D03*
D12*
X234000000Y-109800000D03*
X235600000Y-111500000D03*
X231900000Y-112000000D03*
X230000000Y-108400000D03*
X227000000Y-108600000D03*
X260000000Y-105000000D03*
X260000000Y-115000000D03*
X260000000Y-125000000D03*
X260000000Y-135000000D03*
X250000000Y-120000000D03*
X250000000Y-130000000D03*
X250000000Y-140000000D03*
X240000000Y-145000000D03*
X210000000Y-105000000D03*
X207400000Y-148100000D03*
X219400000Y-148300000D03*
X234303234Y-112691376D03*
X227000000Y-105100000D03*
X238500000Y-105700000D03*
X231300000Y-100850000D03*
X229700000Y-100850000D03*
X250550000Y-110250000D03*
X229000005Y-109500000D03*
X229700000Y-104300000D03*
X231299987Y-108200013D03*
X231300000Y-104300000D03*
X234491949Y-101325010D03*
D13*
X229000005Y-104999995D02*
X229400001Y-104599999D01*
X229400001Y-104599999D02*
X229700000Y-104300000D01*
X229000005Y-109500000D02*
X229000005Y-104999995D01*
X231299987Y-108200013D02*
X231299987Y-104300013D01*
X231299987Y-104300013D02*
X231300000Y-104300000D01*
X233266939Y-100100000D02*
X234191950Y-101025011D01*
X234191950Y-101025011D02*
X234491949Y-101325010D01*
X228690000Y-98770000D02*
X230020000Y-100100000D01*
X230020000Y-100100000D02*
X233266939Y-100100000D01*
D14*
G36*
X262494876Y-94500681D02*
G01*
X262970906Y-94644403D01*
X263409957Y-94877850D01*
X263795296Y-95192125D01*
X264112258Y-95575266D01*
X264348761Y-96012670D01*
X264495803Y-96487684D01*
X264550001Y-97003344D01*
X264550000Y-146977995D01*
X264499319Y-147494876D01*
X264355596Y-147970910D01*
X264122152Y-148409954D01*
X263807875Y-148795296D01*
X263424735Y-149112257D01*
X262987329Y-149348761D01*
X262512316Y-149495803D01*
X261996664Y-149550000D01*
X203022005Y-149550000D01*
X202505124Y-149499319D01*
X202029090Y-149355596D01*
X201590046Y-149122152D01*
X201204704Y-148807875D01*
X200887743Y-148424735D01*
X200651239Y-147987329D01*
X200504197Y-147512316D01*
X200450000Y-146996664D01*
X200450000Y-146327640D01*
X201750000Y-146327640D01*
X201750000Y-146672360D01*
X201817251Y-147010456D01*
X201949170Y-147328936D01*
X202140686Y-147615560D01*
X202384440Y-147859314D01*
X202671064Y-148050830D01*
X202989544Y-148182749D01*
X203327640Y-148250000D01*
X203672360Y-148250000D01*
X204010456Y-148182749D01*
X204328936Y-148050830D01*
X204615560Y-147859314D01*
X204859314Y-147615560D01*
X205050830Y-147328936D01*
X205182749Y-147010456D01*
X205250000Y-146672360D01*
X205250000Y-146327640D01*
X205189226Y-146022104D01*
X242550000Y-146022104D01*
X242550154Y-146023671D01*
X242550206Y-146031067D01*
X242552343Y-146051399D01*
X242552343Y-146071836D01*
X242552999Y-146078085D01*
X242596510Y-146465985D01*
X242604990Y-146505882D01*
X242612911Y-146545887D01*
X242614769Y-146551889D01*
X242732793Y-146923950D01*
X242748879Y-146961482D01*
X242764403Y-146999146D01*
X242767391Y-147004674D01*
X242955435Y-147346724D01*
X242978505Y-147380416D01*
X243001048Y-147414347D01*
X243005049Y-147419183D01*
X243005053Y-147419189D01*
X243005058Y-147419194D01*
X243255953Y-147718199D01*
X243285087Y-147746729D01*
X243313832Y-147775676D01*
X243318701Y-147779647D01*
X243622902Y-148024231D01*
X243657060Y-148046583D01*
X243690843Y-148069371D01*
X243696386Y-148072318D01*
X243696390Y-148072321D01*
X243696394Y-148072323D01*
X244042303Y-148253159D01*
X244080132Y-148268443D01*
X244117718Y-148284243D01*
X244123733Y-148286059D01*
X244498183Y-148396266D01*
X244538267Y-148403913D01*
X244578200Y-148412110D01*
X244584449Y-148412723D01*
X244584453Y-148412723D01*
X244973179Y-148448099D01*
X245013997Y-148447814D01*
X245054748Y-148448099D01*
X245061001Y-148447486D01*
X245449194Y-148406685D01*
X245489153Y-148398482D01*
X245529209Y-148390841D01*
X245535225Y-148389025D01*
X245908099Y-148273601D01*
X245945680Y-148257803D01*
X245983514Y-148242518D01*
X245989062Y-148239568D01*
X246332417Y-148053917D01*
X246366224Y-148031114D01*
X246400358Y-148008777D01*
X246405227Y-148004805D01*
X246705982Y-147755999D01*
X246734724Y-147727055D01*
X246763861Y-147698523D01*
X246767866Y-147693681D01*
X247014567Y-147391197D01*
X247037158Y-147357194D01*
X247060180Y-147323573D01*
X247063168Y-147318046D01*
X247246418Y-146973404D01*
X247261959Y-146935698D01*
X247278028Y-146898207D01*
X247279886Y-146892205D01*
X247392704Y-146518534D01*
X247400637Y-146478468D01*
X247409105Y-146438630D01*
X247409762Y-146432382D01*
X247420032Y-146327640D01*
X259750000Y-146327640D01*
X259750000Y-146672360D01*
X259817251Y-147010456D01*
X259949170Y-147328936D01*
X260140686Y-147615560D01*
X260384440Y-147859314D01*
X260671064Y-148050830D01*
X260989544Y-148182749D01*
X261327640Y-148250000D01*
X261672360Y-148250000D01*
X262010456Y-148182749D01*
X262328936Y-148050830D01*
X262615560Y-147859314D01*
X262859314Y-147615560D01*
X263050830Y-147328936D01*
X263182749Y-147010456D01*
X263250000Y-146672360D01*
X263250000Y-146327640D01*
X263182749Y-145989544D01*
X263050830Y-145671064D01*
X262859314Y-145384440D01*
X262615560Y-145140686D01*
X262328936Y-144949170D01*
X262010456Y-144817251D01*
X261672360Y-144750000D01*
X261327640Y-144750000D01*
X260989544Y-144817251D01*
X260671064Y-144949170D01*
X260384440Y-145140686D01*
X260140686Y-145384440D01*
X259949170Y-145671064D01*
X259817251Y-145989544D01*
X259750000Y-146327640D01*
X247420032Y-146327640D01*
X247447852Y-146043913D01*
X247450000Y-146022105D01*
X247450000Y-130977895D01*
X247449846Y-130976328D01*
X247449794Y-130968934D01*
X247447657Y-130948602D01*
X247447657Y-130928164D01*
X247447001Y-130921915D01*
X247403491Y-130534016D01*
X247395004Y-130494089D01*
X247387089Y-130454114D01*
X247385231Y-130448111D01*
X247267207Y-130076050D01*
X247251116Y-130038506D01*
X247235597Y-130000854D01*
X247232609Y-129995327D01*
X247044565Y-129653276D01*
X247021506Y-129619599D01*
X246998952Y-129585653D01*
X246994947Y-129580811D01*
X246744047Y-129281801D01*
X246714913Y-129253271D01*
X246686168Y-129224324D01*
X246681299Y-129220353D01*
X246377098Y-128975769D01*
X246342964Y-128953432D01*
X246309157Y-128930629D01*
X246303609Y-128927679D01*
X245957696Y-128746840D01*
X245919848Y-128731549D01*
X245882282Y-128715757D01*
X245876267Y-128713941D01*
X245501817Y-128603734D01*
X245461725Y-128596086D01*
X245421799Y-128587890D01*
X245415552Y-128587278D01*
X245415549Y-128587277D01*
X245415546Y-128587277D01*
X245026821Y-128551901D01*
X244986003Y-128552186D01*
X244945252Y-128551901D01*
X244938999Y-128552514D01*
X244550806Y-128593315D01*
X244510822Y-128601523D01*
X244470790Y-128609159D01*
X244464775Y-128610975D01*
X244091900Y-128726399D01*
X244054306Y-128742202D01*
X244016486Y-128757482D01*
X244010939Y-128760432D01*
X243667583Y-128946083D01*
X243633727Y-128968919D01*
X243599642Y-128991224D01*
X243594772Y-128995195D01*
X243294018Y-129244002D01*
X243265276Y-129272946D01*
X243236139Y-129301478D01*
X243232134Y-129306319D01*
X242985433Y-129608804D01*
X242962857Y-129642783D01*
X242939820Y-129676428D01*
X242936835Y-129681950D01*
X242936832Y-129681954D01*
X242936832Y-129681955D01*
X242753582Y-130026596D01*
X242738029Y-130064331D01*
X242721972Y-130101793D01*
X242720114Y-130107795D01*
X242607296Y-130481467D01*
X242599366Y-130521518D01*
X242590895Y-130561370D01*
X242590238Y-130567618D01*
X242552148Y-130956087D01*
X242552148Y-130956095D01*
X242550001Y-130977895D01*
X242550000Y-146022104D01*
X205189226Y-146022104D01*
X205182749Y-145989544D01*
X205050830Y-145671064D01*
X204859314Y-145384440D01*
X204615560Y-145140686D01*
X204328936Y-144949170D01*
X204010456Y-144817251D01*
X203672360Y-144750000D01*
X203327640Y-144750000D01*
X202989544Y-144817251D01*
X202671064Y-144949170D01*
X202384440Y-145140686D01*
X202140686Y-145384440D01*
X201949170Y-145671064D01*
X201817251Y-145989544D01*
X201750000Y-146327640D01*
X200450000Y-146327640D01*
X200450000Y-136852263D01*
X218000000Y-136852263D01*
X218000000Y-137147737D01*
X218057644Y-137437534D01*
X218170717Y-137710517D01*
X218334874Y-137956194D01*
X218543806Y-138165126D01*
X218789483Y-138329283D01*
X219062466Y-138442356D01*
X219352263Y-138500000D01*
X219647737Y-138500000D01*
X219937534Y-138442356D01*
X220210517Y-138329283D01*
X220456194Y-138165126D01*
X220665126Y-137956194D01*
X220829283Y-137710517D01*
X220942356Y-137437534D01*
X221000000Y-137147737D01*
X221000000Y-136852263D01*
X230500000Y-136852263D01*
X230500000Y-137147737D01*
X230557644Y-137437534D01*
X230670717Y-137710517D01*
X230834874Y-137956194D01*
X231043806Y-138165126D01*
X231289483Y-138329283D01*
X231562466Y-138442356D01*
X231852263Y-138500000D01*
X232147737Y-138500000D01*
X232437534Y-138442356D01*
X232710517Y-138329283D01*
X232956194Y-138165126D01*
X233165126Y-137956194D01*
X233329283Y-137710517D01*
X233442356Y-137437534D01*
X233500000Y-137147737D01*
X233500000Y-136852263D01*
X233442356Y-136562466D01*
X233329283Y-136289483D01*
X233165126Y-136043806D01*
X232956194Y-135834874D01*
X232710517Y-135670717D01*
X232437534Y-135557644D01*
X232147737Y-135500000D01*
X231852263Y-135500000D01*
X231562466Y-135557644D01*
X231289483Y-135670717D01*
X231043806Y-135834874D01*
X230834874Y-136043806D01*
X230670717Y-136289483D01*
X230557644Y-136562466D01*
X230500000Y-136852263D01*
X221000000Y-136852263D01*
X220942356Y-136562466D01*
X220829283Y-136289483D01*
X220665126Y-136043806D01*
X220456194Y-135834874D01*
X220210517Y-135670717D01*
X219937534Y-135557644D01*
X219647737Y-135500000D01*
X219352263Y-135500000D01*
X219062466Y-135557644D01*
X218789483Y-135670717D01*
X218543806Y-135834874D01*
X218334874Y-136043806D01*
X218170717Y-136289483D01*
X218057644Y-136562466D01*
X218000000Y-136852263D01*
X200450000Y-136852263D01*
X200450000Y-120976669D01*
X212525000Y-120976669D01*
X212525001Y-132023332D01*
X212527091Y-132044552D01*
X212527004Y-132057014D01*
X212527651Y-132063614D01*
X212568452Y-132451807D01*
X212577110Y-132493986D01*
X212585176Y-132536268D01*
X212587093Y-132542617D01*
X212702517Y-132915492D01*
X212719205Y-132955193D01*
X212735327Y-132995096D01*
X212738436Y-133000943D01*
X212738440Y-133000952D01*
X212738445Y-133000959D01*
X212924092Y-133344307D01*
X212948161Y-133379990D01*
X212971740Y-133416024D01*
X212975932Y-133421163D01*
X213224739Y-133721918D01*
X213255284Y-133752250D01*
X213285408Y-133783012D01*
X213290512Y-133787234D01*
X213290518Y-133787240D01*
X213290525Y-133787244D01*
X213593003Y-134033940D01*
X213628821Y-134057738D01*
X213664383Y-134082088D01*
X213670217Y-134085242D01*
X214014859Y-134268492D01*
X214054660Y-134284897D01*
X214094234Y-134301858D01*
X214100569Y-134303819D01*
X214474241Y-134416637D01*
X214516486Y-134425002D01*
X214558583Y-134433950D01*
X214565179Y-134434643D01*
X214953648Y-134472733D01*
X214953650Y-134472733D01*
X214976668Y-134475000D01*
X231023332Y-134475000D01*
X231044562Y-134472909D01*
X231057014Y-134472996D01*
X231063614Y-134472349D01*
X231451807Y-134431548D01*
X231493986Y-134422890D01*
X231536268Y-134414824D01*
X231542617Y-134412907D01*
X231915492Y-134297483D01*
X231955193Y-134280795D01*
X231995096Y-134264673D01*
X232000943Y-134261564D01*
X232000952Y-134261560D01*
X232000959Y-134261555D01*
X232344307Y-134075908D01*
X232379990Y-134051839D01*
X232416024Y-134028260D01*
X232421163Y-134024068D01*
X232721918Y-133775261D01*
X232752250Y-133744716D01*
X232783012Y-133714592D01*
X232787234Y-133709488D01*
X232787240Y-133709482D01*
X232787244Y-133709475D01*
X233033940Y-133406997D01*
X233057738Y-133371179D01*
X233082088Y-133335617D01*
X233085242Y-133329783D01*
X233268492Y-132985141D01*
X233284897Y-132945340D01*
X233301858Y-132905766D01*
X233303819Y-132899431D01*
X233416637Y-132525759D01*
X233425002Y-132483514D01*
X233433950Y-132441417D01*
X233434643Y-132434821D01*
X233472733Y-132046352D01*
X233472733Y-132046350D01*
X233475000Y-132023332D01*
X233475000Y-120976668D01*
X233472909Y-120955438D01*
X233472996Y-120942986D01*
X233472349Y-120936385D01*
X233431548Y-120548193D01*
X233422891Y-120506020D01*
X233414824Y-120463732D01*
X233412907Y-120457383D01*
X233297483Y-120084508D01*
X233280795Y-120044807D01*
X233264673Y-120004904D01*
X233261564Y-119999057D01*
X233261560Y-119999048D01*
X233261555Y-119999041D01*
X233075908Y-119655693D01*
X233051839Y-119620010D01*
X233028260Y-119583976D01*
X233024068Y-119578837D01*
X232775261Y-119278082D01*
X232744700Y-119247733D01*
X232714592Y-119216988D01*
X232709482Y-119212760D01*
X232406997Y-118966060D01*
X232371145Y-118942240D01*
X232335616Y-118917912D01*
X232329787Y-118914761D01*
X232329783Y-118914758D01*
X232329779Y-118914756D01*
X231985141Y-118731508D01*
X231945311Y-118715091D01*
X231905766Y-118698142D01*
X231899438Y-118696183D01*
X231899432Y-118696181D01*
X231899426Y-118696180D01*
X231525759Y-118583363D01*
X231483514Y-118574998D01*
X231441417Y-118566050D01*
X231434821Y-118565357D01*
X231046352Y-118527267D01*
X231046350Y-118527267D01*
X231023332Y-118525000D01*
X214976668Y-118525000D01*
X214955438Y-118527091D01*
X214942986Y-118527004D01*
X214936385Y-118527651D01*
X214548193Y-118568452D01*
X214506020Y-118577109D01*
X214463732Y-118585176D01*
X214457383Y-118587093D01*
X214084508Y-118702517D01*
X214044807Y-118719205D01*
X214004904Y-118735327D01*
X213999057Y-118738436D01*
X213999048Y-118738440D01*
X213999041Y-118738445D01*
X213655693Y-118924092D01*
X213620010Y-118948161D01*
X213583976Y-118971740D01*
X213578837Y-118975932D01*
X213278082Y-119224739D01*
X213247733Y-119255300D01*
X213216988Y-119285408D01*
X213212760Y-119290518D01*
X212966060Y-119593003D01*
X212942240Y-119628855D01*
X212917912Y-119664384D01*
X212914761Y-119670213D01*
X212914758Y-119670217D01*
X212914758Y-119670218D01*
X212731508Y-120014859D01*
X212715091Y-120054689D01*
X212698142Y-120094234D01*
X212696183Y-120100562D01*
X212696181Y-120100568D01*
X212696181Y-120100570D01*
X212583363Y-120474241D01*
X212574998Y-120516486D01*
X212566050Y-120558583D01*
X212565357Y-120565179D01*
X212527267Y-120953648D01*
X212525000Y-120976669D01*
X200450000Y-120976669D01*
X200450000Y-115852263D01*
X218000000Y-115852263D01*
X218000000Y-116147737D01*
X218057644Y-116437534D01*
X218170717Y-116710517D01*
X218334874Y-116956194D01*
X218543806Y-117165126D01*
X218789483Y-117329283D01*
X219062466Y-117442356D01*
X219352263Y-117500000D01*
X219647737Y-117500000D01*
X219937534Y-117442356D01*
X220210517Y-117329283D01*
X220456194Y-117165126D01*
X220665126Y-116956194D01*
X220829283Y-116710517D01*
X220942356Y-116437534D01*
X221000000Y-116147737D01*
X221000000Y-115852263D01*
X230500000Y-115852263D01*
X230500000Y-116147737D01*
X230557644Y-116437534D01*
X230670717Y-116710517D01*
X230834874Y-116956194D01*
X231043806Y-117165126D01*
X231289483Y-117329283D01*
X231562466Y-117442356D01*
X231852263Y-117500000D01*
X232147737Y-117500000D01*
X232437534Y-117442356D01*
X232710517Y-117329283D01*
X232956194Y-117165126D01*
X233165126Y-116956194D01*
X233329283Y-116710517D01*
X233442356Y-116437534D01*
X233500000Y-116147737D01*
X233500000Y-115852263D01*
X233442356Y-115562466D01*
X233329283Y-115289483D01*
X233165126Y-115043806D01*
X232956194Y-114834874D01*
X232710517Y-114670717D01*
X232437534Y-114557644D01*
X232147737Y-114500000D01*
X231852263Y-114500000D01*
X231562466Y-114557644D01*
X231289483Y-114670717D01*
X231043806Y-114834874D01*
X230834874Y-115043806D01*
X230670717Y-115289483D01*
X230557644Y-115562466D01*
X230500000Y-115852263D01*
X221000000Y-115852263D01*
X220942356Y-115562466D01*
X220829283Y-115289483D01*
X220665126Y-115043806D01*
X220456194Y-114834874D01*
X220210517Y-114670717D01*
X219937534Y-114557644D01*
X219647737Y-114500000D01*
X219352263Y-114500000D01*
X219062466Y-114557644D01*
X218789483Y-114670717D01*
X218543806Y-114834874D01*
X218334874Y-115043806D01*
X218170717Y-115289483D01*
X218057644Y-115562466D01*
X218000000Y-115852263D01*
X200450000Y-115852263D01*
X200450000Y-109431056D01*
X228300005Y-109431056D01*
X228300005Y-109568944D01*
X228326906Y-109704182D01*
X228379673Y-109831574D01*
X228456279Y-109946224D01*
X228553781Y-110043726D01*
X228668431Y-110120332D01*
X228795823Y-110173099D01*
X228931061Y-110200000D01*
X229068949Y-110200000D01*
X229204187Y-110173099D01*
X229331579Y-110120332D01*
X229446229Y-110043726D01*
X229543731Y-109946224D01*
X229620337Y-109831574D01*
X229673104Y-109704182D01*
X229700005Y-109568944D01*
X229700005Y-109431056D01*
X229673104Y-109295818D01*
X229620337Y-109168426D01*
X229543731Y-109053776D01*
X229525005Y-109035050D01*
X229525005Y-108131069D01*
X230599987Y-108131069D01*
X230599987Y-108268957D01*
X230626888Y-108404195D01*
X230679655Y-108531587D01*
X230756261Y-108646237D01*
X230853763Y-108743739D01*
X230968413Y-108820345D01*
X231095805Y-108873112D01*
X231231043Y-108900013D01*
X231368931Y-108900013D01*
X231504169Y-108873112D01*
X231631561Y-108820345D01*
X231746211Y-108743739D01*
X231843713Y-108646237D01*
X231920319Y-108531587D01*
X231973086Y-108404195D01*
X231999987Y-108268957D01*
X231999987Y-108131069D01*
X231973086Y-107995831D01*
X231920319Y-107868439D01*
X231843713Y-107753789D01*
X231824987Y-107735063D01*
X231824987Y-104764963D01*
X231843726Y-104746224D01*
X231920332Y-104631574D01*
X231973099Y-104504182D01*
X232000000Y-104368944D01*
X232000000Y-104231056D01*
X231973099Y-104095818D01*
X231920332Y-103968426D01*
X231843726Y-103853776D01*
X231746224Y-103756274D01*
X231631574Y-103679668D01*
X231504182Y-103626901D01*
X231368944Y-103600000D01*
X231231056Y-103600000D01*
X231095818Y-103626901D01*
X230968426Y-103679668D01*
X230853776Y-103756274D01*
X230756274Y-103853776D01*
X230679668Y-103968426D01*
X230626901Y-104095818D01*
X230600000Y-104231056D01*
X230600000Y-104368944D01*
X230626901Y-104504182D01*
X230679668Y-104631574D01*
X230756274Y-104746224D01*
X230774988Y-104764938D01*
X230774987Y-107735063D01*
X230756261Y-107753789D01*
X230679655Y-107868439D01*
X230626888Y-107995831D01*
X230599987Y-108131069D01*
X229525005Y-108131069D01*
X229525005Y-105217457D01*
X229742463Y-105000000D01*
X229768944Y-105000000D01*
X229904182Y-104973099D01*
X230031574Y-104920332D01*
X230146224Y-104843726D01*
X230243726Y-104746224D01*
X230320332Y-104631574D01*
X230373099Y-104504182D01*
X230400000Y-104368944D01*
X230400000Y-104231056D01*
X230373099Y-104095818D01*
X230320332Y-103968426D01*
X230243726Y-103853776D01*
X230146224Y-103756274D01*
X230031574Y-103679668D01*
X229904182Y-103626901D01*
X229768944Y-103600000D01*
X229631056Y-103600000D01*
X229495818Y-103626901D01*
X229368426Y-103679668D01*
X229253776Y-103756274D01*
X229156274Y-103853776D01*
X229079668Y-103968426D01*
X229026901Y-104095818D01*
X229000000Y-104231056D01*
X229000000Y-104257537D01*
X228647009Y-104610530D01*
X228626979Y-104626968D01*
X228610540Y-104646999D01*
X228561372Y-104706910D01*
X228512622Y-104798115D01*
X228482602Y-104897078D01*
X228472466Y-104999995D01*
X228475006Y-105025785D01*
X228475005Y-109035050D01*
X228456279Y-109053776D01*
X228379673Y-109168426D01*
X228326906Y-109295818D01*
X228300005Y-109431056D01*
X200450000Y-109431056D01*
X200450000Y-97327640D01*
X201750000Y-97327640D01*
X201750000Y-97672360D01*
X201817251Y-98010456D01*
X201949170Y-98328936D01*
X202140686Y-98615560D01*
X202384440Y-98859314D01*
X202671064Y-99050830D01*
X202989544Y-99182749D01*
X203327640Y-99250000D01*
X203672360Y-99250000D01*
X204010456Y-99182749D01*
X204328936Y-99050830D01*
X204615560Y-98859314D01*
X204859314Y-98615560D01*
X205050830Y-98328936D01*
X205182749Y-98010456D01*
X205200741Y-97920000D01*
X207118065Y-97920000D01*
X207118065Y-99620000D01*
X207125788Y-99698414D01*
X207148660Y-99773814D01*
X207185803Y-99843303D01*
X207235789Y-99904211D01*
X207296697Y-99954197D01*
X207366186Y-99991340D01*
X207441586Y-100014212D01*
X207520000Y-100021935D01*
X209220000Y-100021935D01*
X209298414Y-100014212D01*
X209373814Y-99991340D01*
X209443303Y-99954197D01*
X209504211Y-99904211D01*
X209554197Y-99843303D01*
X209591340Y-99773814D01*
X209614212Y-99698414D01*
X209621935Y-99620000D01*
X209621935Y-98770000D01*
X209653952Y-98770000D01*
X209678087Y-99015043D01*
X209749563Y-99250669D01*
X209865634Y-99467823D01*
X210021840Y-99658160D01*
X210212177Y-99814366D01*
X210429331Y-99930437D01*
X210664957Y-100001913D01*
X210848595Y-100020000D01*
X210971405Y-100020000D01*
X211155043Y-100001913D01*
X211390669Y-99930437D01*
X211607823Y-99814366D01*
X211798160Y-99658160D01*
X211954366Y-99467823D01*
X212070437Y-99250669D01*
X212141913Y-99015043D01*
X212166048Y-98770000D01*
X212193952Y-98770000D01*
X212218087Y-99015043D01*
X212289563Y-99250669D01*
X212405634Y-99467823D01*
X212561840Y-99658160D01*
X212752177Y-99814366D01*
X212969331Y-99930437D01*
X213204957Y-100001913D01*
X213388595Y-100020000D01*
X213511405Y-100020000D01*
X213695043Y-100001913D01*
X213930669Y-99930437D01*
X214147823Y-99814366D01*
X214338160Y-99658160D01*
X214494366Y-99467823D01*
X214610437Y-99250669D01*
X214681913Y-99015043D01*
X214706048Y-98770000D01*
X214733952Y-98770000D01*
X214758087Y-99015043D01*
X214829563Y-99250669D01*
X214945634Y-99467823D01*
X215101840Y-99658160D01*
X215292177Y-99814366D01*
X215509331Y-99930437D01*
X215744957Y-100001913D01*
X215928595Y-100020000D01*
X216051405Y-100020000D01*
X216235043Y-100001913D01*
X216470669Y-99930437D01*
X216687823Y-99814366D01*
X216878160Y-99658160D01*
X217034366Y-99467823D01*
X217150437Y-99250669D01*
X217221913Y-99015043D01*
X217227688Y-98956401D01*
X217385075Y-98956401D01*
X217443439Y-99176183D01*
X217543559Y-99380356D01*
X217681588Y-99561073D01*
X217852221Y-99711390D01*
X218048900Y-99825530D01*
X218264068Y-99899106D01*
X218343599Y-99914925D01*
X218525000Y-99852488D01*
X218525000Y-98775000D01*
X218535000Y-98775000D01*
X218535000Y-99852488D01*
X218716401Y-99914925D01*
X218795932Y-99899106D01*
X219011100Y-99825530D01*
X219207779Y-99711390D01*
X219378412Y-99561073D01*
X219516441Y-99380356D01*
X219616561Y-99176183D01*
X219674925Y-98956401D01*
X219612489Y-98775000D01*
X218535000Y-98775000D01*
X218525000Y-98775000D01*
X217447511Y-98775000D01*
X217385075Y-98956401D01*
X217227688Y-98956401D01*
X217246048Y-98770000D01*
X219813952Y-98770000D01*
X219838087Y-99015043D01*
X219909563Y-99250669D01*
X220025634Y-99467823D01*
X220181840Y-99658160D01*
X220372177Y-99814366D01*
X220589331Y-99930437D01*
X220824957Y-100001913D01*
X221008595Y-100020000D01*
X221131405Y-100020000D01*
X221315043Y-100001913D01*
X221550669Y-99930437D01*
X221767823Y-99814366D01*
X221958160Y-99658160D01*
X222114366Y-99467823D01*
X222230437Y-99250669D01*
X222301913Y-99015043D01*
X222326048Y-98770000D01*
X222353952Y-98770000D01*
X222378087Y-99015043D01*
X222449563Y-99250669D01*
X222565634Y-99467823D01*
X222721840Y-99658160D01*
X222912177Y-99814366D01*
X223129331Y-99930437D01*
X223364957Y-100001913D01*
X223548595Y-100020000D01*
X223671405Y-100020000D01*
X223855043Y-100001913D01*
X224090669Y-99930437D01*
X224307823Y-99814366D01*
X224498160Y-99658160D01*
X224654366Y-99467823D01*
X224770437Y-99250669D01*
X224841913Y-99015043D01*
X224866048Y-98770000D01*
X224893952Y-98770000D01*
X224918087Y-99015043D01*
X224989563Y-99250669D01*
X225105634Y-99467823D01*
X225261840Y-99658160D01*
X225452177Y-99814366D01*
X225669331Y-99930437D01*
X225904957Y-100001913D01*
X226088595Y-100020000D01*
X226211405Y-100020000D01*
X226395043Y-100001913D01*
X226630669Y-99930437D01*
X226847823Y-99814366D01*
X227038160Y-99658160D01*
X227194366Y-99467823D01*
X227310437Y-99250669D01*
X227381913Y-99015043D01*
X227406048Y-98770000D01*
X227433952Y-98770000D01*
X227458087Y-99015043D01*
X227529563Y-99250669D01*
X227645634Y-99467823D01*
X227801840Y-99658160D01*
X227992177Y-99814366D01*
X228209331Y-99930437D01*
X228444957Y-100001913D01*
X228628595Y-100020000D01*
X228751405Y-100020000D01*
X228935043Y-100001913D01*
X229122567Y-99945029D01*
X229630534Y-100452996D01*
X229646973Y-100473027D01*
X229726914Y-100538633D01*
X229818119Y-100587383D01*
X229917082Y-100617403D01*
X229994212Y-100625000D01*
X229994219Y-100625000D01*
X230019999Y-100627539D01*
X230045779Y-100625000D01*
X233049478Y-100625000D01*
X233791949Y-101367472D01*
X233791949Y-101393954D01*
X233818850Y-101529192D01*
X233871617Y-101656584D01*
X233948223Y-101771234D01*
X234045725Y-101868736D01*
X234160375Y-101945342D01*
X234287767Y-101998109D01*
X234423005Y-102025010D01*
X234560893Y-102025010D01*
X234696131Y-101998109D01*
X234823523Y-101945342D01*
X234938173Y-101868736D01*
X235035675Y-101771234D01*
X235112281Y-101656584D01*
X235165048Y-101529192D01*
X235191949Y-101393954D01*
X235191949Y-101256066D01*
X235165048Y-101120828D01*
X235112281Y-100993436D01*
X235035675Y-100878786D01*
X234938173Y-100781284D01*
X234823523Y-100704678D01*
X234696131Y-100651911D01*
X234560893Y-100625010D01*
X234534411Y-100625010D01*
X233920614Y-100011214D01*
X234015043Y-100001913D01*
X234250669Y-99930437D01*
X234467823Y-99814366D01*
X234658160Y-99658160D01*
X234814366Y-99467823D01*
X234930437Y-99250669D01*
X235001913Y-99015043D01*
X235026048Y-98770000D01*
X235053952Y-98770000D01*
X235078087Y-99015043D01*
X235149563Y-99250669D01*
X235265634Y-99467823D01*
X235421840Y-99658160D01*
X235612177Y-99814366D01*
X235829331Y-99930437D01*
X236064957Y-100001913D01*
X236248595Y-100020000D01*
X236371405Y-100020000D01*
X236555043Y-100001913D01*
X236790669Y-99930437D01*
X237007823Y-99814366D01*
X237198160Y-99658160D01*
X237354366Y-99467823D01*
X237470437Y-99250669D01*
X237541913Y-99015043D01*
X237547688Y-98956401D01*
X237705075Y-98956401D01*
X237763439Y-99176183D01*
X237863559Y-99380356D01*
X238001588Y-99561073D01*
X238172221Y-99711390D01*
X238368900Y-99825530D01*
X238584068Y-99899106D01*
X238663599Y-99914925D01*
X238845000Y-99852488D01*
X238845000Y-98775000D01*
X238855000Y-98775000D01*
X238855000Y-99852488D01*
X239036401Y-99914925D01*
X239115932Y-99899106D01*
X239331100Y-99825530D01*
X239527779Y-99711390D01*
X239698412Y-99561073D01*
X239836441Y-99380356D01*
X239936561Y-99176183D01*
X239994925Y-98956401D01*
X239932489Y-98775000D01*
X238855000Y-98775000D01*
X238845000Y-98775000D01*
X237767511Y-98775000D01*
X237705075Y-98956401D01*
X237547688Y-98956401D01*
X237566048Y-98770000D01*
X240133952Y-98770000D01*
X240158087Y-99015043D01*
X240229563Y-99250669D01*
X240345634Y-99467823D01*
X240501840Y-99658160D01*
X240692177Y-99814366D01*
X240909331Y-99930437D01*
X241144957Y-100001913D01*
X241328595Y-100020000D01*
X241451405Y-100020000D01*
X241635043Y-100001913D01*
X241870669Y-99930437D01*
X242087823Y-99814366D01*
X242278160Y-99658160D01*
X242434366Y-99467823D01*
X242550437Y-99250669D01*
X242621913Y-99015043D01*
X242646048Y-98770000D01*
X242673952Y-98770000D01*
X242698087Y-99015043D01*
X242769563Y-99250669D01*
X242885634Y-99467823D01*
X243041840Y-99658160D01*
X243232177Y-99814366D01*
X243449331Y-99930437D01*
X243684957Y-100001913D01*
X243868595Y-100020000D01*
X243991405Y-100020000D01*
X244175043Y-100001913D01*
X244410669Y-99930437D01*
X244627823Y-99814366D01*
X244818160Y-99658160D01*
X244974366Y-99467823D01*
X245090437Y-99250669D01*
X245161913Y-99015043D01*
X245186048Y-98770000D01*
X245213952Y-98770000D01*
X245238087Y-99015043D01*
X245309563Y-99250669D01*
X245425634Y-99467823D01*
X245581840Y-99658160D01*
X245772177Y-99814366D01*
X245989331Y-99930437D01*
X246224957Y-100001913D01*
X246408595Y-100020000D01*
X246531405Y-100020000D01*
X246715043Y-100001913D01*
X246950669Y-99930437D01*
X247167823Y-99814366D01*
X247358160Y-99658160D01*
X247514366Y-99467823D01*
X247630437Y-99250669D01*
X247701913Y-99015043D01*
X247726048Y-98770000D01*
X247753952Y-98770000D01*
X247778087Y-99015043D01*
X247849563Y-99250669D01*
X247965634Y-99467823D01*
X248121840Y-99658160D01*
X248312177Y-99814366D01*
X248529331Y-99930437D01*
X248764957Y-100001913D01*
X248948595Y-100020000D01*
X249071405Y-100020000D01*
X249255043Y-100001913D01*
X249490669Y-99930437D01*
X249707823Y-99814366D01*
X249898160Y-99658160D01*
X250054366Y-99467823D01*
X250170437Y-99250669D01*
X250241913Y-99015043D01*
X250266048Y-98770000D01*
X250293952Y-98770000D01*
X250318087Y-99015043D01*
X250389563Y-99250669D01*
X250505634Y-99467823D01*
X250661840Y-99658160D01*
X250852177Y-99814366D01*
X251069331Y-99930437D01*
X251304957Y-100001913D01*
X251488595Y-100020000D01*
X251611405Y-100020000D01*
X251795043Y-100001913D01*
X252030669Y-99930437D01*
X252247823Y-99814366D01*
X252438160Y-99658160D01*
X252594366Y-99467823D01*
X252710437Y-99250669D01*
X252781913Y-99015043D01*
X252806048Y-98770000D01*
X252833952Y-98770000D01*
X252858087Y-99015043D01*
X252929563Y-99250669D01*
X253045634Y-99467823D01*
X253201840Y-99658160D01*
X253392177Y-99814366D01*
X253609331Y-99930437D01*
X253844957Y-100001913D01*
X254028595Y-100020000D01*
X254151405Y-100020000D01*
X254335043Y-100001913D01*
X254570669Y-99930437D01*
X254787823Y-99814366D01*
X254978160Y-99658160D01*
X255134366Y-99467823D01*
X255250437Y-99250669D01*
X255321913Y-99015043D01*
X255327688Y-98956401D01*
X255485075Y-98956401D01*
X255543439Y-99176183D01*
X255643559Y-99380356D01*
X255781588Y-99561073D01*
X255952221Y-99711390D01*
X256148900Y-99825530D01*
X256364068Y-99899106D01*
X256443599Y-99914925D01*
X256625000Y-99852488D01*
X256625000Y-98775000D01*
X256635000Y-98775000D01*
X256635000Y-99852488D01*
X256816401Y-99914925D01*
X256895932Y-99899106D01*
X257111100Y-99825530D01*
X257307779Y-99711390D01*
X257478412Y-99561073D01*
X257616441Y-99380356D01*
X257716561Y-99176183D01*
X257774925Y-98956401D01*
X257712489Y-98775000D01*
X256635000Y-98775000D01*
X256625000Y-98775000D01*
X255547511Y-98775000D01*
X255485075Y-98956401D01*
X255327688Y-98956401D01*
X255346048Y-98770000D01*
X255327689Y-98583599D01*
X255485075Y-98583599D01*
X255547511Y-98765000D01*
X256625000Y-98765000D01*
X256625000Y-97687512D01*
X256635000Y-97687512D01*
X256635000Y-98765000D01*
X257712489Y-98765000D01*
X257774925Y-98583599D01*
X257716561Y-98363817D01*
X257616441Y-98159644D01*
X257478412Y-97978927D01*
X257307779Y-97828610D01*
X257111100Y-97714470D01*
X256895932Y-97640894D01*
X256816401Y-97625075D01*
X256635000Y-97687512D01*
X256625000Y-97687512D01*
X256443599Y-97625075D01*
X256364068Y-97640894D01*
X256148900Y-97714470D01*
X255952221Y-97828610D01*
X255781588Y-97978927D01*
X255643559Y-98159644D01*
X255543439Y-98363817D01*
X255485075Y-98583599D01*
X255327689Y-98583599D01*
X255321913Y-98524957D01*
X255250437Y-98289331D01*
X255134366Y-98072177D01*
X254978160Y-97881840D01*
X254787823Y-97725634D01*
X254570669Y-97609563D01*
X254335043Y-97538087D01*
X254151405Y-97520000D01*
X254028595Y-97520000D01*
X253844957Y-97538087D01*
X253609331Y-97609563D01*
X253392177Y-97725634D01*
X253201840Y-97881840D01*
X253045634Y-98072177D01*
X252929563Y-98289331D01*
X252858087Y-98524957D01*
X252833952Y-98770000D01*
X252806048Y-98770000D01*
X252781913Y-98524957D01*
X252710437Y-98289331D01*
X252594366Y-98072177D01*
X252438160Y-97881840D01*
X252247823Y-97725634D01*
X252030669Y-97609563D01*
X251795043Y-97538087D01*
X251611405Y-97520000D01*
X251488595Y-97520000D01*
X251304957Y-97538087D01*
X251069331Y-97609563D01*
X250852177Y-97725634D01*
X250661840Y-97881840D01*
X250505634Y-98072177D01*
X250389563Y-98289331D01*
X250318087Y-98524957D01*
X250293952Y-98770000D01*
X250266048Y-98770000D01*
X250241913Y-98524957D01*
X250170437Y-98289331D01*
X250054366Y-98072177D01*
X249898160Y-97881840D01*
X249707823Y-97725634D01*
X249490669Y-97609563D01*
X249255043Y-97538087D01*
X249071405Y-97520000D01*
X248948595Y-97520000D01*
X248764957Y-97538087D01*
X248529331Y-97609563D01*
X248312177Y-97725634D01*
X248121840Y-97881840D01*
X247965634Y-98072177D01*
X247849563Y-98289331D01*
X247778087Y-98524957D01*
X247753952Y-98770000D01*
X247726048Y-98770000D01*
X247701913Y-98524957D01*
X247630437Y-98289331D01*
X247514366Y-98072177D01*
X247358160Y-97881840D01*
X247167823Y-97725634D01*
X246950669Y-97609563D01*
X246715043Y-97538087D01*
X246531405Y-97520000D01*
X246408595Y-97520000D01*
X246224957Y-97538087D01*
X245989331Y-97609563D01*
X245772177Y-97725634D01*
X245581840Y-97881840D01*
X245425634Y-98072177D01*
X245309563Y-98289331D01*
X245238087Y-98524957D01*
X245213952Y-98770000D01*
X245186048Y-98770000D01*
X245161913Y-98524957D01*
X245090437Y-98289331D01*
X244974366Y-98072177D01*
X244818160Y-97881840D01*
X244627823Y-97725634D01*
X244410669Y-97609563D01*
X244175043Y-97538087D01*
X243991405Y-97520000D01*
X243868595Y-97520000D01*
X243684957Y-97538087D01*
X243449331Y-97609563D01*
X243232177Y-97725634D01*
X243041840Y-97881840D01*
X242885634Y-98072177D01*
X242769563Y-98289331D01*
X242698087Y-98524957D01*
X242673952Y-98770000D01*
X242646048Y-98770000D01*
X242621913Y-98524957D01*
X242550437Y-98289331D01*
X242434366Y-98072177D01*
X242278160Y-97881840D01*
X242087823Y-97725634D01*
X241870669Y-97609563D01*
X241635043Y-97538087D01*
X241451405Y-97520000D01*
X241328595Y-97520000D01*
X241144957Y-97538087D01*
X240909331Y-97609563D01*
X240692177Y-97725634D01*
X240501840Y-97881840D01*
X240345634Y-98072177D01*
X240229563Y-98289331D01*
X240158087Y-98524957D01*
X240133952Y-98770000D01*
X237566048Y-98770000D01*
X237547689Y-98583599D01*
X237705075Y-98583599D01*
X237767511Y-98765000D01*
X238845000Y-98765000D01*
X238845000Y-97687512D01*
X238855000Y-97687512D01*
X238855000Y-98765000D01*
X239932489Y-98765000D01*
X239994925Y-98583599D01*
X239936561Y-98363817D01*
X239836441Y-98159644D01*
X239698412Y-97978927D01*
X239527779Y-97828610D01*
X239331100Y-97714470D01*
X239115932Y-97640894D01*
X239036401Y-97625075D01*
X238855000Y-97687512D01*
X238845000Y-97687512D01*
X238663599Y-97625075D01*
X238584068Y-97640894D01*
X238368900Y-97714470D01*
X238172221Y-97828610D01*
X238001588Y-97978927D01*
X237863559Y-98159644D01*
X237763439Y-98363817D01*
X237705075Y-98583599D01*
X237547689Y-98583599D01*
X237541913Y-98524957D01*
X237470437Y-98289331D01*
X237354366Y-98072177D01*
X237198160Y-97881840D01*
X237007823Y-97725634D01*
X236790669Y-97609563D01*
X236555043Y-97538087D01*
X236371405Y-97520000D01*
X236248595Y-97520000D01*
X236064957Y-97538087D01*
X235829331Y-97609563D01*
X235612177Y-97725634D01*
X235421840Y-97881840D01*
X235265634Y-98072177D01*
X235149563Y-98289331D01*
X235078087Y-98524957D01*
X235053952Y-98770000D01*
X235026048Y-98770000D01*
X235001913Y-98524957D01*
X234930437Y-98289331D01*
X234814366Y-98072177D01*
X234658160Y-97881840D01*
X234467823Y-97725634D01*
X234250669Y-97609563D01*
X234015043Y-97538087D01*
X233831405Y-97520000D01*
X233708595Y-97520000D01*
X233524957Y-97538087D01*
X233289331Y-97609563D01*
X233072177Y-97725634D01*
X232881840Y-97881840D01*
X232725634Y-98072177D01*
X232609563Y-98289331D01*
X232538087Y-98524957D01*
X232513952Y-98770000D01*
X232538087Y-99015043D01*
X232609563Y-99250669D01*
X232725634Y-99467823D01*
X232813592Y-99575000D01*
X232186408Y-99575000D01*
X232274366Y-99467823D01*
X232390437Y-99250669D01*
X232461913Y-99015043D01*
X232486048Y-98770000D01*
X232461913Y-98524957D01*
X232390437Y-98289331D01*
X232274366Y-98072177D01*
X232118160Y-97881840D01*
X231927823Y-97725634D01*
X231710669Y-97609563D01*
X231475043Y-97538087D01*
X231291405Y-97520000D01*
X231168595Y-97520000D01*
X230984957Y-97538087D01*
X230749331Y-97609563D01*
X230532177Y-97725634D01*
X230341840Y-97881840D01*
X230185634Y-98072177D01*
X230069563Y-98289331D01*
X229998087Y-98524957D01*
X229973952Y-98770000D01*
X229998087Y-99015043D01*
X230069563Y-99250669D01*
X230185634Y-99467823D01*
X230273592Y-99575000D01*
X230237462Y-99575000D01*
X229865029Y-99202567D01*
X229921913Y-99015043D01*
X229946048Y-98770000D01*
X229921913Y-98524957D01*
X229850437Y-98289331D01*
X229734366Y-98072177D01*
X229578160Y-97881840D01*
X229387823Y-97725634D01*
X229170669Y-97609563D01*
X228935043Y-97538087D01*
X228751405Y-97520000D01*
X228628595Y-97520000D01*
X228444957Y-97538087D01*
X228209331Y-97609563D01*
X227992177Y-97725634D01*
X227801840Y-97881840D01*
X227645634Y-98072177D01*
X227529563Y-98289331D01*
X227458087Y-98524957D01*
X227433952Y-98770000D01*
X227406048Y-98770000D01*
X227381913Y-98524957D01*
X227310437Y-98289331D01*
X227194366Y-98072177D01*
X227038160Y-97881840D01*
X226847823Y-97725634D01*
X226630669Y-97609563D01*
X226395043Y-97538087D01*
X226211405Y-97520000D01*
X226088595Y-97520000D01*
X225904957Y-97538087D01*
X225669331Y-97609563D01*
X225452177Y-97725634D01*
X225261840Y-97881840D01*
X225105634Y-98072177D01*
X224989563Y-98289331D01*
X224918087Y-98524957D01*
X224893952Y-98770000D01*
X224866048Y-98770000D01*
X224841913Y-98524957D01*
X224770437Y-98289331D01*
X224654366Y-98072177D01*
X224498160Y-97881840D01*
X224307823Y-97725634D01*
X224090669Y-97609563D01*
X223855043Y-97538087D01*
X223671405Y-97520000D01*
X223548595Y-97520000D01*
X223364957Y-97538087D01*
X223129331Y-97609563D01*
X222912177Y-97725634D01*
X222721840Y-97881840D01*
X222565634Y-98072177D01*
X222449563Y-98289331D01*
X222378087Y-98524957D01*
X222353952Y-98770000D01*
X222326048Y-98770000D01*
X222301913Y-98524957D01*
X222230437Y-98289331D01*
X222114366Y-98072177D01*
X221958160Y-97881840D01*
X221767823Y-97725634D01*
X221550669Y-97609563D01*
X221315043Y-97538087D01*
X221131405Y-97520000D01*
X221008595Y-97520000D01*
X220824957Y-97538087D01*
X220589331Y-97609563D01*
X220372177Y-97725634D01*
X220181840Y-97881840D01*
X220025634Y-98072177D01*
X219909563Y-98289331D01*
X219838087Y-98524957D01*
X219813952Y-98770000D01*
X217246048Y-98770000D01*
X217227689Y-98583599D01*
X217385075Y-98583599D01*
X217447511Y-98765000D01*
X218525000Y-98765000D01*
X218525000Y-97687512D01*
X218535000Y-97687512D01*
X218535000Y-98765000D01*
X219612489Y-98765000D01*
X219674925Y-98583599D01*
X219616561Y-98363817D01*
X219516441Y-98159644D01*
X219378412Y-97978927D01*
X219207779Y-97828610D01*
X219011100Y-97714470D01*
X218795932Y-97640894D01*
X218716401Y-97625075D01*
X218535000Y-97687512D01*
X218525000Y-97687512D01*
X218343599Y-97625075D01*
X218264068Y-97640894D01*
X218048900Y-97714470D01*
X217852221Y-97828610D01*
X217681588Y-97978927D01*
X217543559Y-98159644D01*
X217443439Y-98363817D01*
X217385075Y-98583599D01*
X217227689Y-98583599D01*
X217221913Y-98524957D01*
X217150437Y-98289331D01*
X217034366Y-98072177D01*
X216878160Y-97881840D01*
X216687823Y-97725634D01*
X216470669Y-97609563D01*
X216235043Y-97538087D01*
X216051405Y-97520000D01*
X215928595Y-97520000D01*
X215744957Y-97538087D01*
X215509331Y-97609563D01*
X215292177Y-97725634D01*
X215101840Y-97881840D01*
X214945634Y-98072177D01*
X214829563Y-98289331D01*
X214758087Y-98524957D01*
X214733952Y-98770000D01*
X214706048Y-98770000D01*
X214681913Y-98524957D01*
X214610437Y-98289331D01*
X214494366Y-98072177D01*
X214338160Y-97881840D01*
X214147823Y-97725634D01*
X213930669Y-97609563D01*
X213695043Y-97538087D01*
X213511405Y-97520000D01*
X213388595Y-97520000D01*
X213204957Y-97538087D01*
X212969331Y-97609563D01*
X212752177Y-97725634D01*
X212561840Y-97881840D01*
X212405634Y-98072177D01*
X212289563Y-98289331D01*
X212218087Y-98524957D01*
X212193952Y-98770000D01*
X212166048Y-98770000D01*
X212141913Y-98524957D01*
X212070437Y-98289331D01*
X211954366Y-98072177D01*
X211798160Y-97881840D01*
X211607823Y-97725634D01*
X211390669Y-97609563D01*
X211155043Y-97538087D01*
X210971405Y-97520000D01*
X210848595Y-97520000D01*
X210664957Y-97538087D01*
X210429331Y-97609563D01*
X210212177Y-97725634D01*
X210021840Y-97881840D01*
X209865634Y-98072177D01*
X209749563Y-98289331D01*
X209678087Y-98524957D01*
X209653952Y-98770000D01*
X209621935Y-98770000D01*
X209621935Y-97920000D01*
X209614212Y-97841586D01*
X209591340Y-97766186D01*
X209554197Y-97696697D01*
X209504211Y-97635789D01*
X209443303Y-97585803D01*
X209373814Y-97548660D01*
X209298414Y-97525788D01*
X209220000Y-97518065D01*
X207520000Y-97518065D01*
X207441586Y-97525788D01*
X207366186Y-97548660D01*
X207296697Y-97585803D01*
X207235789Y-97635789D01*
X207185803Y-97696697D01*
X207148660Y-97766186D01*
X207125788Y-97841586D01*
X207118065Y-97920000D01*
X205200741Y-97920000D01*
X205250000Y-97672360D01*
X205250000Y-97327640D01*
X205182749Y-96989544D01*
X205050830Y-96671064D01*
X204859314Y-96384440D01*
X204704874Y-96230000D01*
X207113952Y-96230000D01*
X207138087Y-96475043D01*
X207209563Y-96710669D01*
X207325634Y-96927823D01*
X207481840Y-97118160D01*
X207672177Y-97274366D01*
X207889331Y-97390437D01*
X208124957Y-97461913D01*
X208308595Y-97480000D01*
X208431405Y-97480000D01*
X208615043Y-97461913D01*
X208850669Y-97390437D01*
X209067823Y-97274366D01*
X209258160Y-97118160D01*
X209414366Y-96927823D01*
X209530437Y-96710669D01*
X209601913Y-96475043D01*
X209626048Y-96230000D01*
X209653952Y-96230000D01*
X209678087Y-96475043D01*
X209749563Y-96710669D01*
X209865634Y-96927823D01*
X210021840Y-97118160D01*
X210212177Y-97274366D01*
X210429331Y-97390437D01*
X210664957Y-97461913D01*
X210848595Y-97480000D01*
X210971405Y-97480000D01*
X211155043Y-97461913D01*
X211390669Y-97390437D01*
X211607823Y-97274366D01*
X211798160Y-97118160D01*
X211954366Y-96927823D01*
X212070437Y-96710669D01*
X212141913Y-96475043D01*
X212147688Y-96416401D01*
X212305075Y-96416401D01*
X212363439Y-96636183D01*
X212463559Y-96840356D01*
X212601588Y-97021073D01*
X212772221Y-97171390D01*
X212968900Y-97285530D01*
X213184068Y-97359106D01*
X213263599Y-97374925D01*
X213445000Y-97312488D01*
X213445000Y-96235000D01*
X213455000Y-96235000D01*
X213455000Y-97312488D01*
X213636401Y-97374925D01*
X213715932Y-97359106D01*
X213931100Y-97285530D01*
X214127779Y-97171390D01*
X214298412Y-97021073D01*
X214436441Y-96840356D01*
X214536561Y-96636183D01*
X214594925Y-96416401D01*
X214532489Y-96235000D01*
X213455000Y-96235000D01*
X213445000Y-96235000D01*
X212367511Y-96235000D01*
X212305075Y-96416401D01*
X212147688Y-96416401D01*
X212166048Y-96230000D01*
X214733952Y-96230000D01*
X214758087Y-96475043D01*
X214829563Y-96710669D01*
X214945634Y-96927823D01*
X215101840Y-97118160D01*
X215292177Y-97274366D01*
X215509331Y-97390437D01*
X215744957Y-97461913D01*
X215928595Y-97480000D01*
X216051405Y-97480000D01*
X216235043Y-97461913D01*
X216470669Y-97390437D01*
X216687823Y-97274366D01*
X216878160Y-97118160D01*
X217034366Y-96927823D01*
X217150437Y-96710669D01*
X217221913Y-96475043D01*
X217246048Y-96230000D01*
X217273952Y-96230000D01*
X217298087Y-96475043D01*
X217369563Y-96710669D01*
X217485634Y-96927823D01*
X217641840Y-97118160D01*
X217832177Y-97274366D01*
X218049331Y-97390437D01*
X218284957Y-97461913D01*
X218468595Y-97480000D01*
X218591405Y-97480000D01*
X218775043Y-97461913D01*
X219010669Y-97390437D01*
X219227823Y-97274366D01*
X219418160Y-97118160D01*
X219574366Y-96927823D01*
X219690437Y-96710669D01*
X219761913Y-96475043D01*
X219786048Y-96230000D01*
X219813952Y-96230000D01*
X219838087Y-96475043D01*
X219909563Y-96710669D01*
X220025634Y-96927823D01*
X220181840Y-97118160D01*
X220372177Y-97274366D01*
X220589331Y-97390437D01*
X220824957Y-97461913D01*
X221008595Y-97480000D01*
X221131405Y-97480000D01*
X221315043Y-97461913D01*
X221550669Y-97390437D01*
X221767823Y-97274366D01*
X221958160Y-97118160D01*
X222114366Y-96927823D01*
X222230437Y-96710669D01*
X222301913Y-96475043D01*
X222307688Y-96416401D01*
X222465075Y-96416401D01*
X222523439Y-96636183D01*
X222623559Y-96840356D01*
X222761588Y-97021073D01*
X222932221Y-97171390D01*
X223128900Y-97285530D01*
X223344068Y-97359106D01*
X223423599Y-97374925D01*
X223605000Y-97312488D01*
X223605000Y-96235000D01*
X223615000Y-96235000D01*
X223615000Y-97312488D01*
X223796401Y-97374925D01*
X223875932Y-97359106D01*
X224091100Y-97285530D01*
X224287779Y-97171390D01*
X224458412Y-97021073D01*
X224596441Y-96840356D01*
X224696561Y-96636183D01*
X224754925Y-96416401D01*
X224692489Y-96235000D01*
X223615000Y-96235000D01*
X223605000Y-96235000D01*
X222527511Y-96235000D01*
X222465075Y-96416401D01*
X222307688Y-96416401D01*
X222326048Y-96230000D01*
X224893952Y-96230000D01*
X224918087Y-96475043D01*
X224989563Y-96710669D01*
X225105634Y-96927823D01*
X225261840Y-97118160D01*
X225452177Y-97274366D01*
X225669331Y-97390437D01*
X225904957Y-97461913D01*
X226088595Y-97480000D01*
X226211405Y-97480000D01*
X226395043Y-97461913D01*
X226630669Y-97390437D01*
X226847823Y-97274366D01*
X227038160Y-97118160D01*
X227194366Y-96927823D01*
X227310437Y-96710669D01*
X227381913Y-96475043D01*
X227406048Y-96230000D01*
X227433952Y-96230000D01*
X227458087Y-96475043D01*
X227529563Y-96710669D01*
X227645634Y-96927823D01*
X227801840Y-97118160D01*
X227992177Y-97274366D01*
X228209331Y-97390437D01*
X228444957Y-97461913D01*
X228628595Y-97480000D01*
X228751405Y-97480000D01*
X228935043Y-97461913D01*
X229170669Y-97390437D01*
X229387823Y-97274366D01*
X229578160Y-97118160D01*
X229734366Y-96927823D01*
X229850437Y-96710669D01*
X229921913Y-96475043D01*
X229927688Y-96416401D01*
X230085075Y-96416401D01*
X230143439Y-96636183D01*
X230243559Y-96840356D01*
X230381588Y-97021073D01*
X230552221Y-97171390D01*
X230748900Y-97285530D01*
X230964068Y-97359106D01*
X231043599Y-97374925D01*
X231225000Y-97312488D01*
X231225000Y-96235000D01*
X231235000Y-96235000D01*
X231235000Y-97312488D01*
X231416401Y-97374925D01*
X231495932Y-97359106D01*
X231711100Y-97285530D01*
X231907779Y-97171390D01*
X232078412Y-97021073D01*
X232216441Y-96840356D01*
X232316561Y-96636183D01*
X232374925Y-96416401D01*
X232312489Y-96235000D01*
X231235000Y-96235000D01*
X231225000Y-96235000D01*
X230147511Y-96235000D01*
X230085075Y-96416401D01*
X229927688Y-96416401D01*
X229946048Y-96230000D01*
X232513952Y-96230000D01*
X232538087Y-96475043D01*
X232609563Y-96710669D01*
X232725634Y-96927823D01*
X232881840Y-97118160D01*
X233072177Y-97274366D01*
X233289331Y-97390437D01*
X233524957Y-97461913D01*
X233708595Y-97480000D01*
X233831405Y-97480000D01*
X234015043Y-97461913D01*
X234250669Y-97390437D01*
X234467823Y-97274366D01*
X234658160Y-97118160D01*
X234814366Y-96927823D01*
X234930437Y-96710669D01*
X235001913Y-96475043D01*
X235026048Y-96230000D01*
X235053952Y-96230000D01*
X235078087Y-96475043D01*
X235149563Y-96710669D01*
X235265634Y-96927823D01*
X235421840Y-97118160D01*
X235612177Y-97274366D01*
X235829331Y-97390437D01*
X236064957Y-97461913D01*
X236248595Y-97480000D01*
X236371405Y-97480000D01*
X236555043Y-97461913D01*
X236790669Y-97390437D01*
X237007823Y-97274366D01*
X237198160Y-97118160D01*
X237354366Y-96927823D01*
X237470437Y-96710669D01*
X237541913Y-96475043D01*
X237566048Y-96230000D01*
X237593952Y-96230000D01*
X237618087Y-96475043D01*
X237689563Y-96710669D01*
X237805634Y-96927823D01*
X237961840Y-97118160D01*
X238152177Y-97274366D01*
X238369331Y-97390437D01*
X238604957Y-97461913D01*
X238788595Y-97480000D01*
X238911405Y-97480000D01*
X239095043Y-97461913D01*
X239330669Y-97390437D01*
X239547823Y-97274366D01*
X239738160Y-97118160D01*
X239894366Y-96927823D01*
X240010437Y-96710669D01*
X240081913Y-96475043D01*
X240106048Y-96230000D01*
X240133952Y-96230000D01*
X240158087Y-96475043D01*
X240229563Y-96710669D01*
X240345634Y-96927823D01*
X240501840Y-97118160D01*
X240692177Y-97274366D01*
X240909331Y-97390437D01*
X241144957Y-97461913D01*
X241328595Y-97480000D01*
X241451405Y-97480000D01*
X241635043Y-97461913D01*
X241870669Y-97390437D01*
X242087823Y-97274366D01*
X242278160Y-97118160D01*
X242434366Y-96927823D01*
X242550437Y-96710669D01*
X242621913Y-96475043D01*
X242627688Y-96416401D01*
X242785075Y-96416401D01*
X242843439Y-96636183D01*
X242943559Y-96840356D01*
X243081588Y-97021073D01*
X243252221Y-97171390D01*
X243448900Y-97285530D01*
X243664068Y-97359106D01*
X243743599Y-97374925D01*
X243925000Y-97312488D01*
X243925000Y-96235000D01*
X243935000Y-96235000D01*
X243935000Y-97312488D01*
X244116401Y-97374925D01*
X244195932Y-97359106D01*
X244411100Y-97285530D01*
X244607779Y-97171390D01*
X244778412Y-97021073D01*
X244916441Y-96840356D01*
X245016561Y-96636183D01*
X245074925Y-96416401D01*
X245012489Y-96235000D01*
X243935000Y-96235000D01*
X243925000Y-96235000D01*
X242847511Y-96235000D01*
X242785075Y-96416401D01*
X242627688Y-96416401D01*
X242646048Y-96230000D01*
X245213952Y-96230000D01*
X245238087Y-96475043D01*
X245309563Y-96710669D01*
X245425634Y-96927823D01*
X245581840Y-97118160D01*
X245772177Y-97274366D01*
X245989331Y-97390437D01*
X246224957Y-97461913D01*
X246408595Y-97480000D01*
X246531405Y-97480000D01*
X246715043Y-97461913D01*
X246950669Y-97390437D01*
X247167823Y-97274366D01*
X247358160Y-97118160D01*
X247514366Y-96927823D01*
X247630437Y-96710669D01*
X247701913Y-96475043D01*
X247707688Y-96416401D01*
X247865075Y-96416401D01*
X247923439Y-96636183D01*
X248023559Y-96840356D01*
X248161588Y-97021073D01*
X248332221Y-97171390D01*
X248528900Y-97285530D01*
X248744068Y-97359106D01*
X248823599Y-97374925D01*
X249005000Y-97312488D01*
X249005000Y-96235000D01*
X249015000Y-96235000D01*
X249015000Y-97312488D01*
X249196401Y-97374925D01*
X249275932Y-97359106D01*
X249491100Y-97285530D01*
X249687779Y-97171390D01*
X249858412Y-97021073D01*
X249996441Y-96840356D01*
X250096561Y-96636183D01*
X250154925Y-96416401D01*
X250092489Y-96235000D01*
X249015000Y-96235000D01*
X249005000Y-96235000D01*
X247927511Y-96235000D01*
X247865075Y-96416401D01*
X247707688Y-96416401D01*
X247726048Y-96230000D01*
X250293952Y-96230000D01*
X250318087Y-96475043D01*
X250389563Y-96710669D01*
X250505634Y-96927823D01*
X250661840Y-97118160D01*
X250852177Y-97274366D01*
X251069331Y-97390437D01*
X251304957Y-97461913D01*
X251488595Y-97480000D01*
X251611405Y-97480000D01*
X251795043Y-97461913D01*
X252030669Y-97390437D01*
X252247823Y-97274366D01*
X252438160Y-97118160D01*
X252594366Y-96927823D01*
X252710437Y-96710669D01*
X252781913Y-96475043D01*
X252806048Y-96230000D01*
X252833952Y-96230000D01*
X252858087Y-96475043D01*
X252929563Y-96710669D01*
X253045634Y-96927823D01*
X253201840Y-97118160D01*
X253392177Y-97274366D01*
X253609331Y-97390437D01*
X253844957Y-97461913D01*
X254028595Y-97480000D01*
X254151405Y-97480000D01*
X254335043Y-97461913D01*
X254570669Y-97390437D01*
X254787823Y-97274366D01*
X254978160Y-97118160D01*
X255134366Y-96927823D01*
X255250437Y-96710669D01*
X255321913Y-96475043D01*
X255346048Y-96230000D01*
X255373952Y-96230000D01*
X255398087Y-96475043D01*
X255469563Y-96710669D01*
X255585634Y-96927823D01*
X255741840Y-97118160D01*
X255932177Y-97274366D01*
X256149331Y-97390437D01*
X256384957Y-97461913D01*
X256568595Y-97480000D01*
X256691405Y-97480000D01*
X256875043Y-97461913D01*
X257110669Y-97390437D01*
X257228154Y-97327640D01*
X259750000Y-97327640D01*
X259750000Y-97672360D01*
X259817251Y-98010456D01*
X259949170Y-98328936D01*
X260140686Y-98615560D01*
X260384440Y-98859314D01*
X260671064Y-99050830D01*
X260989544Y-99182749D01*
X261327640Y-99250000D01*
X261672360Y-99250000D01*
X262010456Y-99182749D01*
X262328936Y-99050830D01*
X262615560Y-98859314D01*
X262859314Y-98615560D01*
X263050830Y-98328936D01*
X263182749Y-98010456D01*
X263250000Y-97672360D01*
X263250000Y-97327640D01*
X263182749Y-96989544D01*
X263050830Y-96671064D01*
X262859314Y-96384440D01*
X262615560Y-96140686D01*
X262328936Y-95949170D01*
X262010456Y-95817251D01*
X261672360Y-95750000D01*
X261327640Y-95750000D01*
X260989544Y-95817251D01*
X260671064Y-95949170D01*
X260384440Y-96140686D01*
X260140686Y-96384440D01*
X259949170Y-96671064D01*
X259817251Y-96989544D01*
X259750000Y-97327640D01*
X257228154Y-97327640D01*
X257327823Y-97274366D01*
X257518160Y-97118160D01*
X257674366Y-96927823D01*
X257790437Y-96710669D01*
X257861913Y-96475043D01*
X257886048Y-96230000D01*
X257861913Y-95984957D01*
X257790437Y-95749331D01*
X257674366Y-95532177D01*
X257518160Y-95341840D01*
X257327823Y-95185634D01*
X257110669Y-95069563D01*
X256875043Y-94998087D01*
X256691405Y-94980000D01*
X256568595Y-94980000D01*
X256384957Y-94998087D01*
X256149331Y-95069563D01*
X255932177Y-95185634D01*
X255741840Y-95341840D01*
X255585634Y-95532177D01*
X255469563Y-95749331D01*
X255398087Y-95984957D01*
X255373952Y-96230000D01*
X255346048Y-96230000D01*
X255321913Y-95984957D01*
X255250437Y-95749331D01*
X255134366Y-95532177D01*
X254978160Y-95341840D01*
X254787823Y-95185634D01*
X254570669Y-95069563D01*
X254335043Y-94998087D01*
X254151405Y-94980000D01*
X254028595Y-94980000D01*
X253844957Y-94998087D01*
X253609331Y-95069563D01*
X253392177Y-95185634D01*
X253201840Y-95341840D01*
X253045634Y-95532177D01*
X252929563Y-95749331D01*
X252858087Y-95984957D01*
X252833952Y-96230000D01*
X252806048Y-96230000D01*
X252781913Y-95984957D01*
X252710437Y-95749331D01*
X252594366Y-95532177D01*
X252438160Y-95341840D01*
X252247823Y-95185634D01*
X252030669Y-95069563D01*
X251795043Y-94998087D01*
X251611405Y-94980000D01*
X251488595Y-94980000D01*
X251304957Y-94998087D01*
X251069331Y-95069563D01*
X250852177Y-95185634D01*
X250661840Y-95341840D01*
X250505634Y-95532177D01*
X250389563Y-95749331D01*
X250318087Y-95984957D01*
X250293952Y-96230000D01*
X247726048Y-96230000D01*
X247707689Y-96043599D01*
X247865075Y-96043599D01*
X247927511Y-96225000D01*
X249005000Y-96225000D01*
X249005000Y-95147512D01*
X249015000Y-95147512D01*
X249015000Y-96225000D01*
X250092489Y-96225000D01*
X250154925Y-96043599D01*
X250096561Y-95823817D01*
X249996441Y-95619644D01*
X249858412Y-95438927D01*
X249687779Y-95288610D01*
X249491100Y-95174470D01*
X249275932Y-95100894D01*
X249196401Y-95085075D01*
X249015000Y-95147512D01*
X249005000Y-95147512D01*
X248823599Y-95085075D01*
X248744068Y-95100894D01*
X248528900Y-95174470D01*
X248332221Y-95288610D01*
X248161588Y-95438927D01*
X248023559Y-95619644D01*
X247923439Y-95823817D01*
X247865075Y-96043599D01*
X247707689Y-96043599D01*
X247701913Y-95984957D01*
X247630437Y-95749331D01*
X247514366Y-95532177D01*
X247358160Y-95341840D01*
X247167823Y-95185634D01*
X246950669Y-95069563D01*
X246715043Y-94998087D01*
X246531405Y-94980000D01*
X246408595Y-94980000D01*
X246224957Y-94998087D01*
X245989331Y-95069563D01*
X245772177Y-95185634D01*
X245581840Y-95341840D01*
X245425634Y-95532177D01*
X245309563Y-95749331D01*
X245238087Y-95984957D01*
X245213952Y-96230000D01*
X242646048Y-96230000D01*
X242627689Y-96043599D01*
X242785075Y-96043599D01*
X242847511Y-96225000D01*
X243925000Y-96225000D01*
X243925000Y-95147512D01*
X243935000Y-95147512D01*
X243935000Y-96225000D01*
X245012489Y-96225000D01*
X245074925Y-96043599D01*
X245016561Y-95823817D01*
X244916441Y-95619644D01*
X244778412Y-95438927D01*
X244607779Y-95288610D01*
X244411100Y-95174470D01*
X244195932Y-95100894D01*
X244116401Y-95085075D01*
X243935000Y-95147512D01*
X243925000Y-95147512D01*
X243743599Y-95085075D01*
X243664068Y-95100894D01*
X243448900Y-95174470D01*
X243252221Y-95288610D01*
X243081588Y-95438927D01*
X242943559Y-95619644D01*
X242843439Y-95823817D01*
X242785075Y-96043599D01*
X242627689Y-96043599D01*
X242621913Y-95984957D01*
X242550437Y-95749331D01*
X242434366Y-95532177D01*
X242278160Y-95341840D01*
X242087823Y-95185634D01*
X241870669Y-95069563D01*
X241635043Y-94998087D01*
X241451405Y-94980000D01*
X241328595Y-94980000D01*
X241144957Y-94998087D01*
X240909331Y-95069563D01*
X240692177Y-95185634D01*
X240501840Y-95341840D01*
X240345634Y-95532177D01*
X240229563Y-95749331D01*
X240158087Y-95984957D01*
X240133952Y-96230000D01*
X240106048Y-96230000D01*
X240081913Y-95984957D01*
X240010437Y-95749331D01*
X239894366Y-95532177D01*
X239738160Y-95341840D01*
X239547823Y-95185634D01*
X239330669Y-95069563D01*
X239095043Y-94998087D01*
X238911405Y-94980000D01*
X238788595Y-94980000D01*
X238604957Y-94998087D01*
X238369331Y-95069563D01*
X238152177Y-95185634D01*
X237961840Y-95341840D01*
X237805634Y-95532177D01*
X237689563Y-95749331D01*
X237618087Y-95984957D01*
X237593952Y-96230000D01*
X237566048Y-96230000D01*
X237541913Y-95984957D01*
X237470437Y-95749331D01*
X237354366Y-95532177D01*
X237198160Y-95341840D01*
X237007823Y-95185634D01*
X236790669Y-95069563D01*
X236555043Y-94998087D01*
X236371405Y-94980000D01*
X236248595Y-94980000D01*
X236064957Y-94998087D01*
X235829331Y-95069563D01*
X235612177Y-95185634D01*
X235421840Y-95341840D01*
X235265634Y-95532177D01*
X235149563Y-95749331D01*
X235078087Y-95984957D01*
X235053952Y-96230000D01*
X235026048Y-96230000D01*
X235001913Y-95984957D01*
X234930437Y-95749331D01*
X234814366Y-95532177D01*
X234658160Y-95341840D01*
X234467823Y-95185634D01*
X234250669Y-95069563D01*
X234015043Y-94998087D01*
X233831405Y-94980000D01*
X233708595Y-94980000D01*
X233524957Y-94998087D01*
X233289331Y-95069563D01*
X233072177Y-95185634D01*
X232881840Y-95341840D01*
X232725634Y-95532177D01*
X232609563Y-95749331D01*
X232538087Y-95984957D01*
X232513952Y-96230000D01*
X229946048Y-96230000D01*
X229927689Y-96043599D01*
X230085075Y-96043599D01*
X230147511Y-96225000D01*
X231225000Y-96225000D01*
X231225000Y-95147512D01*
X231235000Y-95147512D01*
X231235000Y-96225000D01*
X232312489Y-96225000D01*
X232374925Y-96043599D01*
X232316561Y-95823817D01*
X232216441Y-95619644D01*
X232078412Y-95438927D01*
X231907779Y-95288610D01*
X231711100Y-95174470D01*
X231495932Y-95100894D01*
X231416401Y-95085075D01*
X231235000Y-95147512D01*
X231225000Y-95147512D01*
X231043599Y-95085075D01*
X230964068Y-95100894D01*
X230748900Y-95174470D01*
X230552221Y-95288610D01*
X230381588Y-95438927D01*
X230243559Y-95619644D01*
X230143439Y-95823817D01*
X230085075Y-96043599D01*
X229927689Y-96043599D01*
X229921913Y-95984957D01*
X229850437Y-95749331D01*
X229734366Y-95532177D01*
X229578160Y-95341840D01*
X229387823Y-95185634D01*
X229170669Y-95069563D01*
X228935043Y-94998087D01*
X228751405Y-94980000D01*
X228628595Y-94980000D01*
X228444957Y-94998087D01*
X228209331Y-95069563D01*
X227992177Y-95185634D01*
X227801840Y-95341840D01*
X227645634Y-95532177D01*
X227529563Y-95749331D01*
X227458087Y-95984957D01*
X227433952Y-96230000D01*
X227406048Y-96230000D01*
X227381913Y-95984957D01*
X227310437Y-95749331D01*
X227194366Y-95532177D01*
X227038160Y-95341840D01*
X226847823Y-95185634D01*
X226630669Y-95069563D01*
X226395043Y-94998087D01*
X226211405Y-94980000D01*
X226088595Y-94980000D01*
X225904957Y-94998087D01*
X225669331Y-95069563D01*
X225452177Y-95185634D01*
X225261840Y-95341840D01*
X225105634Y-95532177D01*
X224989563Y-95749331D01*
X224918087Y-95984957D01*
X224893952Y-96230000D01*
X222326048Y-96230000D01*
X222307689Y-96043599D01*
X222465075Y-96043599D01*
X222527511Y-96225000D01*
X223605000Y-96225000D01*
X223605000Y-95147512D01*
X223615000Y-95147512D01*
X223615000Y-96225000D01*
X224692489Y-96225000D01*
X224754925Y-96043599D01*
X224696561Y-95823817D01*
X224596441Y-95619644D01*
X224458412Y-95438927D01*
X224287779Y-95288610D01*
X224091100Y-95174470D01*
X223875932Y-95100894D01*
X223796401Y-95085075D01*
X223615000Y-95147512D01*
X223605000Y-95147512D01*
X223423599Y-95085075D01*
X223344068Y-95100894D01*
X223128900Y-95174470D01*
X222932221Y-95288610D01*
X222761588Y-95438927D01*
X222623559Y-95619644D01*
X222523439Y-95823817D01*
X222465075Y-96043599D01*
X222307689Y-96043599D01*
X222301913Y-95984957D01*
X222230437Y-95749331D01*
X222114366Y-95532177D01*
X221958160Y-95341840D01*
X221767823Y-95185634D01*
X221550669Y-95069563D01*
X221315043Y-94998087D01*
X221131405Y-94980000D01*
X221008595Y-94980000D01*
X220824957Y-94998087D01*
X220589331Y-95069563D01*
X220372177Y-95185634D01*
X220181840Y-95341840D01*
X220025634Y-95532177D01*
X219909563Y-95749331D01*
X219838087Y-95984957D01*
X219813952Y-96230000D01*
X219786048Y-96230000D01*
X219761913Y-95984957D01*
X219690437Y-95749331D01*
X219574366Y-95532177D01*
X219418160Y-95341840D01*
X219227823Y-95185634D01*
X219010669Y-95069563D01*
X218775043Y-94998087D01*
X218591405Y-94980000D01*
X218468595Y-94980000D01*
X218284957Y-94998087D01*
X218049331Y-95069563D01*
X217832177Y-95185634D01*
X217641840Y-95341840D01*
X217485634Y-95532177D01*
X217369563Y-95749331D01*
X217298087Y-95984957D01*
X217273952Y-96230000D01*
X217246048Y-96230000D01*
X217221913Y-95984957D01*
X217150437Y-95749331D01*
X217034366Y-95532177D01*
X216878160Y-95341840D01*
X216687823Y-95185634D01*
X216470669Y-95069563D01*
X216235043Y-94998087D01*
X216051405Y-94980000D01*
X215928595Y-94980000D01*
X215744957Y-94998087D01*
X215509331Y-95069563D01*
X215292177Y-95185634D01*
X215101840Y-95341840D01*
X214945634Y-95532177D01*
X214829563Y-95749331D01*
X214758087Y-95984957D01*
X214733952Y-96230000D01*
X212166048Y-96230000D01*
X212147689Y-96043599D01*
X212305075Y-96043599D01*
X212367511Y-96225000D01*
X213445000Y-96225000D01*
X213445000Y-95147512D01*
X213455000Y-95147512D01*
X213455000Y-96225000D01*
X214532489Y-96225000D01*
X214594925Y-96043599D01*
X214536561Y-95823817D01*
X214436441Y-95619644D01*
X214298412Y-95438927D01*
X214127779Y-95288610D01*
X213931100Y-95174470D01*
X213715932Y-95100894D01*
X213636401Y-95085075D01*
X213455000Y-95147512D01*
X213445000Y-95147512D01*
X213263599Y-95085075D01*
X213184068Y-95100894D01*
X212968900Y-95174470D01*
X212772221Y-95288610D01*
X212601588Y-95438927D01*
X212463559Y-95619644D01*
X212363439Y-95823817D01*
X212305075Y-96043599D01*
X212147689Y-96043599D01*
X212141913Y-95984957D01*
X212070437Y-95749331D01*
X211954366Y-95532177D01*
X211798160Y-95341840D01*
X211607823Y-95185634D01*
X211390669Y-95069563D01*
X211155043Y-94998087D01*
X210971405Y-94980000D01*
X210848595Y-94980000D01*
X210664957Y-94998087D01*
X210429331Y-95069563D01*
X210212177Y-95185634D01*
X210021840Y-95341840D01*
X209865634Y-95532177D01*
X209749563Y-95749331D01*
X209678087Y-95984957D01*
X209653952Y-96230000D01*
X209626048Y-96230000D01*
X209601913Y-95984957D01*
X209530437Y-95749331D01*
X209414366Y-95532177D01*
X209258160Y-95341840D01*
X209067823Y-95185634D01*
X208850669Y-95069563D01*
X208615043Y-94998087D01*
X208431405Y-94980000D01*
X208308595Y-94980000D01*
X208124957Y-94998087D01*
X207889331Y-95069563D01*
X207672177Y-95185634D01*
X207481840Y-95341840D01*
X207325634Y-95532177D01*
X207209563Y-95749331D01*
X207138087Y-95984957D01*
X207113952Y-96230000D01*
X204704874Y-96230000D01*
X204615560Y-96140686D01*
X204328936Y-95949170D01*
X204010456Y-95817251D01*
X203672360Y-95750000D01*
X203327640Y-95750000D01*
X202989544Y-95817251D01*
X202671064Y-95949170D01*
X202384440Y-96140686D01*
X202140686Y-96384440D01*
X201949170Y-96671064D01*
X201817251Y-96989544D01*
X201750000Y-97327640D01*
X200450000Y-97327640D01*
X200450000Y-97022006D01*
X200500681Y-96505124D01*
X200644403Y-96029094D01*
X200877850Y-95590043D01*
X201192125Y-95204704D01*
X201575266Y-94887742D01*
X202012670Y-94651239D01*
X202487684Y-94504197D01*
X203003335Y-94450000D01*
X261977994Y-94450000D01*
X262494876Y-94500681D01*
X262494876Y-94500681D01*
G37*
X262494876Y-94500681D02*
X262970906Y-94644403D01*
X263409957Y-94877850D01*
X263795296Y-95192125D01*
X264112258Y-95575266D01*
X264348761Y-96012670D01*
X264495803Y-96487684D01*
X264550001Y-97003344D01*
X264550000Y-146977995D01*
X264499319Y-147494876D01*
X264355596Y-147970910D01*
X264122152Y-148409954D01*
X263807875Y-148795296D01*
X263424735Y-149112257D01*
X262987329Y-149348761D01*
X262512316Y-149495803D01*
X261996664Y-149550000D01*
X203022005Y-149550000D01*
X202505124Y-149499319D01*
X202029090Y-149355596D01*
X201590046Y-149122152D01*
X201204704Y-148807875D01*
X200887743Y-148424735D01*
X200651239Y-147987329D01*
X200504197Y-147512316D01*
X200450000Y-146996664D01*
X200450000Y-146327640D01*
X201750000Y-146327640D01*
X201750000Y-146672360D01*
X201817251Y-147010456D01*
X201949170Y-147328936D01*
X202140686Y-147615560D01*
X202384440Y-147859314D01*
X202671064Y-148050830D01*
X202989544Y-148182749D01*
X203327640Y-148250000D01*
X203672360Y-148250000D01*
X204010456Y-148182749D01*
X204328936Y-148050830D01*
X204615560Y-147859314D01*
X204859314Y-147615560D01*
X205050830Y-147328936D01*
X205182749Y-147010456D01*
X205250000Y-146672360D01*
X205250000Y-146327640D01*
X205189226Y-146022104D01*
X242550000Y-146022104D01*
X242550154Y-146023671D01*
X242550206Y-146031067D01*
X242552343Y-146051399D01*
X242552343Y-146071836D01*
X242552999Y-146078085D01*
X242596510Y-146465985D01*
X242604990Y-146505882D01*
X242612911Y-146545887D01*
X242614769Y-146551889D01*
X242732793Y-146923950D01*
X242748879Y-146961482D01*
X242764403Y-146999146D01*
X242767391Y-147004674D01*
X242955435Y-147346724D01*
X242978505Y-147380416D01*
X243001048Y-147414347D01*
X243005049Y-147419183D01*
X243005053Y-147419189D01*
X243005058Y-147419194D01*
X243255953Y-147718199D01*
X243285087Y-147746729D01*
X243313832Y-147775676D01*
X243318701Y-147779647D01*
X243622902Y-148024231D01*
X243657060Y-148046583D01*
X243690843Y-148069371D01*
X243696386Y-148072318D01*
X243696390Y-148072321D01*
X243696394Y-148072323D01*
X244042303Y-148253159D01*
X244080132Y-148268443D01*
X244117718Y-148284243D01*
X244123733Y-148286059D01*
X244498183Y-148396266D01*
X244538267Y-148403913D01*
X244578200Y-148412110D01*
X244584449Y-148412723D01*
X244584453Y-148412723D01*
X244973179Y-148448099D01*
X245013997Y-148447814D01*
X245054748Y-148448099D01*
X245061001Y-148447486D01*
X245449194Y-148406685D01*
X245489153Y-148398482D01*
X245529209Y-148390841D01*
X245535225Y-148389025D01*
X245908099Y-148273601D01*
X245945680Y-148257803D01*
X245983514Y-148242518D01*
X245989062Y-148239568D01*
X246332417Y-148053917D01*
X246366224Y-148031114D01*
X246400358Y-148008777D01*
X246405227Y-148004805D01*
X246705982Y-147755999D01*
X246734724Y-147727055D01*
X246763861Y-147698523D01*
X246767866Y-147693681D01*
X247014567Y-147391197D01*
X247037158Y-147357194D01*
X247060180Y-147323573D01*
X247063168Y-147318046D01*
X247246418Y-146973404D01*
X247261959Y-146935698D01*
X247278028Y-146898207D01*
X247279886Y-146892205D01*
X247392704Y-146518534D01*
X247400637Y-146478468D01*
X247409105Y-146438630D01*
X247409762Y-146432382D01*
X247420032Y-146327640D01*
X259750000Y-146327640D01*
X259750000Y-146672360D01*
X259817251Y-147010456D01*
X259949170Y-147328936D01*
X260140686Y-147615560D01*
X260384440Y-147859314D01*
X260671064Y-148050830D01*
X260989544Y-148182749D01*
X261327640Y-148250000D01*
X261672360Y-148250000D01*
X262010456Y-148182749D01*
X262328936Y-148050830D01*
X262615560Y-147859314D01*
X262859314Y-147615560D01*
X263050830Y-147328936D01*
X263182749Y-147010456D01*
X263250000Y-146672360D01*
X263250000Y-146327640D01*
X263182749Y-145989544D01*
X263050830Y-145671064D01*
X262859314Y-145384440D01*
X262615560Y-145140686D01*
X262328936Y-144949170D01*
X262010456Y-144817251D01*
X261672360Y-144750000D01*
X261327640Y-144750000D01*
X260989544Y-144817251D01*
X260671064Y-144949170D01*
X260384440Y-145140686D01*
X260140686Y-145384440D01*
X259949170Y-145671064D01*
X259817251Y-145989544D01*
X259750000Y-146327640D01*
X247420032Y-146327640D01*
X247447852Y-146043913D01*
X247450000Y-146022105D01*
X247450000Y-130977895D01*
X247449846Y-130976328D01*
X247449794Y-130968934D01*
X247447657Y-130948602D01*
X247447657Y-130928164D01*
X247447001Y-130921915D01*
X247403491Y-130534016D01*
X247395004Y-130494089D01*
X247387089Y-130454114D01*
X247385231Y-130448111D01*
X247267207Y-130076050D01*
X247251116Y-130038506D01*
X247235597Y-130000854D01*
X247232609Y-129995327D01*
X247044565Y-129653276D01*
X247021506Y-129619599D01*
X246998952Y-129585653D01*
X246994947Y-129580811D01*
X246744047Y-129281801D01*
X246714913Y-129253271D01*
X246686168Y-129224324D01*
X246681299Y-129220353D01*
X246377098Y-128975769D01*
X246342964Y-128953432D01*
X246309157Y-128930629D01*
X246303609Y-128927679D01*
X245957696Y-128746840D01*
X245919848Y-128731549D01*
X245882282Y-128715757D01*
X245876267Y-128713941D01*
X245501817Y-128603734D01*
X245461725Y-128596086D01*
X245421799Y-128587890D01*
X245415552Y-128587278D01*
X245415549Y-128587277D01*
X245415546Y-128587277D01*
X245026821Y-128551901D01*
X244986003Y-128552186D01*
X244945252Y-128551901D01*
X244938999Y-128552514D01*
X244550806Y-128593315D01*
X244510822Y-128601523D01*
X244470790Y-128609159D01*
X244464775Y-128610975D01*
X244091900Y-128726399D01*
X244054306Y-128742202D01*
X244016486Y-128757482D01*
X244010939Y-128760432D01*
X243667583Y-128946083D01*
X243633727Y-128968919D01*
X243599642Y-128991224D01*
X243594772Y-128995195D01*
X243294018Y-129244002D01*
X243265276Y-129272946D01*
X243236139Y-129301478D01*
X243232134Y-129306319D01*
X242985433Y-129608804D01*
X242962857Y-129642783D01*
X242939820Y-129676428D01*
X242936835Y-129681950D01*
X242936832Y-129681954D01*
X242936832Y-129681955D01*
X242753582Y-130026596D01*
X242738029Y-130064331D01*
X242721972Y-130101793D01*
X242720114Y-130107795D01*
X242607296Y-130481467D01*
X242599366Y-130521518D01*
X242590895Y-130561370D01*
X242590238Y-130567618D01*
X242552148Y-130956087D01*
X242552148Y-130956095D01*
X242550001Y-130977895D01*
X242550000Y-146022104D01*
X205189226Y-146022104D01*
X205182749Y-145989544D01*
X205050830Y-145671064D01*
X204859314Y-145384440D01*
X204615560Y-145140686D01*
X204328936Y-144949170D01*
X204010456Y-144817251D01*
X203672360Y-144750000D01*
X203327640Y-144750000D01*
X202989544Y-144817251D01*
X202671064Y-144949170D01*
X202384440Y-145140686D01*
X202140686Y-145384440D01*
X201949170Y-145671064D01*
X201817251Y-145989544D01*
X201750000Y-146327640D01*
X200450000Y-146327640D01*
X200450000Y-136852263D01*
X218000000Y-136852263D01*
X218000000Y-137147737D01*
X218057644Y-137437534D01*
X218170717Y-137710517D01*
X218334874Y-137956194D01*
X218543806Y-138165126D01*
X218789483Y-138329283D01*
X219062466Y-138442356D01*
X219352263Y-138500000D01*
X219647737Y-138500000D01*
X219937534Y-138442356D01*
X220210517Y-138329283D01*
X220456194Y-138165126D01*
X220665126Y-137956194D01*
X220829283Y-137710517D01*
X220942356Y-137437534D01*
X221000000Y-137147737D01*
X221000000Y-136852263D01*
X230500000Y-136852263D01*
X230500000Y-137147737D01*
X230557644Y-137437534D01*
X230670717Y-137710517D01*
X230834874Y-137956194D01*
X231043806Y-138165126D01*
X231289483Y-138329283D01*
X231562466Y-138442356D01*
X231852263Y-138500000D01*
X232147737Y-138500000D01*
X232437534Y-138442356D01*
X232710517Y-138329283D01*
X232956194Y-138165126D01*
X233165126Y-137956194D01*
X233329283Y-137710517D01*
X233442356Y-137437534D01*
X233500000Y-137147737D01*
X233500000Y-136852263D01*
X233442356Y-136562466D01*
X233329283Y-136289483D01*
X233165126Y-136043806D01*
X232956194Y-135834874D01*
X232710517Y-135670717D01*
X232437534Y-135557644D01*
X232147737Y-135500000D01*
X231852263Y-135500000D01*
X231562466Y-135557644D01*
X231289483Y-135670717D01*
X231043806Y-135834874D01*
X230834874Y-136043806D01*
X230670717Y-136289483D01*
X230557644Y-136562466D01*
X230500000Y-136852263D01*
X221000000Y-136852263D01*
X220942356Y-136562466D01*
X220829283Y-136289483D01*
X220665126Y-136043806D01*
X220456194Y-135834874D01*
X220210517Y-135670717D01*
X219937534Y-135557644D01*
X219647737Y-135500000D01*
X219352263Y-135500000D01*
X219062466Y-135557644D01*
X218789483Y-135670717D01*
X218543806Y-135834874D01*
X218334874Y-136043806D01*
X218170717Y-136289483D01*
X218057644Y-136562466D01*
X218000000Y-136852263D01*
X200450000Y-136852263D01*
X200450000Y-120976669D01*
X212525000Y-120976669D01*
X212525001Y-132023332D01*
X212527091Y-132044552D01*
X212527004Y-132057014D01*
X212527651Y-132063614D01*
X212568452Y-132451807D01*
X212577110Y-132493986D01*
X212585176Y-132536268D01*
X212587093Y-132542617D01*
X212702517Y-132915492D01*
X212719205Y-132955193D01*
X212735327Y-132995096D01*
X212738436Y-133000943D01*
X212738440Y-133000952D01*
X212738445Y-133000959D01*
X212924092Y-133344307D01*
X212948161Y-133379990D01*
X212971740Y-133416024D01*
X212975932Y-133421163D01*
X213224739Y-133721918D01*
X213255284Y-133752250D01*
X213285408Y-133783012D01*
X213290512Y-133787234D01*
X213290518Y-133787240D01*
X213290525Y-133787244D01*
X213593003Y-134033940D01*
X213628821Y-134057738D01*
X213664383Y-134082088D01*
X213670217Y-134085242D01*
X214014859Y-134268492D01*
X214054660Y-134284897D01*
X214094234Y-134301858D01*
X214100569Y-134303819D01*
X214474241Y-134416637D01*
X214516486Y-134425002D01*
X214558583Y-134433950D01*
X214565179Y-134434643D01*
X214953648Y-134472733D01*
X214953650Y-134472733D01*
X214976668Y-134475000D01*
X231023332Y-134475000D01*
X231044562Y-134472909D01*
X231057014Y-134472996D01*
X231063614Y-134472349D01*
X231451807Y-134431548D01*
X231493986Y-134422890D01*
X231536268Y-134414824D01*
X231542617Y-134412907D01*
X231915492Y-134297483D01*
X231955193Y-134280795D01*
X231995096Y-134264673D01*
X232000943Y-134261564D01*
X232000952Y-134261560D01*
X232000959Y-134261555D01*
X232344307Y-134075908D01*
X232379990Y-134051839D01*
X232416024Y-134028260D01*
X232421163Y-134024068D01*
X232721918Y-133775261D01*
X232752250Y-133744716D01*
X232783012Y-133714592D01*
X232787234Y-133709488D01*
X232787240Y-133709482D01*
X232787244Y-133709475D01*
X233033940Y-133406997D01*
X233057738Y-133371179D01*
X233082088Y-133335617D01*
X233085242Y-133329783D01*
X233268492Y-132985141D01*
X233284897Y-132945340D01*
X233301858Y-132905766D01*
X233303819Y-132899431D01*
X233416637Y-132525759D01*
X233425002Y-132483514D01*
X233433950Y-132441417D01*
X233434643Y-132434821D01*
X233472733Y-132046352D01*
X233472733Y-132046350D01*
X233475000Y-132023332D01*
X233475000Y-120976668D01*
X233472909Y-120955438D01*
X233472996Y-120942986D01*
X233472349Y-120936385D01*
X233431548Y-120548193D01*
X233422891Y-120506020D01*
X233414824Y-120463732D01*
X233412907Y-120457383D01*
X233297483Y-120084508D01*
X233280795Y-120044807D01*
X233264673Y-120004904D01*
X233261564Y-119999057D01*
X233261560Y-119999048D01*
X233261555Y-119999041D01*
X233075908Y-119655693D01*
X233051839Y-119620010D01*
X233028260Y-119583976D01*
X233024068Y-119578837D01*
X232775261Y-119278082D01*
X232744700Y-119247733D01*
X232714592Y-119216988D01*
X232709482Y-119212760D01*
X232406997Y-118966060D01*
X232371145Y-118942240D01*
X232335616Y-118917912D01*
X232329787Y-118914761D01*
X232329783Y-118914758D01*
X232329779Y-118914756D01*
X231985141Y-118731508D01*
X231945311Y-118715091D01*
X231905766Y-118698142D01*
X231899438Y-118696183D01*
X231899432Y-118696181D01*
X231899426Y-118696180D01*
X231525759Y-118583363D01*
X231483514Y-118574998D01*
X231441417Y-118566050D01*
X231434821Y-118565357D01*
X231046352Y-118527267D01*
X231046350Y-118527267D01*
X231023332Y-118525000D01*
X214976668Y-118525000D01*
X214955438Y-118527091D01*
X214942986Y-118527004D01*
X214936385Y-118527651D01*
X214548193Y-118568452D01*
X214506020Y-118577109D01*
X214463732Y-118585176D01*
X214457383Y-118587093D01*
X214084508Y-118702517D01*
X214044807Y-118719205D01*
X214004904Y-118735327D01*
X213999057Y-118738436D01*
X213999048Y-118738440D01*
X213999041Y-118738445D01*
X213655693Y-118924092D01*
X213620010Y-118948161D01*
X213583976Y-118971740D01*
X213578837Y-118975932D01*
X213278082Y-119224739D01*
X213247733Y-119255300D01*
X213216988Y-119285408D01*
X213212760Y-119290518D01*
X212966060Y-119593003D01*
X212942240Y-119628855D01*
X212917912Y-119664384D01*
X212914761Y-119670213D01*
X212914758Y-119670217D01*
X212914758Y-119670218D01*
X212731508Y-120014859D01*
X212715091Y-120054689D01*
X212698142Y-120094234D01*
X212696183Y-120100562D01*
X212696181Y-120100568D01*
X212696181Y-120100570D01*
X212583363Y-120474241D01*
X212574998Y-120516486D01*
X212566050Y-120558583D01*
X212565357Y-120565179D01*
X212527267Y-120953648D01*
X212525000Y-120976669D01*
X200450000Y-120976669D01*
X200450000Y-115852263D01*
X218000000Y-115852263D01*
X218000000Y-116147737D01*
X218057644Y-116437534D01*
X218170717Y-116710517D01*
X218334874Y-116956194D01*
X218543806Y-117165126D01*
X218789483Y-117329283D01*
X219062466Y-117442356D01*
X219352263Y-117500000D01*
X219647737Y-117500000D01*
X219937534Y-117442356D01*
X220210517Y-117329283D01*
X220456194Y-117165126D01*
X220665126Y-116956194D01*
X220829283Y-116710517D01*
X220942356Y-116437534D01*
X221000000Y-116147737D01*
X221000000Y-115852263D01*
X230500000Y-115852263D01*
X230500000Y-116147737D01*
X230557644Y-116437534D01*
X230670717Y-116710517D01*
X230834874Y-116956194D01*
X231043806Y-117165126D01*
X231289483Y-117329283D01*
X231562466Y-117442356D01*
X231852263Y-117500000D01*
X232147737Y-117500000D01*
X232437534Y-117442356D01*
X232710517Y-117329283D01*
X232956194Y-117165126D01*
X233165126Y-116956194D01*
X233329283Y-116710517D01*
X233442356Y-116437534D01*
X233500000Y-116147737D01*
X233500000Y-115852263D01*
X233442356Y-115562466D01*
X233329283Y-115289483D01*
X233165126Y-115043806D01*
X232956194Y-114834874D01*
X232710517Y-114670717D01*
X232437534Y-114557644D01*
X232147737Y-114500000D01*
X231852263Y-114500000D01*
X231562466Y-114557644D01*
X231289483Y-114670717D01*
X231043806Y-114834874D01*
X230834874Y-115043806D01*
X230670717Y-115289483D01*
X230557644Y-115562466D01*
X230500000Y-115852263D01*
X221000000Y-115852263D01*
X220942356Y-115562466D01*
X220829283Y-115289483D01*
X220665126Y-115043806D01*
X220456194Y-114834874D01*
X220210517Y-114670717D01*
X219937534Y-114557644D01*
X219647737Y-114500000D01*
X219352263Y-114500000D01*
X219062466Y-114557644D01*
X218789483Y-114670717D01*
X218543806Y-114834874D01*
X218334874Y-115043806D01*
X218170717Y-115289483D01*
X218057644Y-115562466D01*
X218000000Y-115852263D01*
X200450000Y-115852263D01*
X200450000Y-109431056D01*
X228300005Y-109431056D01*
X228300005Y-109568944D01*
X228326906Y-109704182D01*
X228379673Y-109831574D01*
X228456279Y-109946224D01*
X228553781Y-110043726D01*
X228668431Y-110120332D01*
X228795823Y-110173099D01*
X228931061Y-110200000D01*
X229068949Y-110200000D01*
X229204187Y-110173099D01*
X229331579Y-110120332D01*
X229446229Y-110043726D01*
X229543731Y-109946224D01*
X229620337Y-109831574D01*
X229673104Y-109704182D01*
X229700005Y-109568944D01*
X229700005Y-109431056D01*
X229673104Y-109295818D01*
X229620337Y-109168426D01*
X229543731Y-109053776D01*
X229525005Y-109035050D01*
X229525005Y-108131069D01*
X230599987Y-108131069D01*
X230599987Y-108268957D01*
X230626888Y-108404195D01*
X230679655Y-108531587D01*
X230756261Y-108646237D01*
X230853763Y-108743739D01*
X230968413Y-108820345D01*
X231095805Y-108873112D01*
X231231043Y-108900013D01*
X231368931Y-108900013D01*
X231504169Y-108873112D01*
X231631561Y-108820345D01*
X231746211Y-108743739D01*
X231843713Y-108646237D01*
X231920319Y-108531587D01*
X231973086Y-108404195D01*
X231999987Y-108268957D01*
X231999987Y-108131069D01*
X231973086Y-107995831D01*
X231920319Y-107868439D01*
X231843713Y-107753789D01*
X231824987Y-107735063D01*
X231824987Y-104764963D01*
X231843726Y-104746224D01*
X231920332Y-104631574D01*
X231973099Y-104504182D01*
X232000000Y-104368944D01*
X232000000Y-104231056D01*
X231973099Y-104095818D01*
X231920332Y-103968426D01*
X231843726Y-103853776D01*
X231746224Y-103756274D01*
X231631574Y-103679668D01*
X231504182Y-103626901D01*
X231368944Y-103600000D01*
X231231056Y-103600000D01*
X231095818Y-103626901D01*
X230968426Y-103679668D01*
X230853776Y-103756274D01*
X230756274Y-103853776D01*
X230679668Y-103968426D01*
X230626901Y-104095818D01*
X230600000Y-104231056D01*
X230600000Y-104368944D01*
X230626901Y-104504182D01*
X230679668Y-104631574D01*
X230756274Y-104746224D01*
X230774988Y-104764938D01*
X230774987Y-107735063D01*
X230756261Y-107753789D01*
X230679655Y-107868439D01*
X230626888Y-107995831D01*
X230599987Y-108131069D01*
X229525005Y-108131069D01*
X229525005Y-105217457D01*
X229742463Y-105000000D01*
X229768944Y-105000000D01*
X229904182Y-104973099D01*
X230031574Y-104920332D01*
X230146224Y-104843726D01*
X230243726Y-104746224D01*
X230320332Y-104631574D01*
X230373099Y-104504182D01*
X230400000Y-104368944D01*
X230400000Y-104231056D01*
X230373099Y-104095818D01*
X230320332Y-103968426D01*
X230243726Y-103853776D01*
X230146224Y-103756274D01*
X230031574Y-103679668D01*
X229904182Y-103626901D01*
X229768944Y-103600000D01*
X229631056Y-103600000D01*
X229495818Y-103626901D01*
X229368426Y-103679668D01*
X229253776Y-103756274D01*
X229156274Y-103853776D01*
X229079668Y-103968426D01*
X229026901Y-104095818D01*
X229000000Y-104231056D01*
X229000000Y-104257537D01*
X228647009Y-104610530D01*
X228626979Y-104626968D01*
X228610540Y-104646999D01*
X228561372Y-104706910D01*
X228512622Y-104798115D01*
X228482602Y-104897078D01*
X228472466Y-104999995D01*
X228475006Y-105025785D01*
X228475005Y-109035050D01*
X228456279Y-109053776D01*
X228379673Y-109168426D01*
X228326906Y-109295818D01*
X228300005Y-109431056D01*
X200450000Y-109431056D01*
X200450000Y-97327640D01*
X201750000Y-97327640D01*
X201750000Y-97672360D01*
X201817251Y-98010456D01*
X201949170Y-98328936D01*
X202140686Y-98615560D01*
X202384440Y-98859314D01*
X202671064Y-99050830D01*
X202989544Y-99182749D01*
X203327640Y-99250000D01*
X203672360Y-99250000D01*
X204010456Y-99182749D01*
X204328936Y-99050830D01*
X204615560Y-98859314D01*
X204859314Y-98615560D01*
X205050830Y-98328936D01*
X205182749Y-98010456D01*
X205200741Y-97920000D01*
X207118065Y-97920000D01*
X207118065Y-99620000D01*
X207125788Y-99698414D01*
X207148660Y-99773814D01*
X207185803Y-99843303D01*
X207235789Y-99904211D01*
X207296697Y-99954197D01*
X207366186Y-99991340D01*
X207441586Y-100014212D01*
X207520000Y-100021935D01*
X209220000Y-100021935D01*
X209298414Y-100014212D01*
X209373814Y-99991340D01*
X209443303Y-99954197D01*
X209504211Y-99904211D01*
X209554197Y-99843303D01*
X209591340Y-99773814D01*
X209614212Y-99698414D01*
X209621935Y-99620000D01*
X209621935Y-98770000D01*
X209653952Y-98770000D01*
X209678087Y-99015043D01*
X209749563Y-99250669D01*
X209865634Y-99467823D01*
X210021840Y-99658160D01*
X210212177Y-99814366D01*
X210429331Y-99930437D01*
X210664957Y-100001913D01*
X210848595Y-100020000D01*
X210971405Y-100020000D01*
X211155043Y-100001913D01*
X211390669Y-99930437D01*
X211607823Y-99814366D01*
X211798160Y-99658160D01*
X211954366Y-99467823D01*
X212070437Y-99250669D01*
X212141913Y-99015043D01*
X212166048Y-98770000D01*
X212193952Y-98770000D01*
X212218087Y-99015043D01*
X212289563Y-99250669D01*
X212405634Y-99467823D01*
X212561840Y-99658160D01*
X212752177Y-99814366D01*
X212969331Y-99930437D01*
X213204957Y-100001913D01*
X213388595Y-100020000D01*
X213511405Y-100020000D01*
X213695043Y-100001913D01*
X213930669Y-99930437D01*
X214147823Y-99814366D01*
X214338160Y-99658160D01*
X214494366Y-99467823D01*
X214610437Y-99250669D01*
X214681913Y-99015043D01*
X214706048Y-98770000D01*
X214733952Y-98770000D01*
X214758087Y-99015043D01*
X214829563Y-99250669D01*
X214945634Y-99467823D01*
X215101840Y-99658160D01*
X215292177Y-99814366D01*
X215509331Y-99930437D01*
X215744957Y-100001913D01*
X215928595Y-100020000D01*
X216051405Y-100020000D01*
X216235043Y-100001913D01*
X216470669Y-99930437D01*
X216687823Y-99814366D01*
X216878160Y-99658160D01*
X217034366Y-99467823D01*
X217150437Y-99250669D01*
X217221913Y-99015043D01*
X217227688Y-98956401D01*
X217385075Y-98956401D01*
X217443439Y-99176183D01*
X217543559Y-99380356D01*
X217681588Y-99561073D01*
X217852221Y-99711390D01*
X218048900Y-99825530D01*
X218264068Y-99899106D01*
X218343599Y-99914925D01*
X218525000Y-99852488D01*
X218525000Y-98775000D01*
X218535000Y-98775000D01*
X218535000Y-99852488D01*
X218716401Y-99914925D01*
X218795932Y-99899106D01*
X219011100Y-99825530D01*
X219207779Y-99711390D01*
X219378412Y-99561073D01*
X219516441Y-99380356D01*
X219616561Y-99176183D01*
X219674925Y-98956401D01*
X219612489Y-98775000D01*
X218535000Y-98775000D01*
X218525000Y-98775000D01*
X217447511Y-98775000D01*
X217385075Y-98956401D01*
X217227688Y-98956401D01*
X217246048Y-98770000D01*
X219813952Y-98770000D01*
X219838087Y-99015043D01*
X219909563Y-99250669D01*
X220025634Y-99467823D01*
X220181840Y-99658160D01*
X220372177Y-99814366D01*
X220589331Y-99930437D01*
X220824957Y-100001913D01*
X221008595Y-100020000D01*
X221131405Y-100020000D01*
X221315043Y-100001913D01*
X221550669Y-99930437D01*
X221767823Y-99814366D01*
X221958160Y-99658160D01*
X222114366Y-99467823D01*
X222230437Y-99250669D01*
X222301913Y-99015043D01*
X222326048Y-98770000D01*
X222353952Y-98770000D01*
X222378087Y-99015043D01*
X222449563Y-99250669D01*
X222565634Y-99467823D01*
X222721840Y-99658160D01*
X222912177Y-99814366D01*
X223129331Y-99930437D01*
X223364957Y-100001913D01*
X223548595Y-100020000D01*
X223671405Y-100020000D01*
X223855043Y-100001913D01*
X224090669Y-99930437D01*
X224307823Y-99814366D01*
X224498160Y-99658160D01*
X224654366Y-99467823D01*
X224770437Y-99250669D01*
X224841913Y-99015043D01*
X224866048Y-98770000D01*
X224893952Y-98770000D01*
X224918087Y-99015043D01*
X224989563Y-99250669D01*
X225105634Y-99467823D01*
X225261840Y-99658160D01*
X225452177Y-99814366D01*
X225669331Y-99930437D01*
X225904957Y-100001913D01*
X226088595Y-100020000D01*
X226211405Y-100020000D01*
X226395043Y-100001913D01*
X226630669Y-99930437D01*
X226847823Y-99814366D01*
X227038160Y-99658160D01*
X227194366Y-99467823D01*
X227310437Y-99250669D01*
X227381913Y-99015043D01*
X227406048Y-98770000D01*
X227433952Y-98770000D01*
X227458087Y-99015043D01*
X227529563Y-99250669D01*
X227645634Y-99467823D01*
X227801840Y-99658160D01*
X227992177Y-99814366D01*
X228209331Y-99930437D01*
X228444957Y-100001913D01*
X228628595Y-100020000D01*
X228751405Y-100020000D01*
X228935043Y-100001913D01*
X229122567Y-99945029D01*
X229630534Y-100452996D01*
X229646973Y-100473027D01*
X229726914Y-100538633D01*
X229818119Y-100587383D01*
X229917082Y-100617403D01*
X229994212Y-100625000D01*
X229994219Y-100625000D01*
X230019999Y-100627539D01*
X230045779Y-100625000D01*
X233049478Y-100625000D01*
X233791949Y-101367472D01*
X233791949Y-101393954D01*
X233818850Y-101529192D01*
X233871617Y-101656584D01*
X233948223Y-101771234D01*
X234045725Y-101868736D01*
X234160375Y-101945342D01*
X234287767Y-101998109D01*
X234423005Y-102025010D01*
X234560893Y-102025010D01*
X234696131Y-101998109D01*
X234823523Y-101945342D01*
X234938173Y-101868736D01*
X235035675Y-101771234D01*
X235112281Y-101656584D01*
X235165048Y-101529192D01*
X235191949Y-101393954D01*
X235191949Y-101256066D01*
X235165048Y-101120828D01*
X235112281Y-100993436D01*
X235035675Y-100878786D01*
X234938173Y-100781284D01*
X234823523Y-100704678D01*
X234696131Y-100651911D01*
X234560893Y-100625010D01*
X234534411Y-100625010D01*
X233920614Y-100011214D01*
X234015043Y-100001913D01*
X234250669Y-99930437D01*
X234467823Y-99814366D01*
X234658160Y-99658160D01*
X234814366Y-99467823D01*
X234930437Y-99250669D01*
X235001913Y-99015043D01*
X235026048Y-98770000D01*
X235053952Y-98770000D01*
X235078087Y-99015043D01*
X235149563Y-99250669D01*
X235265634Y-99467823D01*
X235421840Y-99658160D01*
X235612177Y-99814366D01*
X235829331Y-99930437D01*
X236064957Y-100001913D01*
X236248595Y-100020000D01*
X236371405Y-100020000D01*
X236555043Y-100001913D01*
X236790669Y-99930437D01*
X237007823Y-99814366D01*
X237198160Y-99658160D01*
X237354366Y-99467823D01*
X237470437Y-99250669D01*
X237541913Y-99015043D01*
X237547688Y-98956401D01*
X237705075Y-98956401D01*
X237763439Y-99176183D01*
X237863559Y-99380356D01*
X238001588Y-99561073D01*
X238172221Y-99711390D01*
X238368900Y-99825530D01*
X238584068Y-99899106D01*
X238663599Y-99914925D01*
X238845000Y-99852488D01*
X238845000Y-98775000D01*
X238855000Y-98775000D01*
X238855000Y-99852488D01*
X239036401Y-99914925D01*
X239115932Y-99899106D01*
X239331100Y-99825530D01*
X239527779Y-99711390D01*
X239698412Y-99561073D01*
X239836441Y-99380356D01*
X239936561Y-99176183D01*
X239994925Y-98956401D01*
X239932489Y-98775000D01*
X238855000Y-98775000D01*
X238845000Y-98775000D01*
X237767511Y-98775000D01*
X237705075Y-98956401D01*
X237547688Y-98956401D01*
X237566048Y-98770000D01*
X240133952Y-98770000D01*
X240158087Y-99015043D01*
X240229563Y-99250669D01*
X240345634Y-99467823D01*
X240501840Y-99658160D01*
X240692177Y-99814366D01*
X240909331Y-99930437D01*
X241144957Y-100001913D01*
X241328595Y-100020000D01*
X241451405Y-100020000D01*
X241635043Y-100001913D01*
X241870669Y-99930437D01*
X242087823Y-99814366D01*
X242278160Y-99658160D01*
X242434366Y-99467823D01*
X242550437Y-99250669D01*
X242621913Y-99015043D01*
X242646048Y-98770000D01*
X242673952Y-98770000D01*
X242698087Y-99015043D01*
X242769563Y-99250669D01*
X242885634Y-99467823D01*
X243041840Y-99658160D01*
X243232177Y-99814366D01*
X243449331Y-99930437D01*
X243684957Y-100001913D01*
X243868595Y-100020000D01*
X243991405Y-100020000D01*
X244175043Y-100001913D01*
X244410669Y-99930437D01*
X244627823Y-99814366D01*
X244818160Y-99658160D01*
X244974366Y-99467823D01*
X245090437Y-99250669D01*
X245161913Y-99015043D01*
X245186048Y-98770000D01*
X245213952Y-98770000D01*
X245238087Y-99015043D01*
X245309563Y-99250669D01*
X245425634Y-99467823D01*
X245581840Y-99658160D01*
X245772177Y-99814366D01*
X245989331Y-99930437D01*
X246224957Y-100001913D01*
X246408595Y-100020000D01*
X246531405Y-100020000D01*
X246715043Y-100001913D01*
X246950669Y-99930437D01*
X247167823Y-99814366D01*
X247358160Y-99658160D01*
X247514366Y-99467823D01*
X247630437Y-99250669D01*
X247701913Y-99015043D01*
X247726048Y-98770000D01*
X247753952Y-98770000D01*
X247778087Y-99015043D01*
X247849563Y-99250669D01*
X247965634Y-99467823D01*
X248121840Y-99658160D01*
X248312177Y-99814366D01*
X248529331Y-99930437D01*
X248764957Y-100001913D01*
X248948595Y-100020000D01*
X249071405Y-100020000D01*
X249255043Y-100001913D01*
X249490669Y-99930437D01*
X249707823Y-99814366D01*
X249898160Y-99658160D01*
X250054366Y-99467823D01*
X250170437Y-99250669D01*
X250241913Y-99015043D01*
X250266048Y-98770000D01*
X250293952Y-98770000D01*
X250318087Y-99015043D01*
X250389563Y-99250669D01*
X250505634Y-99467823D01*
X250661840Y-99658160D01*
X250852177Y-99814366D01*
X251069331Y-99930437D01*
X251304957Y-100001913D01*
X251488595Y-100020000D01*
X251611405Y-100020000D01*
X251795043Y-100001913D01*
X252030669Y-99930437D01*
X252247823Y-99814366D01*
X252438160Y-99658160D01*
X252594366Y-99467823D01*
X252710437Y-99250669D01*
X252781913Y-99015043D01*
X252806048Y-98770000D01*
X252833952Y-98770000D01*
X252858087Y-99015043D01*
X252929563Y-99250669D01*
X253045634Y-99467823D01*
X253201840Y-99658160D01*
X253392177Y-99814366D01*
X253609331Y-99930437D01*
X253844957Y-100001913D01*
X254028595Y-100020000D01*
X254151405Y-100020000D01*
X254335043Y-100001913D01*
X254570669Y-99930437D01*
X254787823Y-99814366D01*
X254978160Y-99658160D01*
X255134366Y-99467823D01*
X255250437Y-99250669D01*
X255321913Y-99015043D01*
X255327688Y-98956401D01*
X255485075Y-98956401D01*
X255543439Y-99176183D01*
X255643559Y-99380356D01*
X255781588Y-99561073D01*
X255952221Y-99711390D01*
X256148900Y-99825530D01*
X256364068Y-99899106D01*
X256443599Y-99914925D01*
X256625000Y-99852488D01*
X256625000Y-98775000D01*
X256635000Y-98775000D01*
X256635000Y-99852488D01*
X256816401Y-99914925D01*
X256895932Y-99899106D01*
X257111100Y-99825530D01*
X257307779Y-99711390D01*
X257478412Y-99561073D01*
X257616441Y-99380356D01*
X257716561Y-99176183D01*
X257774925Y-98956401D01*
X257712489Y-98775000D01*
X256635000Y-98775000D01*
X256625000Y-98775000D01*
X255547511Y-98775000D01*
X255485075Y-98956401D01*
X255327688Y-98956401D01*
X255346048Y-98770000D01*
X255327689Y-98583599D01*
X255485075Y-98583599D01*
X255547511Y-98765000D01*
X256625000Y-98765000D01*
X256625000Y-97687512D01*
X256635000Y-97687512D01*
X256635000Y-98765000D01*
X257712489Y-98765000D01*
X257774925Y-98583599D01*
X257716561Y-98363817D01*
X257616441Y-98159644D01*
X257478412Y-97978927D01*
X257307779Y-97828610D01*
X257111100Y-97714470D01*
X256895932Y-97640894D01*
X256816401Y-97625075D01*
X256635000Y-97687512D01*
X256625000Y-97687512D01*
X256443599Y-97625075D01*
X256364068Y-97640894D01*
X256148900Y-97714470D01*
X255952221Y-97828610D01*
X255781588Y-97978927D01*
X255643559Y-98159644D01*
X255543439Y-98363817D01*
X255485075Y-98583599D01*
X255327689Y-98583599D01*
X255321913Y-98524957D01*
X255250437Y-98289331D01*
X255134366Y-98072177D01*
X254978160Y-97881840D01*
X254787823Y-97725634D01*
X254570669Y-97609563D01*
X254335043Y-97538087D01*
X254151405Y-97520000D01*
X254028595Y-97520000D01*
X253844957Y-97538087D01*
X253609331Y-97609563D01*
X253392177Y-97725634D01*
X253201840Y-97881840D01*
X253045634Y-98072177D01*
X252929563Y-98289331D01*
X252858087Y-98524957D01*
X252833952Y-98770000D01*
X252806048Y-98770000D01*
X252781913Y-98524957D01*
X252710437Y-98289331D01*
X252594366Y-98072177D01*
X252438160Y-97881840D01*
X252247823Y-97725634D01*
X252030669Y-97609563D01*
X251795043Y-97538087D01*
X251611405Y-97520000D01*
X251488595Y-97520000D01*
X251304957Y-97538087D01*
X251069331Y-97609563D01*
X250852177Y-97725634D01*
X250661840Y-97881840D01*
X250505634Y-98072177D01*
X250389563Y-98289331D01*
X250318087Y-98524957D01*
X250293952Y-98770000D01*
X250266048Y-98770000D01*
X250241913Y-98524957D01*
X250170437Y-98289331D01*
X250054366Y-98072177D01*
X249898160Y-97881840D01*
X249707823Y-97725634D01*
X249490669Y-97609563D01*
X249255043Y-97538087D01*
X249071405Y-97520000D01*
X248948595Y-97520000D01*
X248764957Y-97538087D01*
X248529331Y-97609563D01*
X248312177Y-97725634D01*
X248121840Y-97881840D01*
X247965634Y-98072177D01*
X247849563Y-98289331D01*
X247778087Y-98524957D01*
X247753952Y-98770000D01*
X247726048Y-98770000D01*
X247701913Y-98524957D01*
X247630437Y-98289331D01*
X247514366Y-98072177D01*
X247358160Y-97881840D01*
X247167823Y-97725634D01*
X246950669Y-97609563D01*
X246715043Y-97538087D01*
X246531405Y-97520000D01*
X246408595Y-97520000D01*
X246224957Y-97538087D01*
X245989331Y-97609563D01*
X245772177Y-97725634D01*
X245581840Y-97881840D01*
X245425634Y-98072177D01*
X245309563Y-98289331D01*
X245238087Y-98524957D01*
X245213952Y-98770000D01*
X245186048Y-98770000D01*
X245161913Y-98524957D01*
X245090437Y-98289331D01*
X244974366Y-98072177D01*
X244818160Y-97881840D01*
X244627823Y-97725634D01*
X244410669Y-97609563D01*
X244175043Y-97538087D01*
X243991405Y-97520000D01*
X243868595Y-97520000D01*
X243684957Y-97538087D01*
X243449331Y-97609563D01*
X243232177Y-97725634D01*
X243041840Y-97881840D01*
X242885634Y-98072177D01*
X242769563Y-98289331D01*
X242698087Y-98524957D01*
X242673952Y-98770000D01*
X242646048Y-98770000D01*
X242621913Y-98524957D01*
X242550437Y-98289331D01*
X242434366Y-98072177D01*
X242278160Y-97881840D01*
X242087823Y-97725634D01*
X241870669Y-97609563D01*
X241635043Y-97538087D01*
X241451405Y-97520000D01*
X241328595Y-97520000D01*
X241144957Y-97538087D01*
X240909331Y-97609563D01*
X240692177Y-97725634D01*
X240501840Y-97881840D01*
X240345634Y-98072177D01*
X240229563Y-98289331D01*
X240158087Y-98524957D01*
X240133952Y-98770000D01*
X237566048Y-98770000D01*
X237547689Y-98583599D01*
X237705075Y-98583599D01*
X237767511Y-98765000D01*
X238845000Y-98765000D01*
X238845000Y-97687512D01*
X238855000Y-97687512D01*
X238855000Y-98765000D01*
X239932489Y-98765000D01*
X239994925Y-98583599D01*
X239936561Y-98363817D01*
X239836441Y-98159644D01*
X239698412Y-97978927D01*
X239527779Y-97828610D01*
X239331100Y-97714470D01*
X239115932Y-97640894D01*
X239036401Y-97625075D01*
X238855000Y-97687512D01*
X238845000Y-97687512D01*
X238663599Y-97625075D01*
X238584068Y-97640894D01*
X238368900Y-97714470D01*
X238172221Y-97828610D01*
X238001588Y-97978927D01*
X237863559Y-98159644D01*
X237763439Y-98363817D01*
X237705075Y-98583599D01*
X237547689Y-98583599D01*
X237541913Y-98524957D01*
X237470437Y-98289331D01*
X237354366Y-98072177D01*
X237198160Y-97881840D01*
X237007823Y-97725634D01*
X236790669Y-97609563D01*
X236555043Y-97538087D01*
X236371405Y-97520000D01*
X236248595Y-97520000D01*
X236064957Y-97538087D01*
X235829331Y-97609563D01*
X235612177Y-97725634D01*
X235421840Y-97881840D01*
X235265634Y-98072177D01*
X235149563Y-98289331D01*
X235078087Y-98524957D01*
X235053952Y-98770000D01*
X235026048Y-98770000D01*
X235001913Y-98524957D01*
X234930437Y-98289331D01*
X234814366Y-98072177D01*
X234658160Y-97881840D01*
X234467823Y-97725634D01*
X234250669Y-97609563D01*
X234015043Y-97538087D01*
X233831405Y-97520000D01*
X233708595Y-97520000D01*
X233524957Y-97538087D01*
X233289331Y-97609563D01*
X233072177Y-97725634D01*
X232881840Y-97881840D01*
X232725634Y-98072177D01*
X232609563Y-98289331D01*
X232538087Y-98524957D01*
X232513952Y-98770000D01*
X232538087Y-99015043D01*
X232609563Y-99250669D01*
X232725634Y-99467823D01*
X232813592Y-99575000D01*
X232186408Y-99575000D01*
X232274366Y-99467823D01*
X232390437Y-99250669D01*
X232461913Y-99015043D01*
X232486048Y-98770000D01*
X232461913Y-98524957D01*
X232390437Y-98289331D01*
X232274366Y-98072177D01*
X232118160Y-97881840D01*
X231927823Y-97725634D01*
X231710669Y-97609563D01*
X231475043Y-97538087D01*
X231291405Y-97520000D01*
X231168595Y-97520000D01*
X230984957Y-97538087D01*
X230749331Y-97609563D01*
X230532177Y-97725634D01*
X230341840Y-97881840D01*
X230185634Y-98072177D01*
X230069563Y-98289331D01*
X229998087Y-98524957D01*
X229973952Y-98770000D01*
X229998087Y-99015043D01*
X230069563Y-99250669D01*
X230185634Y-99467823D01*
X230273592Y-99575000D01*
X230237462Y-99575000D01*
X229865029Y-99202567D01*
X229921913Y-99015043D01*
X229946048Y-98770000D01*
X229921913Y-98524957D01*
X229850437Y-98289331D01*
X229734366Y-98072177D01*
X229578160Y-97881840D01*
X229387823Y-97725634D01*
X229170669Y-97609563D01*
X228935043Y-97538087D01*
X228751405Y-97520000D01*
X228628595Y-97520000D01*
X228444957Y-97538087D01*
X228209331Y-97609563D01*
X227992177Y-97725634D01*
X227801840Y-97881840D01*
X227645634Y-98072177D01*
X227529563Y-98289331D01*
X227458087Y-98524957D01*
X227433952Y-98770000D01*
X227406048Y-98770000D01*
X227381913Y-98524957D01*
X227310437Y-98289331D01*
X227194366Y-98072177D01*
X227038160Y-97881840D01*
X226847823Y-97725634D01*
X226630669Y-97609563D01*
X226395043Y-97538087D01*
X226211405Y-97520000D01*
X226088595Y-97520000D01*
X225904957Y-97538087D01*
X225669331Y-97609563D01*
X225452177Y-97725634D01*
X225261840Y-97881840D01*
X225105634Y-98072177D01*
X224989563Y-98289331D01*
X224918087Y-98524957D01*
X224893952Y-98770000D01*
X224866048Y-98770000D01*
X224841913Y-98524957D01*
X224770437Y-98289331D01*
X224654366Y-98072177D01*
X224498160Y-97881840D01*
X224307823Y-97725634D01*
X224090669Y-97609563D01*
X223855043Y-97538087D01*
X223671405Y-97520000D01*
X223548595Y-97520000D01*
X223364957Y-97538087D01*
X223129331Y-97609563D01*
X222912177Y-97725634D01*
X222721840Y-97881840D01*
X222565634Y-98072177D01*
X222449563Y-98289331D01*
X222378087Y-98524957D01*
X222353952Y-98770000D01*
X222326048Y-98770000D01*
X222301913Y-98524957D01*
X222230437Y-98289331D01*
X222114366Y-98072177D01*
X221958160Y-97881840D01*
X221767823Y-97725634D01*
X221550669Y-97609563D01*
X221315043Y-97538087D01*
X221131405Y-97520000D01*
X221008595Y-97520000D01*
X220824957Y-97538087D01*
X220589331Y-97609563D01*
X220372177Y-97725634D01*
X220181840Y-97881840D01*
X220025634Y-98072177D01*
X219909563Y-98289331D01*
X219838087Y-98524957D01*
X219813952Y-98770000D01*
X217246048Y-98770000D01*
X217227689Y-98583599D01*
X217385075Y-98583599D01*
X217447511Y-98765000D01*
X218525000Y-98765000D01*
X218525000Y-97687512D01*
X218535000Y-97687512D01*
X218535000Y-98765000D01*
X219612489Y-98765000D01*
X219674925Y-98583599D01*
X219616561Y-98363817D01*
X219516441Y-98159644D01*
X219378412Y-97978927D01*
X219207779Y-97828610D01*
X219011100Y-97714470D01*
X218795932Y-97640894D01*
X218716401Y-97625075D01*
X218535000Y-97687512D01*
X218525000Y-97687512D01*
X218343599Y-97625075D01*
X218264068Y-97640894D01*
X218048900Y-97714470D01*
X217852221Y-97828610D01*
X217681588Y-97978927D01*
X217543559Y-98159644D01*
X217443439Y-98363817D01*
X217385075Y-98583599D01*
X217227689Y-98583599D01*
X217221913Y-98524957D01*
X217150437Y-98289331D01*
X217034366Y-98072177D01*
X216878160Y-97881840D01*
X216687823Y-97725634D01*
X216470669Y-97609563D01*
X216235043Y-97538087D01*
X216051405Y-97520000D01*
X215928595Y-97520000D01*
X215744957Y-97538087D01*
X215509331Y-97609563D01*
X215292177Y-97725634D01*
X215101840Y-97881840D01*
X214945634Y-98072177D01*
X214829563Y-98289331D01*
X214758087Y-98524957D01*
X214733952Y-98770000D01*
X214706048Y-98770000D01*
X214681913Y-98524957D01*
X214610437Y-98289331D01*
X214494366Y-98072177D01*
X214338160Y-97881840D01*
X214147823Y-97725634D01*
X213930669Y-97609563D01*
X213695043Y-97538087D01*
X213511405Y-97520000D01*
X213388595Y-97520000D01*
X213204957Y-97538087D01*
X212969331Y-97609563D01*
X212752177Y-97725634D01*
X212561840Y-97881840D01*
X212405634Y-98072177D01*
X212289563Y-98289331D01*
X212218087Y-98524957D01*
X212193952Y-98770000D01*
X212166048Y-98770000D01*
X212141913Y-98524957D01*
X212070437Y-98289331D01*
X211954366Y-98072177D01*
X211798160Y-97881840D01*
X211607823Y-97725634D01*
X211390669Y-97609563D01*
X211155043Y-97538087D01*
X210971405Y-97520000D01*
X210848595Y-97520000D01*
X210664957Y-97538087D01*
X210429331Y-97609563D01*
X210212177Y-97725634D01*
X210021840Y-97881840D01*
X209865634Y-98072177D01*
X209749563Y-98289331D01*
X209678087Y-98524957D01*
X209653952Y-98770000D01*
X209621935Y-98770000D01*
X209621935Y-97920000D01*
X209614212Y-97841586D01*
X209591340Y-97766186D01*
X209554197Y-97696697D01*
X209504211Y-97635789D01*
X209443303Y-97585803D01*
X209373814Y-97548660D01*
X209298414Y-97525788D01*
X209220000Y-97518065D01*
X207520000Y-97518065D01*
X207441586Y-97525788D01*
X207366186Y-97548660D01*
X207296697Y-97585803D01*
X207235789Y-97635789D01*
X207185803Y-97696697D01*
X207148660Y-97766186D01*
X207125788Y-97841586D01*
X207118065Y-97920000D01*
X205200741Y-97920000D01*
X205250000Y-97672360D01*
X205250000Y-97327640D01*
X205182749Y-96989544D01*
X205050830Y-96671064D01*
X204859314Y-96384440D01*
X204704874Y-96230000D01*
X207113952Y-96230000D01*
X207138087Y-96475043D01*
X207209563Y-96710669D01*
X207325634Y-96927823D01*
X207481840Y-97118160D01*
X207672177Y-97274366D01*
X207889331Y-97390437D01*
X208124957Y-97461913D01*
X208308595Y-97480000D01*
X208431405Y-97480000D01*
X208615043Y-97461913D01*
X208850669Y-97390437D01*
X209067823Y-97274366D01*
X209258160Y-97118160D01*
X209414366Y-96927823D01*
X209530437Y-96710669D01*
X209601913Y-96475043D01*
X209626048Y-96230000D01*
X209653952Y-96230000D01*
X209678087Y-96475043D01*
X209749563Y-96710669D01*
X209865634Y-96927823D01*
X210021840Y-97118160D01*
X210212177Y-97274366D01*
X210429331Y-97390437D01*
X210664957Y-97461913D01*
X210848595Y-97480000D01*
X210971405Y-97480000D01*
X211155043Y-97461913D01*
X211390669Y-97390437D01*
X211607823Y-97274366D01*
X211798160Y-97118160D01*
X211954366Y-96927823D01*
X212070437Y-96710669D01*
X212141913Y-96475043D01*
X212147688Y-96416401D01*
X212305075Y-96416401D01*
X212363439Y-96636183D01*
X212463559Y-96840356D01*
X212601588Y-97021073D01*
X212772221Y-97171390D01*
X212968900Y-97285530D01*
X213184068Y-97359106D01*
X213263599Y-97374925D01*
X213445000Y-97312488D01*
X213445000Y-96235000D01*
X213455000Y-96235000D01*
X213455000Y-97312488D01*
X213636401Y-97374925D01*
X213715932Y-97359106D01*
X213931100Y-97285530D01*
X214127779Y-97171390D01*
X214298412Y-97021073D01*
X214436441Y-96840356D01*
X214536561Y-96636183D01*
X214594925Y-96416401D01*
X214532489Y-96235000D01*
X213455000Y-96235000D01*
X213445000Y-96235000D01*
X212367511Y-96235000D01*
X212305075Y-96416401D01*
X212147688Y-96416401D01*
X212166048Y-96230000D01*
X214733952Y-96230000D01*
X214758087Y-96475043D01*
X214829563Y-96710669D01*
X214945634Y-96927823D01*
X215101840Y-97118160D01*
X215292177Y-97274366D01*
X215509331Y-97390437D01*
X215744957Y-97461913D01*
X215928595Y-97480000D01*
X216051405Y-97480000D01*
X216235043Y-97461913D01*
X216470669Y-97390437D01*
X216687823Y-97274366D01*
X216878160Y-97118160D01*
X217034366Y-96927823D01*
X217150437Y-96710669D01*
X217221913Y-96475043D01*
X217246048Y-96230000D01*
X217273952Y-96230000D01*
X217298087Y-96475043D01*
X217369563Y-96710669D01*
X217485634Y-96927823D01*
X217641840Y-97118160D01*
X217832177Y-97274366D01*
X218049331Y-97390437D01*
X218284957Y-97461913D01*
X218468595Y-97480000D01*
X218591405Y-97480000D01*
X218775043Y-97461913D01*
X219010669Y-97390437D01*
X219227823Y-97274366D01*
X219418160Y-97118160D01*
X219574366Y-96927823D01*
X219690437Y-96710669D01*
X219761913Y-96475043D01*
X219786048Y-96230000D01*
X219813952Y-96230000D01*
X219838087Y-96475043D01*
X219909563Y-96710669D01*
X220025634Y-96927823D01*
X220181840Y-97118160D01*
X220372177Y-97274366D01*
X220589331Y-97390437D01*
X220824957Y-97461913D01*
X221008595Y-97480000D01*
X221131405Y-97480000D01*
X221315043Y-97461913D01*
X221550669Y-97390437D01*
X221767823Y-97274366D01*
X221958160Y-97118160D01*
X222114366Y-96927823D01*
X222230437Y-96710669D01*
X222301913Y-96475043D01*
X222307688Y-96416401D01*
X222465075Y-96416401D01*
X222523439Y-96636183D01*
X222623559Y-96840356D01*
X222761588Y-97021073D01*
X222932221Y-97171390D01*
X223128900Y-97285530D01*
X223344068Y-97359106D01*
X223423599Y-97374925D01*
X223605000Y-97312488D01*
X223605000Y-96235000D01*
X223615000Y-96235000D01*
X223615000Y-97312488D01*
X223796401Y-97374925D01*
X223875932Y-97359106D01*
X224091100Y-97285530D01*
X224287779Y-97171390D01*
X224458412Y-97021073D01*
X224596441Y-96840356D01*
X224696561Y-96636183D01*
X224754925Y-96416401D01*
X224692489Y-96235000D01*
X223615000Y-96235000D01*
X223605000Y-96235000D01*
X222527511Y-96235000D01*
X222465075Y-96416401D01*
X222307688Y-96416401D01*
X222326048Y-96230000D01*
X224893952Y-96230000D01*
X224918087Y-96475043D01*
X224989563Y-96710669D01*
X225105634Y-96927823D01*
X225261840Y-97118160D01*
X225452177Y-97274366D01*
X225669331Y-97390437D01*
X225904957Y-97461913D01*
X226088595Y-97480000D01*
X226211405Y-97480000D01*
X226395043Y-97461913D01*
X226630669Y-97390437D01*
X226847823Y-97274366D01*
X227038160Y-97118160D01*
X227194366Y-96927823D01*
X227310437Y-96710669D01*
X227381913Y-96475043D01*
X227406048Y-96230000D01*
X227433952Y-96230000D01*
X227458087Y-96475043D01*
X227529563Y-96710669D01*
X227645634Y-96927823D01*
X227801840Y-97118160D01*
X227992177Y-97274366D01*
X228209331Y-97390437D01*
X228444957Y-97461913D01*
X228628595Y-97480000D01*
X228751405Y-97480000D01*
X228935043Y-97461913D01*
X229170669Y-97390437D01*
X229387823Y-97274366D01*
X229578160Y-97118160D01*
X229734366Y-96927823D01*
X229850437Y-96710669D01*
X229921913Y-96475043D01*
X229927688Y-96416401D01*
X230085075Y-96416401D01*
X230143439Y-96636183D01*
X230243559Y-96840356D01*
X230381588Y-97021073D01*
X230552221Y-97171390D01*
X230748900Y-97285530D01*
X230964068Y-97359106D01*
X231043599Y-97374925D01*
X231225000Y-97312488D01*
X231225000Y-96235000D01*
X231235000Y-96235000D01*
X231235000Y-97312488D01*
X231416401Y-97374925D01*
X231495932Y-97359106D01*
X231711100Y-97285530D01*
X231907779Y-97171390D01*
X232078412Y-97021073D01*
X232216441Y-96840356D01*
X232316561Y-96636183D01*
X232374925Y-96416401D01*
X232312489Y-96235000D01*
X231235000Y-96235000D01*
X231225000Y-96235000D01*
X230147511Y-96235000D01*
X230085075Y-96416401D01*
X229927688Y-96416401D01*
X229946048Y-96230000D01*
X232513952Y-96230000D01*
X232538087Y-96475043D01*
X232609563Y-96710669D01*
X232725634Y-96927823D01*
X232881840Y-97118160D01*
X233072177Y-97274366D01*
X233289331Y-97390437D01*
X233524957Y-97461913D01*
X233708595Y-97480000D01*
X233831405Y-97480000D01*
X234015043Y-97461913D01*
X234250669Y-97390437D01*
X234467823Y-97274366D01*
X234658160Y-97118160D01*
X234814366Y-96927823D01*
X234930437Y-96710669D01*
X235001913Y-96475043D01*
X235026048Y-96230000D01*
X235053952Y-96230000D01*
X235078087Y-96475043D01*
X235149563Y-96710669D01*
X235265634Y-96927823D01*
X235421840Y-97118160D01*
X235612177Y-97274366D01*
X235829331Y-97390437D01*
X236064957Y-97461913D01*
X236248595Y-97480000D01*
X236371405Y-97480000D01*
X236555043Y-97461913D01*
X236790669Y-97390437D01*
X237007823Y-97274366D01*
X237198160Y-97118160D01*
X237354366Y-96927823D01*
X237470437Y-96710669D01*
X237541913Y-96475043D01*
X237566048Y-96230000D01*
X237593952Y-96230000D01*
X237618087Y-96475043D01*
X237689563Y-96710669D01*
X237805634Y-96927823D01*
X237961840Y-97118160D01*
X238152177Y-97274366D01*
X238369331Y-97390437D01*
X238604957Y-97461913D01*
X238788595Y-97480000D01*
X238911405Y-97480000D01*
X239095043Y-97461913D01*
X239330669Y-97390437D01*
X239547823Y-97274366D01*
X239738160Y-97118160D01*
X239894366Y-96927823D01*
X240010437Y-96710669D01*
X240081913Y-96475043D01*
X240106048Y-96230000D01*
X240133952Y-96230000D01*
X240158087Y-96475043D01*
X240229563Y-96710669D01*
X240345634Y-96927823D01*
X240501840Y-97118160D01*
X240692177Y-97274366D01*
X240909331Y-97390437D01*
X241144957Y-97461913D01*
X241328595Y-97480000D01*
X241451405Y-97480000D01*
X241635043Y-97461913D01*
X241870669Y-97390437D01*
X242087823Y-97274366D01*
X242278160Y-97118160D01*
X242434366Y-96927823D01*
X242550437Y-96710669D01*
X242621913Y-96475043D01*
X242627688Y-96416401D01*
X242785075Y-96416401D01*
X242843439Y-96636183D01*
X242943559Y-96840356D01*
X243081588Y-97021073D01*
X243252221Y-97171390D01*
X243448900Y-97285530D01*
X243664068Y-97359106D01*
X243743599Y-97374925D01*
X243925000Y-97312488D01*
X243925000Y-96235000D01*
X243935000Y-96235000D01*
X243935000Y-97312488D01*
X244116401Y-97374925D01*
X244195932Y-97359106D01*
X244411100Y-97285530D01*
X244607779Y-97171390D01*
X244778412Y-97021073D01*
X244916441Y-96840356D01*
X245016561Y-96636183D01*
X245074925Y-96416401D01*
X245012489Y-96235000D01*
X243935000Y-96235000D01*
X243925000Y-96235000D01*
X242847511Y-96235000D01*
X242785075Y-96416401D01*
X242627688Y-96416401D01*
X242646048Y-96230000D01*
X245213952Y-96230000D01*
X245238087Y-96475043D01*
X245309563Y-96710669D01*
X245425634Y-96927823D01*
X245581840Y-97118160D01*
X245772177Y-97274366D01*
X245989331Y-97390437D01*
X246224957Y-97461913D01*
X246408595Y-97480000D01*
X246531405Y-97480000D01*
X246715043Y-97461913D01*
X246950669Y-97390437D01*
X247167823Y-97274366D01*
X247358160Y-97118160D01*
X247514366Y-96927823D01*
X247630437Y-96710669D01*
X247701913Y-96475043D01*
X247707688Y-96416401D01*
X247865075Y-96416401D01*
X247923439Y-96636183D01*
X248023559Y-96840356D01*
X248161588Y-97021073D01*
X248332221Y-97171390D01*
X248528900Y-97285530D01*
X248744068Y-97359106D01*
X248823599Y-97374925D01*
X249005000Y-97312488D01*
X249005000Y-96235000D01*
X249015000Y-96235000D01*
X249015000Y-97312488D01*
X249196401Y-97374925D01*
X249275932Y-97359106D01*
X249491100Y-97285530D01*
X249687779Y-97171390D01*
X249858412Y-97021073D01*
X249996441Y-96840356D01*
X250096561Y-96636183D01*
X250154925Y-96416401D01*
X250092489Y-96235000D01*
X249015000Y-96235000D01*
X249005000Y-96235000D01*
X247927511Y-96235000D01*
X247865075Y-96416401D01*
X247707688Y-96416401D01*
X247726048Y-96230000D01*
X250293952Y-96230000D01*
X250318087Y-96475043D01*
X250389563Y-96710669D01*
X250505634Y-96927823D01*
X250661840Y-97118160D01*
X250852177Y-97274366D01*
X251069331Y-97390437D01*
X251304957Y-97461913D01*
X251488595Y-97480000D01*
X251611405Y-97480000D01*
X251795043Y-97461913D01*
X252030669Y-97390437D01*
X252247823Y-97274366D01*
X252438160Y-97118160D01*
X252594366Y-96927823D01*
X252710437Y-96710669D01*
X252781913Y-96475043D01*
X252806048Y-96230000D01*
X252833952Y-96230000D01*
X252858087Y-96475043D01*
X252929563Y-96710669D01*
X253045634Y-96927823D01*
X253201840Y-97118160D01*
X253392177Y-97274366D01*
X253609331Y-97390437D01*
X253844957Y-97461913D01*
X254028595Y-97480000D01*
X254151405Y-97480000D01*
X254335043Y-97461913D01*
X254570669Y-97390437D01*
X254787823Y-97274366D01*
X254978160Y-97118160D01*
X255134366Y-96927823D01*
X255250437Y-96710669D01*
X255321913Y-96475043D01*
X255346048Y-96230000D01*
X255373952Y-96230000D01*
X255398087Y-96475043D01*
X255469563Y-96710669D01*
X255585634Y-96927823D01*
X255741840Y-97118160D01*
X255932177Y-97274366D01*
X256149331Y-97390437D01*
X256384957Y-97461913D01*
X256568595Y-97480000D01*
X256691405Y-97480000D01*
X256875043Y-97461913D01*
X257110669Y-97390437D01*
X257228154Y-97327640D01*
X259750000Y-97327640D01*
X259750000Y-97672360D01*
X259817251Y-98010456D01*
X259949170Y-98328936D01*
X260140686Y-98615560D01*
X260384440Y-98859314D01*
X260671064Y-99050830D01*
X260989544Y-99182749D01*
X261327640Y-99250000D01*
X261672360Y-99250000D01*
X262010456Y-99182749D01*
X262328936Y-99050830D01*
X262615560Y-98859314D01*
X262859314Y-98615560D01*
X263050830Y-98328936D01*
X263182749Y-98010456D01*
X263250000Y-97672360D01*
X263250000Y-97327640D01*
X263182749Y-96989544D01*
X263050830Y-96671064D01*
X262859314Y-96384440D01*
X262615560Y-96140686D01*
X262328936Y-95949170D01*
X262010456Y-95817251D01*
X261672360Y-95750000D01*
X261327640Y-95750000D01*
X260989544Y-95817251D01*
X260671064Y-95949170D01*
X260384440Y-96140686D01*
X260140686Y-96384440D01*
X259949170Y-96671064D01*
X259817251Y-96989544D01*
X259750000Y-97327640D01*
X257228154Y-97327640D01*
X257327823Y-97274366D01*
X257518160Y-97118160D01*
X257674366Y-96927823D01*
X257790437Y-96710669D01*
X257861913Y-96475043D01*
X257886048Y-96230000D01*
X257861913Y-95984957D01*
X257790437Y-95749331D01*
X257674366Y-95532177D01*
X257518160Y-95341840D01*
X257327823Y-95185634D01*
X257110669Y-95069563D01*
X256875043Y-94998087D01*
X256691405Y-94980000D01*
X256568595Y-94980000D01*
X256384957Y-94998087D01*
X256149331Y-95069563D01*
X255932177Y-95185634D01*
X255741840Y-95341840D01*
X255585634Y-95532177D01*
X255469563Y-95749331D01*
X255398087Y-95984957D01*
X255373952Y-96230000D01*
X255346048Y-96230000D01*
X255321913Y-95984957D01*
X255250437Y-95749331D01*
X255134366Y-95532177D01*
X254978160Y-95341840D01*
X254787823Y-95185634D01*
X254570669Y-95069563D01*
X254335043Y-94998087D01*
X254151405Y-94980000D01*
X254028595Y-94980000D01*
X253844957Y-94998087D01*
X253609331Y-95069563D01*
X253392177Y-95185634D01*
X253201840Y-95341840D01*
X253045634Y-95532177D01*
X252929563Y-95749331D01*
X252858087Y-95984957D01*
X252833952Y-96230000D01*
X252806048Y-96230000D01*
X252781913Y-95984957D01*
X252710437Y-95749331D01*
X252594366Y-95532177D01*
X252438160Y-95341840D01*
X252247823Y-95185634D01*
X252030669Y-95069563D01*
X251795043Y-94998087D01*
X251611405Y-94980000D01*
X251488595Y-94980000D01*
X251304957Y-94998087D01*
X251069331Y-95069563D01*
X250852177Y-95185634D01*
X250661840Y-95341840D01*
X250505634Y-95532177D01*
X250389563Y-95749331D01*
X250318087Y-95984957D01*
X250293952Y-96230000D01*
X247726048Y-96230000D01*
X247707689Y-96043599D01*
X247865075Y-96043599D01*
X247927511Y-96225000D01*
X249005000Y-96225000D01*
X249005000Y-95147512D01*
X249015000Y-95147512D01*
X249015000Y-96225000D01*
X250092489Y-96225000D01*
X250154925Y-96043599D01*
X250096561Y-95823817D01*
X249996441Y-95619644D01*
X249858412Y-95438927D01*
X249687779Y-95288610D01*
X249491100Y-95174470D01*
X249275932Y-95100894D01*
X249196401Y-95085075D01*
X249015000Y-95147512D01*
X249005000Y-95147512D01*
X248823599Y-95085075D01*
X248744068Y-95100894D01*
X248528900Y-95174470D01*
X248332221Y-95288610D01*
X248161588Y-95438927D01*
X248023559Y-95619644D01*
X247923439Y-95823817D01*
X247865075Y-96043599D01*
X247707689Y-96043599D01*
X247701913Y-95984957D01*
X247630437Y-95749331D01*
X247514366Y-95532177D01*
X247358160Y-95341840D01*
X247167823Y-95185634D01*
X246950669Y-95069563D01*
X246715043Y-94998087D01*
X246531405Y-94980000D01*
X246408595Y-94980000D01*
X246224957Y-94998087D01*
X245989331Y-95069563D01*
X245772177Y-95185634D01*
X245581840Y-95341840D01*
X245425634Y-95532177D01*
X245309563Y-95749331D01*
X245238087Y-95984957D01*
X245213952Y-96230000D01*
X242646048Y-96230000D01*
X242627689Y-96043599D01*
X242785075Y-96043599D01*
X242847511Y-96225000D01*
X243925000Y-96225000D01*
X243925000Y-95147512D01*
X243935000Y-95147512D01*
X243935000Y-96225000D01*
X245012489Y-96225000D01*
X245074925Y-96043599D01*
X245016561Y-95823817D01*
X244916441Y-95619644D01*
X244778412Y-95438927D01*
X244607779Y-95288610D01*
X244411100Y-95174470D01*
X244195932Y-95100894D01*
X244116401Y-95085075D01*
X243935000Y-95147512D01*
X243925000Y-95147512D01*
X243743599Y-95085075D01*
X243664068Y-95100894D01*
X243448900Y-95174470D01*
X243252221Y-95288610D01*
X243081588Y-95438927D01*
X242943559Y-95619644D01*
X242843439Y-95823817D01*
X242785075Y-96043599D01*
X242627689Y-96043599D01*
X242621913Y-95984957D01*
X242550437Y-95749331D01*
X242434366Y-95532177D01*
X242278160Y-95341840D01*
X242087823Y-95185634D01*
X241870669Y-95069563D01*
X241635043Y-94998087D01*
X241451405Y-94980000D01*
X241328595Y-94980000D01*
X241144957Y-94998087D01*
X240909331Y-95069563D01*
X240692177Y-95185634D01*
X240501840Y-95341840D01*
X240345634Y-95532177D01*
X240229563Y-95749331D01*
X240158087Y-95984957D01*
X240133952Y-96230000D01*
X240106048Y-96230000D01*
X240081913Y-95984957D01*
X240010437Y-95749331D01*
X239894366Y-95532177D01*
X239738160Y-95341840D01*
X239547823Y-95185634D01*
X239330669Y-95069563D01*
X239095043Y-94998087D01*
X238911405Y-94980000D01*
X238788595Y-94980000D01*
X238604957Y-94998087D01*
X238369331Y-95069563D01*
X238152177Y-95185634D01*
X237961840Y-95341840D01*
X237805634Y-95532177D01*
X237689563Y-95749331D01*
X237618087Y-95984957D01*
X237593952Y-96230000D01*
X237566048Y-96230000D01*
X237541913Y-95984957D01*
X237470437Y-95749331D01*
X237354366Y-95532177D01*
X237198160Y-95341840D01*
X237007823Y-95185634D01*
X236790669Y-95069563D01*
X236555043Y-94998087D01*
X236371405Y-94980000D01*
X236248595Y-94980000D01*
X236064957Y-94998087D01*
X235829331Y-95069563D01*
X235612177Y-95185634D01*
X235421840Y-95341840D01*
X235265634Y-95532177D01*
X235149563Y-95749331D01*
X235078087Y-95984957D01*
X235053952Y-96230000D01*
X235026048Y-96230000D01*
X235001913Y-95984957D01*
X234930437Y-95749331D01*
X234814366Y-95532177D01*
X234658160Y-95341840D01*
X234467823Y-95185634D01*
X234250669Y-95069563D01*
X234015043Y-94998087D01*
X233831405Y-94980000D01*
X233708595Y-94980000D01*
X233524957Y-94998087D01*
X233289331Y-95069563D01*
X233072177Y-95185634D01*
X232881840Y-95341840D01*
X232725634Y-95532177D01*
X232609563Y-95749331D01*
X232538087Y-95984957D01*
X232513952Y-96230000D01*
X229946048Y-96230000D01*
X229927689Y-96043599D01*
X230085075Y-96043599D01*
X230147511Y-96225000D01*
X231225000Y-96225000D01*
X231225000Y-95147512D01*
X231235000Y-95147512D01*
X231235000Y-96225000D01*
X232312489Y-96225000D01*
X232374925Y-96043599D01*
X232316561Y-95823817D01*
X232216441Y-95619644D01*
X232078412Y-95438927D01*
X231907779Y-95288610D01*
X231711100Y-95174470D01*
X231495932Y-95100894D01*
X231416401Y-95085075D01*
X231235000Y-95147512D01*
X231225000Y-95147512D01*
X231043599Y-95085075D01*
X230964068Y-95100894D01*
X230748900Y-95174470D01*
X230552221Y-95288610D01*
X230381588Y-95438927D01*
X230243559Y-95619644D01*
X230143439Y-95823817D01*
X230085075Y-96043599D01*
X229927689Y-96043599D01*
X229921913Y-95984957D01*
X229850437Y-95749331D01*
X229734366Y-95532177D01*
X229578160Y-95341840D01*
X229387823Y-95185634D01*
X229170669Y-95069563D01*
X228935043Y-94998087D01*
X228751405Y-94980000D01*
X228628595Y-94980000D01*
X228444957Y-94998087D01*
X228209331Y-95069563D01*
X227992177Y-95185634D01*
X227801840Y-95341840D01*
X227645634Y-95532177D01*
X227529563Y-95749331D01*
X227458087Y-95984957D01*
X227433952Y-96230000D01*
X227406048Y-96230000D01*
X227381913Y-95984957D01*
X227310437Y-95749331D01*
X227194366Y-95532177D01*
X227038160Y-95341840D01*
X226847823Y-95185634D01*
X226630669Y-95069563D01*
X226395043Y-94998087D01*
X226211405Y-94980000D01*
X226088595Y-94980000D01*
X225904957Y-94998087D01*
X225669331Y-95069563D01*
X225452177Y-95185634D01*
X225261840Y-95341840D01*
X225105634Y-95532177D01*
X224989563Y-95749331D01*
X224918087Y-95984957D01*
X224893952Y-96230000D01*
X222326048Y-96230000D01*
X222307689Y-96043599D01*
X222465075Y-96043599D01*
X222527511Y-96225000D01*
X223605000Y-96225000D01*
X223605000Y-95147512D01*
X223615000Y-95147512D01*
X223615000Y-96225000D01*
X224692489Y-96225000D01*
X224754925Y-96043599D01*
X224696561Y-95823817D01*
X224596441Y-95619644D01*
X224458412Y-95438927D01*
X224287779Y-95288610D01*
X224091100Y-95174470D01*
X223875932Y-95100894D01*
X223796401Y-95085075D01*
X223615000Y-95147512D01*
X223605000Y-95147512D01*
X223423599Y-95085075D01*
X223344068Y-95100894D01*
X223128900Y-95174470D01*
X222932221Y-95288610D01*
X222761588Y-95438927D01*
X222623559Y-95619644D01*
X222523439Y-95823817D01*
X222465075Y-96043599D01*
X222307689Y-96043599D01*
X222301913Y-95984957D01*
X222230437Y-95749331D01*
X222114366Y-95532177D01*
X221958160Y-95341840D01*
X221767823Y-95185634D01*
X221550669Y-95069563D01*
X221315043Y-94998087D01*
X221131405Y-94980000D01*
X221008595Y-94980000D01*
X220824957Y-94998087D01*
X220589331Y-95069563D01*
X220372177Y-95185634D01*
X220181840Y-95341840D01*
X220025634Y-95532177D01*
X219909563Y-95749331D01*
X219838087Y-95984957D01*
X219813952Y-96230000D01*
X219786048Y-96230000D01*
X219761913Y-95984957D01*
X219690437Y-95749331D01*
X219574366Y-95532177D01*
X219418160Y-95341840D01*
X219227823Y-95185634D01*
X219010669Y-95069563D01*
X218775043Y-94998087D01*
X218591405Y-94980000D01*
X218468595Y-94980000D01*
X218284957Y-94998087D01*
X218049331Y-95069563D01*
X217832177Y-95185634D01*
X217641840Y-95341840D01*
X217485634Y-95532177D01*
X217369563Y-95749331D01*
X217298087Y-95984957D01*
X217273952Y-96230000D01*
X217246048Y-96230000D01*
X217221913Y-95984957D01*
X217150437Y-95749331D01*
X217034366Y-95532177D01*
X216878160Y-95341840D01*
X216687823Y-95185634D01*
X216470669Y-95069563D01*
X216235043Y-94998087D01*
X216051405Y-94980000D01*
X215928595Y-94980000D01*
X215744957Y-94998087D01*
X215509331Y-95069563D01*
X215292177Y-95185634D01*
X215101840Y-95341840D01*
X214945634Y-95532177D01*
X214829563Y-95749331D01*
X214758087Y-95984957D01*
X214733952Y-96230000D01*
X212166048Y-96230000D01*
X212147689Y-96043599D01*
X212305075Y-96043599D01*
X212367511Y-96225000D01*
X213445000Y-96225000D01*
X213445000Y-95147512D01*
X213455000Y-95147512D01*
X213455000Y-96225000D01*
X214532489Y-96225000D01*
X214594925Y-96043599D01*
X214536561Y-95823817D01*
X214436441Y-95619644D01*
X214298412Y-95438927D01*
X214127779Y-95288610D01*
X213931100Y-95174470D01*
X213715932Y-95100894D01*
X213636401Y-95085075D01*
X213455000Y-95147512D01*
X213445000Y-95147512D01*
X213263599Y-95085075D01*
X213184068Y-95100894D01*
X212968900Y-95174470D01*
X212772221Y-95288610D01*
X212601588Y-95438927D01*
X212463559Y-95619644D01*
X212363439Y-95823817D01*
X212305075Y-96043599D01*
X212147689Y-96043599D01*
X212141913Y-95984957D01*
X212070437Y-95749331D01*
X211954366Y-95532177D01*
X211798160Y-95341840D01*
X211607823Y-95185634D01*
X211390669Y-95069563D01*
X211155043Y-94998087D01*
X210971405Y-94980000D01*
X210848595Y-94980000D01*
X210664957Y-94998087D01*
X210429331Y-95069563D01*
X210212177Y-95185634D01*
X210021840Y-95341840D01*
X209865634Y-95532177D01*
X209749563Y-95749331D01*
X209678087Y-95984957D01*
X209653952Y-96230000D01*
X209626048Y-96230000D01*
X209601913Y-95984957D01*
X209530437Y-95749331D01*
X209414366Y-95532177D01*
X209258160Y-95341840D01*
X209067823Y-95185634D01*
X208850669Y-95069563D01*
X208615043Y-94998087D01*
X208431405Y-94980000D01*
X208308595Y-94980000D01*
X208124957Y-94998087D01*
X207889331Y-95069563D01*
X207672177Y-95185634D01*
X207481840Y-95341840D01*
X207325634Y-95532177D01*
X207209563Y-95749331D01*
X207138087Y-95984957D01*
X207113952Y-96230000D01*
X204704874Y-96230000D01*
X204615560Y-96140686D01*
X204328936Y-95949170D01*
X204010456Y-95817251D01*
X203672360Y-95750000D01*
X203327640Y-95750000D01*
X202989544Y-95817251D01*
X202671064Y-95949170D01*
X202384440Y-96140686D01*
X202140686Y-96384440D01*
X201949170Y-96671064D01*
X201817251Y-96989544D01*
X201750000Y-97327640D01*
X200450000Y-97327640D01*
X200450000Y-97022006D01*
X200500681Y-96505124D01*
X200644403Y-96029094D01*
X200877850Y-95590043D01*
X201192125Y-95204704D01*
X201575266Y-94887742D01*
X202012670Y-94651239D01*
X202487684Y-94504197D01*
X203003335Y-94450000D01*
X261977994Y-94450000D01*
X262494876Y-94500681D01*
M02*
