G04 #@! TF.GenerationSoftware,KiCad,Pcbnew,(5.1.2)-1*
G04 #@! TF.CreationDate,2019-05-20T14:19:16+10:00*
G04 #@! TF.ProjectId,VeinCamHat,5665696e-4361-46d4-9861-742e6b696361,rev?*
G04 #@! TF.SameCoordinates,Original*
G04 #@! TF.FileFunction,Profile,NP*
%FSLAX46Y46*%
G04 Gerber Fmt 4.6, Leading zero omitted, Abs format (unit mm)*
G04 Created by KiCad (PCBNEW (5.1.2)-1) date 2019-05-20 14:19:16*
%MOMM*%
%LPD*%
G04 APERTURE LIST*
%ADD10C,0.100000*%
%ADD11C,0.150000*%
G04 APERTURE END LIST*
D10*
X247000000Y-146000000D02*
G75*
G02X243000000Y-146000000I-2000000J0D01*
G01*
X243000000Y-131000000D02*
G75*
G02X247000000Y-131000000I2000000J0D01*
G01*
X200000000Y-147000000D02*
X200000000Y-97000000D01*
X243000000Y-146000000D02*
X243000000Y-131000000D01*
X247000000Y-131000000D02*
X247000000Y-146000000D01*
X265000000Y-97000000D02*
G75*
G03X262000000Y-94000000I-3000000J0D01*
G01*
X262000000Y-150000000D02*
G75*
G03X265000000Y-147000000I0J3000000D01*
G01*
X200000000Y-147000000D02*
G75*
G03X203000000Y-150000000I3000000J0D01*
G01*
X203000000Y-94000000D02*
G75*
G03X200000000Y-97000000I0J-3000000D01*
G01*
X262000000Y-94000000D02*
X203000000Y-94000000D01*
X265000000Y-147000000D02*
X265000000Y-97000000D01*
X203000000Y-150000000D02*
X262000000Y-150000000D01*
D11*
X233000000Y-132000000D02*
G75*
G02X231000000Y-134000000I-2000000J0D01*
G01*
X231000000Y-119000000D02*
G75*
G02X233000000Y-121000000I0J-2000000D01*
G01*
X213000000Y-121000000D02*
G75*
G02X215000000Y-119000000I2000000J0D01*
G01*
X215000000Y-134000000D02*
G75*
G02X213000000Y-132000000I0J2000000D01*
G01*
X231000000Y-119000000D02*
X215000000Y-119000000D01*
X233000000Y-132000000D02*
X233000000Y-121000000D01*
X215000000Y-134000000D02*
X231000000Y-134000000D01*
X213000000Y-121000000D02*
X213000000Y-132000000D01*
M02*
