G04 #@! TF.GenerationSoftware,KiCad,Pcbnew,(5.1.2)-1*
G04 #@! TF.CreationDate,2019-05-20T14:19:16+10:00*
G04 #@! TF.ProjectId,VeinCamHat,5665696e-4361-46d4-9861-742e6b696361,rev?*
G04 #@! TF.SameCoordinates,Original*
G04 #@! TF.FileFunction,Legend,Bot*
G04 #@! TF.FilePolarity,Positive*
%FSLAX46Y46*%
G04 Gerber Fmt 4.6, Leading zero omitted, Abs format (unit mm)*
G04 Created by KiCad (PCBNEW (5.1.2)-1) date 2019-05-20 14:19:16*
%MOMM*%
%LPD*%
G04 APERTURE LIST*
%ADD10C,0.200000*%
%ADD11C,0.120000*%
G04 APERTURE END LIST*
D10*
X226257142Y-146685714D02*
X226019047Y-147352380D01*
X225780952Y-146685714D01*
X225019047Y-147304761D02*
X225114285Y-147352380D01*
X225304761Y-147352380D01*
X225400000Y-147304761D01*
X225447619Y-147209523D01*
X225447619Y-146828571D01*
X225400000Y-146733333D01*
X225304761Y-146685714D01*
X225114285Y-146685714D01*
X225019047Y-146733333D01*
X224971428Y-146828571D01*
X224971428Y-146923809D01*
X225447619Y-147019047D01*
X224542857Y-147352380D02*
X224542857Y-146685714D01*
X224542857Y-146352380D02*
X224590476Y-146400000D01*
X224542857Y-146447619D01*
X224495238Y-146400000D01*
X224542857Y-146352380D01*
X224542857Y-146447619D01*
X224066666Y-146685714D02*
X224066666Y-147352380D01*
X224066666Y-146780952D02*
X224019047Y-146733333D01*
X223923809Y-146685714D01*
X223780952Y-146685714D01*
X223685714Y-146733333D01*
X223638095Y-146828571D01*
X223638095Y-147352380D01*
X222733333Y-147304761D02*
X222828571Y-147352380D01*
X223019047Y-147352380D01*
X223114285Y-147304761D01*
X223161904Y-147257142D01*
X223209523Y-147161904D01*
X223209523Y-146876190D01*
X223161904Y-146780952D01*
X223114285Y-146733333D01*
X223019047Y-146685714D01*
X222828571Y-146685714D01*
X222733333Y-146733333D01*
X221876190Y-147352380D02*
X221876190Y-146828571D01*
X221923809Y-146733333D01*
X222019047Y-146685714D01*
X222209523Y-146685714D01*
X222304761Y-146733333D01*
X221876190Y-147304761D02*
X221971428Y-147352380D01*
X222209523Y-147352380D01*
X222304761Y-147304761D01*
X222352380Y-147209523D01*
X222352380Y-147114285D01*
X222304761Y-147019047D01*
X222209523Y-146971428D01*
X221971428Y-146971428D01*
X221876190Y-146923809D01*
X221400000Y-147352380D02*
X221400000Y-146685714D01*
X221400000Y-146780952D02*
X221352380Y-146733333D01*
X221257142Y-146685714D01*
X221114285Y-146685714D01*
X221019047Y-146733333D01*
X220971428Y-146828571D01*
X220971428Y-147352380D01*
X220971428Y-146828571D02*
X220923809Y-146733333D01*
X220828571Y-146685714D01*
X220685714Y-146685714D01*
X220590476Y-146733333D01*
X220542857Y-146828571D01*
X220542857Y-147352380D01*
X220066666Y-147257142D02*
X220019047Y-147304761D01*
X220066666Y-147352380D01*
X220114285Y-147304761D01*
X220066666Y-147257142D01*
X220066666Y-147352380D01*
X219447619Y-147352380D02*
X219542857Y-147304761D01*
X219590476Y-147257142D01*
X219638095Y-147161904D01*
X219638095Y-146876190D01*
X219590476Y-146780952D01*
X219542857Y-146733333D01*
X219447619Y-146685714D01*
X219304761Y-146685714D01*
X219209523Y-146733333D01*
X219161904Y-146780952D01*
X219114285Y-146876190D01*
X219114285Y-147161904D01*
X219161904Y-147257142D01*
X219209523Y-147304761D01*
X219304761Y-147352380D01*
X219447619Y-147352380D01*
X218685714Y-147352380D02*
X218685714Y-146685714D01*
X218685714Y-146876190D02*
X218638095Y-146780952D01*
X218590476Y-146733333D01*
X218495238Y-146685714D01*
X218400000Y-146685714D01*
X217638095Y-146685714D02*
X217638095Y-147495238D01*
X217685714Y-147590476D01*
X217733333Y-147638095D01*
X217828571Y-147685714D01*
X217971428Y-147685714D01*
X218066666Y-147638095D01*
X217638095Y-147304761D02*
X217733333Y-147352380D01*
X217923809Y-147352380D01*
X218019047Y-147304761D01*
X218066666Y-147257142D01*
X218114285Y-147161904D01*
X218114285Y-146876190D01*
X218066666Y-146780952D01*
X218019047Y-146733333D01*
X217923809Y-146685714D01*
X217733333Y-146685714D01*
X217638095Y-146733333D01*
D11*
X207040000Y-94900000D02*
X207040000Y-97500000D01*
X207040000Y-94900000D02*
X257960000Y-94900000D01*
X257960000Y-94900000D02*
X257960000Y-100100000D01*
X209640000Y-100100000D02*
X257960000Y-100100000D01*
X209640000Y-97500000D02*
X209640000Y-100100000D01*
X207040000Y-97500000D02*
X209640000Y-97500000D01*
X207040000Y-100100000D02*
X208370000Y-100100000D01*
X207040000Y-98770000D02*
X207040000Y-100100000D01*
M02*
