G04 #@! TF.GenerationSoftware,KiCad,Pcbnew,(5.1.2)-1*
G04 #@! TF.CreationDate,2019-05-20T14:19:16+10:00*
G04 #@! TF.ProjectId,VeinCamHat,5665696e-4361-46d4-9861-742e6b696361,rev?*
G04 #@! TF.SameCoordinates,Original*
G04 #@! TF.FileFunction,Copper,L1,Top*
G04 #@! TF.FilePolarity,Positive*
%FSLAX46Y46*%
G04 Gerber Fmt 4.6, Leading zero omitted, Abs format (unit mm)*
G04 Created by KiCad (PCBNEW (5.1.2)-1) date 2019-05-20 14:19:16*
%MOMM*%
%LPD*%
G04 APERTURE LIST*
%ADD10R,1.700000X1.700000*%
%ADD11O,1.700000X1.700000*%
%ADD12C,1.100000*%
%ADD13C,0.150000*%
%ADD14R,1.700000X1.100000*%
%ADD15R,0.650000X0.400000*%
%ADD16C,0.875000*%
%ADD17C,0.975000*%
%ADD18C,0.600000*%
%ADD19C,0.500000*%
%ADD20C,0.250000*%
%ADD21C,0.400000*%
%ADD22C,0.300000*%
%ADD23C,0.200000*%
G04 APERTURE END LIST*
D10*
X208370000Y-98770000D03*
D11*
X208370000Y-96230000D03*
X210910000Y-98770000D03*
X210910000Y-96230000D03*
X213450000Y-98770000D03*
X213450000Y-96230000D03*
X215990000Y-98770000D03*
X215990000Y-96230000D03*
X218530000Y-98770000D03*
X218530000Y-96230000D03*
X221070000Y-98770000D03*
X221070000Y-96230000D03*
X223610000Y-98770000D03*
X223610000Y-96230000D03*
X226150000Y-98770000D03*
X226150000Y-96230000D03*
X228690000Y-98770000D03*
X228690000Y-96230000D03*
X231230000Y-98770000D03*
X231230000Y-96230000D03*
X233770000Y-98770000D03*
X233770000Y-96230000D03*
X236310000Y-98770000D03*
X236310000Y-96230000D03*
X238850000Y-98770000D03*
X238850000Y-96230000D03*
X241390000Y-98770000D03*
X241390000Y-96230000D03*
X243930000Y-98770000D03*
X243930000Y-96230000D03*
X246470000Y-98770000D03*
X246470000Y-96230000D03*
X249010000Y-98770000D03*
X249010000Y-96230000D03*
X251550000Y-98770000D03*
X251550000Y-96230000D03*
X254090000Y-98770000D03*
X254090000Y-96230000D03*
X256630000Y-98770000D03*
X256630000Y-96230000D03*
D12*
X203479720Y-134540381D03*
D13*
G36*
X203691852Y-135530330D02*
G01*
X202489771Y-134328249D01*
X203267588Y-133550432D01*
X204469669Y-134752513D01*
X203691852Y-135530330D01*
X203691852Y-135530330D01*
G37*
D12*
X205459619Y-136520280D03*
D13*
G36*
X205671751Y-137510229D02*
G01*
X204469670Y-136308148D01*
X205247487Y-135530331D01*
X206449568Y-136732412D01*
X205671751Y-137510229D01*
X205671751Y-137510229D01*
G37*
D12*
X204540381Y-133479720D03*
D13*
G36*
X204752513Y-134469669D02*
G01*
X203550432Y-133267588D01*
X204328249Y-132489771D01*
X205530330Y-133691852D01*
X204752513Y-134469669D01*
X204752513Y-134469669D01*
G37*
D12*
X206520280Y-135459619D03*
D13*
G36*
X206732412Y-136449568D02*
G01*
X205530331Y-135247487D01*
X206308148Y-134469670D01*
X207510229Y-135671751D01*
X206732412Y-136449568D01*
X206732412Y-136449568D01*
G37*
D14*
X223400000Y-144249999D03*
X220600000Y-144249999D03*
X223400000Y-145750001D03*
X220600000Y-145750001D03*
D12*
X205459619Y-112479720D03*
D13*
G36*
X206449568Y-112267588D02*
G01*
X205247487Y-113469669D01*
X204469670Y-112691852D01*
X205671751Y-111489771D01*
X206449568Y-112267588D01*
X206449568Y-112267588D01*
G37*
D12*
X203479720Y-114459619D03*
D13*
G36*
X204469669Y-114247487D02*
G01*
X203267588Y-115449568D01*
X202489771Y-114671751D01*
X203691852Y-113469670D01*
X204469669Y-114247487D01*
X204469669Y-114247487D01*
G37*
D12*
X206520280Y-113540381D03*
D13*
G36*
X207510229Y-113328249D02*
G01*
X206308148Y-114530330D01*
X205530331Y-113752513D01*
X206732412Y-112550432D01*
X207510229Y-113328249D01*
X207510229Y-113328249D01*
G37*
D12*
X204540381Y-115520280D03*
D13*
G36*
X205530330Y-115308148D02*
G01*
X204328249Y-116510229D01*
X203550432Y-115732412D01*
X204752513Y-114530331D01*
X205530330Y-115308148D01*
X205530330Y-115308148D01*
G37*
D12*
X238540381Y-136520280D03*
D13*
G36*
X239530330Y-136308148D02*
G01*
X238328249Y-137510229D01*
X237550432Y-136732412D01*
X238752513Y-135530331D01*
X239530330Y-136308148D01*
X239530330Y-136308148D01*
G37*
D12*
X240520280Y-134540381D03*
D13*
G36*
X241510229Y-134328249D02*
G01*
X240308148Y-135530330D01*
X239530331Y-134752513D01*
X240732412Y-133550432D01*
X241510229Y-134328249D01*
X241510229Y-134328249D01*
G37*
D12*
X237479720Y-135459619D03*
D13*
G36*
X238469669Y-135247487D02*
G01*
X237267588Y-136449568D01*
X236489771Y-135671751D01*
X237691852Y-134469670D01*
X238469669Y-135247487D01*
X238469669Y-135247487D01*
G37*
D12*
X239459619Y-133479720D03*
D13*
G36*
X240449568Y-133267588D02*
G01*
X239247487Y-134469669D01*
X238469670Y-133691852D01*
X239671751Y-132489771D01*
X240449568Y-133267588D01*
X240449568Y-133267588D01*
G37*
D15*
X229950000Y-109550000D03*
X229950000Y-110850000D03*
X231850000Y-110200000D03*
X229950000Y-110200000D03*
X231850000Y-110850000D03*
X231850000Y-109550000D03*
D13*
G36*
X250815191Y-103976053D02*
G01*
X250836426Y-103979203D01*
X250857250Y-103984419D01*
X250877462Y-103991651D01*
X250896868Y-104000830D01*
X250915281Y-104011866D01*
X250932524Y-104024654D01*
X250948430Y-104039070D01*
X250962846Y-104054976D01*
X250975634Y-104072219D01*
X250986670Y-104090632D01*
X250995849Y-104110038D01*
X251003081Y-104130250D01*
X251008297Y-104151074D01*
X251011447Y-104172309D01*
X251012500Y-104193750D01*
X251012500Y-104631250D01*
X251011447Y-104652691D01*
X251008297Y-104673926D01*
X251003081Y-104694750D01*
X250995849Y-104714962D01*
X250986670Y-104734368D01*
X250975634Y-104752781D01*
X250962846Y-104770024D01*
X250948430Y-104785930D01*
X250932524Y-104800346D01*
X250915281Y-104813134D01*
X250896868Y-104824170D01*
X250877462Y-104833349D01*
X250857250Y-104840581D01*
X250836426Y-104845797D01*
X250815191Y-104848947D01*
X250793750Y-104850000D01*
X250281250Y-104850000D01*
X250259809Y-104848947D01*
X250238574Y-104845797D01*
X250217750Y-104840581D01*
X250197538Y-104833349D01*
X250178132Y-104824170D01*
X250159719Y-104813134D01*
X250142476Y-104800346D01*
X250126570Y-104785930D01*
X250112154Y-104770024D01*
X250099366Y-104752781D01*
X250088330Y-104734368D01*
X250079151Y-104714962D01*
X250071919Y-104694750D01*
X250066703Y-104673926D01*
X250063553Y-104652691D01*
X250062500Y-104631250D01*
X250062500Y-104193750D01*
X250063553Y-104172309D01*
X250066703Y-104151074D01*
X250071919Y-104130250D01*
X250079151Y-104110038D01*
X250088330Y-104090632D01*
X250099366Y-104072219D01*
X250112154Y-104054976D01*
X250126570Y-104039070D01*
X250142476Y-104024654D01*
X250159719Y-104011866D01*
X250178132Y-104000830D01*
X250197538Y-103991651D01*
X250217750Y-103984419D01*
X250238574Y-103979203D01*
X250259809Y-103976053D01*
X250281250Y-103975000D01*
X250793750Y-103975000D01*
X250815191Y-103976053D01*
X250815191Y-103976053D01*
G37*
D16*
X250537500Y-104412500D03*
D13*
G36*
X250815191Y-105551053D02*
G01*
X250836426Y-105554203D01*
X250857250Y-105559419D01*
X250877462Y-105566651D01*
X250896868Y-105575830D01*
X250915281Y-105586866D01*
X250932524Y-105599654D01*
X250948430Y-105614070D01*
X250962846Y-105629976D01*
X250975634Y-105647219D01*
X250986670Y-105665632D01*
X250995849Y-105685038D01*
X251003081Y-105705250D01*
X251008297Y-105726074D01*
X251011447Y-105747309D01*
X251012500Y-105768750D01*
X251012500Y-106206250D01*
X251011447Y-106227691D01*
X251008297Y-106248926D01*
X251003081Y-106269750D01*
X250995849Y-106289962D01*
X250986670Y-106309368D01*
X250975634Y-106327781D01*
X250962846Y-106345024D01*
X250948430Y-106360930D01*
X250932524Y-106375346D01*
X250915281Y-106388134D01*
X250896868Y-106399170D01*
X250877462Y-106408349D01*
X250857250Y-106415581D01*
X250836426Y-106420797D01*
X250815191Y-106423947D01*
X250793750Y-106425000D01*
X250281250Y-106425000D01*
X250259809Y-106423947D01*
X250238574Y-106420797D01*
X250217750Y-106415581D01*
X250197538Y-106408349D01*
X250178132Y-106399170D01*
X250159719Y-106388134D01*
X250142476Y-106375346D01*
X250126570Y-106360930D01*
X250112154Y-106345024D01*
X250099366Y-106327781D01*
X250088330Y-106309368D01*
X250079151Y-106289962D01*
X250071919Y-106269750D01*
X250066703Y-106248926D01*
X250063553Y-106227691D01*
X250062500Y-106206250D01*
X250062500Y-105768750D01*
X250063553Y-105747309D01*
X250066703Y-105726074D01*
X250071919Y-105705250D01*
X250079151Y-105685038D01*
X250088330Y-105665632D01*
X250099366Y-105647219D01*
X250112154Y-105629976D01*
X250126570Y-105614070D01*
X250142476Y-105599654D01*
X250159719Y-105586866D01*
X250178132Y-105575830D01*
X250197538Y-105566651D01*
X250217750Y-105559419D01*
X250238574Y-105554203D01*
X250259809Y-105551053D01*
X250281250Y-105550000D01*
X250793750Y-105550000D01*
X250815191Y-105551053D01*
X250815191Y-105551053D01*
G37*
D16*
X250537500Y-105987500D03*
D13*
G36*
X247177691Y-103926053D02*
G01*
X247198926Y-103929203D01*
X247219750Y-103934419D01*
X247239962Y-103941651D01*
X247259368Y-103950830D01*
X247277781Y-103961866D01*
X247295024Y-103974654D01*
X247310930Y-103989070D01*
X247325346Y-104004976D01*
X247338134Y-104022219D01*
X247349170Y-104040632D01*
X247358349Y-104060038D01*
X247365581Y-104080250D01*
X247370797Y-104101074D01*
X247373947Y-104122309D01*
X247375000Y-104143750D01*
X247375000Y-104581250D01*
X247373947Y-104602691D01*
X247370797Y-104623926D01*
X247365581Y-104644750D01*
X247358349Y-104664962D01*
X247349170Y-104684368D01*
X247338134Y-104702781D01*
X247325346Y-104720024D01*
X247310930Y-104735930D01*
X247295024Y-104750346D01*
X247277781Y-104763134D01*
X247259368Y-104774170D01*
X247239962Y-104783349D01*
X247219750Y-104790581D01*
X247198926Y-104795797D01*
X247177691Y-104798947D01*
X247156250Y-104800000D01*
X246643750Y-104800000D01*
X246622309Y-104798947D01*
X246601074Y-104795797D01*
X246580250Y-104790581D01*
X246560038Y-104783349D01*
X246540632Y-104774170D01*
X246522219Y-104763134D01*
X246504976Y-104750346D01*
X246489070Y-104735930D01*
X246474654Y-104720024D01*
X246461866Y-104702781D01*
X246450830Y-104684368D01*
X246441651Y-104664962D01*
X246434419Y-104644750D01*
X246429203Y-104623926D01*
X246426053Y-104602691D01*
X246425000Y-104581250D01*
X246425000Y-104143750D01*
X246426053Y-104122309D01*
X246429203Y-104101074D01*
X246434419Y-104080250D01*
X246441651Y-104060038D01*
X246450830Y-104040632D01*
X246461866Y-104022219D01*
X246474654Y-104004976D01*
X246489070Y-103989070D01*
X246504976Y-103974654D01*
X246522219Y-103961866D01*
X246540632Y-103950830D01*
X246560038Y-103941651D01*
X246580250Y-103934419D01*
X246601074Y-103929203D01*
X246622309Y-103926053D01*
X246643750Y-103925000D01*
X247156250Y-103925000D01*
X247177691Y-103926053D01*
X247177691Y-103926053D01*
G37*
D16*
X246900000Y-104362500D03*
D13*
G36*
X247177691Y-105501053D02*
G01*
X247198926Y-105504203D01*
X247219750Y-105509419D01*
X247239962Y-105516651D01*
X247259368Y-105525830D01*
X247277781Y-105536866D01*
X247295024Y-105549654D01*
X247310930Y-105564070D01*
X247325346Y-105579976D01*
X247338134Y-105597219D01*
X247349170Y-105615632D01*
X247358349Y-105635038D01*
X247365581Y-105655250D01*
X247370797Y-105676074D01*
X247373947Y-105697309D01*
X247375000Y-105718750D01*
X247375000Y-106156250D01*
X247373947Y-106177691D01*
X247370797Y-106198926D01*
X247365581Y-106219750D01*
X247358349Y-106239962D01*
X247349170Y-106259368D01*
X247338134Y-106277781D01*
X247325346Y-106295024D01*
X247310930Y-106310930D01*
X247295024Y-106325346D01*
X247277781Y-106338134D01*
X247259368Y-106349170D01*
X247239962Y-106358349D01*
X247219750Y-106365581D01*
X247198926Y-106370797D01*
X247177691Y-106373947D01*
X247156250Y-106375000D01*
X246643750Y-106375000D01*
X246622309Y-106373947D01*
X246601074Y-106370797D01*
X246580250Y-106365581D01*
X246560038Y-106358349D01*
X246540632Y-106349170D01*
X246522219Y-106338134D01*
X246504976Y-106325346D01*
X246489070Y-106310930D01*
X246474654Y-106295024D01*
X246461866Y-106277781D01*
X246450830Y-106259368D01*
X246441651Y-106239962D01*
X246434419Y-106219750D01*
X246429203Y-106198926D01*
X246426053Y-106177691D01*
X246425000Y-106156250D01*
X246425000Y-105718750D01*
X246426053Y-105697309D01*
X246429203Y-105676074D01*
X246434419Y-105655250D01*
X246441651Y-105635038D01*
X246450830Y-105615632D01*
X246461866Y-105597219D01*
X246474654Y-105579976D01*
X246489070Y-105564070D01*
X246504976Y-105549654D01*
X246522219Y-105536866D01*
X246540632Y-105525830D01*
X246560038Y-105516651D01*
X246580250Y-105509419D01*
X246601074Y-105504203D01*
X246622309Y-105501053D01*
X246643750Y-105500000D01*
X247156250Y-105500000D01*
X247177691Y-105501053D01*
X247177691Y-105501053D01*
G37*
D16*
X246900000Y-105937500D03*
D13*
G36*
X212227691Y-144726053D02*
G01*
X212248926Y-144729203D01*
X212269750Y-144734419D01*
X212289962Y-144741651D01*
X212309368Y-144750830D01*
X212327781Y-144761866D01*
X212345024Y-144774654D01*
X212360930Y-144789070D01*
X212375346Y-144804976D01*
X212388134Y-144822219D01*
X212399170Y-144840632D01*
X212408349Y-144860038D01*
X212415581Y-144880250D01*
X212420797Y-144901074D01*
X212423947Y-144922309D01*
X212425000Y-144943750D01*
X212425000Y-145456250D01*
X212423947Y-145477691D01*
X212420797Y-145498926D01*
X212415581Y-145519750D01*
X212408349Y-145539962D01*
X212399170Y-145559368D01*
X212388134Y-145577781D01*
X212375346Y-145595024D01*
X212360930Y-145610930D01*
X212345024Y-145625346D01*
X212327781Y-145638134D01*
X212309368Y-145649170D01*
X212289962Y-145658349D01*
X212269750Y-145665581D01*
X212248926Y-145670797D01*
X212227691Y-145673947D01*
X212206250Y-145675000D01*
X211768750Y-145675000D01*
X211747309Y-145673947D01*
X211726074Y-145670797D01*
X211705250Y-145665581D01*
X211685038Y-145658349D01*
X211665632Y-145649170D01*
X211647219Y-145638134D01*
X211629976Y-145625346D01*
X211614070Y-145610930D01*
X211599654Y-145595024D01*
X211586866Y-145577781D01*
X211575830Y-145559368D01*
X211566651Y-145539962D01*
X211559419Y-145519750D01*
X211554203Y-145498926D01*
X211551053Y-145477691D01*
X211550000Y-145456250D01*
X211550000Y-144943750D01*
X211551053Y-144922309D01*
X211554203Y-144901074D01*
X211559419Y-144880250D01*
X211566651Y-144860038D01*
X211575830Y-144840632D01*
X211586866Y-144822219D01*
X211599654Y-144804976D01*
X211614070Y-144789070D01*
X211629976Y-144774654D01*
X211647219Y-144761866D01*
X211665632Y-144750830D01*
X211685038Y-144741651D01*
X211705250Y-144734419D01*
X211726074Y-144729203D01*
X211747309Y-144726053D01*
X211768750Y-144725000D01*
X212206250Y-144725000D01*
X212227691Y-144726053D01*
X212227691Y-144726053D01*
G37*
D16*
X211987500Y-145200000D03*
D13*
G36*
X210652691Y-144726053D02*
G01*
X210673926Y-144729203D01*
X210694750Y-144734419D01*
X210714962Y-144741651D01*
X210734368Y-144750830D01*
X210752781Y-144761866D01*
X210770024Y-144774654D01*
X210785930Y-144789070D01*
X210800346Y-144804976D01*
X210813134Y-144822219D01*
X210824170Y-144840632D01*
X210833349Y-144860038D01*
X210840581Y-144880250D01*
X210845797Y-144901074D01*
X210848947Y-144922309D01*
X210850000Y-144943750D01*
X210850000Y-145456250D01*
X210848947Y-145477691D01*
X210845797Y-145498926D01*
X210840581Y-145519750D01*
X210833349Y-145539962D01*
X210824170Y-145559368D01*
X210813134Y-145577781D01*
X210800346Y-145595024D01*
X210785930Y-145610930D01*
X210770024Y-145625346D01*
X210752781Y-145638134D01*
X210734368Y-145649170D01*
X210714962Y-145658349D01*
X210694750Y-145665581D01*
X210673926Y-145670797D01*
X210652691Y-145673947D01*
X210631250Y-145675000D01*
X210193750Y-145675000D01*
X210172309Y-145673947D01*
X210151074Y-145670797D01*
X210130250Y-145665581D01*
X210110038Y-145658349D01*
X210090632Y-145649170D01*
X210072219Y-145638134D01*
X210054976Y-145625346D01*
X210039070Y-145610930D01*
X210024654Y-145595024D01*
X210011866Y-145577781D01*
X210000830Y-145559368D01*
X209991651Y-145539962D01*
X209984419Y-145519750D01*
X209979203Y-145498926D01*
X209976053Y-145477691D01*
X209975000Y-145456250D01*
X209975000Y-144943750D01*
X209976053Y-144922309D01*
X209979203Y-144901074D01*
X209984419Y-144880250D01*
X209991651Y-144860038D01*
X210000830Y-144840632D01*
X210011866Y-144822219D01*
X210024654Y-144804976D01*
X210039070Y-144789070D01*
X210054976Y-144774654D01*
X210072219Y-144761866D01*
X210090632Y-144750830D01*
X210110038Y-144741651D01*
X210130250Y-144734419D01*
X210151074Y-144729203D01*
X210172309Y-144726053D01*
X210193750Y-144725000D01*
X210631250Y-144725000D01*
X210652691Y-144726053D01*
X210652691Y-144726053D01*
G37*
D16*
X210412500Y-145200000D03*
D13*
G36*
X210652691Y-143126053D02*
G01*
X210673926Y-143129203D01*
X210694750Y-143134419D01*
X210714962Y-143141651D01*
X210734368Y-143150830D01*
X210752781Y-143161866D01*
X210770024Y-143174654D01*
X210785930Y-143189070D01*
X210800346Y-143204976D01*
X210813134Y-143222219D01*
X210824170Y-143240632D01*
X210833349Y-143260038D01*
X210840581Y-143280250D01*
X210845797Y-143301074D01*
X210848947Y-143322309D01*
X210850000Y-143343750D01*
X210850000Y-143856250D01*
X210848947Y-143877691D01*
X210845797Y-143898926D01*
X210840581Y-143919750D01*
X210833349Y-143939962D01*
X210824170Y-143959368D01*
X210813134Y-143977781D01*
X210800346Y-143995024D01*
X210785930Y-144010930D01*
X210770024Y-144025346D01*
X210752781Y-144038134D01*
X210734368Y-144049170D01*
X210714962Y-144058349D01*
X210694750Y-144065581D01*
X210673926Y-144070797D01*
X210652691Y-144073947D01*
X210631250Y-144075000D01*
X210193750Y-144075000D01*
X210172309Y-144073947D01*
X210151074Y-144070797D01*
X210130250Y-144065581D01*
X210110038Y-144058349D01*
X210090632Y-144049170D01*
X210072219Y-144038134D01*
X210054976Y-144025346D01*
X210039070Y-144010930D01*
X210024654Y-143995024D01*
X210011866Y-143977781D01*
X210000830Y-143959368D01*
X209991651Y-143939962D01*
X209984419Y-143919750D01*
X209979203Y-143898926D01*
X209976053Y-143877691D01*
X209975000Y-143856250D01*
X209975000Y-143343750D01*
X209976053Y-143322309D01*
X209979203Y-143301074D01*
X209984419Y-143280250D01*
X209991651Y-143260038D01*
X210000830Y-143240632D01*
X210011866Y-143222219D01*
X210024654Y-143204976D01*
X210039070Y-143189070D01*
X210054976Y-143174654D01*
X210072219Y-143161866D01*
X210090632Y-143150830D01*
X210110038Y-143141651D01*
X210130250Y-143134419D01*
X210151074Y-143129203D01*
X210172309Y-143126053D01*
X210193750Y-143125000D01*
X210631250Y-143125000D01*
X210652691Y-143126053D01*
X210652691Y-143126053D01*
G37*
D16*
X210412500Y-143600000D03*
D13*
G36*
X212227691Y-143126053D02*
G01*
X212248926Y-143129203D01*
X212269750Y-143134419D01*
X212289962Y-143141651D01*
X212309368Y-143150830D01*
X212327781Y-143161866D01*
X212345024Y-143174654D01*
X212360930Y-143189070D01*
X212375346Y-143204976D01*
X212388134Y-143222219D01*
X212399170Y-143240632D01*
X212408349Y-143260038D01*
X212415581Y-143280250D01*
X212420797Y-143301074D01*
X212423947Y-143322309D01*
X212425000Y-143343750D01*
X212425000Y-143856250D01*
X212423947Y-143877691D01*
X212420797Y-143898926D01*
X212415581Y-143919750D01*
X212408349Y-143939962D01*
X212399170Y-143959368D01*
X212388134Y-143977781D01*
X212375346Y-143995024D01*
X212360930Y-144010930D01*
X212345024Y-144025346D01*
X212327781Y-144038134D01*
X212309368Y-144049170D01*
X212289962Y-144058349D01*
X212269750Y-144065581D01*
X212248926Y-144070797D01*
X212227691Y-144073947D01*
X212206250Y-144075000D01*
X211768750Y-144075000D01*
X211747309Y-144073947D01*
X211726074Y-144070797D01*
X211705250Y-144065581D01*
X211685038Y-144058349D01*
X211665632Y-144049170D01*
X211647219Y-144038134D01*
X211629976Y-144025346D01*
X211614070Y-144010930D01*
X211599654Y-143995024D01*
X211586866Y-143977781D01*
X211575830Y-143959368D01*
X211566651Y-143939962D01*
X211559419Y-143919750D01*
X211554203Y-143898926D01*
X211551053Y-143877691D01*
X211550000Y-143856250D01*
X211550000Y-143343750D01*
X211551053Y-143322309D01*
X211554203Y-143301074D01*
X211559419Y-143280250D01*
X211566651Y-143260038D01*
X211575830Y-143240632D01*
X211586866Y-143222219D01*
X211599654Y-143204976D01*
X211614070Y-143189070D01*
X211629976Y-143174654D01*
X211647219Y-143161866D01*
X211665632Y-143150830D01*
X211685038Y-143141651D01*
X211705250Y-143134419D01*
X211726074Y-143129203D01*
X211747309Y-143126053D01*
X211768750Y-143125000D01*
X212206250Y-143125000D01*
X212227691Y-143126053D01*
X212227691Y-143126053D01*
G37*
D16*
X211987500Y-143600000D03*
D13*
G36*
X213752691Y-144726053D02*
G01*
X213773926Y-144729203D01*
X213794750Y-144734419D01*
X213814962Y-144741651D01*
X213834368Y-144750830D01*
X213852781Y-144761866D01*
X213870024Y-144774654D01*
X213885930Y-144789070D01*
X213900346Y-144804976D01*
X213913134Y-144822219D01*
X213924170Y-144840632D01*
X213933349Y-144860038D01*
X213940581Y-144880250D01*
X213945797Y-144901074D01*
X213948947Y-144922309D01*
X213950000Y-144943750D01*
X213950000Y-145456250D01*
X213948947Y-145477691D01*
X213945797Y-145498926D01*
X213940581Y-145519750D01*
X213933349Y-145539962D01*
X213924170Y-145559368D01*
X213913134Y-145577781D01*
X213900346Y-145595024D01*
X213885930Y-145610930D01*
X213870024Y-145625346D01*
X213852781Y-145638134D01*
X213834368Y-145649170D01*
X213814962Y-145658349D01*
X213794750Y-145665581D01*
X213773926Y-145670797D01*
X213752691Y-145673947D01*
X213731250Y-145675000D01*
X213293750Y-145675000D01*
X213272309Y-145673947D01*
X213251074Y-145670797D01*
X213230250Y-145665581D01*
X213210038Y-145658349D01*
X213190632Y-145649170D01*
X213172219Y-145638134D01*
X213154976Y-145625346D01*
X213139070Y-145610930D01*
X213124654Y-145595024D01*
X213111866Y-145577781D01*
X213100830Y-145559368D01*
X213091651Y-145539962D01*
X213084419Y-145519750D01*
X213079203Y-145498926D01*
X213076053Y-145477691D01*
X213075000Y-145456250D01*
X213075000Y-144943750D01*
X213076053Y-144922309D01*
X213079203Y-144901074D01*
X213084419Y-144880250D01*
X213091651Y-144860038D01*
X213100830Y-144840632D01*
X213111866Y-144822219D01*
X213124654Y-144804976D01*
X213139070Y-144789070D01*
X213154976Y-144774654D01*
X213172219Y-144761866D01*
X213190632Y-144750830D01*
X213210038Y-144741651D01*
X213230250Y-144734419D01*
X213251074Y-144729203D01*
X213272309Y-144726053D01*
X213293750Y-144725000D01*
X213731250Y-144725000D01*
X213752691Y-144726053D01*
X213752691Y-144726053D01*
G37*
D16*
X213512500Y-145200000D03*
D13*
G36*
X215327691Y-144726053D02*
G01*
X215348926Y-144729203D01*
X215369750Y-144734419D01*
X215389962Y-144741651D01*
X215409368Y-144750830D01*
X215427781Y-144761866D01*
X215445024Y-144774654D01*
X215460930Y-144789070D01*
X215475346Y-144804976D01*
X215488134Y-144822219D01*
X215499170Y-144840632D01*
X215508349Y-144860038D01*
X215515581Y-144880250D01*
X215520797Y-144901074D01*
X215523947Y-144922309D01*
X215525000Y-144943750D01*
X215525000Y-145456250D01*
X215523947Y-145477691D01*
X215520797Y-145498926D01*
X215515581Y-145519750D01*
X215508349Y-145539962D01*
X215499170Y-145559368D01*
X215488134Y-145577781D01*
X215475346Y-145595024D01*
X215460930Y-145610930D01*
X215445024Y-145625346D01*
X215427781Y-145638134D01*
X215409368Y-145649170D01*
X215389962Y-145658349D01*
X215369750Y-145665581D01*
X215348926Y-145670797D01*
X215327691Y-145673947D01*
X215306250Y-145675000D01*
X214868750Y-145675000D01*
X214847309Y-145673947D01*
X214826074Y-145670797D01*
X214805250Y-145665581D01*
X214785038Y-145658349D01*
X214765632Y-145649170D01*
X214747219Y-145638134D01*
X214729976Y-145625346D01*
X214714070Y-145610930D01*
X214699654Y-145595024D01*
X214686866Y-145577781D01*
X214675830Y-145559368D01*
X214666651Y-145539962D01*
X214659419Y-145519750D01*
X214654203Y-145498926D01*
X214651053Y-145477691D01*
X214650000Y-145456250D01*
X214650000Y-144943750D01*
X214651053Y-144922309D01*
X214654203Y-144901074D01*
X214659419Y-144880250D01*
X214666651Y-144860038D01*
X214675830Y-144840632D01*
X214686866Y-144822219D01*
X214699654Y-144804976D01*
X214714070Y-144789070D01*
X214729976Y-144774654D01*
X214747219Y-144761866D01*
X214765632Y-144750830D01*
X214785038Y-144741651D01*
X214805250Y-144734419D01*
X214826074Y-144729203D01*
X214847309Y-144726053D01*
X214868750Y-144725000D01*
X215306250Y-144725000D01*
X215327691Y-144726053D01*
X215327691Y-144726053D01*
G37*
D16*
X215087500Y-145200000D03*
D13*
G36*
X215327691Y-143126053D02*
G01*
X215348926Y-143129203D01*
X215369750Y-143134419D01*
X215389962Y-143141651D01*
X215409368Y-143150830D01*
X215427781Y-143161866D01*
X215445024Y-143174654D01*
X215460930Y-143189070D01*
X215475346Y-143204976D01*
X215488134Y-143222219D01*
X215499170Y-143240632D01*
X215508349Y-143260038D01*
X215515581Y-143280250D01*
X215520797Y-143301074D01*
X215523947Y-143322309D01*
X215525000Y-143343750D01*
X215525000Y-143856250D01*
X215523947Y-143877691D01*
X215520797Y-143898926D01*
X215515581Y-143919750D01*
X215508349Y-143939962D01*
X215499170Y-143959368D01*
X215488134Y-143977781D01*
X215475346Y-143995024D01*
X215460930Y-144010930D01*
X215445024Y-144025346D01*
X215427781Y-144038134D01*
X215409368Y-144049170D01*
X215389962Y-144058349D01*
X215369750Y-144065581D01*
X215348926Y-144070797D01*
X215327691Y-144073947D01*
X215306250Y-144075000D01*
X214868750Y-144075000D01*
X214847309Y-144073947D01*
X214826074Y-144070797D01*
X214805250Y-144065581D01*
X214785038Y-144058349D01*
X214765632Y-144049170D01*
X214747219Y-144038134D01*
X214729976Y-144025346D01*
X214714070Y-144010930D01*
X214699654Y-143995024D01*
X214686866Y-143977781D01*
X214675830Y-143959368D01*
X214666651Y-143939962D01*
X214659419Y-143919750D01*
X214654203Y-143898926D01*
X214651053Y-143877691D01*
X214650000Y-143856250D01*
X214650000Y-143343750D01*
X214651053Y-143322309D01*
X214654203Y-143301074D01*
X214659419Y-143280250D01*
X214666651Y-143260038D01*
X214675830Y-143240632D01*
X214686866Y-143222219D01*
X214699654Y-143204976D01*
X214714070Y-143189070D01*
X214729976Y-143174654D01*
X214747219Y-143161866D01*
X214765632Y-143150830D01*
X214785038Y-143141651D01*
X214805250Y-143134419D01*
X214826074Y-143129203D01*
X214847309Y-143126053D01*
X214868750Y-143125000D01*
X215306250Y-143125000D01*
X215327691Y-143126053D01*
X215327691Y-143126053D01*
G37*
D16*
X215087500Y-143600000D03*
D13*
G36*
X213752691Y-143126053D02*
G01*
X213773926Y-143129203D01*
X213794750Y-143134419D01*
X213814962Y-143141651D01*
X213834368Y-143150830D01*
X213852781Y-143161866D01*
X213870024Y-143174654D01*
X213885930Y-143189070D01*
X213900346Y-143204976D01*
X213913134Y-143222219D01*
X213924170Y-143240632D01*
X213933349Y-143260038D01*
X213940581Y-143280250D01*
X213945797Y-143301074D01*
X213948947Y-143322309D01*
X213950000Y-143343750D01*
X213950000Y-143856250D01*
X213948947Y-143877691D01*
X213945797Y-143898926D01*
X213940581Y-143919750D01*
X213933349Y-143939962D01*
X213924170Y-143959368D01*
X213913134Y-143977781D01*
X213900346Y-143995024D01*
X213885930Y-144010930D01*
X213870024Y-144025346D01*
X213852781Y-144038134D01*
X213834368Y-144049170D01*
X213814962Y-144058349D01*
X213794750Y-144065581D01*
X213773926Y-144070797D01*
X213752691Y-144073947D01*
X213731250Y-144075000D01*
X213293750Y-144075000D01*
X213272309Y-144073947D01*
X213251074Y-144070797D01*
X213230250Y-144065581D01*
X213210038Y-144058349D01*
X213190632Y-144049170D01*
X213172219Y-144038134D01*
X213154976Y-144025346D01*
X213139070Y-144010930D01*
X213124654Y-143995024D01*
X213111866Y-143977781D01*
X213100830Y-143959368D01*
X213091651Y-143939962D01*
X213084419Y-143919750D01*
X213079203Y-143898926D01*
X213076053Y-143877691D01*
X213075000Y-143856250D01*
X213075000Y-143343750D01*
X213076053Y-143322309D01*
X213079203Y-143301074D01*
X213084419Y-143280250D01*
X213091651Y-143260038D01*
X213100830Y-143240632D01*
X213111866Y-143222219D01*
X213124654Y-143204976D01*
X213139070Y-143189070D01*
X213154976Y-143174654D01*
X213172219Y-143161866D01*
X213190632Y-143150830D01*
X213210038Y-143141651D01*
X213230250Y-143134419D01*
X213251074Y-143129203D01*
X213272309Y-143126053D01*
X213293750Y-143125000D01*
X213731250Y-143125000D01*
X213752691Y-143126053D01*
X213752691Y-143126053D01*
G37*
D16*
X213512500Y-143600000D03*
D13*
G36*
X231577691Y-101376053D02*
G01*
X231598926Y-101379203D01*
X231619750Y-101384419D01*
X231639962Y-101391651D01*
X231659368Y-101400830D01*
X231677781Y-101411866D01*
X231695024Y-101424654D01*
X231710930Y-101439070D01*
X231725346Y-101454976D01*
X231738134Y-101472219D01*
X231749170Y-101490632D01*
X231758349Y-101510038D01*
X231765581Y-101530250D01*
X231770797Y-101551074D01*
X231773947Y-101572309D01*
X231775000Y-101593750D01*
X231775000Y-102031250D01*
X231773947Y-102052691D01*
X231770797Y-102073926D01*
X231765581Y-102094750D01*
X231758349Y-102114962D01*
X231749170Y-102134368D01*
X231738134Y-102152781D01*
X231725346Y-102170024D01*
X231710930Y-102185930D01*
X231695024Y-102200346D01*
X231677781Y-102213134D01*
X231659368Y-102224170D01*
X231639962Y-102233349D01*
X231619750Y-102240581D01*
X231598926Y-102245797D01*
X231577691Y-102248947D01*
X231556250Y-102250000D01*
X231043750Y-102250000D01*
X231022309Y-102248947D01*
X231001074Y-102245797D01*
X230980250Y-102240581D01*
X230960038Y-102233349D01*
X230940632Y-102224170D01*
X230922219Y-102213134D01*
X230904976Y-102200346D01*
X230889070Y-102185930D01*
X230874654Y-102170024D01*
X230861866Y-102152781D01*
X230850830Y-102134368D01*
X230841651Y-102114962D01*
X230834419Y-102094750D01*
X230829203Y-102073926D01*
X230826053Y-102052691D01*
X230825000Y-102031250D01*
X230825000Y-101593750D01*
X230826053Y-101572309D01*
X230829203Y-101551074D01*
X230834419Y-101530250D01*
X230841651Y-101510038D01*
X230850830Y-101490632D01*
X230861866Y-101472219D01*
X230874654Y-101454976D01*
X230889070Y-101439070D01*
X230904976Y-101424654D01*
X230922219Y-101411866D01*
X230940632Y-101400830D01*
X230960038Y-101391651D01*
X230980250Y-101384419D01*
X231001074Y-101379203D01*
X231022309Y-101376053D01*
X231043750Y-101375000D01*
X231556250Y-101375000D01*
X231577691Y-101376053D01*
X231577691Y-101376053D01*
G37*
D16*
X231300000Y-101812500D03*
D13*
G36*
X231577691Y-102951053D02*
G01*
X231598926Y-102954203D01*
X231619750Y-102959419D01*
X231639962Y-102966651D01*
X231659368Y-102975830D01*
X231677781Y-102986866D01*
X231695024Y-102999654D01*
X231710930Y-103014070D01*
X231725346Y-103029976D01*
X231738134Y-103047219D01*
X231749170Y-103065632D01*
X231758349Y-103085038D01*
X231765581Y-103105250D01*
X231770797Y-103126074D01*
X231773947Y-103147309D01*
X231775000Y-103168750D01*
X231775000Y-103606250D01*
X231773947Y-103627691D01*
X231770797Y-103648926D01*
X231765581Y-103669750D01*
X231758349Y-103689962D01*
X231749170Y-103709368D01*
X231738134Y-103727781D01*
X231725346Y-103745024D01*
X231710930Y-103760930D01*
X231695024Y-103775346D01*
X231677781Y-103788134D01*
X231659368Y-103799170D01*
X231639962Y-103808349D01*
X231619750Y-103815581D01*
X231598926Y-103820797D01*
X231577691Y-103823947D01*
X231556250Y-103825000D01*
X231043750Y-103825000D01*
X231022309Y-103823947D01*
X231001074Y-103820797D01*
X230980250Y-103815581D01*
X230960038Y-103808349D01*
X230940632Y-103799170D01*
X230922219Y-103788134D01*
X230904976Y-103775346D01*
X230889070Y-103760930D01*
X230874654Y-103745024D01*
X230861866Y-103727781D01*
X230850830Y-103709368D01*
X230841651Y-103689962D01*
X230834419Y-103669750D01*
X230829203Y-103648926D01*
X230826053Y-103627691D01*
X230825000Y-103606250D01*
X230825000Y-103168750D01*
X230826053Y-103147309D01*
X230829203Y-103126074D01*
X230834419Y-103105250D01*
X230841651Y-103085038D01*
X230850830Y-103065632D01*
X230861866Y-103047219D01*
X230874654Y-103029976D01*
X230889070Y-103014070D01*
X230904976Y-102999654D01*
X230922219Y-102986866D01*
X230940632Y-102975830D01*
X230960038Y-102966651D01*
X230980250Y-102959419D01*
X231001074Y-102954203D01*
X231022309Y-102951053D01*
X231043750Y-102950000D01*
X231556250Y-102950000D01*
X231577691Y-102951053D01*
X231577691Y-102951053D01*
G37*
D16*
X231300000Y-103387500D03*
D13*
G36*
X251030142Y-106976174D02*
G01*
X251053803Y-106979684D01*
X251077007Y-106985496D01*
X251099529Y-106993554D01*
X251121153Y-107003782D01*
X251141670Y-107016079D01*
X251160883Y-107030329D01*
X251178607Y-107046393D01*
X251194671Y-107064117D01*
X251208921Y-107083330D01*
X251221218Y-107103847D01*
X251231446Y-107125471D01*
X251239504Y-107147993D01*
X251245316Y-107171197D01*
X251248826Y-107194858D01*
X251250000Y-107218750D01*
X251250000Y-107706250D01*
X251248826Y-107730142D01*
X251245316Y-107753803D01*
X251239504Y-107777007D01*
X251231446Y-107799529D01*
X251221218Y-107821153D01*
X251208921Y-107841670D01*
X251194671Y-107860883D01*
X251178607Y-107878607D01*
X251160883Y-107894671D01*
X251141670Y-107908921D01*
X251121153Y-107921218D01*
X251099529Y-107931446D01*
X251077007Y-107939504D01*
X251053803Y-107945316D01*
X251030142Y-107948826D01*
X251006250Y-107950000D01*
X250093750Y-107950000D01*
X250069858Y-107948826D01*
X250046197Y-107945316D01*
X250022993Y-107939504D01*
X250000471Y-107931446D01*
X249978847Y-107921218D01*
X249958330Y-107908921D01*
X249939117Y-107894671D01*
X249921393Y-107878607D01*
X249905329Y-107860883D01*
X249891079Y-107841670D01*
X249878782Y-107821153D01*
X249868554Y-107799529D01*
X249860496Y-107777007D01*
X249854684Y-107753803D01*
X249851174Y-107730142D01*
X249850000Y-107706250D01*
X249850000Y-107218750D01*
X249851174Y-107194858D01*
X249854684Y-107171197D01*
X249860496Y-107147993D01*
X249868554Y-107125471D01*
X249878782Y-107103847D01*
X249891079Y-107083330D01*
X249905329Y-107064117D01*
X249921393Y-107046393D01*
X249939117Y-107030329D01*
X249958330Y-107016079D01*
X249978847Y-107003782D01*
X250000471Y-106993554D01*
X250022993Y-106985496D01*
X250046197Y-106979684D01*
X250069858Y-106976174D01*
X250093750Y-106975000D01*
X251006250Y-106975000D01*
X251030142Y-106976174D01*
X251030142Y-106976174D01*
G37*
D17*
X250550000Y-107462500D03*
D13*
G36*
X251030142Y-108851174D02*
G01*
X251053803Y-108854684D01*
X251077007Y-108860496D01*
X251099529Y-108868554D01*
X251121153Y-108878782D01*
X251141670Y-108891079D01*
X251160883Y-108905329D01*
X251178607Y-108921393D01*
X251194671Y-108939117D01*
X251208921Y-108958330D01*
X251221218Y-108978847D01*
X251231446Y-109000471D01*
X251239504Y-109022993D01*
X251245316Y-109046197D01*
X251248826Y-109069858D01*
X251250000Y-109093750D01*
X251250000Y-109581250D01*
X251248826Y-109605142D01*
X251245316Y-109628803D01*
X251239504Y-109652007D01*
X251231446Y-109674529D01*
X251221218Y-109696153D01*
X251208921Y-109716670D01*
X251194671Y-109735883D01*
X251178607Y-109753607D01*
X251160883Y-109769671D01*
X251141670Y-109783921D01*
X251121153Y-109796218D01*
X251099529Y-109806446D01*
X251077007Y-109814504D01*
X251053803Y-109820316D01*
X251030142Y-109823826D01*
X251006250Y-109825000D01*
X250093750Y-109825000D01*
X250069858Y-109823826D01*
X250046197Y-109820316D01*
X250022993Y-109814504D01*
X250000471Y-109806446D01*
X249978847Y-109796218D01*
X249958330Y-109783921D01*
X249939117Y-109769671D01*
X249921393Y-109753607D01*
X249905329Y-109735883D01*
X249891079Y-109716670D01*
X249878782Y-109696153D01*
X249868554Y-109674529D01*
X249860496Y-109652007D01*
X249854684Y-109628803D01*
X249851174Y-109605142D01*
X249850000Y-109581250D01*
X249850000Y-109093750D01*
X249851174Y-109069858D01*
X249854684Y-109046197D01*
X249860496Y-109022993D01*
X249868554Y-109000471D01*
X249878782Y-108978847D01*
X249891079Y-108958330D01*
X249905329Y-108939117D01*
X249921393Y-108921393D01*
X249939117Y-108905329D01*
X249958330Y-108891079D01*
X249978847Y-108878782D01*
X250000471Y-108868554D01*
X250022993Y-108860496D01*
X250046197Y-108854684D01*
X250069858Y-108851174D01*
X250093750Y-108850000D01*
X251006250Y-108850000D01*
X251030142Y-108851174D01*
X251030142Y-108851174D01*
G37*
D17*
X250550000Y-109337500D03*
D13*
G36*
X247380142Y-106988674D02*
G01*
X247403803Y-106992184D01*
X247427007Y-106997996D01*
X247449529Y-107006054D01*
X247471153Y-107016282D01*
X247491670Y-107028579D01*
X247510883Y-107042829D01*
X247528607Y-107058893D01*
X247544671Y-107076617D01*
X247558921Y-107095830D01*
X247571218Y-107116347D01*
X247581446Y-107137971D01*
X247589504Y-107160493D01*
X247595316Y-107183697D01*
X247598826Y-107207358D01*
X247600000Y-107231250D01*
X247600000Y-107718750D01*
X247598826Y-107742642D01*
X247595316Y-107766303D01*
X247589504Y-107789507D01*
X247581446Y-107812029D01*
X247571218Y-107833653D01*
X247558921Y-107854170D01*
X247544671Y-107873383D01*
X247528607Y-107891107D01*
X247510883Y-107907171D01*
X247491670Y-107921421D01*
X247471153Y-107933718D01*
X247449529Y-107943946D01*
X247427007Y-107952004D01*
X247403803Y-107957816D01*
X247380142Y-107961326D01*
X247356250Y-107962500D01*
X246443750Y-107962500D01*
X246419858Y-107961326D01*
X246396197Y-107957816D01*
X246372993Y-107952004D01*
X246350471Y-107943946D01*
X246328847Y-107933718D01*
X246308330Y-107921421D01*
X246289117Y-107907171D01*
X246271393Y-107891107D01*
X246255329Y-107873383D01*
X246241079Y-107854170D01*
X246228782Y-107833653D01*
X246218554Y-107812029D01*
X246210496Y-107789507D01*
X246204684Y-107766303D01*
X246201174Y-107742642D01*
X246200000Y-107718750D01*
X246200000Y-107231250D01*
X246201174Y-107207358D01*
X246204684Y-107183697D01*
X246210496Y-107160493D01*
X246218554Y-107137971D01*
X246228782Y-107116347D01*
X246241079Y-107095830D01*
X246255329Y-107076617D01*
X246271393Y-107058893D01*
X246289117Y-107042829D01*
X246308330Y-107028579D01*
X246328847Y-107016282D01*
X246350471Y-107006054D01*
X246372993Y-106997996D01*
X246396197Y-106992184D01*
X246419858Y-106988674D01*
X246443750Y-106987500D01*
X247356250Y-106987500D01*
X247380142Y-106988674D01*
X247380142Y-106988674D01*
G37*
D17*
X246900000Y-107475000D03*
D13*
G36*
X247380142Y-108863674D02*
G01*
X247403803Y-108867184D01*
X247427007Y-108872996D01*
X247449529Y-108881054D01*
X247471153Y-108891282D01*
X247491670Y-108903579D01*
X247510883Y-108917829D01*
X247528607Y-108933893D01*
X247544671Y-108951617D01*
X247558921Y-108970830D01*
X247571218Y-108991347D01*
X247581446Y-109012971D01*
X247589504Y-109035493D01*
X247595316Y-109058697D01*
X247598826Y-109082358D01*
X247600000Y-109106250D01*
X247600000Y-109593750D01*
X247598826Y-109617642D01*
X247595316Y-109641303D01*
X247589504Y-109664507D01*
X247581446Y-109687029D01*
X247571218Y-109708653D01*
X247558921Y-109729170D01*
X247544671Y-109748383D01*
X247528607Y-109766107D01*
X247510883Y-109782171D01*
X247491670Y-109796421D01*
X247471153Y-109808718D01*
X247449529Y-109818946D01*
X247427007Y-109827004D01*
X247403803Y-109832816D01*
X247380142Y-109836326D01*
X247356250Y-109837500D01*
X246443750Y-109837500D01*
X246419858Y-109836326D01*
X246396197Y-109832816D01*
X246372993Y-109827004D01*
X246350471Y-109818946D01*
X246328847Y-109808718D01*
X246308330Y-109796421D01*
X246289117Y-109782171D01*
X246271393Y-109766107D01*
X246255329Y-109748383D01*
X246241079Y-109729170D01*
X246228782Y-109708653D01*
X246218554Y-109687029D01*
X246210496Y-109664507D01*
X246204684Y-109641303D01*
X246201174Y-109617642D01*
X246200000Y-109593750D01*
X246200000Y-109106250D01*
X246201174Y-109082358D01*
X246204684Y-109058697D01*
X246210496Y-109035493D01*
X246218554Y-109012971D01*
X246228782Y-108991347D01*
X246241079Y-108970830D01*
X246255329Y-108951617D01*
X246271393Y-108933893D01*
X246289117Y-108917829D01*
X246308330Y-108903579D01*
X246328847Y-108891282D01*
X246350471Y-108881054D01*
X246372993Y-108872996D01*
X246396197Y-108867184D01*
X246419858Y-108863674D01*
X246443750Y-108862500D01*
X247356250Y-108862500D01*
X247380142Y-108863674D01*
X247380142Y-108863674D01*
G37*
D17*
X246900000Y-109350000D03*
D14*
X223400000Y-104250000D03*
X220600000Y-104250000D03*
X223400000Y-105750000D03*
X220600000Y-105750000D03*
D12*
X240520280Y-114459619D03*
D13*
G36*
X240732412Y-115449568D02*
G01*
X239530331Y-114247487D01*
X240308148Y-113469670D01*
X241510229Y-114671751D01*
X240732412Y-115449568D01*
X240732412Y-115449568D01*
G37*
D12*
X238540381Y-112479720D03*
D13*
G36*
X238752513Y-113469669D02*
G01*
X237550432Y-112267588D01*
X238328249Y-111489771D01*
X239530330Y-112691852D01*
X238752513Y-113469669D01*
X238752513Y-113469669D01*
G37*
D12*
X239459619Y-115520280D03*
D13*
G36*
X239671751Y-116510229D02*
G01*
X238469670Y-115308148D01*
X239247487Y-114530331D01*
X240449568Y-115732412D01*
X239671751Y-116510229D01*
X239671751Y-116510229D01*
G37*
D12*
X237479720Y-113540381D03*
D13*
G36*
X237691852Y-114530330D02*
G01*
X236489771Y-113328249D01*
X237267588Y-112550432D01*
X238469669Y-113752513D01*
X237691852Y-114530330D01*
X237691852Y-114530330D01*
G37*
G36*
X229977691Y-102951053D02*
G01*
X229998926Y-102954203D01*
X230019750Y-102959419D01*
X230039962Y-102966651D01*
X230059368Y-102975830D01*
X230077781Y-102986866D01*
X230095024Y-102999654D01*
X230110930Y-103014070D01*
X230125346Y-103029976D01*
X230138134Y-103047219D01*
X230149170Y-103065632D01*
X230158349Y-103085038D01*
X230165581Y-103105250D01*
X230170797Y-103126074D01*
X230173947Y-103147309D01*
X230175000Y-103168750D01*
X230175000Y-103606250D01*
X230173947Y-103627691D01*
X230170797Y-103648926D01*
X230165581Y-103669750D01*
X230158349Y-103689962D01*
X230149170Y-103709368D01*
X230138134Y-103727781D01*
X230125346Y-103745024D01*
X230110930Y-103760930D01*
X230095024Y-103775346D01*
X230077781Y-103788134D01*
X230059368Y-103799170D01*
X230039962Y-103808349D01*
X230019750Y-103815581D01*
X229998926Y-103820797D01*
X229977691Y-103823947D01*
X229956250Y-103825000D01*
X229443750Y-103825000D01*
X229422309Y-103823947D01*
X229401074Y-103820797D01*
X229380250Y-103815581D01*
X229360038Y-103808349D01*
X229340632Y-103799170D01*
X229322219Y-103788134D01*
X229304976Y-103775346D01*
X229289070Y-103760930D01*
X229274654Y-103745024D01*
X229261866Y-103727781D01*
X229250830Y-103709368D01*
X229241651Y-103689962D01*
X229234419Y-103669750D01*
X229229203Y-103648926D01*
X229226053Y-103627691D01*
X229225000Y-103606250D01*
X229225000Y-103168750D01*
X229226053Y-103147309D01*
X229229203Y-103126074D01*
X229234419Y-103105250D01*
X229241651Y-103085038D01*
X229250830Y-103065632D01*
X229261866Y-103047219D01*
X229274654Y-103029976D01*
X229289070Y-103014070D01*
X229304976Y-102999654D01*
X229322219Y-102986866D01*
X229340632Y-102975830D01*
X229360038Y-102966651D01*
X229380250Y-102959419D01*
X229401074Y-102954203D01*
X229422309Y-102951053D01*
X229443750Y-102950000D01*
X229956250Y-102950000D01*
X229977691Y-102951053D01*
X229977691Y-102951053D01*
G37*
D16*
X229700000Y-103387500D03*
D13*
G36*
X229977691Y-101376053D02*
G01*
X229998926Y-101379203D01*
X230019750Y-101384419D01*
X230039962Y-101391651D01*
X230059368Y-101400830D01*
X230077781Y-101411866D01*
X230095024Y-101424654D01*
X230110930Y-101439070D01*
X230125346Y-101454976D01*
X230138134Y-101472219D01*
X230149170Y-101490632D01*
X230158349Y-101510038D01*
X230165581Y-101530250D01*
X230170797Y-101551074D01*
X230173947Y-101572309D01*
X230175000Y-101593750D01*
X230175000Y-102031250D01*
X230173947Y-102052691D01*
X230170797Y-102073926D01*
X230165581Y-102094750D01*
X230158349Y-102114962D01*
X230149170Y-102134368D01*
X230138134Y-102152781D01*
X230125346Y-102170024D01*
X230110930Y-102185930D01*
X230095024Y-102200346D01*
X230077781Y-102213134D01*
X230059368Y-102224170D01*
X230039962Y-102233349D01*
X230019750Y-102240581D01*
X229998926Y-102245797D01*
X229977691Y-102248947D01*
X229956250Y-102250000D01*
X229443750Y-102250000D01*
X229422309Y-102248947D01*
X229401074Y-102245797D01*
X229380250Y-102240581D01*
X229360038Y-102233349D01*
X229340632Y-102224170D01*
X229322219Y-102213134D01*
X229304976Y-102200346D01*
X229289070Y-102185930D01*
X229274654Y-102170024D01*
X229261866Y-102152781D01*
X229250830Y-102134368D01*
X229241651Y-102114962D01*
X229234419Y-102094750D01*
X229229203Y-102073926D01*
X229226053Y-102052691D01*
X229225000Y-102031250D01*
X229225000Y-101593750D01*
X229226053Y-101572309D01*
X229229203Y-101551074D01*
X229234419Y-101530250D01*
X229241651Y-101510038D01*
X229250830Y-101490632D01*
X229261866Y-101472219D01*
X229274654Y-101454976D01*
X229289070Y-101439070D01*
X229304976Y-101424654D01*
X229322219Y-101411866D01*
X229340632Y-101400830D01*
X229360038Y-101391651D01*
X229380250Y-101384419D01*
X229401074Y-101379203D01*
X229422309Y-101376053D01*
X229443750Y-101375000D01*
X229956250Y-101375000D01*
X229977691Y-101376053D01*
X229977691Y-101376053D01*
G37*
D16*
X229700000Y-101812500D03*
D18*
X234000000Y-109800000D03*
X235600000Y-111500000D03*
X231900000Y-112000000D03*
X230000000Y-108400000D03*
X227000000Y-108600000D03*
X260000000Y-105000000D03*
X260000000Y-115000000D03*
X260000000Y-125000000D03*
X260000000Y-135000000D03*
X250000000Y-120000000D03*
X250000000Y-130000000D03*
X250000000Y-140000000D03*
X240000000Y-145000000D03*
X210000000Y-105000000D03*
X207400000Y-148100000D03*
X219400000Y-148300000D03*
X234303234Y-112691376D03*
X227000000Y-105100000D03*
X238500000Y-105700000D03*
X231300000Y-100850000D03*
X229700000Y-100850000D03*
X250550000Y-110250000D03*
X229000005Y-109500000D03*
X229700000Y-104300000D03*
X231299987Y-108200013D03*
X231300000Y-104300000D03*
X234491949Y-101325010D03*
D19*
X210910000Y-96230000D02*
X208370000Y-96230000D01*
D20*
X212950000Y-143600000D02*
X213512500Y-143600000D01*
X212800000Y-143750000D02*
X212950000Y-143600000D01*
X212650000Y-143600000D02*
X211987500Y-143600000D01*
X212800000Y-143750000D02*
X212650000Y-143600000D01*
X212800000Y-145200000D02*
X211987500Y-145200000D01*
X212800000Y-145200000D02*
X212800000Y-143750000D01*
X212800000Y-145200000D02*
X213512500Y-145200000D01*
D21*
X212800000Y-146325000D02*
X212800000Y-145200000D01*
D19*
X206900000Y-97700000D02*
X206900000Y-99000000D01*
X208370000Y-96230000D02*
X206900000Y-97700000D01*
X206900000Y-99000000D02*
X200800000Y-105100000D01*
X200800000Y-105100000D02*
X200800000Y-138000000D01*
X200800000Y-138000000D02*
X209500000Y-146700000D01*
X212425000Y-146700000D02*
X212800000Y-146325000D01*
X209500000Y-146700000D02*
X212425000Y-146700000D01*
D20*
X231300000Y-101812500D02*
X231300000Y-100850000D01*
X229700000Y-101812500D02*
X229700000Y-100850000D01*
X250550000Y-109337500D02*
X250550000Y-110250000D01*
X250550000Y-107462500D02*
X250550000Y-106000000D01*
D22*
X204787869Y-135848530D02*
X205459619Y-136520280D01*
X203100000Y-116960661D02*
X203100000Y-129900000D01*
X204540381Y-115520280D02*
X203100000Y-116960661D01*
X206300000Y-133100000D02*
X206300000Y-133700000D01*
X206300000Y-133700000D02*
X204787869Y-135212131D01*
X203100000Y-129900000D02*
X206300000Y-133100000D01*
X204787869Y-135212131D02*
X204787869Y-135848530D01*
X201900000Y-130839339D02*
X204540381Y-133479720D01*
X201900000Y-114050000D02*
X201900000Y-130839339D01*
X204150000Y-111800000D02*
X201900000Y-114050000D01*
X205459619Y-112479720D02*
X204779899Y-111800000D01*
X204779899Y-111800000D02*
X204150000Y-111800000D01*
X221750000Y-144249999D02*
X220600000Y-144249999D01*
X222100000Y-144599999D02*
X221750000Y-144249999D01*
X222100000Y-146700000D02*
X222100000Y-144599999D01*
X222400000Y-147000000D02*
X222100000Y-146700000D01*
X238787869Y-134151470D02*
X238787869Y-134862605D01*
X239459619Y-133479720D02*
X238787869Y-134151470D01*
X238787869Y-134862605D02*
X240037632Y-136112368D01*
X240037632Y-136112368D02*
X240037632Y-136912368D01*
X240037632Y-136912368D02*
X229950000Y-147000000D01*
X229950000Y-147000000D02*
X222400000Y-147000000D01*
X229349999Y-145750001D02*
X223400000Y-145750001D01*
X238949519Y-136587436D02*
X238512564Y-136587436D01*
X238512564Y-136587436D02*
X229349999Y-145750001D01*
X204151470Y-113787869D02*
X203479720Y-114459619D01*
X204787869Y-113787869D02*
X204151470Y-113787869D01*
X206000000Y-115000000D02*
X204787869Y-113787869D01*
X207300000Y-115000000D02*
X206000000Y-115000000D01*
X220600000Y-105750000D02*
X216550000Y-105750000D01*
X216550000Y-105750000D02*
X207300000Y-115000000D01*
X223400000Y-103300000D02*
X223400000Y-104250000D01*
X223200000Y-103100000D02*
X223400000Y-103300000D01*
X206520280Y-113540381D02*
X216960661Y-103100000D01*
X216960661Y-103100000D02*
X223200000Y-103100000D01*
D20*
X250537500Y-102312500D02*
X254100000Y-98750000D01*
X250537500Y-104412500D02*
X250537500Y-102312500D01*
X229375000Y-110200000D02*
X229950000Y-110200000D01*
X229275741Y-110200000D02*
X229375000Y-110200000D01*
X229000005Y-109924264D02*
X229275741Y-110200000D01*
X229000005Y-109500000D02*
X229000005Y-109924264D01*
X229700000Y-103387500D02*
X229700000Y-104300000D01*
X229700000Y-102800000D02*
X229700000Y-103400000D01*
X229500000Y-102600000D02*
X229700000Y-102800000D01*
X221070000Y-96230000D02*
X222350000Y-97510000D01*
X222350000Y-99450000D02*
X223550000Y-100650000D01*
X222350000Y-97510000D02*
X222350000Y-99450000D01*
X223550000Y-100650000D02*
X227150000Y-100650000D01*
X227150000Y-100650000D02*
X229100000Y-102600000D01*
X229100000Y-102600000D02*
X229500000Y-102600000D01*
D23*
X231200000Y-108300000D02*
X231299987Y-108200013D01*
D20*
X230999988Y-108500012D02*
X231299987Y-108200013D01*
X230999988Y-109924988D02*
X230999988Y-108500012D01*
X231850000Y-110200000D02*
X231275000Y-110200000D01*
X231275000Y-110200000D02*
X230999988Y-109924988D01*
X231300000Y-103387500D02*
X231300000Y-104300000D01*
X231300000Y-102850000D02*
X231300000Y-103387500D01*
X231550000Y-102600000D02*
X231300000Y-102850000D01*
X233850000Y-100700000D02*
X231950000Y-102600000D01*
X247080000Y-100700000D02*
X233850000Y-100700000D01*
X249010000Y-98770000D02*
X247080000Y-100700000D01*
X231950000Y-102600000D02*
X231550000Y-102600000D01*
D22*
X202500000Y-135520101D02*
X203479720Y-134540381D01*
X210412500Y-145200000D02*
X202500000Y-137287500D01*
X202500000Y-137287500D02*
X202500000Y-135520101D01*
X207350000Y-136289339D02*
X206520280Y-135459619D01*
X207350000Y-141250000D02*
X207350000Y-136289339D01*
X210412500Y-143600000D02*
X209700000Y-143600000D01*
X209700000Y-143600000D02*
X207350000Y-141250000D01*
X223400000Y-143525070D02*
X223400000Y-144249999D01*
X222974930Y-143100000D02*
X223400000Y-143525070D01*
X218700000Y-143100000D02*
X222974930Y-143100000D01*
X215087500Y-143600000D02*
X218200000Y-143600000D01*
X218200000Y-143600000D02*
X218700000Y-143100000D01*
X219150001Y-145750001D02*
X220600000Y-145750001D01*
X215087500Y-145200000D02*
X218600000Y-145200000D01*
X218600000Y-145200000D02*
X219150001Y-145750001D01*
X240649519Y-134550481D02*
X240349519Y-134550481D01*
X241900000Y-133300000D02*
X240649519Y-134550481D01*
X238151470Y-114212131D02*
X238687869Y-114212131D01*
X237479720Y-113540381D02*
X238151470Y-114212131D01*
X239780340Y-113119660D02*
X240869660Y-113119660D01*
X238687869Y-114212131D02*
X239780340Y-113119660D01*
X240869660Y-113119660D02*
X241900000Y-114150000D01*
X241900000Y-114150000D02*
X241900000Y-133300000D01*
X241192030Y-115131369D02*
X240520280Y-114459619D01*
X241192030Y-128307970D02*
X241192030Y-115131369D01*
X236700000Y-132800000D02*
X241192030Y-128307970D01*
X237650481Y-135837436D02*
X236700000Y-134886955D01*
X236700000Y-134886955D02*
X236700000Y-132800000D01*
X221750000Y-104250000D02*
X220600000Y-104250000D01*
X222000000Y-104500000D02*
X221750000Y-104250000D01*
X222000000Y-106380002D02*
X222000000Y-104500000D01*
X227975000Y-112200000D02*
X227819998Y-112200000D01*
X229325000Y-110850000D02*
X227975000Y-112200000D01*
X229950000Y-110850000D02*
X229325000Y-110850000D01*
X227819998Y-112200000D02*
X222000000Y-106380002D01*
X238729899Y-116250000D02*
X239459619Y-115520280D01*
X236750000Y-116250000D02*
X238729899Y-116250000D01*
X233800000Y-113300000D02*
X236750000Y-116250000D01*
X227819998Y-112200000D02*
X228919998Y-113300000D01*
X228919998Y-113300000D02*
X233800000Y-113300000D01*
X233985661Y-108039339D02*
X234100000Y-108039339D01*
X232475000Y-109550000D02*
X233985661Y-108039339D01*
X231850000Y-109550000D02*
X232475000Y-109550000D01*
X234100000Y-108039339D02*
X238540381Y-112479720D01*
X233360661Y-107300000D02*
X234100000Y-108039339D01*
X223900000Y-107300000D02*
X233360661Y-107300000D01*
X223400000Y-105750000D02*
X223400000Y-106800000D01*
X223400000Y-106800000D02*
X223900000Y-107300000D01*
D20*
X246900000Y-108600000D02*
X246900000Y-109400000D01*
X244175010Y-101325010D02*
X245650000Y-102800000D01*
X234491949Y-101325010D02*
X244175010Y-101325010D01*
X245650000Y-102800000D02*
X245650000Y-108100000D01*
X245650000Y-108100000D02*
X245975000Y-108425000D01*
X245975000Y-108425000D02*
X246725000Y-108425000D01*
X246725000Y-108425000D02*
X246900000Y-108600000D01*
X251550000Y-98770000D02*
X247950000Y-102370000D01*
X247950000Y-102370000D02*
X247930000Y-102370000D01*
X247930000Y-102370000D02*
X246900000Y-103400000D01*
X246900000Y-103400000D02*
X246900000Y-104400000D01*
X246900000Y-105937500D02*
X246900000Y-107500000D01*
D23*
G36*
X262494876Y-94500681D02*
G01*
X262970906Y-94644403D01*
X263409957Y-94877850D01*
X263795296Y-95192125D01*
X264112258Y-95575266D01*
X264348761Y-96012670D01*
X264495803Y-96487684D01*
X264550001Y-97003344D01*
X264550000Y-146977995D01*
X264499319Y-147494876D01*
X264355596Y-147970910D01*
X264122152Y-148409954D01*
X263807875Y-148795296D01*
X263424735Y-149112257D01*
X262987329Y-149348761D01*
X262512316Y-149495803D01*
X261996664Y-149550000D01*
X203022005Y-149550000D01*
X202505124Y-149499319D01*
X202029090Y-149355596D01*
X201590046Y-149122152D01*
X201204704Y-148807875D01*
X200887743Y-148424735D01*
X200651239Y-147987329D01*
X200504197Y-147512316D01*
X200450000Y-146996664D01*
X200450000Y-146327640D01*
X201750000Y-146327640D01*
X201750000Y-146672360D01*
X201817251Y-147010456D01*
X201949170Y-147328936D01*
X202140686Y-147615560D01*
X202384440Y-147859314D01*
X202671064Y-148050830D01*
X202989544Y-148182749D01*
X203327640Y-148250000D01*
X203672360Y-148250000D01*
X204010456Y-148182749D01*
X204328936Y-148050830D01*
X204615560Y-147859314D01*
X204859314Y-147615560D01*
X205050830Y-147328936D01*
X205182749Y-147010456D01*
X205250000Y-146672360D01*
X205250000Y-146327640D01*
X205182749Y-145989544D01*
X205050830Y-145671064D01*
X204859314Y-145384440D01*
X204615560Y-145140686D01*
X204328936Y-144949170D01*
X204010456Y-144817251D01*
X203672360Y-144750000D01*
X203327640Y-144750000D01*
X202989544Y-144817251D01*
X202671064Y-144949170D01*
X202384440Y-145140686D01*
X202140686Y-145384440D01*
X201949170Y-145671064D01*
X201817251Y-145989544D01*
X201750000Y-146327640D01*
X200450000Y-146327640D01*
X200450000Y-138569238D01*
X209017804Y-147137043D01*
X209038157Y-147161843D01*
X209062957Y-147182196D01*
X209062959Y-147182198D01*
X209137131Y-147243070D01*
X209204732Y-147279203D01*
X209250052Y-147303427D01*
X209372578Y-147340595D01*
X209468068Y-147350000D01*
X209468078Y-147350000D01*
X209500000Y-147353144D01*
X209531921Y-147350000D01*
X212393079Y-147350000D01*
X212425000Y-147353144D01*
X212456921Y-147350000D01*
X212456932Y-147350000D01*
X212552422Y-147340595D01*
X212674948Y-147303427D01*
X212787868Y-147243070D01*
X212886843Y-147161843D01*
X212907200Y-147137038D01*
X213282198Y-146762040D01*
X213343069Y-146687869D01*
X213403427Y-146574948D01*
X213440594Y-146452423D01*
X213453144Y-146325001D01*
X213440594Y-146197579D01*
X213403998Y-146076935D01*
X213731250Y-146076935D01*
X213852340Y-146065009D01*
X213968776Y-146029688D01*
X214076084Y-145972331D01*
X214170141Y-145895141D01*
X214247331Y-145801084D01*
X214300000Y-145702547D01*
X214352669Y-145801084D01*
X214429859Y-145895141D01*
X214523916Y-145972331D01*
X214631224Y-146029688D01*
X214747660Y-146065009D01*
X214868750Y-146076935D01*
X215306250Y-146076935D01*
X215427340Y-146065009D01*
X215543776Y-146029688D01*
X215651084Y-145972331D01*
X215745141Y-145895141D01*
X215822331Y-145801084D01*
X215849636Y-145750000D01*
X218372183Y-145750000D01*
X218741992Y-146119810D01*
X218759211Y-146140791D01*
X218780191Y-146158009D01*
X218780196Y-146158014D01*
X218836913Y-146204560D01*
X218842959Y-146209522D01*
X218938507Y-146260593D01*
X219042182Y-146292043D01*
X219122983Y-146300001D01*
X219122993Y-146300001D01*
X219150001Y-146302661D01*
X219177009Y-146300001D01*
X219348065Y-146300001D01*
X219355788Y-146378415D01*
X219378660Y-146453815D01*
X219415803Y-146523304D01*
X219465789Y-146584212D01*
X219526697Y-146634198D01*
X219596186Y-146671341D01*
X219671586Y-146694213D01*
X219750000Y-146701936D01*
X221450000Y-146701936D01*
X221528414Y-146694213D01*
X221548510Y-146688117D01*
X221547340Y-146700000D01*
X221550000Y-146727008D01*
X221550000Y-146727017D01*
X221557958Y-146807818D01*
X221589408Y-146911493D01*
X221640479Y-147007042D01*
X221709210Y-147090790D01*
X221730196Y-147108013D01*
X221991987Y-147369804D01*
X222009210Y-147390790D01*
X222092958Y-147459521D01*
X222188506Y-147510592D01*
X222292181Y-147542042D01*
X222372982Y-147550000D01*
X222372991Y-147550000D01*
X222399999Y-147552660D01*
X222427007Y-147550000D01*
X229922992Y-147550000D01*
X229950000Y-147552660D01*
X229977008Y-147550000D01*
X229977018Y-147550000D01*
X230057819Y-147542042D01*
X230161494Y-147510592D01*
X230257042Y-147459521D01*
X230340790Y-147390790D01*
X230358013Y-147369804D01*
X231705713Y-146022104D01*
X242550000Y-146022104D01*
X242550154Y-146023671D01*
X242550206Y-146031067D01*
X242552343Y-146051399D01*
X242552343Y-146071836D01*
X242552999Y-146078085D01*
X242596510Y-146465985D01*
X242604990Y-146505882D01*
X242612911Y-146545887D01*
X242614769Y-146551889D01*
X242732793Y-146923950D01*
X242748879Y-146961482D01*
X242764403Y-146999146D01*
X242767391Y-147004674D01*
X242955435Y-147346724D01*
X242978505Y-147380416D01*
X243001048Y-147414347D01*
X243005049Y-147419183D01*
X243005053Y-147419189D01*
X243005058Y-147419194D01*
X243255953Y-147718199D01*
X243285087Y-147746729D01*
X243313832Y-147775676D01*
X243318701Y-147779647D01*
X243622902Y-148024231D01*
X243657060Y-148046583D01*
X243690843Y-148069371D01*
X243696386Y-148072318D01*
X243696390Y-148072321D01*
X243696394Y-148072323D01*
X244042303Y-148253159D01*
X244080132Y-148268443D01*
X244117718Y-148284243D01*
X244123733Y-148286059D01*
X244498183Y-148396266D01*
X244538267Y-148403913D01*
X244578200Y-148412110D01*
X244584449Y-148412723D01*
X244584453Y-148412723D01*
X244973179Y-148448099D01*
X245013997Y-148447814D01*
X245054748Y-148448099D01*
X245061001Y-148447486D01*
X245449194Y-148406685D01*
X245489153Y-148398482D01*
X245529209Y-148390841D01*
X245535225Y-148389025D01*
X245908099Y-148273601D01*
X245945680Y-148257803D01*
X245983514Y-148242518D01*
X245989062Y-148239568D01*
X246332417Y-148053917D01*
X246366224Y-148031114D01*
X246400358Y-148008777D01*
X246405227Y-148004805D01*
X246705982Y-147755999D01*
X246734724Y-147727055D01*
X246763861Y-147698523D01*
X246767866Y-147693681D01*
X247014567Y-147391197D01*
X247037158Y-147357194D01*
X247060180Y-147323573D01*
X247063168Y-147318046D01*
X247246418Y-146973404D01*
X247261959Y-146935698D01*
X247278028Y-146898207D01*
X247279886Y-146892205D01*
X247392704Y-146518534D01*
X247400637Y-146478468D01*
X247409105Y-146438630D01*
X247409762Y-146432382D01*
X247420032Y-146327640D01*
X259750000Y-146327640D01*
X259750000Y-146672360D01*
X259817251Y-147010456D01*
X259949170Y-147328936D01*
X260140686Y-147615560D01*
X260384440Y-147859314D01*
X260671064Y-148050830D01*
X260989544Y-148182749D01*
X261327640Y-148250000D01*
X261672360Y-148250000D01*
X262010456Y-148182749D01*
X262328936Y-148050830D01*
X262615560Y-147859314D01*
X262859314Y-147615560D01*
X263050830Y-147328936D01*
X263182749Y-147010456D01*
X263250000Y-146672360D01*
X263250000Y-146327640D01*
X263182749Y-145989544D01*
X263050830Y-145671064D01*
X262859314Y-145384440D01*
X262615560Y-145140686D01*
X262328936Y-144949170D01*
X262010456Y-144817251D01*
X261672360Y-144750000D01*
X261327640Y-144750000D01*
X260989544Y-144817251D01*
X260671064Y-144949170D01*
X260384440Y-145140686D01*
X260140686Y-145384440D01*
X259949170Y-145671064D01*
X259817251Y-145989544D01*
X259750000Y-146327640D01*
X247420032Y-146327640D01*
X247447852Y-146043913D01*
X247450000Y-146022105D01*
X247450000Y-130977895D01*
X247449846Y-130976328D01*
X247449794Y-130968934D01*
X247447657Y-130948602D01*
X247447657Y-130928164D01*
X247447001Y-130921915D01*
X247403491Y-130534016D01*
X247395004Y-130494089D01*
X247387089Y-130454114D01*
X247385231Y-130448111D01*
X247267207Y-130076050D01*
X247251116Y-130038506D01*
X247235597Y-130000854D01*
X247232609Y-129995327D01*
X247044565Y-129653276D01*
X247021506Y-129619599D01*
X246998952Y-129585653D01*
X246994947Y-129580811D01*
X246744047Y-129281801D01*
X246714913Y-129253271D01*
X246686168Y-129224324D01*
X246681299Y-129220353D01*
X246377098Y-128975769D01*
X246342964Y-128953432D01*
X246309157Y-128930629D01*
X246303609Y-128927679D01*
X245957696Y-128746840D01*
X245919848Y-128731549D01*
X245882282Y-128715757D01*
X245876267Y-128713941D01*
X245501817Y-128603734D01*
X245461725Y-128596086D01*
X245421799Y-128587890D01*
X245415552Y-128587278D01*
X245415549Y-128587277D01*
X245415546Y-128587277D01*
X245026821Y-128551901D01*
X244986003Y-128552186D01*
X244945252Y-128551901D01*
X244938999Y-128552514D01*
X244550806Y-128593315D01*
X244510822Y-128601523D01*
X244470790Y-128609159D01*
X244464775Y-128610975D01*
X244091900Y-128726399D01*
X244054306Y-128742202D01*
X244016486Y-128757482D01*
X244010939Y-128760432D01*
X243667583Y-128946083D01*
X243633727Y-128968919D01*
X243599642Y-128991224D01*
X243594772Y-128995195D01*
X243294018Y-129244002D01*
X243265276Y-129272946D01*
X243236139Y-129301478D01*
X243232134Y-129306319D01*
X242985433Y-129608804D01*
X242962857Y-129642783D01*
X242939820Y-129676428D01*
X242936835Y-129681950D01*
X242936832Y-129681954D01*
X242936832Y-129681955D01*
X242753582Y-130026596D01*
X242738029Y-130064331D01*
X242721972Y-130101793D01*
X242720114Y-130107795D01*
X242607296Y-130481467D01*
X242599366Y-130521518D01*
X242590895Y-130561370D01*
X242590238Y-130567618D01*
X242552148Y-130956087D01*
X242552148Y-130956095D01*
X242550001Y-130977895D01*
X242550000Y-146022104D01*
X231705713Y-146022104D01*
X240407442Y-137320376D01*
X240428422Y-137303158D01*
X240445640Y-137282178D01*
X240445645Y-137282173D01*
X240497153Y-137219411D01*
X240524450Y-137168340D01*
X240548224Y-137123862D01*
X240579674Y-137020187D01*
X240587632Y-136939386D01*
X240587632Y-136939376D01*
X240590292Y-136912368D01*
X240587632Y-136885360D01*
X240587632Y-136139379D01*
X240590292Y-136112368D01*
X240587632Y-136085357D01*
X240587632Y-136085350D01*
X240579674Y-136004549D01*
X240572112Y-135979622D01*
X240548224Y-135900873D01*
X240529386Y-135865631D01*
X240531451Y-135864527D01*
X240592359Y-135814541D01*
X241794440Y-134612460D01*
X241844426Y-134551552D01*
X241881569Y-134482063D01*
X241904441Y-134406663D01*
X241912164Y-134328249D01*
X241904441Y-134249835D01*
X241881569Y-134174435D01*
X241854334Y-134123483D01*
X242269810Y-133708008D01*
X242290790Y-133690790D01*
X242308008Y-133669810D01*
X242308013Y-133669805D01*
X242354272Y-133613438D01*
X242359521Y-133607042D01*
X242410592Y-133511494D01*
X242442042Y-133407819D01*
X242450000Y-133327018D01*
X242450000Y-133327009D01*
X242452660Y-133300001D01*
X242450000Y-133272993D01*
X242450000Y-114177011D01*
X242452660Y-114150000D01*
X242450000Y-114122989D01*
X242450000Y-114122982D01*
X242442042Y-114042181D01*
X242429217Y-113999902D01*
X242410592Y-113938505D01*
X242359521Y-113842958D01*
X242308013Y-113780196D01*
X242290790Y-113759210D01*
X242269804Y-113741987D01*
X241277673Y-112749856D01*
X241260450Y-112728870D01*
X241176702Y-112660139D01*
X241081154Y-112609068D01*
X240977479Y-112577618D01*
X240896678Y-112569660D01*
X240896668Y-112569660D01*
X240869660Y-112567000D01*
X240842652Y-112569660D01*
X239911262Y-112569660D01*
X239901670Y-112538038D01*
X239864527Y-112468549D01*
X239814541Y-112407641D01*
X238612460Y-111205560D01*
X238551552Y-111155574D01*
X238482063Y-111118431D01*
X238406663Y-111095559D01*
X238328249Y-111087836D01*
X238249835Y-111095559D01*
X238174435Y-111118431D01*
X238104946Y-111155574D01*
X238044038Y-111205560D01*
X234508018Y-107669540D01*
X234508013Y-107669534D01*
X234508008Y-107669529D01*
X234490790Y-107648549D01*
X234469810Y-107631331D01*
X233768674Y-106930196D01*
X233751451Y-106909210D01*
X233667703Y-106840479D01*
X233572155Y-106789408D01*
X233468480Y-106757958D01*
X233387679Y-106750000D01*
X233387669Y-106750000D01*
X233360661Y-106747340D01*
X233333653Y-106750000D01*
X224127817Y-106750000D01*
X224079752Y-106701935D01*
X224250000Y-106701935D01*
X224328414Y-106694212D01*
X224403814Y-106671340D01*
X224473303Y-106634197D01*
X224534211Y-106584211D01*
X224584197Y-106523303D01*
X224621340Y-106453814D01*
X224644212Y-106378414D01*
X224651935Y-106300000D01*
X224651935Y-105200000D01*
X224644212Y-105121586D01*
X224621340Y-105046186D01*
X224596653Y-105000000D01*
X224621340Y-104953814D01*
X224644212Y-104878414D01*
X224651935Y-104800000D01*
X224651935Y-103700000D01*
X224644212Y-103621586D01*
X224621340Y-103546186D01*
X224584197Y-103476697D01*
X224534211Y-103415789D01*
X224473303Y-103365803D01*
X224403814Y-103328660D01*
X224328414Y-103305788D01*
X224250000Y-103298065D01*
X223952469Y-103298065D01*
X223950000Y-103272989D01*
X223950000Y-103272982D01*
X223942042Y-103192181D01*
X223910592Y-103088506D01*
X223859521Y-102992958D01*
X223790790Y-102909210D01*
X223769800Y-102891983D01*
X223608014Y-102730197D01*
X223590790Y-102709210D01*
X223507042Y-102640479D01*
X223411494Y-102589408D01*
X223307819Y-102557958D01*
X223227018Y-102550000D01*
X223227008Y-102550000D01*
X223200000Y-102547340D01*
X223172992Y-102550000D01*
X216987668Y-102550000D01*
X216960660Y-102547340D01*
X216933652Y-102550000D01*
X216933643Y-102550000D01*
X216852842Y-102557958D01*
X216749167Y-102589408D01*
X216653619Y-102640479D01*
X216653617Y-102640480D01*
X216653618Y-102640480D01*
X216590856Y-102691987D01*
X216590851Y-102691992D01*
X216569871Y-102709210D01*
X216552653Y-102730190D01*
X207016623Y-112266221D01*
X206955715Y-112216235D01*
X206886226Y-112179092D01*
X206836110Y-112163890D01*
X206820908Y-112113774D01*
X206783765Y-112044285D01*
X206733779Y-111983377D01*
X205955962Y-111205560D01*
X205895054Y-111155574D01*
X205825565Y-111118431D01*
X205750165Y-111095559D01*
X205671751Y-111087836D01*
X205593337Y-111095559D01*
X205517937Y-111118431D01*
X205448448Y-111155574D01*
X205387540Y-111205560D01*
X205176639Y-111416461D01*
X205170689Y-111409210D01*
X205086941Y-111340479D01*
X204991393Y-111289408D01*
X204887718Y-111257958D01*
X204806917Y-111250000D01*
X204806907Y-111250000D01*
X204779899Y-111247340D01*
X204752891Y-111250000D01*
X204177011Y-111250000D01*
X204150000Y-111247340D01*
X204122989Y-111250000D01*
X204122982Y-111250000D01*
X204042181Y-111257958D01*
X203938506Y-111289408D01*
X203842958Y-111340479D01*
X203759210Y-111409210D01*
X203741987Y-111430196D01*
X201530196Y-113641987D01*
X201509210Y-113659210D01*
X201450000Y-113731357D01*
X201450000Y-105369238D01*
X207125343Y-99693895D01*
X207125788Y-99698414D01*
X207148660Y-99773814D01*
X207185803Y-99843303D01*
X207235789Y-99904211D01*
X207296697Y-99954197D01*
X207366186Y-99991340D01*
X207441586Y-100014212D01*
X207520000Y-100021935D01*
X209220000Y-100021935D01*
X209298414Y-100014212D01*
X209373814Y-99991340D01*
X209443303Y-99954197D01*
X209504211Y-99904211D01*
X209554197Y-99843303D01*
X209591340Y-99773814D01*
X209614212Y-99698414D01*
X209621935Y-99620000D01*
X209621935Y-98770000D01*
X209653952Y-98770000D01*
X209678087Y-99015043D01*
X209749563Y-99250669D01*
X209865634Y-99467823D01*
X210021840Y-99658160D01*
X210212177Y-99814366D01*
X210429331Y-99930437D01*
X210664957Y-100001913D01*
X210848595Y-100020000D01*
X210971405Y-100020000D01*
X211155043Y-100001913D01*
X211390669Y-99930437D01*
X211607823Y-99814366D01*
X211798160Y-99658160D01*
X211954366Y-99467823D01*
X212070437Y-99250669D01*
X212141913Y-99015043D01*
X212166048Y-98770000D01*
X212193952Y-98770000D01*
X212218087Y-99015043D01*
X212289563Y-99250669D01*
X212405634Y-99467823D01*
X212561840Y-99658160D01*
X212752177Y-99814366D01*
X212969331Y-99930437D01*
X213204957Y-100001913D01*
X213388595Y-100020000D01*
X213511405Y-100020000D01*
X213695043Y-100001913D01*
X213930669Y-99930437D01*
X214147823Y-99814366D01*
X214338160Y-99658160D01*
X214494366Y-99467823D01*
X214610437Y-99250669D01*
X214681913Y-99015043D01*
X214706048Y-98770000D01*
X214733952Y-98770000D01*
X214758087Y-99015043D01*
X214829563Y-99250669D01*
X214945634Y-99467823D01*
X215101840Y-99658160D01*
X215292177Y-99814366D01*
X215509331Y-99930437D01*
X215744957Y-100001913D01*
X215928595Y-100020000D01*
X216051405Y-100020000D01*
X216235043Y-100001913D01*
X216470669Y-99930437D01*
X216687823Y-99814366D01*
X216878160Y-99658160D01*
X217034366Y-99467823D01*
X217150437Y-99250669D01*
X217221913Y-99015043D01*
X217227688Y-98956401D01*
X217385075Y-98956401D01*
X217443439Y-99176183D01*
X217543559Y-99380356D01*
X217681588Y-99561073D01*
X217852221Y-99711390D01*
X218048900Y-99825530D01*
X218264068Y-99899106D01*
X218343599Y-99914925D01*
X218525000Y-99852488D01*
X218525000Y-98775000D01*
X218535000Y-98775000D01*
X218535000Y-99852488D01*
X218716401Y-99914925D01*
X218795932Y-99899106D01*
X219011100Y-99825530D01*
X219207779Y-99711390D01*
X219378412Y-99561073D01*
X219516441Y-99380356D01*
X219616561Y-99176183D01*
X219674925Y-98956401D01*
X219612489Y-98775000D01*
X218535000Y-98775000D01*
X218525000Y-98775000D01*
X217447511Y-98775000D01*
X217385075Y-98956401D01*
X217227688Y-98956401D01*
X217246048Y-98770000D01*
X217227689Y-98583599D01*
X217385075Y-98583599D01*
X217447511Y-98765000D01*
X218525000Y-98765000D01*
X218525000Y-97687512D01*
X218535000Y-97687512D01*
X218535000Y-98765000D01*
X219612489Y-98765000D01*
X219674925Y-98583599D01*
X219616561Y-98363817D01*
X219516441Y-98159644D01*
X219378412Y-97978927D01*
X219207779Y-97828610D01*
X219011100Y-97714470D01*
X218795932Y-97640894D01*
X218716401Y-97625075D01*
X218535000Y-97687512D01*
X218525000Y-97687512D01*
X218343599Y-97625075D01*
X218264068Y-97640894D01*
X218048900Y-97714470D01*
X217852221Y-97828610D01*
X217681588Y-97978927D01*
X217543559Y-98159644D01*
X217443439Y-98363817D01*
X217385075Y-98583599D01*
X217227689Y-98583599D01*
X217221913Y-98524957D01*
X217150437Y-98289331D01*
X217034366Y-98072177D01*
X216878160Y-97881840D01*
X216687823Y-97725634D01*
X216470669Y-97609563D01*
X216235043Y-97538087D01*
X216051405Y-97520000D01*
X215928595Y-97520000D01*
X215744957Y-97538087D01*
X215509331Y-97609563D01*
X215292177Y-97725634D01*
X215101840Y-97881840D01*
X214945634Y-98072177D01*
X214829563Y-98289331D01*
X214758087Y-98524957D01*
X214733952Y-98770000D01*
X214706048Y-98770000D01*
X214681913Y-98524957D01*
X214610437Y-98289331D01*
X214494366Y-98072177D01*
X214338160Y-97881840D01*
X214147823Y-97725634D01*
X213930669Y-97609563D01*
X213695043Y-97538087D01*
X213511405Y-97520000D01*
X213388595Y-97520000D01*
X213204957Y-97538087D01*
X212969331Y-97609563D01*
X212752177Y-97725634D01*
X212561840Y-97881840D01*
X212405634Y-98072177D01*
X212289563Y-98289331D01*
X212218087Y-98524957D01*
X212193952Y-98770000D01*
X212166048Y-98770000D01*
X212141913Y-98524957D01*
X212070437Y-98289331D01*
X211954366Y-98072177D01*
X211798160Y-97881840D01*
X211607823Y-97725634D01*
X211390669Y-97609563D01*
X211155043Y-97538087D01*
X210971405Y-97520000D01*
X210848595Y-97520000D01*
X210664957Y-97538087D01*
X210429331Y-97609563D01*
X210212177Y-97725634D01*
X210021840Y-97881840D01*
X209865634Y-98072177D01*
X209749563Y-98289331D01*
X209678087Y-98524957D01*
X209653952Y-98770000D01*
X209621935Y-98770000D01*
X209621935Y-97920000D01*
X209614212Y-97841586D01*
X209591340Y-97766186D01*
X209554197Y-97696697D01*
X209504211Y-97635789D01*
X209443303Y-97585803D01*
X209373814Y-97548660D01*
X209298414Y-97525788D01*
X209220000Y-97518065D01*
X208001173Y-97518065D01*
X208073066Y-97446172D01*
X208124957Y-97461913D01*
X208308595Y-97480000D01*
X208431405Y-97480000D01*
X208615043Y-97461913D01*
X208850669Y-97390437D01*
X209067823Y-97274366D01*
X209258160Y-97118160D01*
X209414366Y-96927823D01*
X209439928Y-96880000D01*
X209840072Y-96880000D01*
X209865634Y-96927823D01*
X210021840Y-97118160D01*
X210212177Y-97274366D01*
X210429331Y-97390437D01*
X210664957Y-97461913D01*
X210848595Y-97480000D01*
X210971405Y-97480000D01*
X211155043Y-97461913D01*
X211390669Y-97390437D01*
X211607823Y-97274366D01*
X211798160Y-97118160D01*
X211954366Y-96927823D01*
X212070437Y-96710669D01*
X212141913Y-96475043D01*
X212147688Y-96416401D01*
X212305075Y-96416401D01*
X212363439Y-96636183D01*
X212463559Y-96840356D01*
X212601588Y-97021073D01*
X212772221Y-97171390D01*
X212968900Y-97285530D01*
X213184068Y-97359106D01*
X213263599Y-97374925D01*
X213445000Y-97312488D01*
X213445000Y-96235000D01*
X213455000Y-96235000D01*
X213455000Y-97312488D01*
X213636401Y-97374925D01*
X213715932Y-97359106D01*
X213931100Y-97285530D01*
X214127779Y-97171390D01*
X214298412Y-97021073D01*
X214436441Y-96840356D01*
X214536561Y-96636183D01*
X214594925Y-96416401D01*
X214532489Y-96235000D01*
X213455000Y-96235000D01*
X213445000Y-96235000D01*
X212367511Y-96235000D01*
X212305075Y-96416401D01*
X212147688Y-96416401D01*
X212166048Y-96230000D01*
X214733952Y-96230000D01*
X214758087Y-96475043D01*
X214829563Y-96710669D01*
X214945634Y-96927823D01*
X215101840Y-97118160D01*
X215292177Y-97274366D01*
X215509331Y-97390437D01*
X215744957Y-97461913D01*
X215928595Y-97480000D01*
X216051405Y-97480000D01*
X216235043Y-97461913D01*
X216470669Y-97390437D01*
X216687823Y-97274366D01*
X216878160Y-97118160D01*
X217034366Y-96927823D01*
X217150437Y-96710669D01*
X217221913Y-96475043D01*
X217246048Y-96230000D01*
X217273952Y-96230000D01*
X217298087Y-96475043D01*
X217369563Y-96710669D01*
X217485634Y-96927823D01*
X217641840Y-97118160D01*
X217832177Y-97274366D01*
X218049331Y-97390437D01*
X218284957Y-97461913D01*
X218468595Y-97480000D01*
X218591405Y-97480000D01*
X218775043Y-97461913D01*
X219010669Y-97390437D01*
X219227823Y-97274366D01*
X219418160Y-97118160D01*
X219574366Y-96927823D01*
X219690437Y-96710669D01*
X219761913Y-96475043D01*
X219786048Y-96230000D01*
X219813952Y-96230000D01*
X219838087Y-96475043D01*
X219909563Y-96710669D01*
X220025634Y-96927823D01*
X220181840Y-97118160D01*
X220372177Y-97274366D01*
X220589331Y-97390437D01*
X220824957Y-97461913D01*
X221008595Y-97480000D01*
X221131405Y-97480000D01*
X221315043Y-97461913D01*
X221502567Y-97405029D01*
X221825000Y-97727462D01*
X221825000Y-97772558D01*
X221767823Y-97725634D01*
X221550669Y-97609563D01*
X221315043Y-97538087D01*
X221131405Y-97520000D01*
X221008595Y-97520000D01*
X220824957Y-97538087D01*
X220589331Y-97609563D01*
X220372177Y-97725634D01*
X220181840Y-97881840D01*
X220025634Y-98072177D01*
X219909563Y-98289331D01*
X219838087Y-98524957D01*
X219813952Y-98770000D01*
X219838087Y-99015043D01*
X219909563Y-99250669D01*
X220025634Y-99467823D01*
X220181840Y-99658160D01*
X220372177Y-99814366D01*
X220589331Y-99930437D01*
X220824957Y-100001913D01*
X221008595Y-100020000D01*
X221131405Y-100020000D01*
X221315043Y-100001913D01*
X221550669Y-99930437D01*
X221767823Y-99814366D01*
X221894083Y-99710747D01*
X221911368Y-99743086D01*
X221976974Y-99823027D01*
X221997005Y-99839466D01*
X223160534Y-101002996D01*
X223176973Y-101023027D01*
X223256914Y-101088633D01*
X223348119Y-101137383D01*
X223447082Y-101167403D01*
X223524212Y-101175000D01*
X223524219Y-101175000D01*
X223549999Y-101177539D01*
X223575779Y-101175000D01*
X226932539Y-101175000D01*
X228710534Y-102952996D01*
X228726973Y-102973027D01*
X228806914Y-103038633D01*
X228834431Y-103053341D01*
X228823065Y-103168750D01*
X228823065Y-103606250D01*
X228834991Y-103727340D01*
X228870312Y-103843776D01*
X228927669Y-103951084D01*
X229004859Y-104045141D01*
X229036975Y-104071498D01*
X229026901Y-104095818D01*
X229000000Y-104231056D01*
X229000000Y-104368944D01*
X229026901Y-104504182D01*
X229079668Y-104631574D01*
X229156274Y-104746224D01*
X229253776Y-104843726D01*
X229368426Y-104920332D01*
X229495818Y-104973099D01*
X229631056Y-105000000D01*
X229768944Y-105000000D01*
X229904182Y-104973099D01*
X230031574Y-104920332D01*
X230146224Y-104843726D01*
X230243726Y-104746224D01*
X230320332Y-104631574D01*
X230373099Y-104504182D01*
X230400000Y-104368944D01*
X230400000Y-104231056D01*
X230373099Y-104095818D01*
X230363025Y-104071498D01*
X230395141Y-104045141D01*
X230472331Y-103951084D01*
X230500000Y-103899319D01*
X230527669Y-103951084D01*
X230604859Y-104045141D01*
X230636975Y-104071498D01*
X230626901Y-104095818D01*
X230600000Y-104231056D01*
X230600000Y-104368944D01*
X230626901Y-104504182D01*
X230679668Y-104631574D01*
X230756274Y-104746224D01*
X230853776Y-104843726D01*
X230968426Y-104920332D01*
X231095818Y-104973099D01*
X231231056Y-105000000D01*
X231368944Y-105000000D01*
X231504182Y-104973099D01*
X231631574Y-104920332D01*
X231746224Y-104843726D01*
X231843726Y-104746224D01*
X231920332Y-104631574D01*
X231973099Y-104504182D01*
X232000000Y-104368944D01*
X232000000Y-104231056D01*
X231973099Y-104095818D01*
X231963025Y-104071498D01*
X231995141Y-104045141D01*
X232072331Y-103951084D01*
X232129688Y-103843776D01*
X232165009Y-103727340D01*
X232176935Y-103606250D01*
X232176935Y-103168750D01*
X232168069Y-103078730D01*
X232243086Y-103038633D01*
X232323027Y-102973027D01*
X232339471Y-102952990D01*
X233809629Y-101482834D01*
X233818850Y-101529192D01*
X233871617Y-101656584D01*
X233948223Y-101771234D01*
X234045725Y-101868736D01*
X234160375Y-101945342D01*
X234287767Y-101998109D01*
X234423005Y-102025010D01*
X234560893Y-102025010D01*
X234696131Y-101998109D01*
X234823523Y-101945342D01*
X234938173Y-101868736D01*
X234956899Y-101850010D01*
X243957549Y-101850010D01*
X245125000Y-103017463D01*
X245125001Y-108074210D01*
X245122461Y-108100000D01*
X245132597Y-108202917D01*
X245162617Y-108301880D01*
X245211367Y-108393085D01*
X245220485Y-108404195D01*
X245276974Y-108473027D01*
X245297005Y-108489466D01*
X245585529Y-108777990D01*
X245601973Y-108798027D01*
X245681914Y-108863633D01*
X245773119Y-108912383D01*
X245826186Y-108928481D01*
X245810472Y-108980283D01*
X245798065Y-109106250D01*
X245798065Y-109593750D01*
X245810472Y-109719717D01*
X245847215Y-109840843D01*
X245906883Y-109952473D01*
X245987182Y-110050318D01*
X246085027Y-110130617D01*
X246196657Y-110190285D01*
X246317783Y-110227028D01*
X246443750Y-110239435D01*
X247356250Y-110239435D01*
X247482217Y-110227028D01*
X247603343Y-110190285D01*
X247714973Y-110130617D01*
X247812818Y-110050318D01*
X247893117Y-109952473D01*
X247952785Y-109840843D01*
X247957590Y-109825000D01*
X249538500Y-109825000D01*
X249544485Y-109885771D01*
X249562212Y-109944206D01*
X249590997Y-109998060D01*
X249629736Y-110045264D01*
X249676940Y-110084003D01*
X249730794Y-110112788D01*
X249789229Y-110130515D01*
X249850000Y-110136500D01*
X250467500Y-110135000D01*
X250545000Y-110057500D01*
X250545000Y-109342500D01*
X250555000Y-109342500D01*
X250555000Y-110057500D01*
X250632500Y-110135000D01*
X251250000Y-110136500D01*
X251310771Y-110130515D01*
X251369206Y-110112788D01*
X251423060Y-110084003D01*
X251470264Y-110045264D01*
X251509003Y-109998060D01*
X251537788Y-109944206D01*
X251555515Y-109885771D01*
X251561500Y-109825000D01*
X251560000Y-109420000D01*
X251482500Y-109342500D01*
X250555000Y-109342500D01*
X250545000Y-109342500D01*
X249617500Y-109342500D01*
X249540000Y-109420000D01*
X249538500Y-109825000D01*
X247957590Y-109825000D01*
X247989528Y-109719717D01*
X248001935Y-109593750D01*
X248001935Y-109106250D01*
X247989528Y-108980283D01*
X247952785Y-108859157D01*
X247947891Y-108850000D01*
X249538500Y-108850000D01*
X249540000Y-109255000D01*
X249617500Y-109332500D01*
X250545000Y-109332500D01*
X250545000Y-108617500D01*
X250555000Y-108617500D01*
X250555000Y-109332500D01*
X251482500Y-109332500D01*
X251560000Y-109255000D01*
X251561500Y-108850000D01*
X251555515Y-108789229D01*
X251537788Y-108730794D01*
X251509003Y-108676940D01*
X251470264Y-108629736D01*
X251423060Y-108590997D01*
X251369206Y-108562212D01*
X251310771Y-108544485D01*
X251250000Y-108538500D01*
X250632500Y-108540000D01*
X250555000Y-108617500D01*
X250545000Y-108617500D01*
X250467500Y-108540000D01*
X249850000Y-108538500D01*
X249789229Y-108544485D01*
X249730794Y-108562212D01*
X249676940Y-108590997D01*
X249629736Y-108629736D01*
X249590997Y-108676940D01*
X249562212Y-108730794D01*
X249544485Y-108789229D01*
X249538500Y-108850000D01*
X247947891Y-108850000D01*
X247893117Y-108747527D01*
X247812818Y-108649682D01*
X247714973Y-108569383D01*
X247603343Y-108509715D01*
X247482217Y-108472972D01*
X247407868Y-108465649D01*
X247387383Y-108398119D01*
X247368722Y-108363207D01*
X247482217Y-108352028D01*
X247603343Y-108315285D01*
X247714973Y-108255617D01*
X247812818Y-108175318D01*
X247893117Y-108077473D01*
X247952785Y-107965843D01*
X247989528Y-107844717D01*
X248001935Y-107718750D01*
X248001935Y-107231250D01*
X248000704Y-107218750D01*
X249448065Y-107218750D01*
X249448065Y-107706250D01*
X249460472Y-107832217D01*
X249497215Y-107953343D01*
X249556883Y-108064973D01*
X249637182Y-108162818D01*
X249735027Y-108243117D01*
X249846657Y-108302785D01*
X249967783Y-108339528D01*
X250093750Y-108351935D01*
X251006250Y-108351935D01*
X251132217Y-108339528D01*
X251253343Y-108302785D01*
X251364973Y-108243117D01*
X251462818Y-108162818D01*
X251543117Y-108064973D01*
X251602785Y-107953343D01*
X251639528Y-107832217D01*
X251651935Y-107706250D01*
X251651935Y-107218750D01*
X251639528Y-107092783D01*
X251602785Y-106971657D01*
X251543117Y-106860027D01*
X251462818Y-106762182D01*
X251364973Y-106681883D01*
X251253343Y-106622215D01*
X251251832Y-106621757D01*
X251309831Y-106551084D01*
X251367188Y-106443776D01*
X251402509Y-106327340D01*
X251414435Y-106206250D01*
X251414435Y-105768750D01*
X251402509Y-105647660D01*
X251367188Y-105531224D01*
X251309831Y-105423916D01*
X251232641Y-105329859D01*
X251138584Y-105252669D01*
X251040047Y-105200000D01*
X251138584Y-105147331D01*
X251232641Y-105070141D01*
X251309831Y-104976084D01*
X251367188Y-104868776D01*
X251402509Y-104752340D01*
X251414435Y-104631250D01*
X251414435Y-104193750D01*
X251402509Y-104072660D01*
X251367188Y-103956224D01*
X251309831Y-103848916D01*
X251232641Y-103754859D01*
X251138584Y-103677669D01*
X251062500Y-103637001D01*
X251062500Y-102529961D01*
X253649761Y-99942701D01*
X253844957Y-100001913D01*
X254028595Y-100020000D01*
X254151405Y-100020000D01*
X254335043Y-100001913D01*
X254570669Y-99930437D01*
X254787823Y-99814366D01*
X254978160Y-99658160D01*
X255134366Y-99467823D01*
X255250437Y-99250669D01*
X255321913Y-99015043D01*
X255327688Y-98956401D01*
X255485075Y-98956401D01*
X255543439Y-99176183D01*
X255643559Y-99380356D01*
X255781588Y-99561073D01*
X255952221Y-99711390D01*
X256148900Y-99825530D01*
X256364068Y-99899106D01*
X256443599Y-99914925D01*
X256625000Y-99852488D01*
X256625000Y-98775000D01*
X256635000Y-98775000D01*
X256635000Y-99852488D01*
X256816401Y-99914925D01*
X256895932Y-99899106D01*
X257111100Y-99825530D01*
X257307779Y-99711390D01*
X257478412Y-99561073D01*
X257616441Y-99380356D01*
X257716561Y-99176183D01*
X257774925Y-98956401D01*
X257712489Y-98775000D01*
X256635000Y-98775000D01*
X256625000Y-98775000D01*
X255547511Y-98775000D01*
X255485075Y-98956401D01*
X255327688Y-98956401D01*
X255346048Y-98770000D01*
X255327689Y-98583599D01*
X255485075Y-98583599D01*
X255547511Y-98765000D01*
X256625000Y-98765000D01*
X256625000Y-97687512D01*
X256635000Y-97687512D01*
X256635000Y-98765000D01*
X257712489Y-98765000D01*
X257774925Y-98583599D01*
X257716561Y-98363817D01*
X257616441Y-98159644D01*
X257478412Y-97978927D01*
X257307779Y-97828610D01*
X257111100Y-97714470D01*
X256895932Y-97640894D01*
X256816401Y-97625075D01*
X256635000Y-97687512D01*
X256625000Y-97687512D01*
X256443599Y-97625075D01*
X256364068Y-97640894D01*
X256148900Y-97714470D01*
X255952221Y-97828610D01*
X255781588Y-97978927D01*
X255643559Y-98159644D01*
X255543439Y-98363817D01*
X255485075Y-98583599D01*
X255327689Y-98583599D01*
X255321913Y-98524957D01*
X255250437Y-98289331D01*
X255134366Y-98072177D01*
X254978160Y-97881840D01*
X254787823Y-97725634D01*
X254570669Y-97609563D01*
X254335043Y-97538087D01*
X254151405Y-97520000D01*
X254028595Y-97520000D01*
X253844957Y-97538087D01*
X253609331Y-97609563D01*
X253392177Y-97725634D01*
X253201840Y-97881840D01*
X253045634Y-98072177D01*
X252929563Y-98289331D01*
X252858087Y-98524957D01*
X252833952Y-98770000D01*
X252858087Y-99015043D01*
X252912644Y-99194894D01*
X250184505Y-101923034D01*
X250164474Y-101939473D01*
X250148035Y-101959504D01*
X250098867Y-102019415D01*
X250050117Y-102110620D01*
X250020097Y-102209583D01*
X250009961Y-102312500D01*
X250012501Y-102338290D01*
X250012500Y-103637001D01*
X249936416Y-103677669D01*
X249842359Y-103754859D01*
X249765169Y-103848916D01*
X249707812Y-103956224D01*
X249672491Y-104072660D01*
X249660565Y-104193750D01*
X249660565Y-104631250D01*
X249672491Y-104752340D01*
X249707812Y-104868776D01*
X249765169Y-104976084D01*
X249842359Y-105070141D01*
X249936416Y-105147331D01*
X250034953Y-105200000D01*
X249936416Y-105252669D01*
X249842359Y-105329859D01*
X249765169Y-105423916D01*
X249707812Y-105531224D01*
X249672491Y-105647660D01*
X249660565Y-105768750D01*
X249660565Y-106206250D01*
X249672491Y-106327340D01*
X249707812Y-106443776D01*
X249765169Y-106551084D01*
X249830592Y-106630802D01*
X249735027Y-106681883D01*
X249637182Y-106762182D01*
X249556883Y-106860027D01*
X249497215Y-106971657D01*
X249460472Y-107092783D01*
X249448065Y-107218750D01*
X248000704Y-107218750D01*
X247989528Y-107105283D01*
X247952785Y-106984157D01*
X247893117Y-106872527D01*
X247812818Y-106774682D01*
X247714973Y-106694383D01*
X247603343Y-106634715D01*
X247562147Y-106622218D01*
X247595141Y-106595141D01*
X247672331Y-106501084D01*
X247729688Y-106393776D01*
X247765009Y-106277340D01*
X247776935Y-106156250D01*
X247776935Y-105718750D01*
X247765009Y-105597660D01*
X247729688Y-105481224D01*
X247672331Y-105373916D01*
X247595141Y-105279859D01*
X247501084Y-105202669D01*
X247402547Y-105150000D01*
X247501084Y-105097331D01*
X247595141Y-105020141D01*
X247672331Y-104926084D01*
X247729688Y-104818776D01*
X247765009Y-104702340D01*
X247776935Y-104581250D01*
X247776935Y-104143750D01*
X247765009Y-104022660D01*
X247729688Y-103906224D01*
X247672331Y-103798916D01*
X247595141Y-103704859D01*
X247501084Y-103627669D01*
X247444850Y-103597611D01*
X248223199Y-102819263D01*
X248243086Y-102808633D01*
X248323027Y-102743027D01*
X248339471Y-102722990D01*
X251117434Y-99945029D01*
X251304957Y-100001913D01*
X251488595Y-100020000D01*
X251611405Y-100020000D01*
X251795043Y-100001913D01*
X252030669Y-99930437D01*
X252247823Y-99814366D01*
X252438160Y-99658160D01*
X252594366Y-99467823D01*
X252710437Y-99250669D01*
X252781913Y-99015043D01*
X252806048Y-98770000D01*
X252781913Y-98524957D01*
X252710437Y-98289331D01*
X252594366Y-98072177D01*
X252438160Y-97881840D01*
X252247823Y-97725634D01*
X252030669Y-97609563D01*
X251795043Y-97538087D01*
X251611405Y-97520000D01*
X251488595Y-97520000D01*
X251304957Y-97538087D01*
X251069331Y-97609563D01*
X250852177Y-97725634D01*
X250661840Y-97881840D01*
X250505634Y-98072177D01*
X250389563Y-98289331D01*
X250318087Y-98524957D01*
X250293952Y-98770000D01*
X250318087Y-99015043D01*
X250374971Y-99202566D01*
X247656803Y-101920736D01*
X247636914Y-101931367D01*
X247556973Y-101996973D01*
X247540534Y-102017004D01*
X246547010Y-103010529D01*
X246526973Y-103026973D01*
X246461367Y-103106914D01*
X246412617Y-103198120D01*
X246382597Y-103297083D01*
X246375000Y-103374213D01*
X246375000Y-103374220D01*
X246372461Y-103400000D01*
X246375000Y-103425781D01*
X246375000Y-103587001D01*
X246298916Y-103627669D01*
X246204859Y-103704859D01*
X246175000Y-103741243D01*
X246175000Y-102825780D01*
X246177539Y-102800000D01*
X246175000Y-102774220D01*
X246175000Y-102774212D01*
X246167403Y-102697082D01*
X246137383Y-102598119D01*
X246088633Y-102506914D01*
X246064061Y-102476973D01*
X246039466Y-102447003D01*
X246039462Y-102446999D01*
X246023027Y-102426973D01*
X246003001Y-102410538D01*
X244817461Y-101225000D01*
X247054220Y-101225000D01*
X247080000Y-101227539D01*
X247105780Y-101225000D01*
X247105788Y-101225000D01*
X247182918Y-101217403D01*
X247281881Y-101187383D01*
X247373086Y-101138633D01*
X247453027Y-101073027D01*
X247469471Y-101052990D01*
X248577433Y-99945029D01*
X248764957Y-100001913D01*
X248948595Y-100020000D01*
X249071405Y-100020000D01*
X249255043Y-100001913D01*
X249490669Y-99930437D01*
X249707823Y-99814366D01*
X249898160Y-99658160D01*
X250054366Y-99467823D01*
X250170437Y-99250669D01*
X250241913Y-99015043D01*
X250266048Y-98770000D01*
X250241913Y-98524957D01*
X250170437Y-98289331D01*
X250054366Y-98072177D01*
X249898160Y-97881840D01*
X249707823Y-97725634D01*
X249490669Y-97609563D01*
X249255043Y-97538087D01*
X249071405Y-97520000D01*
X248948595Y-97520000D01*
X248764957Y-97538087D01*
X248529331Y-97609563D01*
X248312177Y-97725634D01*
X248121840Y-97881840D01*
X247965634Y-98072177D01*
X247849563Y-98289331D01*
X247778087Y-98524957D01*
X247753952Y-98770000D01*
X247778087Y-99015043D01*
X247834971Y-99202567D01*
X246862539Y-100175000D01*
X233875788Y-100175000D01*
X233850000Y-100172460D01*
X233824212Y-100175000D01*
X233747082Y-100182597D01*
X233648119Y-100212617D01*
X233556914Y-100261367D01*
X233537898Y-100276973D01*
X233497003Y-100310534D01*
X233496999Y-100310538D01*
X233476973Y-100326973D01*
X233460538Y-100346999D01*
X232085032Y-101722507D01*
X232086500Y-101375000D01*
X232080515Y-101314229D01*
X232062788Y-101255794D01*
X232034003Y-101201940D01*
X231995264Y-101154736D01*
X231948060Y-101115997D01*
X231894206Y-101087212D01*
X231835771Y-101069485D01*
X231775000Y-101063500D01*
X231382500Y-101065000D01*
X231305000Y-101142500D01*
X231305000Y-101807500D01*
X231325000Y-101807500D01*
X231325000Y-101817500D01*
X231305000Y-101817500D01*
X231305000Y-101837500D01*
X231295000Y-101837500D01*
X231295000Y-101817500D01*
X230592500Y-101817500D01*
X230515000Y-101895000D01*
X230513500Y-102250000D01*
X230519485Y-102310771D01*
X230537212Y-102369206D01*
X230565997Y-102423060D01*
X230604736Y-102470264D01*
X230651940Y-102509003D01*
X230705794Y-102537788D01*
X230764229Y-102555515D01*
X230825000Y-102561500D01*
X230858985Y-102561370D01*
X230847543Y-102582778D01*
X230806224Y-102595312D01*
X230698916Y-102652669D01*
X230604859Y-102729859D01*
X230527669Y-102823916D01*
X230500000Y-102875681D01*
X230472331Y-102823916D01*
X230395141Y-102729859D01*
X230301084Y-102652669D01*
X230193776Y-102595312D01*
X230184355Y-102592454D01*
X230167795Y-102561472D01*
X230175000Y-102561500D01*
X230235771Y-102555515D01*
X230294206Y-102537788D01*
X230348060Y-102509003D01*
X230395264Y-102470264D01*
X230434003Y-102423060D01*
X230462788Y-102369206D01*
X230480515Y-102310771D01*
X230486500Y-102250000D01*
X230485000Y-101895000D01*
X230407500Y-101817500D01*
X229705000Y-101817500D01*
X229705000Y-101837500D01*
X229695000Y-101837500D01*
X229695000Y-101817500D01*
X229675000Y-101817500D01*
X229675000Y-101807500D01*
X229695000Y-101807500D01*
X229695000Y-101142500D01*
X229705000Y-101142500D01*
X229705000Y-101807500D01*
X230407500Y-101807500D01*
X230485000Y-101730000D01*
X230486500Y-101375000D01*
X230513500Y-101375000D01*
X230515000Y-101730000D01*
X230592500Y-101807500D01*
X231295000Y-101807500D01*
X231295000Y-101142500D01*
X231217500Y-101065000D01*
X230825000Y-101063500D01*
X230764229Y-101069485D01*
X230705794Y-101087212D01*
X230651940Y-101115997D01*
X230604736Y-101154736D01*
X230565997Y-101201940D01*
X230537212Y-101255794D01*
X230519485Y-101314229D01*
X230513500Y-101375000D01*
X230486500Y-101375000D01*
X230480515Y-101314229D01*
X230462788Y-101255794D01*
X230434003Y-101201940D01*
X230395264Y-101154736D01*
X230348060Y-101115997D01*
X230294206Y-101087212D01*
X230235771Y-101069485D01*
X230175000Y-101063500D01*
X229782500Y-101065000D01*
X229705000Y-101142500D01*
X229695000Y-101142500D01*
X229617500Y-101065000D01*
X229225000Y-101063500D01*
X229164229Y-101069485D01*
X229105794Y-101087212D01*
X229051940Y-101115997D01*
X229004736Y-101154736D01*
X228965997Y-101201940D01*
X228937212Y-101255794D01*
X228919485Y-101314229D01*
X228913500Y-101375000D01*
X228914756Y-101672294D01*
X227539471Y-100297010D01*
X227523027Y-100276973D01*
X227443086Y-100211367D01*
X227351881Y-100162617D01*
X227252918Y-100132597D01*
X227175788Y-100125000D01*
X227175780Y-100125000D01*
X227150000Y-100122461D01*
X227124220Y-100125000D01*
X223767462Y-100125000D01*
X223662462Y-100020000D01*
X223671405Y-100020000D01*
X223855043Y-100001913D01*
X224090669Y-99930437D01*
X224307823Y-99814366D01*
X224498160Y-99658160D01*
X224654366Y-99467823D01*
X224770437Y-99250669D01*
X224841913Y-99015043D01*
X224866048Y-98770000D01*
X224893952Y-98770000D01*
X224918087Y-99015043D01*
X224989563Y-99250669D01*
X225105634Y-99467823D01*
X225261840Y-99658160D01*
X225452177Y-99814366D01*
X225669331Y-99930437D01*
X225904957Y-100001913D01*
X226088595Y-100020000D01*
X226211405Y-100020000D01*
X226395043Y-100001913D01*
X226630669Y-99930437D01*
X226847823Y-99814366D01*
X227038160Y-99658160D01*
X227194366Y-99467823D01*
X227310437Y-99250669D01*
X227381913Y-99015043D01*
X227406048Y-98770000D01*
X227433952Y-98770000D01*
X227458087Y-99015043D01*
X227529563Y-99250669D01*
X227645634Y-99467823D01*
X227801840Y-99658160D01*
X227992177Y-99814366D01*
X228209331Y-99930437D01*
X228444957Y-100001913D01*
X228628595Y-100020000D01*
X228751405Y-100020000D01*
X228935043Y-100001913D01*
X229170669Y-99930437D01*
X229387823Y-99814366D01*
X229578160Y-99658160D01*
X229734366Y-99467823D01*
X229850437Y-99250669D01*
X229921913Y-99015043D01*
X229946048Y-98770000D01*
X229973952Y-98770000D01*
X229998087Y-99015043D01*
X230069563Y-99250669D01*
X230185634Y-99467823D01*
X230341840Y-99658160D01*
X230532177Y-99814366D01*
X230749331Y-99930437D01*
X230984957Y-100001913D01*
X231168595Y-100020000D01*
X231291405Y-100020000D01*
X231475043Y-100001913D01*
X231710669Y-99930437D01*
X231927823Y-99814366D01*
X232118160Y-99658160D01*
X232274366Y-99467823D01*
X232390437Y-99250669D01*
X232461913Y-99015043D01*
X232486048Y-98770000D01*
X232513952Y-98770000D01*
X232538087Y-99015043D01*
X232609563Y-99250669D01*
X232725634Y-99467823D01*
X232881840Y-99658160D01*
X233072177Y-99814366D01*
X233289331Y-99930437D01*
X233524957Y-100001913D01*
X233708595Y-100020000D01*
X233831405Y-100020000D01*
X234015043Y-100001913D01*
X234250669Y-99930437D01*
X234467823Y-99814366D01*
X234658160Y-99658160D01*
X234814366Y-99467823D01*
X234930437Y-99250669D01*
X235001913Y-99015043D01*
X235026048Y-98770000D01*
X235053952Y-98770000D01*
X235078087Y-99015043D01*
X235149563Y-99250669D01*
X235265634Y-99467823D01*
X235421840Y-99658160D01*
X235612177Y-99814366D01*
X235829331Y-99930437D01*
X236064957Y-100001913D01*
X236248595Y-100020000D01*
X236371405Y-100020000D01*
X236555043Y-100001913D01*
X236790669Y-99930437D01*
X237007823Y-99814366D01*
X237198160Y-99658160D01*
X237354366Y-99467823D01*
X237470437Y-99250669D01*
X237541913Y-99015043D01*
X237547688Y-98956401D01*
X237705075Y-98956401D01*
X237763439Y-99176183D01*
X237863559Y-99380356D01*
X238001588Y-99561073D01*
X238172221Y-99711390D01*
X238368900Y-99825530D01*
X238584068Y-99899106D01*
X238663599Y-99914925D01*
X238845000Y-99852488D01*
X238845000Y-98775000D01*
X238855000Y-98775000D01*
X238855000Y-99852488D01*
X239036401Y-99914925D01*
X239115932Y-99899106D01*
X239331100Y-99825530D01*
X239527779Y-99711390D01*
X239698412Y-99561073D01*
X239836441Y-99380356D01*
X239936561Y-99176183D01*
X239994925Y-98956401D01*
X239932489Y-98775000D01*
X238855000Y-98775000D01*
X238845000Y-98775000D01*
X237767511Y-98775000D01*
X237705075Y-98956401D01*
X237547688Y-98956401D01*
X237566048Y-98770000D01*
X240133952Y-98770000D01*
X240158087Y-99015043D01*
X240229563Y-99250669D01*
X240345634Y-99467823D01*
X240501840Y-99658160D01*
X240692177Y-99814366D01*
X240909331Y-99930437D01*
X241144957Y-100001913D01*
X241328595Y-100020000D01*
X241451405Y-100020000D01*
X241635043Y-100001913D01*
X241870669Y-99930437D01*
X242087823Y-99814366D01*
X242278160Y-99658160D01*
X242434366Y-99467823D01*
X242550437Y-99250669D01*
X242621913Y-99015043D01*
X242646048Y-98770000D01*
X242673952Y-98770000D01*
X242698087Y-99015043D01*
X242769563Y-99250669D01*
X242885634Y-99467823D01*
X243041840Y-99658160D01*
X243232177Y-99814366D01*
X243449331Y-99930437D01*
X243684957Y-100001913D01*
X243868595Y-100020000D01*
X243991405Y-100020000D01*
X244175043Y-100001913D01*
X244410669Y-99930437D01*
X244627823Y-99814366D01*
X244818160Y-99658160D01*
X244974366Y-99467823D01*
X245090437Y-99250669D01*
X245161913Y-99015043D01*
X245186048Y-98770000D01*
X245213952Y-98770000D01*
X245238087Y-99015043D01*
X245309563Y-99250669D01*
X245425634Y-99467823D01*
X245581840Y-99658160D01*
X245772177Y-99814366D01*
X245989331Y-99930437D01*
X246224957Y-100001913D01*
X246408595Y-100020000D01*
X246531405Y-100020000D01*
X246715043Y-100001913D01*
X246950669Y-99930437D01*
X247167823Y-99814366D01*
X247358160Y-99658160D01*
X247514366Y-99467823D01*
X247630437Y-99250669D01*
X247701913Y-99015043D01*
X247726048Y-98770000D01*
X247701913Y-98524957D01*
X247630437Y-98289331D01*
X247514366Y-98072177D01*
X247358160Y-97881840D01*
X247167823Y-97725634D01*
X246950669Y-97609563D01*
X246715043Y-97538087D01*
X246531405Y-97520000D01*
X246408595Y-97520000D01*
X246224957Y-97538087D01*
X245989331Y-97609563D01*
X245772177Y-97725634D01*
X245581840Y-97881840D01*
X245425634Y-98072177D01*
X245309563Y-98289331D01*
X245238087Y-98524957D01*
X245213952Y-98770000D01*
X245186048Y-98770000D01*
X245161913Y-98524957D01*
X245090437Y-98289331D01*
X244974366Y-98072177D01*
X244818160Y-97881840D01*
X244627823Y-97725634D01*
X244410669Y-97609563D01*
X244175043Y-97538087D01*
X243991405Y-97520000D01*
X243868595Y-97520000D01*
X243684957Y-97538087D01*
X243449331Y-97609563D01*
X243232177Y-97725634D01*
X243041840Y-97881840D01*
X242885634Y-98072177D01*
X242769563Y-98289331D01*
X242698087Y-98524957D01*
X242673952Y-98770000D01*
X242646048Y-98770000D01*
X242621913Y-98524957D01*
X242550437Y-98289331D01*
X242434366Y-98072177D01*
X242278160Y-97881840D01*
X242087823Y-97725634D01*
X241870669Y-97609563D01*
X241635043Y-97538087D01*
X241451405Y-97520000D01*
X241328595Y-97520000D01*
X241144957Y-97538087D01*
X240909331Y-97609563D01*
X240692177Y-97725634D01*
X240501840Y-97881840D01*
X240345634Y-98072177D01*
X240229563Y-98289331D01*
X240158087Y-98524957D01*
X240133952Y-98770000D01*
X237566048Y-98770000D01*
X237547689Y-98583599D01*
X237705075Y-98583599D01*
X237767511Y-98765000D01*
X238845000Y-98765000D01*
X238845000Y-97687512D01*
X238855000Y-97687512D01*
X238855000Y-98765000D01*
X239932489Y-98765000D01*
X239994925Y-98583599D01*
X239936561Y-98363817D01*
X239836441Y-98159644D01*
X239698412Y-97978927D01*
X239527779Y-97828610D01*
X239331100Y-97714470D01*
X239115932Y-97640894D01*
X239036401Y-97625075D01*
X238855000Y-97687512D01*
X238845000Y-97687512D01*
X238663599Y-97625075D01*
X238584068Y-97640894D01*
X238368900Y-97714470D01*
X238172221Y-97828610D01*
X238001588Y-97978927D01*
X237863559Y-98159644D01*
X237763439Y-98363817D01*
X237705075Y-98583599D01*
X237547689Y-98583599D01*
X237541913Y-98524957D01*
X237470437Y-98289331D01*
X237354366Y-98072177D01*
X237198160Y-97881840D01*
X237007823Y-97725634D01*
X236790669Y-97609563D01*
X236555043Y-97538087D01*
X236371405Y-97520000D01*
X236248595Y-97520000D01*
X236064957Y-97538087D01*
X235829331Y-97609563D01*
X235612177Y-97725634D01*
X235421840Y-97881840D01*
X235265634Y-98072177D01*
X235149563Y-98289331D01*
X235078087Y-98524957D01*
X235053952Y-98770000D01*
X235026048Y-98770000D01*
X235001913Y-98524957D01*
X234930437Y-98289331D01*
X234814366Y-98072177D01*
X234658160Y-97881840D01*
X234467823Y-97725634D01*
X234250669Y-97609563D01*
X234015043Y-97538087D01*
X233831405Y-97520000D01*
X233708595Y-97520000D01*
X233524957Y-97538087D01*
X233289331Y-97609563D01*
X233072177Y-97725634D01*
X232881840Y-97881840D01*
X232725634Y-98072177D01*
X232609563Y-98289331D01*
X232538087Y-98524957D01*
X232513952Y-98770000D01*
X232486048Y-98770000D01*
X232461913Y-98524957D01*
X232390437Y-98289331D01*
X232274366Y-98072177D01*
X232118160Y-97881840D01*
X231927823Y-97725634D01*
X231710669Y-97609563D01*
X231475043Y-97538087D01*
X231291405Y-97520000D01*
X231168595Y-97520000D01*
X230984957Y-97538087D01*
X230749331Y-97609563D01*
X230532177Y-97725634D01*
X230341840Y-97881840D01*
X230185634Y-98072177D01*
X230069563Y-98289331D01*
X229998087Y-98524957D01*
X229973952Y-98770000D01*
X229946048Y-98770000D01*
X229921913Y-98524957D01*
X229850437Y-98289331D01*
X229734366Y-98072177D01*
X229578160Y-97881840D01*
X229387823Y-97725634D01*
X229170669Y-97609563D01*
X228935043Y-97538087D01*
X228751405Y-97520000D01*
X228628595Y-97520000D01*
X228444957Y-97538087D01*
X228209331Y-97609563D01*
X227992177Y-97725634D01*
X227801840Y-97881840D01*
X227645634Y-98072177D01*
X227529563Y-98289331D01*
X227458087Y-98524957D01*
X227433952Y-98770000D01*
X227406048Y-98770000D01*
X227381913Y-98524957D01*
X227310437Y-98289331D01*
X227194366Y-98072177D01*
X227038160Y-97881840D01*
X226847823Y-97725634D01*
X226630669Y-97609563D01*
X226395043Y-97538087D01*
X226211405Y-97520000D01*
X226088595Y-97520000D01*
X225904957Y-97538087D01*
X225669331Y-97609563D01*
X225452177Y-97725634D01*
X225261840Y-97881840D01*
X225105634Y-98072177D01*
X224989563Y-98289331D01*
X224918087Y-98524957D01*
X224893952Y-98770000D01*
X224866048Y-98770000D01*
X224841913Y-98524957D01*
X224770437Y-98289331D01*
X224654366Y-98072177D01*
X224498160Y-97881840D01*
X224307823Y-97725634D01*
X224090669Y-97609563D01*
X223855043Y-97538087D01*
X223671405Y-97520000D01*
X223548595Y-97520000D01*
X223364957Y-97538087D01*
X223129331Y-97609563D01*
X222912177Y-97725634D01*
X222875000Y-97756144D01*
X222875000Y-97535779D01*
X222877539Y-97509999D01*
X222875000Y-97484219D01*
X222875000Y-97484212D01*
X222867403Y-97407082D01*
X222837383Y-97308119D01*
X222788633Y-97216914D01*
X222723027Y-97136973D01*
X222702996Y-97120534D01*
X222245029Y-96662567D01*
X222301913Y-96475043D01*
X222307688Y-96416401D01*
X222465075Y-96416401D01*
X222523439Y-96636183D01*
X222623559Y-96840356D01*
X222761588Y-97021073D01*
X222932221Y-97171390D01*
X223128900Y-97285530D01*
X223344068Y-97359106D01*
X223423599Y-97374925D01*
X223605000Y-97312488D01*
X223605000Y-96235000D01*
X223615000Y-96235000D01*
X223615000Y-97312488D01*
X223796401Y-97374925D01*
X223875932Y-97359106D01*
X224091100Y-97285530D01*
X224287779Y-97171390D01*
X224458412Y-97021073D01*
X224596441Y-96840356D01*
X224696561Y-96636183D01*
X224754925Y-96416401D01*
X224692489Y-96235000D01*
X223615000Y-96235000D01*
X223605000Y-96235000D01*
X222527511Y-96235000D01*
X222465075Y-96416401D01*
X222307688Y-96416401D01*
X222326048Y-96230000D01*
X224893952Y-96230000D01*
X224918087Y-96475043D01*
X224989563Y-96710669D01*
X225105634Y-96927823D01*
X225261840Y-97118160D01*
X225452177Y-97274366D01*
X225669331Y-97390437D01*
X225904957Y-97461913D01*
X226088595Y-97480000D01*
X226211405Y-97480000D01*
X226395043Y-97461913D01*
X226630669Y-97390437D01*
X226847823Y-97274366D01*
X227038160Y-97118160D01*
X227194366Y-96927823D01*
X227310437Y-96710669D01*
X227381913Y-96475043D01*
X227406048Y-96230000D01*
X227433952Y-96230000D01*
X227458087Y-96475043D01*
X227529563Y-96710669D01*
X227645634Y-96927823D01*
X227801840Y-97118160D01*
X227992177Y-97274366D01*
X228209331Y-97390437D01*
X228444957Y-97461913D01*
X228628595Y-97480000D01*
X228751405Y-97480000D01*
X228935043Y-97461913D01*
X229170669Y-97390437D01*
X229387823Y-97274366D01*
X229578160Y-97118160D01*
X229734366Y-96927823D01*
X229850437Y-96710669D01*
X229921913Y-96475043D01*
X229927688Y-96416401D01*
X230085075Y-96416401D01*
X230143439Y-96636183D01*
X230243559Y-96840356D01*
X230381588Y-97021073D01*
X230552221Y-97171390D01*
X230748900Y-97285530D01*
X230964068Y-97359106D01*
X231043599Y-97374925D01*
X231225000Y-97312488D01*
X231225000Y-96235000D01*
X231235000Y-96235000D01*
X231235000Y-97312488D01*
X231416401Y-97374925D01*
X231495932Y-97359106D01*
X231711100Y-97285530D01*
X231907779Y-97171390D01*
X232078412Y-97021073D01*
X232216441Y-96840356D01*
X232316561Y-96636183D01*
X232374925Y-96416401D01*
X232312489Y-96235000D01*
X231235000Y-96235000D01*
X231225000Y-96235000D01*
X230147511Y-96235000D01*
X230085075Y-96416401D01*
X229927688Y-96416401D01*
X229946048Y-96230000D01*
X232513952Y-96230000D01*
X232538087Y-96475043D01*
X232609563Y-96710669D01*
X232725634Y-96927823D01*
X232881840Y-97118160D01*
X233072177Y-97274366D01*
X233289331Y-97390437D01*
X233524957Y-97461913D01*
X233708595Y-97480000D01*
X233831405Y-97480000D01*
X234015043Y-97461913D01*
X234250669Y-97390437D01*
X234467823Y-97274366D01*
X234658160Y-97118160D01*
X234814366Y-96927823D01*
X234930437Y-96710669D01*
X235001913Y-96475043D01*
X235026048Y-96230000D01*
X235053952Y-96230000D01*
X235078087Y-96475043D01*
X235149563Y-96710669D01*
X235265634Y-96927823D01*
X235421840Y-97118160D01*
X235612177Y-97274366D01*
X235829331Y-97390437D01*
X236064957Y-97461913D01*
X236248595Y-97480000D01*
X236371405Y-97480000D01*
X236555043Y-97461913D01*
X236790669Y-97390437D01*
X237007823Y-97274366D01*
X237198160Y-97118160D01*
X237354366Y-96927823D01*
X237470437Y-96710669D01*
X237541913Y-96475043D01*
X237566048Y-96230000D01*
X237593952Y-96230000D01*
X237618087Y-96475043D01*
X237689563Y-96710669D01*
X237805634Y-96927823D01*
X237961840Y-97118160D01*
X238152177Y-97274366D01*
X238369331Y-97390437D01*
X238604957Y-97461913D01*
X238788595Y-97480000D01*
X238911405Y-97480000D01*
X239095043Y-97461913D01*
X239330669Y-97390437D01*
X239547823Y-97274366D01*
X239738160Y-97118160D01*
X239894366Y-96927823D01*
X240010437Y-96710669D01*
X240081913Y-96475043D01*
X240106048Y-96230000D01*
X240133952Y-96230000D01*
X240158087Y-96475043D01*
X240229563Y-96710669D01*
X240345634Y-96927823D01*
X240501840Y-97118160D01*
X240692177Y-97274366D01*
X240909331Y-97390437D01*
X241144957Y-97461913D01*
X241328595Y-97480000D01*
X241451405Y-97480000D01*
X241635043Y-97461913D01*
X241870669Y-97390437D01*
X242087823Y-97274366D01*
X242278160Y-97118160D01*
X242434366Y-96927823D01*
X242550437Y-96710669D01*
X242621913Y-96475043D01*
X242627688Y-96416401D01*
X242785075Y-96416401D01*
X242843439Y-96636183D01*
X242943559Y-96840356D01*
X243081588Y-97021073D01*
X243252221Y-97171390D01*
X243448900Y-97285530D01*
X243664068Y-97359106D01*
X243743599Y-97374925D01*
X243925000Y-97312488D01*
X243925000Y-96235000D01*
X243935000Y-96235000D01*
X243935000Y-97312488D01*
X244116401Y-97374925D01*
X244195932Y-97359106D01*
X244411100Y-97285530D01*
X244607779Y-97171390D01*
X244778412Y-97021073D01*
X244916441Y-96840356D01*
X245016561Y-96636183D01*
X245074925Y-96416401D01*
X245012489Y-96235000D01*
X243935000Y-96235000D01*
X243925000Y-96235000D01*
X242847511Y-96235000D01*
X242785075Y-96416401D01*
X242627688Y-96416401D01*
X242646048Y-96230000D01*
X245213952Y-96230000D01*
X245238087Y-96475043D01*
X245309563Y-96710669D01*
X245425634Y-96927823D01*
X245581840Y-97118160D01*
X245772177Y-97274366D01*
X245989331Y-97390437D01*
X246224957Y-97461913D01*
X246408595Y-97480000D01*
X246531405Y-97480000D01*
X246715043Y-97461913D01*
X246950669Y-97390437D01*
X247167823Y-97274366D01*
X247358160Y-97118160D01*
X247514366Y-96927823D01*
X247630437Y-96710669D01*
X247701913Y-96475043D01*
X247707688Y-96416401D01*
X247865075Y-96416401D01*
X247923439Y-96636183D01*
X248023559Y-96840356D01*
X248161588Y-97021073D01*
X248332221Y-97171390D01*
X248528900Y-97285530D01*
X248744068Y-97359106D01*
X248823599Y-97374925D01*
X249005000Y-97312488D01*
X249005000Y-96235000D01*
X249015000Y-96235000D01*
X249015000Y-97312488D01*
X249196401Y-97374925D01*
X249275932Y-97359106D01*
X249491100Y-97285530D01*
X249687779Y-97171390D01*
X249858412Y-97021073D01*
X249996441Y-96840356D01*
X250096561Y-96636183D01*
X250154925Y-96416401D01*
X250092489Y-96235000D01*
X249015000Y-96235000D01*
X249005000Y-96235000D01*
X247927511Y-96235000D01*
X247865075Y-96416401D01*
X247707688Y-96416401D01*
X247726048Y-96230000D01*
X250293952Y-96230000D01*
X250318087Y-96475043D01*
X250389563Y-96710669D01*
X250505634Y-96927823D01*
X250661840Y-97118160D01*
X250852177Y-97274366D01*
X251069331Y-97390437D01*
X251304957Y-97461913D01*
X251488595Y-97480000D01*
X251611405Y-97480000D01*
X251795043Y-97461913D01*
X252030669Y-97390437D01*
X252247823Y-97274366D01*
X252438160Y-97118160D01*
X252594366Y-96927823D01*
X252710437Y-96710669D01*
X252781913Y-96475043D01*
X252806048Y-96230000D01*
X252833952Y-96230000D01*
X252858087Y-96475043D01*
X252929563Y-96710669D01*
X253045634Y-96927823D01*
X253201840Y-97118160D01*
X253392177Y-97274366D01*
X253609331Y-97390437D01*
X253844957Y-97461913D01*
X254028595Y-97480000D01*
X254151405Y-97480000D01*
X254335043Y-97461913D01*
X254570669Y-97390437D01*
X254787823Y-97274366D01*
X254978160Y-97118160D01*
X255134366Y-96927823D01*
X255250437Y-96710669D01*
X255321913Y-96475043D01*
X255346048Y-96230000D01*
X255373952Y-96230000D01*
X255398087Y-96475043D01*
X255469563Y-96710669D01*
X255585634Y-96927823D01*
X255741840Y-97118160D01*
X255932177Y-97274366D01*
X256149331Y-97390437D01*
X256384957Y-97461913D01*
X256568595Y-97480000D01*
X256691405Y-97480000D01*
X256875043Y-97461913D01*
X257110669Y-97390437D01*
X257228154Y-97327640D01*
X259750000Y-97327640D01*
X259750000Y-97672360D01*
X259817251Y-98010456D01*
X259949170Y-98328936D01*
X260140686Y-98615560D01*
X260384440Y-98859314D01*
X260671064Y-99050830D01*
X260989544Y-99182749D01*
X261327640Y-99250000D01*
X261672360Y-99250000D01*
X262010456Y-99182749D01*
X262328936Y-99050830D01*
X262615560Y-98859314D01*
X262859314Y-98615560D01*
X263050830Y-98328936D01*
X263182749Y-98010456D01*
X263250000Y-97672360D01*
X263250000Y-97327640D01*
X263182749Y-96989544D01*
X263050830Y-96671064D01*
X262859314Y-96384440D01*
X262615560Y-96140686D01*
X262328936Y-95949170D01*
X262010456Y-95817251D01*
X261672360Y-95750000D01*
X261327640Y-95750000D01*
X260989544Y-95817251D01*
X260671064Y-95949170D01*
X260384440Y-96140686D01*
X260140686Y-96384440D01*
X259949170Y-96671064D01*
X259817251Y-96989544D01*
X259750000Y-97327640D01*
X257228154Y-97327640D01*
X257327823Y-97274366D01*
X257518160Y-97118160D01*
X257674366Y-96927823D01*
X257790437Y-96710669D01*
X257861913Y-96475043D01*
X257886048Y-96230000D01*
X257861913Y-95984957D01*
X257790437Y-95749331D01*
X257674366Y-95532177D01*
X257518160Y-95341840D01*
X257327823Y-95185634D01*
X257110669Y-95069563D01*
X256875043Y-94998087D01*
X256691405Y-94980000D01*
X256568595Y-94980000D01*
X256384957Y-94998087D01*
X256149331Y-95069563D01*
X255932177Y-95185634D01*
X255741840Y-95341840D01*
X255585634Y-95532177D01*
X255469563Y-95749331D01*
X255398087Y-95984957D01*
X255373952Y-96230000D01*
X255346048Y-96230000D01*
X255321913Y-95984957D01*
X255250437Y-95749331D01*
X255134366Y-95532177D01*
X254978160Y-95341840D01*
X254787823Y-95185634D01*
X254570669Y-95069563D01*
X254335043Y-94998087D01*
X254151405Y-94980000D01*
X254028595Y-94980000D01*
X253844957Y-94998087D01*
X253609331Y-95069563D01*
X253392177Y-95185634D01*
X253201840Y-95341840D01*
X253045634Y-95532177D01*
X252929563Y-95749331D01*
X252858087Y-95984957D01*
X252833952Y-96230000D01*
X252806048Y-96230000D01*
X252781913Y-95984957D01*
X252710437Y-95749331D01*
X252594366Y-95532177D01*
X252438160Y-95341840D01*
X252247823Y-95185634D01*
X252030669Y-95069563D01*
X251795043Y-94998087D01*
X251611405Y-94980000D01*
X251488595Y-94980000D01*
X251304957Y-94998087D01*
X251069331Y-95069563D01*
X250852177Y-95185634D01*
X250661840Y-95341840D01*
X250505634Y-95532177D01*
X250389563Y-95749331D01*
X250318087Y-95984957D01*
X250293952Y-96230000D01*
X247726048Y-96230000D01*
X247707689Y-96043599D01*
X247865075Y-96043599D01*
X247927511Y-96225000D01*
X249005000Y-96225000D01*
X249005000Y-95147512D01*
X249015000Y-95147512D01*
X249015000Y-96225000D01*
X250092489Y-96225000D01*
X250154925Y-96043599D01*
X250096561Y-95823817D01*
X249996441Y-95619644D01*
X249858412Y-95438927D01*
X249687779Y-95288610D01*
X249491100Y-95174470D01*
X249275932Y-95100894D01*
X249196401Y-95085075D01*
X249015000Y-95147512D01*
X249005000Y-95147512D01*
X248823599Y-95085075D01*
X248744068Y-95100894D01*
X248528900Y-95174470D01*
X248332221Y-95288610D01*
X248161588Y-95438927D01*
X248023559Y-95619644D01*
X247923439Y-95823817D01*
X247865075Y-96043599D01*
X247707689Y-96043599D01*
X247701913Y-95984957D01*
X247630437Y-95749331D01*
X247514366Y-95532177D01*
X247358160Y-95341840D01*
X247167823Y-95185634D01*
X246950669Y-95069563D01*
X246715043Y-94998087D01*
X246531405Y-94980000D01*
X246408595Y-94980000D01*
X246224957Y-94998087D01*
X245989331Y-95069563D01*
X245772177Y-95185634D01*
X245581840Y-95341840D01*
X245425634Y-95532177D01*
X245309563Y-95749331D01*
X245238087Y-95984957D01*
X245213952Y-96230000D01*
X242646048Y-96230000D01*
X242627689Y-96043599D01*
X242785075Y-96043599D01*
X242847511Y-96225000D01*
X243925000Y-96225000D01*
X243925000Y-95147512D01*
X243935000Y-95147512D01*
X243935000Y-96225000D01*
X245012489Y-96225000D01*
X245074925Y-96043599D01*
X245016561Y-95823817D01*
X244916441Y-95619644D01*
X244778412Y-95438927D01*
X244607779Y-95288610D01*
X244411100Y-95174470D01*
X244195932Y-95100894D01*
X244116401Y-95085075D01*
X243935000Y-95147512D01*
X243925000Y-95147512D01*
X243743599Y-95085075D01*
X243664068Y-95100894D01*
X243448900Y-95174470D01*
X243252221Y-95288610D01*
X243081588Y-95438927D01*
X242943559Y-95619644D01*
X242843439Y-95823817D01*
X242785075Y-96043599D01*
X242627689Y-96043599D01*
X242621913Y-95984957D01*
X242550437Y-95749331D01*
X242434366Y-95532177D01*
X242278160Y-95341840D01*
X242087823Y-95185634D01*
X241870669Y-95069563D01*
X241635043Y-94998087D01*
X241451405Y-94980000D01*
X241328595Y-94980000D01*
X241144957Y-94998087D01*
X240909331Y-95069563D01*
X240692177Y-95185634D01*
X240501840Y-95341840D01*
X240345634Y-95532177D01*
X240229563Y-95749331D01*
X240158087Y-95984957D01*
X240133952Y-96230000D01*
X240106048Y-96230000D01*
X240081913Y-95984957D01*
X240010437Y-95749331D01*
X239894366Y-95532177D01*
X239738160Y-95341840D01*
X239547823Y-95185634D01*
X239330669Y-95069563D01*
X239095043Y-94998087D01*
X238911405Y-94980000D01*
X238788595Y-94980000D01*
X238604957Y-94998087D01*
X238369331Y-95069563D01*
X238152177Y-95185634D01*
X237961840Y-95341840D01*
X237805634Y-95532177D01*
X237689563Y-95749331D01*
X237618087Y-95984957D01*
X237593952Y-96230000D01*
X237566048Y-96230000D01*
X237541913Y-95984957D01*
X237470437Y-95749331D01*
X237354366Y-95532177D01*
X237198160Y-95341840D01*
X237007823Y-95185634D01*
X236790669Y-95069563D01*
X236555043Y-94998087D01*
X236371405Y-94980000D01*
X236248595Y-94980000D01*
X236064957Y-94998087D01*
X235829331Y-95069563D01*
X235612177Y-95185634D01*
X235421840Y-95341840D01*
X235265634Y-95532177D01*
X235149563Y-95749331D01*
X235078087Y-95984957D01*
X235053952Y-96230000D01*
X235026048Y-96230000D01*
X235001913Y-95984957D01*
X234930437Y-95749331D01*
X234814366Y-95532177D01*
X234658160Y-95341840D01*
X234467823Y-95185634D01*
X234250669Y-95069563D01*
X234015043Y-94998087D01*
X233831405Y-94980000D01*
X233708595Y-94980000D01*
X233524957Y-94998087D01*
X233289331Y-95069563D01*
X233072177Y-95185634D01*
X232881840Y-95341840D01*
X232725634Y-95532177D01*
X232609563Y-95749331D01*
X232538087Y-95984957D01*
X232513952Y-96230000D01*
X229946048Y-96230000D01*
X229927689Y-96043599D01*
X230085075Y-96043599D01*
X230147511Y-96225000D01*
X231225000Y-96225000D01*
X231225000Y-95147512D01*
X231235000Y-95147512D01*
X231235000Y-96225000D01*
X232312489Y-96225000D01*
X232374925Y-96043599D01*
X232316561Y-95823817D01*
X232216441Y-95619644D01*
X232078412Y-95438927D01*
X231907779Y-95288610D01*
X231711100Y-95174470D01*
X231495932Y-95100894D01*
X231416401Y-95085075D01*
X231235000Y-95147512D01*
X231225000Y-95147512D01*
X231043599Y-95085075D01*
X230964068Y-95100894D01*
X230748900Y-95174470D01*
X230552221Y-95288610D01*
X230381588Y-95438927D01*
X230243559Y-95619644D01*
X230143439Y-95823817D01*
X230085075Y-96043599D01*
X229927689Y-96043599D01*
X229921913Y-95984957D01*
X229850437Y-95749331D01*
X229734366Y-95532177D01*
X229578160Y-95341840D01*
X229387823Y-95185634D01*
X229170669Y-95069563D01*
X228935043Y-94998087D01*
X228751405Y-94980000D01*
X228628595Y-94980000D01*
X228444957Y-94998087D01*
X228209331Y-95069563D01*
X227992177Y-95185634D01*
X227801840Y-95341840D01*
X227645634Y-95532177D01*
X227529563Y-95749331D01*
X227458087Y-95984957D01*
X227433952Y-96230000D01*
X227406048Y-96230000D01*
X227381913Y-95984957D01*
X227310437Y-95749331D01*
X227194366Y-95532177D01*
X227038160Y-95341840D01*
X226847823Y-95185634D01*
X226630669Y-95069563D01*
X226395043Y-94998087D01*
X226211405Y-94980000D01*
X226088595Y-94980000D01*
X225904957Y-94998087D01*
X225669331Y-95069563D01*
X225452177Y-95185634D01*
X225261840Y-95341840D01*
X225105634Y-95532177D01*
X224989563Y-95749331D01*
X224918087Y-95984957D01*
X224893952Y-96230000D01*
X222326048Y-96230000D01*
X222307689Y-96043599D01*
X222465075Y-96043599D01*
X222527511Y-96225000D01*
X223605000Y-96225000D01*
X223605000Y-95147512D01*
X223615000Y-95147512D01*
X223615000Y-96225000D01*
X224692489Y-96225000D01*
X224754925Y-96043599D01*
X224696561Y-95823817D01*
X224596441Y-95619644D01*
X224458412Y-95438927D01*
X224287779Y-95288610D01*
X224091100Y-95174470D01*
X223875932Y-95100894D01*
X223796401Y-95085075D01*
X223615000Y-95147512D01*
X223605000Y-95147512D01*
X223423599Y-95085075D01*
X223344068Y-95100894D01*
X223128900Y-95174470D01*
X222932221Y-95288610D01*
X222761588Y-95438927D01*
X222623559Y-95619644D01*
X222523439Y-95823817D01*
X222465075Y-96043599D01*
X222307689Y-96043599D01*
X222301913Y-95984957D01*
X222230437Y-95749331D01*
X222114366Y-95532177D01*
X221958160Y-95341840D01*
X221767823Y-95185634D01*
X221550669Y-95069563D01*
X221315043Y-94998087D01*
X221131405Y-94980000D01*
X221008595Y-94980000D01*
X220824957Y-94998087D01*
X220589331Y-95069563D01*
X220372177Y-95185634D01*
X220181840Y-95341840D01*
X220025634Y-95532177D01*
X219909563Y-95749331D01*
X219838087Y-95984957D01*
X219813952Y-96230000D01*
X219786048Y-96230000D01*
X219761913Y-95984957D01*
X219690437Y-95749331D01*
X219574366Y-95532177D01*
X219418160Y-95341840D01*
X219227823Y-95185634D01*
X219010669Y-95069563D01*
X218775043Y-94998087D01*
X218591405Y-94980000D01*
X218468595Y-94980000D01*
X218284957Y-94998087D01*
X218049331Y-95069563D01*
X217832177Y-95185634D01*
X217641840Y-95341840D01*
X217485634Y-95532177D01*
X217369563Y-95749331D01*
X217298087Y-95984957D01*
X217273952Y-96230000D01*
X217246048Y-96230000D01*
X217221913Y-95984957D01*
X217150437Y-95749331D01*
X217034366Y-95532177D01*
X216878160Y-95341840D01*
X216687823Y-95185634D01*
X216470669Y-95069563D01*
X216235043Y-94998087D01*
X216051405Y-94980000D01*
X215928595Y-94980000D01*
X215744957Y-94998087D01*
X215509331Y-95069563D01*
X215292177Y-95185634D01*
X215101840Y-95341840D01*
X214945634Y-95532177D01*
X214829563Y-95749331D01*
X214758087Y-95984957D01*
X214733952Y-96230000D01*
X212166048Y-96230000D01*
X212147689Y-96043599D01*
X212305075Y-96043599D01*
X212367511Y-96225000D01*
X213445000Y-96225000D01*
X213445000Y-95147512D01*
X213455000Y-95147512D01*
X213455000Y-96225000D01*
X214532489Y-96225000D01*
X214594925Y-96043599D01*
X214536561Y-95823817D01*
X214436441Y-95619644D01*
X214298412Y-95438927D01*
X214127779Y-95288610D01*
X213931100Y-95174470D01*
X213715932Y-95100894D01*
X213636401Y-95085075D01*
X213455000Y-95147512D01*
X213445000Y-95147512D01*
X213263599Y-95085075D01*
X213184068Y-95100894D01*
X212968900Y-95174470D01*
X212772221Y-95288610D01*
X212601588Y-95438927D01*
X212463559Y-95619644D01*
X212363439Y-95823817D01*
X212305075Y-96043599D01*
X212147689Y-96043599D01*
X212141913Y-95984957D01*
X212070437Y-95749331D01*
X211954366Y-95532177D01*
X211798160Y-95341840D01*
X211607823Y-95185634D01*
X211390669Y-95069563D01*
X211155043Y-94998087D01*
X210971405Y-94980000D01*
X210848595Y-94980000D01*
X210664957Y-94998087D01*
X210429331Y-95069563D01*
X210212177Y-95185634D01*
X210021840Y-95341840D01*
X209865634Y-95532177D01*
X209840072Y-95580000D01*
X209439928Y-95580000D01*
X209414366Y-95532177D01*
X209258160Y-95341840D01*
X209067823Y-95185634D01*
X208850669Y-95069563D01*
X208615043Y-94998087D01*
X208431405Y-94980000D01*
X208308595Y-94980000D01*
X208124957Y-94998087D01*
X207889331Y-95069563D01*
X207672177Y-95185634D01*
X207481840Y-95341840D01*
X207325634Y-95532177D01*
X207209563Y-95749331D01*
X207138087Y-95984957D01*
X207113952Y-96230000D01*
X207138087Y-96475043D01*
X207153828Y-96526934D01*
X206462962Y-97217800D01*
X206438157Y-97238157D01*
X206417802Y-97262960D01*
X206356930Y-97337132D01*
X206319541Y-97407082D01*
X206296573Y-97450053D01*
X206259405Y-97572579D01*
X206250000Y-97668069D01*
X206250000Y-97668079D01*
X206246856Y-97700000D01*
X206250000Y-97731922D01*
X206250001Y-98730761D01*
X200450000Y-104530762D01*
X200450000Y-97327640D01*
X201750000Y-97327640D01*
X201750000Y-97672360D01*
X201817251Y-98010456D01*
X201949170Y-98328936D01*
X202140686Y-98615560D01*
X202384440Y-98859314D01*
X202671064Y-99050830D01*
X202989544Y-99182749D01*
X203327640Y-99250000D01*
X203672360Y-99250000D01*
X204010456Y-99182749D01*
X204328936Y-99050830D01*
X204615560Y-98859314D01*
X204859314Y-98615560D01*
X205050830Y-98328936D01*
X205182749Y-98010456D01*
X205250000Y-97672360D01*
X205250000Y-97327640D01*
X205182749Y-96989544D01*
X205050830Y-96671064D01*
X204859314Y-96384440D01*
X204615560Y-96140686D01*
X204328936Y-95949170D01*
X204010456Y-95817251D01*
X203672360Y-95750000D01*
X203327640Y-95750000D01*
X202989544Y-95817251D01*
X202671064Y-95949170D01*
X202384440Y-96140686D01*
X202140686Y-96384440D01*
X201949170Y-96671064D01*
X201817251Y-96989544D01*
X201750000Y-97327640D01*
X200450000Y-97327640D01*
X200450000Y-97022006D01*
X200500681Y-96505124D01*
X200644403Y-96029094D01*
X200877850Y-95590043D01*
X201192125Y-95204704D01*
X201575266Y-94887742D01*
X202012670Y-94651239D01*
X202487684Y-94504197D01*
X203003335Y-94450000D01*
X261977994Y-94450000D01*
X262494876Y-94500681D01*
X262494876Y-94500681D01*
G37*
X262494876Y-94500681D02*
X262970906Y-94644403D01*
X263409957Y-94877850D01*
X263795296Y-95192125D01*
X264112258Y-95575266D01*
X264348761Y-96012670D01*
X264495803Y-96487684D01*
X264550001Y-97003344D01*
X264550000Y-146977995D01*
X264499319Y-147494876D01*
X264355596Y-147970910D01*
X264122152Y-148409954D01*
X263807875Y-148795296D01*
X263424735Y-149112257D01*
X262987329Y-149348761D01*
X262512316Y-149495803D01*
X261996664Y-149550000D01*
X203022005Y-149550000D01*
X202505124Y-149499319D01*
X202029090Y-149355596D01*
X201590046Y-149122152D01*
X201204704Y-148807875D01*
X200887743Y-148424735D01*
X200651239Y-147987329D01*
X200504197Y-147512316D01*
X200450000Y-146996664D01*
X200450000Y-146327640D01*
X201750000Y-146327640D01*
X201750000Y-146672360D01*
X201817251Y-147010456D01*
X201949170Y-147328936D01*
X202140686Y-147615560D01*
X202384440Y-147859314D01*
X202671064Y-148050830D01*
X202989544Y-148182749D01*
X203327640Y-148250000D01*
X203672360Y-148250000D01*
X204010456Y-148182749D01*
X204328936Y-148050830D01*
X204615560Y-147859314D01*
X204859314Y-147615560D01*
X205050830Y-147328936D01*
X205182749Y-147010456D01*
X205250000Y-146672360D01*
X205250000Y-146327640D01*
X205182749Y-145989544D01*
X205050830Y-145671064D01*
X204859314Y-145384440D01*
X204615560Y-145140686D01*
X204328936Y-144949170D01*
X204010456Y-144817251D01*
X203672360Y-144750000D01*
X203327640Y-144750000D01*
X202989544Y-144817251D01*
X202671064Y-144949170D01*
X202384440Y-145140686D01*
X202140686Y-145384440D01*
X201949170Y-145671064D01*
X201817251Y-145989544D01*
X201750000Y-146327640D01*
X200450000Y-146327640D01*
X200450000Y-138569238D01*
X209017804Y-147137043D01*
X209038157Y-147161843D01*
X209062957Y-147182196D01*
X209062959Y-147182198D01*
X209137131Y-147243070D01*
X209204732Y-147279203D01*
X209250052Y-147303427D01*
X209372578Y-147340595D01*
X209468068Y-147350000D01*
X209468078Y-147350000D01*
X209500000Y-147353144D01*
X209531921Y-147350000D01*
X212393079Y-147350000D01*
X212425000Y-147353144D01*
X212456921Y-147350000D01*
X212456932Y-147350000D01*
X212552422Y-147340595D01*
X212674948Y-147303427D01*
X212787868Y-147243070D01*
X212886843Y-147161843D01*
X212907200Y-147137038D01*
X213282198Y-146762040D01*
X213343069Y-146687869D01*
X213403427Y-146574948D01*
X213440594Y-146452423D01*
X213453144Y-146325001D01*
X213440594Y-146197579D01*
X213403998Y-146076935D01*
X213731250Y-146076935D01*
X213852340Y-146065009D01*
X213968776Y-146029688D01*
X214076084Y-145972331D01*
X214170141Y-145895141D01*
X214247331Y-145801084D01*
X214300000Y-145702547D01*
X214352669Y-145801084D01*
X214429859Y-145895141D01*
X214523916Y-145972331D01*
X214631224Y-146029688D01*
X214747660Y-146065009D01*
X214868750Y-146076935D01*
X215306250Y-146076935D01*
X215427340Y-146065009D01*
X215543776Y-146029688D01*
X215651084Y-145972331D01*
X215745141Y-145895141D01*
X215822331Y-145801084D01*
X215849636Y-145750000D01*
X218372183Y-145750000D01*
X218741992Y-146119810D01*
X218759211Y-146140791D01*
X218780191Y-146158009D01*
X218780196Y-146158014D01*
X218836913Y-146204560D01*
X218842959Y-146209522D01*
X218938507Y-146260593D01*
X219042182Y-146292043D01*
X219122983Y-146300001D01*
X219122993Y-146300001D01*
X219150001Y-146302661D01*
X219177009Y-146300001D01*
X219348065Y-146300001D01*
X219355788Y-146378415D01*
X219378660Y-146453815D01*
X219415803Y-146523304D01*
X219465789Y-146584212D01*
X219526697Y-146634198D01*
X219596186Y-146671341D01*
X219671586Y-146694213D01*
X219750000Y-146701936D01*
X221450000Y-146701936D01*
X221528414Y-146694213D01*
X221548510Y-146688117D01*
X221547340Y-146700000D01*
X221550000Y-146727008D01*
X221550000Y-146727017D01*
X221557958Y-146807818D01*
X221589408Y-146911493D01*
X221640479Y-147007042D01*
X221709210Y-147090790D01*
X221730196Y-147108013D01*
X221991987Y-147369804D01*
X222009210Y-147390790D01*
X222092958Y-147459521D01*
X222188506Y-147510592D01*
X222292181Y-147542042D01*
X222372982Y-147550000D01*
X222372991Y-147550000D01*
X222399999Y-147552660D01*
X222427007Y-147550000D01*
X229922992Y-147550000D01*
X229950000Y-147552660D01*
X229977008Y-147550000D01*
X229977018Y-147550000D01*
X230057819Y-147542042D01*
X230161494Y-147510592D01*
X230257042Y-147459521D01*
X230340790Y-147390790D01*
X230358013Y-147369804D01*
X231705713Y-146022104D01*
X242550000Y-146022104D01*
X242550154Y-146023671D01*
X242550206Y-146031067D01*
X242552343Y-146051399D01*
X242552343Y-146071836D01*
X242552999Y-146078085D01*
X242596510Y-146465985D01*
X242604990Y-146505882D01*
X242612911Y-146545887D01*
X242614769Y-146551889D01*
X242732793Y-146923950D01*
X242748879Y-146961482D01*
X242764403Y-146999146D01*
X242767391Y-147004674D01*
X242955435Y-147346724D01*
X242978505Y-147380416D01*
X243001048Y-147414347D01*
X243005049Y-147419183D01*
X243005053Y-147419189D01*
X243005058Y-147419194D01*
X243255953Y-147718199D01*
X243285087Y-147746729D01*
X243313832Y-147775676D01*
X243318701Y-147779647D01*
X243622902Y-148024231D01*
X243657060Y-148046583D01*
X243690843Y-148069371D01*
X243696386Y-148072318D01*
X243696390Y-148072321D01*
X243696394Y-148072323D01*
X244042303Y-148253159D01*
X244080132Y-148268443D01*
X244117718Y-148284243D01*
X244123733Y-148286059D01*
X244498183Y-148396266D01*
X244538267Y-148403913D01*
X244578200Y-148412110D01*
X244584449Y-148412723D01*
X244584453Y-148412723D01*
X244973179Y-148448099D01*
X245013997Y-148447814D01*
X245054748Y-148448099D01*
X245061001Y-148447486D01*
X245449194Y-148406685D01*
X245489153Y-148398482D01*
X245529209Y-148390841D01*
X245535225Y-148389025D01*
X245908099Y-148273601D01*
X245945680Y-148257803D01*
X245983514Y-148242518D01*
X245989062Y-148239568D01*
X246332417Y-148053917D01*
X246366224Y-148031114D01*
X246400358Y-148008777D01*
X246405227Y-148004805D01*
X246705982Y-147755999D01*
X246734724Y-147727055D01*
X246763861Y-147698523D01*
X246767866Y-147693681D01*
X247014567Y-147391197D01*
X247037158Y-147357194D01*
X247060180Y-147323573D01*
X247063168Y-147318046D01*
X247246418Y-146973404D01*
X247261959Y-146935698D01*
X247278028Y-146898207D01*
X247279886Y-146892205D01*
X247392704Y-146518534D01*
X247400637Y-146478468D01*
X247409105Y-146438630D01*
X247409762Y-146432382D01*
X247420032Y-146327640D01*
X259750000Y-146327640D01*
X259750000Y-146672360D01*
X259817251Y-147010456D01*
X259949170Y-147328936D01*
X260140686Y-147615560D01*
X260384440Y-147859314D01*
X260671064Y-148050830D01*
X260989544Y-148182749D01*
X261327640Y-148250000D01*
X261672360Y-148250000D01*
X262010456Y-148182749D01*
X262328936Y-148050830D01*
X262615560Y-147859314D01*
X262859314Y-147615560D01*
X263050830Y-147328936D01*
X263182749Y-147010456D01*
X263250000Y-146672360D01*
X263250000Y-146327640D01*
X263182749Y-145989544D01*
X263050830Y-145671064D01*
X262859314Y-145384440D01*
X262615560Y-145140686D01*
X262328936Y-144949170D01*
X262010456Y-144817251D01*
X261672360Y-144750000D01*
X261327640Y-144750000D01*
X260989544Y-144817251D01*
X260671064Y-144949170D01*
X260384440Y-145140686D01*
X260140686Y-145384440D01*
X259949170Y-145671064D01*
X259817251Y-145989544D01*
X259750000Y-146327640D01*
X247420032Y-146327640D01*
X247447852Y-146043913D01*
X247450000Y-146022105D01*
X247450000Y-130977895D01*
X247449846Y-130976328D01*
X247449794Y-130968934D01*
X247447657Y-130948602D01*
X247447657Y-130928164D01*
X247447001Y-130921915D01*
X247403491Y-130534016D01*
X247395004Y-130494089D01*
X247387089Y-130454114D01*
X247385231Y-130448111D01*
X247267207Y-130076050D01*
X247251116Y-130038506D01*
X247235597Y-130000854D01*
X247232609Y-129995327D01*
X247044565Y-129653276D01*
X247021506Y-129619599D01*
X246998952Y-129585653D01*
X246994947Y-129580811D01*
X246744047Y-129281801D01*
X246714913Y-129253271D01*
X246686168Y-129224324D01*
X246681299Y-129220353D01*
X246377098Y-128975769D01*
X246342964Y-128953432D01*
X246309157Y-128930629D01*
X246303609Y-128927679D01*
X245957696Y-128746840D01*
X245919848Y-128731549D01*
X245882282Y-128715757D01*
X245876267Y-128713941D01*
X245501817Y-128603734D01*
X245461725Y-128596086D01*
X245421799Y-128587890D01*
X245415552Y-128587278D01*
X245415549Y-128587277D01*
X245415546Y-128587277D01*
X245026821Y-128551901D01*
X244986003Y-128552186D01*
X244945252Y-128551901D01*
X244938999Y-128552514D01*
X244550806Y-128593315D01*
X244510822Y-128601523D01*
X244470790Y-128609159D01*
X244464775Y-128610975D01*
X244091900Y-128726399D01*
X244054306Y-128742202D01*
X244016486Y-128757482D01*
X244010939Y-128760432D01*
X243667583Y-128946083D01*
X243633727Y-128968919D01*
X243599642Y-128991224D01*
X243594772Y-128995195D01*
X243294018Y-129244002D01*
X243265276Y-129272946D01*
X243236139Y-129301478D01*
X243232134Y-129306319D01*
X242985433Y-129608804D01*
X242962857Y-129642783D01*
X242939820Y-129676428D01*
X242936835Y-129681950D01*
X242936832Y-129681954D01*
X242936832Y-129681955D01*
X242753582Y-130026596D01*
X242738029Y-130064331D01*
X242721972Y-130101793D01*
X242720114Y-130107795D01*
X242607296Y-130481467D01*
X242599366Y-130521518D01*
X242590895Y-130561370D01*
X242590238Y-130567618D01*
X242552148Y-130956087D01*
X242552148Y-130956095D01*
X242550001Y-130977895D01*
X242550000Y-146022104D01*
X231705713Y-146022104D01*
X240407442Y-137320376D01*
X240428422Y-137303158D01*
X240445640Y-137282178D01*
X240445645Y-137282173D01*
X240497153Y-137219411D01*
X240524450Y-137168340D01*
X240548224Y-137123862D01*
X240579674Y-137020187D01*
X240587632Y-136939386D01*
X240587632Y-136939376D01*
X240590292Y-136912368D01*
X240587632Y-136885360D01*
X240587632Y-136139379D01*
X240590292Y-136112368D01*
X240587632Y-136085357D01*
X240587632Y-136085350D01*
X240579674Y-136004549D01*
X240572112Y-135979622D01*
X240548224Y-135900873D01*
X240529386Y-135865631D01*
X240531451Y-135864527D01*
X240592359Y-135814541D01*
X241794440Y-134612460D01*
X241844426Y-134551552D01*
X241881569Y-134482063D01*
X241904441Y-134406663D01*
X241912164Y-134328249D01*
X241904441Y-134249835D01*
X241881569Y-134174435D01*
X241854334Y-134123483D01*
X242269810Y-133708008D01*
X242290790Y-133690790D01*
X242308008Y-133669810D01*
X242308013Y-133669805D01*
X242354272Y-133613438D01*
X242359521Y-133607042D01*
X242410592Y-133511494D01*
X242442042Y-133407819D01*
X242450000Y-133327018D01*
X242450000Y-133327009D01*
X242452660Y-133300001D01*
X242450000Y-133272993D01*
X242450000Y-114177011D01*
X242452660Y-114150000D01*
X242450000Y-114122989D01*
X242450000Y-114122982D01*
X242442042Y-114042181D01*
X242429217Y-113999902D01*
X242410592Y-113938505D01*
X242359521Y-113842958D01*
X242308013Y-113780196D01*
X242290790Y-113759210D01*
X242269804Y-113741987D01*
X241277673Y-112749856D01*
X241260450Y-112728870D01*
X241176702Y-112660139D01*
X241081154Y-112609068D01*
X240977479Y-112577618D01*
X240896678Y-112569660D01*
X240896668Y-112569660D01*
X240869660Y-112567000D01*
X240842652Y-112569660D01*
X239911262Y-112569660D01*
X239901670Y-112538038D01*
X239864527Y-112468549D01*
X239814541Y-112407641D01*
X238612460Y-111205560D01*
X238551552Y-111155574D01*
X238482063Y-111118431D01*
X238406663Y-111095559D01*
X238328249Y-111087836D01*
X238249835Y-111095559D01*
X238174435Y-111118431D01*
X238104946Y-111155574D01*
X238044038Y-111205560D01*
X234508018Y-107669540D01*
X234508013Y-107669534D01*
X234508008Y-107669529D01*
X234490790Y-107648549D01*
X234469810Y-107631331D01*
X233768674Y-106930196D01*
X233751451Y-106909210D01*
X233667703Y-106840479D01*
X233572155Y-106789408D01*
X233468480Y-106757958D01*
X233387679Y-106750000D01*
X233387669Y-106750000D01*
X233360661Y-106747340D01*
X233333653Y-106750000D01*
X224127817Y-106750000D01*
X224079752Y-106701935D01*
X224250000Y-106701935D01*
X224328414Y-106694212D01*
X224403814Y-106671340D01*
X224473303Y-106634197D01*
X224534211Y-106584211D01*
X224584197Y-106523303D01*
X224621340Y-106453814D01*
X224644212Y-106378414D01*
X224651935Y-106300000D01*
X224651935Y-105200000D01*
X224644212Y-105121586D01*
X224621340Y-105046186D01*
X224596653Y-105000000D01*
X224621340Y-104953814D01*
X224644212Y-104878414D01*
X224651935Y-104800000D01*
X224651935Y-103700000D01*
X224644212Y-103621586D01*
X224621340Y-103546186D01*
X224584197Y-103476697D01*
X224534211Y-103415789D01*
X224473303Y-103365803D01*
X224403814Y-103328660D01*
X224328414Y-103305788D01*
X224250000Y-103298065D01*
X223952469Y-103298065D01*
X223950000Y-103272989D01*
X223950000Y-103272982D01*
X223942042Y-103192181D01*
X223910592Y-103088506D01*
X223859521Y-102992958D01*
X223790790Y-102909210D01*
X223769800Y-102891983D01*
X223608014Y-102730197D01*
X223590790Y-102709210D01*
X223507042Y-102640479D01*
X223411494Y-102589408D01*
X223307819Y-102557958D01*
X223227018Y-102550000D01*
X223227008Y-102550000D01*
X223200000Y-102547340D01*
X223172992Y-102550000D01*
X216987668Y-102550000D01*
X216960660Y-102547340D01*
X216933652Y-102550000D01*
X216933643Y-102550000D01*
X216852842Y-102557958D01*
X216749167Y-102589408D01*
X216653619Y-102640479D01*
X216653617Y-102640480D01*
X216653618Y-102640480D01*
X216590856Y-102691987D01*
X216590851Y-102691992D01*
X216569871Y-102709210D01*
X216552653Y-102730190D01*
X207016623Y-112266221D01*
X206955715Y-112216235D01*
X206886226Y-112179092D01*
X206836110Y-112163890D01*
X206820908Y-112113774D01*
X206783765Y-112044285D01*
X206733779Y-111983377D01*
X205955962Y-111205560D01*
X205895054Y-111155574D01*
X205825565Y-111118431D01*
X205750165Y-111095559D01*
X205671751Y-111087836D01*
X205593337Y-111095559D01*
X205517937Y-111118431D01*
X205448448Y-111155574D01*
X205387540Y-111205560D01*
X205176639Y-111416461D01*
X205170689Y-111409210D01*
X205086941Y-111340479D01*
X204991393Y-111289408D01*
X204887718Y-111257958D01*
X204806917Y-111250000D01*
X204806907Y-111250000D01*
X204779899Y-111247340D01*
X204752891Y-111250000D01*
X204177011Y-111250000D01*
X204150000Y-111247340D01*
X204122989Y-111250000D01*
X204122982Y-111250000D01*
X204042181Y-111257958D01*
X203938506Y-111289408D01*
X203842958Y-111340479D01*
X203759210Y-111409210D01*
X203741987Y-111430196D01*
X201530196Y-113641987D01*
X201509210Y-113659210D01*
X201450000Y-113731357D01*
X201450000Y-105369238D01*
X207125343Y-99693895D01*
X207125788Y-99698414D01*
X207148660Y-99773814D01*
X207185803Y-99843303D01*
X207235789Y-99904211D01*
X207296697Y-99954197D01*
X207366186Y-99991340D01*
X207441586Y-100014212D01*
X207520000Y-100021935D01*
X209220000Y-100021935D01*
X209298414Y-100014212D01*
X209373814Y-99991340D01*
X209443303Y-99954197D01*
X209504211Y-99904211D01*
X209554197Y-99843303D01*
X209591340Y-99773814D01*
X209614212Y-99698414D01*
X209621935Y-99620000D01*
X209621935Y-98770000D01*
X209653952Y-98770000D01*
X209678087Y-99015043D01*
X209749563Y-99250669D01*
X209865634Y-99467823D01*
X210021840Y-99658160D01*
X210212177Y-99814366D01*
X210429331Y-99930437D01*
X210664957Y-100001913D01*
X210848595Y-100020000D01*
X210971405Y-100020000D01*
X211155043Y-100001913D01*
X211390669Y-99930437D01*
X211607823Y-99814366D01*
X211798160Y-99658160D01*
X211954366Y-99467823D01*
X212070437Y-99250669D01*
X212141913Y-99015043D01*
X212166048Y-98770000D01*
X212193952Y-98770000D01*
X212218087Y-99015043D01*
X212289563Y-99250669D01*
X212405634Y-99467823D01*
X212561840Y-99658160D01*
X212752177Y-99814366D01*
X212969331Y-99930437D01*
X213204957Y-100001913D01*
X213388595Y-100020000D01*
X213511405Y-100020000D01*
X213695043Y-100001913D01*
X213930669Y-99930437D01*
X214147823Y-99814366D01*
X214338160Y-99658160D01*
X214494366Y-99467823D01*
X214610437Y-99250669D01*
X214681913Y-99015043D01*
X214706048Y-98770000D01*
X214733952Y-98770000D01*
X214758087Y-99015043D01*
X214829563Y-99250669D01*
X214945634Y-99467823D01*
X215101840Y-99658160D01*
X215292177Y-99814366D01*
X215509331Y-99930437D01*
X215744957Y-100001913D01*
X215928595Y-100020000D01*
X216051405Y-100020000D01*
X216235043Y-100001913D01*
X216470669Y-99930437D01*
X216687823Y-99814366D01*
X216878160Y-99658160D01*
X217034366Y-99467823D01*
X217150437Y-99250669D01*
X217221913Y-99015043D01*
X217227688Y-98956401D01*
X217385075Y-98956401D01*
X217443439Y-99176183D01*
X217543559Y-99380356D01*
X217681588Y-99561073D01*
X217852221Y-99711390D01*
X218048900Y-99825530D01*
X218264068Y-99899106D01*
X218343599Y-99914925D01*
X218525000Y-99852488D01*
X218525000Y-98775000D01*
X218535000Y-98775000D01*
X218535000Y-99852488D01*
X218716401Y-99914925D01*
X218795932Y-99899106D01*
X219011100Y-99825530D01*
X219207779Y-99711390D01*
X219378412Y-99561073D01*
X219516441Y-99380356D01*
X219616561Y-99176183D01*
X219674925Y-98956401D01*
X219612489Y-98775000D01*
X218535000Y-98775000D01*
X218525000Y-98775000D01*
X217447511Y-98775000D01*
X217385075Y-98956401D01*
X217227688Y-98956401D01*
X217246048Y-98770000D01*
X217227689Y-98583599D01*
X217385075Y-98583599D01*
X217447511Y-98765000D01*
X218525000Y-98765000D01*
X218525000Y-97687512D01*
X218535000Y-97687512D01*
X218535000Y-98765000D01*
X219612489Y-98765000D01*
X219674925Y-98583599D01*
X219616561Y-98363817D01*
X219516441Y-98159644D01*
X219378412Y-97978927D01*
X219207779Y-97828610D01*
X219011100Y-97714470D01*
X218795932Y-97640894D01*
X218716401Y-97625075D01*
X218535000Y-97687512D01*
X218525000Y-97687512D01*
X218343599Y-97625075D01*
X218264068Y-97640894D01*
X218048900Y-97714470D01*
X217852221Y-97828610D01*
X217681588Y-97978927D01*
X217543559Y-98159644D01*
X217443439Y-98363817D01*
X217385075Y-98583599D01*
X217227689Y-98583599D01*
X217221913Y-98524957D01*
X217150437Y-98289331D01*
X217034366Y-98072177D01*
X216878160Y-97881840D01*
X216687823Y-97725634D01*
X216470669Y-97609563D01*
X216235043Y-97538087D01*
X216051405Y-97520000D01*
X215928595Y-97520000D01*
X215744957Y-97538087D01*
X215509331Y-97609563D01*
X215292177Y-97725634D01*
X215101840Y-97881840D01*
X214945634Y-98072177D01*
X214829563Y-98289331D01*
X214758087Y-98524957D01*
X214733952Y-98770000D01*
X214706048Y-98770000D01*
X214681913Y-98524957D01*
X214610437Y-98289331D01*
X214494366Y-98072177D01*
X214338160Y-97881840D01*
X214147823Y-97725634D01*
X213930669Y-97609563D01*
X213695043Y-97538087D01*
X213511405Y-97520000D01*
X213388595Y-97520000D01*
X213204957Y-97538087D01*
X212969331Y-97609563D01*
X212752177Y-97725634D01*
X212561840Y-97881840D01*
X212405634Y-98072177D01*
X212289563Y-98289331D01*
X212218087Y-98524957D01*
X212193952Y-98770000D01*
X212166048Y-98770000D01*
X212141913Y-98524957D01*
X212070437Y-98289331D01*
X211954366Y-98072177D01*
X211798160Y-97881840D01*
X211607823Y-97725634D01*
X211390669Y-97609563D01*
X211155043Y-97538087D01*
X210971405Y-97520000D01*
X210848595Y-97520000D01*
X210664957Y-97538087D01*
X210429331Y-97609563D01*
X210212177Y-97725634D01*
X210021840Y-97881840D01*
X209865634Y-98072177D01*
X209749563Y-98289331D01*
X209678087Y-98524957D01*
X209653952Y-98770000D01*
X209621935Y-98770000D01*
X209621935Y-97920000D01*
X209614212Y-97841586D01*
X209591340Y-97766186D01*
X209554197Y-97696697D01*
X209504211Y-97635789D01*
X209443303Y-97585803D01*
X209373814Y-97548660D01*
X209298414Y-97525788D01*
X209220000Y-97518065D01*
X208001173Y-97518065D01*
X208073066Y-97446172D01*
X208124957Y-97461913D01*
X208308595Y-97480000D01*
X208431405Y-97480000D01*
X208615043Y-97461913D01*
X208850669Y-97390437D01*
X209067823Y-97274366D01*
X209258160Y-97118160D01*
X209414366Y-96927823D01*
X209439928Y-96880000D01*
X209840072Y-96880000D01*
X209865634Y-96927823D01*
X210021840Y-97118160D01*
X210212177Y-97274366D01*
X210429331Y-97390437D01*
X210664957Y-97461913D01*
X210848595Y-97480000D01*
X210971405Y-97480000D01*
X211155043Y-97461913D01*
X211390669Y-97390437D01*
X211607823Y-97274366D01*
X211798160Y-97118160D01*
X211954366Y-96927823D01*
X212070437Y-96710669D01*
X212141913Y-96475043D01*
X212147688Y-96416401D01*
X212305075Y-96416401D01*
X212363439Y-96636183D01*
X212463559Y-96840356D01*
X212601588Y-97021073D01*
X212772221Y-97171390D01*
X212968900Y-97285530D01*
X213184068Y-97359106D01*
X213263599Y-97374925D01*
X213445000Y-97312488D01*
X213445000Y-96235000D01*
X213455000Y-96235000D01*
X213455000Y-97312488D01*
X213636401Y-97374925D01*
X213715932Y-97359106D01*
X213931100Y-97285530D01*
X214127779Y-97171390D01*
X214298412Y-97021073D01*
X214436441Y-96840356D01*
X214536561Y-96636183D01*
X214594925Y-96416401D01*
X214532489Y-96235000D01*
X213455000Y-96235000D01*
X213445000Y-96235000D01*
X212367511Y-96235000D01*
X212305075Y-96416401D01*
X212147688Y-96416401D01*
X212166048Y-96230000D01*
X214733952Y-96230000D01*
X214758087Y-96475043D01*
X214829563Y-96710669D01*
X214945634Y-96927823D01*
X215101840Y-97118160D01*
X215292177Y-97274366D01*
X215509331Y-97390437D01*
X215744957Y-97461913D01*
X215928595Y-97480000D01*
X216051405Y-97480000D01*
X216235043Y-97461913D01*
X216470669Y-97390437D01*
X216687823Y-97274366D01*
X216878160Y-97118160D01*
X217034366Y-96927823D01*
X217150437Y-96710669D01*
X217221913Y-96475043D01*
X217246048Y-96230000D01*
X217273952Y-96230000D01*
X217298087Y-96475043D01*
X217369563Y-96710669D01*
X217485634Y-96927823D01*
X217641840Y-97118160D01*
X217832177Y-97274366D01*
X218049331Y-97390437D01*
X218284957Y-97461913D01*
X218468595Y-97480000D01*
X218591405Y-97480000D01*
X218775043Y-97461913D01*
X219010669Y-97390437D01*
X219227823Y-97274366D01*
X219418160Y-97118160D01*
X219574366Y-96927823D01*
X219690437Y-96710669D01*
X219761913Y-96475043D01*
X219786048Y-96230000D01*
X219813952Y-96230000D01*
X219838087Y-96475043D01*
X219909563Y-96710669D01*
X220025634Y-96927823D01*
X220181840Y-97118160D01*
X220372177Y-97274366D01*
X220589331Y-97390437D01*
X220824957Y-97461913D01*
X221008595Y-97480000D01*
X221131405Y-97480000D01*
X221315043Y-97461913D01*
X221502567Y-97405029D01*
X221825000Y-97727462D01*
X221825000Y-97772558D01*
X221767823Y-97725634D01*
X221550669Y-97609563D01*
X221315043Y-97538087D01*
X221131405Y-97520000D01*
X221008595Y-97520000D01*
X220824957Y-97538087D01*
X220589331Y-97609563D01*
X220372177Y-97725634D01*
X220181840Y-97881840D01*
X220025634Y-98072177D01*
X219909563Y-98289331D01*
X219838087Y-98524957D01*
X219813952Y-98770000D01*
X219838087Y-99015043D01*
X219909563Y-99250669D01*
X220025634Y-99467823D01*
X220181840Y-99658160D01*
X220372177Y-99814366D01*
X220589331Y-99930437D01*
X220824957Y-100001913D01*
X221008595Y-100020000D01*
X221131405Y-100020000D01*
X221315043Y-100001913D01*
X221550669Y-99930437D01*
X221767823Y-99814366D01*
X221894083Y-99710747D01*
X221911368Y-99743086D01*
X221976974Y-99823027D01*
X221997005Y-99839466D01*
X223160534Y-101002996D01*
X223176973Y-101023027D01*
X223256914Y-101088633D01*
X223348119Y-101137383D01*
X223447082Y-101167403D01*
X223524212Y-101175000D01*
X223524219Y-101175000D01*
X223549999Y-101177539D01*
X223575779Y-101175000D01*
X226932539Y-101175000D01*
X228710534Y-102952996D01*
X228726973Y-102973027D01*
X228806914Y-103038633D01*
X228834431Y-103053341D01*
X228823065Y-103168750D01*
X228823065Y-103606250D01*
X228834991Y-103727340D01*
X228870312Y-103843776D01*
X228927669Y-103951084D01*
X229004859Y-104045141D01*
X229036975Y-104071498D01*
X229026901Y-104095818D01*
X229000000Y-104231056D01*
X229000000Y-104368944D01*
X229026901Y-104504182D01*
X229079668Y-104631574D01*
X229156274Y-104746224D01*
X229253776Y-104843726D01*
X229368426Y-104920332D01*
X229495818Y-104973099D01*
X229631056Y-105000000D01*
X229768944Y-105000000D01*
X229904182Y-104973099D01*
X230031574Y-104920332D01*
X230146224Y-104843726D01*
X230243726Y-104746224D01*
X230320332Y-104631574D01*
X230373099Y-104504182D01*
X230400000Y-104368944D01*
X230400000Y-104231056D01*
X230373099Y-104095818D01*
X230363025Y-104071498D01*
X230395141Y-104045141D01*
X230472331Y-103951084D01*
X230500000Y-103899319D01*
X230527669Y-103951084D01*
X230604859Y-104045141D01*
X230636975Y-104071498D01*
X230626901Y-104095818D01*
X230600000Y-104231056D01*
X230600000Y-104368944D01*
X230626901Y-104504182D01*
X230679668Y-104631574D01*
X230756274Y-104746224D01*
X230853776Y-104843726D01*
X230968426Y-104920332D01*
X231095818Y-104973099D01*
X231231056Y-105000000D01*
X231368944Y-105000000D01*
X231504182Y-104973099D01*
X231631574Y-104920332D01*
X231746224Y-104843726D01*
X231843726Y-104746224D01*
X231920332Y-104631574D01*
X231973099Y-104504182D01*
X232000000Y-104368944D01*
X232000000Y-104231056D01*
X231973099Y-104095818D01*
X231963025Y-104071498D01*
X231995141Y-104045141D01*
X232072331Y-103951084D01*
X232129688Y-103843776D01*
X232165009Y-103727340D01*
X232176935Y-103606250D01*
X232176935Y-103168750D01*
X232168069Y-103078730D01*
X232243086Y-103038633D01*
X232323027Y-102973027D01*
X232339471Y-102952990D01*
X233809629Y-101482834D01*
X233818850Y-101529192D01*
X233871617Y-101656584D01*
X233948223Y-101771234D01*
X234045725Y-101868736D01*
X234160375Y-101945342D01*
X234287767Y-101998109D01*
X234423005Y-102025010D01*
X234560893Y-102025010D01*
X234696131Y-101998109D01*
X234823523Y-101945342D01*
X234938173Y-101868736D01*
X234956899Y-101850010D01*
X243957549Y-101850010D01*
X245125000Y-103017463D01*
X245125001Y-108074210D01*
X245122461Y-108100000D01*
X245132597Y-108202917D01*
X245162617Y-108301880D01*
X245211367Y-108393085D01*
X245220485Y-108404195D01*
X245276974Y-108473027D01*
X245297005Y-108489466D01*
X245585529Y-108777990D01*
X245601973Y-108798027D01*
X245681914Y-108863633D01*
X245773119Y-108912383D01*
X245826186Y-108928481D01*
X245810472Y-108980283D01*
X245798065Y-109106250D01*
X245798065Y-109593750D01*
X245810472Y-109719717D01*
X245847215Y-109840843D01*
X245906883Y-109952473D01*
X245987182Y-110050318D01*
X246085027Y-110130617D01*
X246196657Y-110190285D01*
X246317783Y-110227028D01*
X246443750Y-110239435D01*
X247356250Y-110239435D01*
X247482217Y-110227028D01*
X247603343Y-110190285D01*
X247714973Y-110130617D01*
X247812818Y-110050318D01*
X247893117Y-109952473D01*
X247952785Y-109840843D01*
X247957590Y-109825000D01*
X249538500Y-109825000D01*
X249544485Y-109885771D01*
X249562212Y-109944206D01*
X249590997Y-109998060D01*
X249629736Y-110045264D01*
X249676940Y-110084003D01*
X249730794Y-110112788D01*
X249789229Y-110130515D01*
X249850000Y-110136500D01*
X250467500Y-110135000D01*
X250545000Y-110057500D01*
X250545000Y-109342500D01*
X250555000Y-109342500D01*
X250555000Y-110057500D01*
X250632500Y-110135000D01*
X251250000Y-110136500D01*
X251310771Y-110130515D01*
X251369206Y-110112788D01*
X251423060Y-110084003D01*
X251470264Y-110045264D01*
X251509003Y-109998060D01*
X251537788Y-109944206D01*
X251555515Y-109885771D01*
X251561500Y-109825000D01*
X251560000Y-109420000D01*
X251482500Y-109342500D01*
X250555000Y-109342500D01*
X250545000Y-109342500D01*
X249617500Y-109342500D01*
X249540000Y-109420000D01*
X249538500Y-109825000D01*
X247957590Y-109825000D01*
X247989528Y-109719717D01*
X248001935Y-109593750D01*
X248001935Y-109106250D01*
X247989528Y-108980283D01*
X247952785Y-108859157D01*
X247947891Y-108850000D01*
X249538500Y-108850000D01*
X249540000Y-109255000D01*
X249617500Y-109332500D01*
X250545000Y-109332500D01*
X250545000Y-108617500D01*
X250555000Y-108617500D01*
X250555000Y-109332500D01*
X251482500Y-109332500D01*
X251560000Y-109255000D01*
X251561500Y-108850000D01*
X251555515Y-108789229D01*
X251537788Y-108730794D01*
X251509003Y-108676940D01*
X251470264Y-108629736D01*
X251423060Y-108590997D01*
X251369206Y-108562212D01*
X251310771Y-108544485D01*
X251250000Y-108538500D01*
X250632500Y-108540000D01*
X250555000Y-108617500D01*
X250545000Y-108617500D01*
X250467500Y-108540000D01*
X249850000Y-108538500D01*
X249789229Y-108544485D01*
X249730794Y-108562212D01*
X249676940Y-108590997D01*
X249629736Y-108629736D01*
X249590997Y-108676940D01*
X249562212Y-108730794D01*
X249544485Y-108789229D01*
X249538500Y-108850000D01*
X247947891Y-108850000D01*
X247893117Y-108747527D01*
X247812818Y-108649682D01*
X247714973Y-108569383D01*
X247603343Y-108509715D01*
X247482217Y-108472972D01*
X247407868Y-108465649D01*
X247387383Y-108398119D01*
X247368722Y-108363207D01*
X247482217Y-108352028D01*
X247603343Y-108315285D01*
X247714973Y-108255617D01*
X247812818Y-108175318D01*
X247893117Y-108077473D01*
X247952785Y-107965843D01*
X247989528Y-107844717D01*
X248001935Y-107718750D01*
X248001935Y-107231250D01*
X248000704Y-107218750D01*
X249448065Y-107218750D01*
X249448065Y-107706250D01*
X249460472Y-107832217D01*
X249497215Y-107953343D01*
X249556883Y-108064973D01*
X249637182Y-108162818D01*
X249735027Y-108243117D01*
X249846657Y-108302785D01*
X249967783Y-108339528D01*
X250093750Y-108351935D01*
X251006250Y-108351935D01*
X251132217Y-108339528D01*
X251253343Y-108302785D01*
X251364973Y-108243117D01*
X251462818Y-108162818D01*
X251543117Y-108064973D01*
X251602785Y-107953343D01*
X251639528Y-107832217D01*
X251651935Y-107706250D01*
X251651935Y-107218750D01*
X251639528Y-107092783D01*
X251602785Y-106971657D01*
X251543117Y-106860027D01*
X251462818Y-106762182D01*
X251364973Y-106681883D01*
X251253343Y-106622215D01*
X251251832Y-106621757D01*
X251309831Y-106551084D01*
X251367188Y-106443776D01*
X251402509Y-106327340D01*
X251414435Y-106206250D01*
X251414435Y-105768750D01*
X251402509Y-105647660D01*
X251367188Y-105531224D01*
X251309831Y-105423916D01*
X251232641Y-105329859D01*
X251138584Y-105252669D01*
X251040047Y-105200000D01*
X251138584Y-105147331D01*
X251232641Y-105070141D01*
X251309831Y-104976084D01*
X251367188Y-104868776D01*
X251402509Y-104752340D01*
X251414435Y-104631250D01*
X251414435Y-104193750D01*
X251402509Y-104072660D01*
X251367188Y-103956224D01*
X251309831Y-103848916D01*
X251232641Y-103754859D01*
X251138584Y-103677669D01*
X251062500Y-103637001D01*
X251062500Y-102529961D01*
X253649761Y-99942701D01*
X253844957Y-100001913D01*
X254028595Y-100020000D01*
X254151405Y-100020000D01*
X254335043Y-100001913D01*
X254570669Y-99930437D01*
X254787823Y-99814366D01*
X254978160Y-99658160D01*
X255134366Y-99467823D01*
X255250437Y-99250669D01*
X255321913Y-99015043D01*
X255327688Y-98956401D01*
X255485075Y-98956401D01*
X255543439Y-99176183D01*
X255643559Y-99380356D01*
X255781588Y-99561073D01*
X255952221Y-99711390D01*
X256148900Y-99825530D01*
X256364068Y-99899106D01*
X256443599Y-99914925D01*
X256625000Y-99852488D01*
X256625000Y-98775000D01*
X256635000Y-98775000D01*
X256635000Y-99852488D01*
X256816401Y-99914925D01*
X256895932Y-99899106D01*
X257111100Y-99825530D01*
X257307779Y-99711390D01*
X257478412Y-99561073D01*
X257616441Y-99380356D01*
X257716561Y-99176183D01*
X257774925Y-98956401D01*
X257712489Y-98775000D01*
X256635000Y-98775000D01*
X256625000Y-98775000D01*
X255547511Y-98775000D01*
X255485075Y-98956401D01*
X255327688Y-98956401D01*
X255346048Y-98770000D01*
X255327689Y-98583599D01*
X255485075Y-98583599D01*
X255547511Y-98765000D01*
X256625000Y-98765000D01*
X256625000Y-97687512D01*
X256635000Y-97687512D01*
X256635000Y-98765000D01*
X257712489Y-98765000D01*
X257774925Y-98583599D01*
X257716561Y-98363817D01*
X257616441Y-98159644D01*
X257478412Y-97978927D01*
X257307779Y-97828610D01*
X257111100Y-97714470D01*
X256895932Y-97640894D01*
X256816401Y-97625075D01*
X256635000Y-97687512D01*
X256625000Y-97687512D01*
X256443599Y-97625075D01*
X256364068Y-97640894D01*
X256148900Y-97714470D01*
X255952221Y-97828610D01*
X255781588Y-97978927D01*
X255643559Y-98159644D01*
X255543439Y-98363817D01*
X255485075Y-98583599D01*
X255327689Y-98583599D01*
X255321913Y-98524957D01*
X255250437Y-98289331D01*
X255134366Y-98072177D01*
X254978160Y-97881840D01*
X254787823Y-97725634D01*
X254570669Y-97609563D01*
X254335043Y-97538087D01*
X254151405Y-97520000D01*
X254028595Y-97520000D01*
X253844957Y-97538087D01*
X253609331Y-97609563D01*
X253392177Y-97725634D01*
X253201840Y-97881840D01*
X253045634Y-98072177D01*
X252929563Y-98289331D01*
X252858087Y-98524957D01*
X252833952Y-98770000D01*
X252858087Y-99015043D01*
X252912644Y-99194894D01*
X250184505Y-101923034D01*
X250164474Y-101939473D01*
X250148035Y-101959504D01*
X250098867Y-102019415D01*
X250050117Y-102110620D01*
X250020097Y-102209583D01*
X250009961Y-102312500D01*
X250012501Y-102338290D01*
X250012500Y-103637001D01*
X249936416Y-103677669D01*
X249842359Y-103754859D01*
X249765169Y-103848916D01*
X249707812Y-103956224D01*
X249672491Y-104072660D01*
X249660565Y-104193750D01*
X249660565Y-104631250D01*
X249672491Y-104752340D01*
X249707812Y-104868776D01*
X249765169Y-104976084D01*
X249842359Y-105070141D01*
X249936416Y-105147331D01*
X250034953Y-105200000D01*
X249936416Y-105252669D01*
X249842359Y-105329859D01*
X249765169Y-105423916D01*
X249707812Y-105531224D01*
X249672491Y-105647660D01*
X249660565Y-105768750D01*
X249660565Y-106206250D01*
X249672491Y-106327340D01*
X249707812Y-106443776D01*
X249765169Y-106551084D01*
X249830592Y-106630802D01*
X249735027Y-106681883D01*
X249637182Y-106762182D01*
X249556883Y-106860027D01*
X249497215Y-106971657D01*
X249460472Y-107092783D01*
X249448065Y-107218750D01*
X248000704Y-107218750D01*
X247989528Y-107105283D01*
X247952785Y-106984157D01*
X247893117Y-106872527D01*
X247812818Y-106774682D01*
X247714973Y-106694383D01*
X247603343Y-106634715D01*
X247562147Y-106622218D01*
X247595141Y-106595141D01*
X247672331Y-106501084D01*
X247729688Y-106393776D01*
X247765009Y-106277340D01*
X247776935Y-106156250D01*
X247776935Y-105718750D01*
X247765009Y-105597660D01*
X247729688Y-105481224D01*
X247672331Y-105373916D01*
X247595141Y-105279859D01*
X247501084Y-105202669D01*
X247402547Y-105150000D01*
X247501084Y-105097331D01*
X247595141Y-105020141D01*
X247672331Y-104926084D01*
X247729688Y-104818776D01*
X247765009Y-104702340D01*
X247776935Y-104581250D01*
X247776935Y-104143750D01*
X247765009Y-104022660D01*
X247729688Y-103906224D01*
X247672331Y-103798916D01*
X247595141Y-103704859D01*
X247501084Y-103627669D01*
X247444850Y-103597611D01*
X248223199Y-102819263D01*
X248243086Y-102808633D01*
X248323027Y-102743027D01*
X248339471Y-102722990D01*
X251117434Y-99945029D01*
X251304957Y-100001913D01*
X251488595Y-100020000D01*
X251611405Y-100020000D01*
X251795043Y-100001913D01*
X252030669Y-99930437D01*
X252247823Y-99814366D01*
X252438160Y-99658160D01*
X252594366Y-99467823D01*
X252710437Y-99250669D01*
X252781913Y-99015043D01*
X252806048Y-98770000D01*
X252781913Y-98524957D01*
X252710437Y-98289331D01*
X252594366Y-98072177D01*
X252438160Y-97881840D01*
X252247823Y-97725634D01*
X252030669Y-97609563D01*
X251795043Y-97538087D01*
X251611405Y-97520000D01*
X251488595Y-97520000D01*
X251304957Y-97538087D01*
X251069331Y-97609563D01*
X250852177Y-97725634D01*
X250661840Y-97881840D01*
X250505634Y-98072177D01*
X250389563Y-98289331D01*
X250318087Y-98524957D01*
X250293952Y-98770000D01*
X250318087Y-99015043D01*
X250374971Y-99202566D01*
X247656803Y-101920736D01*
X247636914Y-101931367D01*
X247556973Y-101996973D01*
X247540534Y-102017004D01*
X246547010Y-103010529D01*
X246526973Y-103026973D01*
X246461367Y-103106914D01*
X246412617Y-103198120D01*
X246382597Y-103297083D01*
X246375000Y-103374213D01*
X246375000Y-103374220D01*
X246372461Y-103400000D01*
X246375000Y-103425781D01*
X246375000Y-103587001D01*
X246298916Y-103627669D01*
X246204859Y-103704859D01*
X246175000Y-103741243D01*
X246175000Y-102825780D01*
X246177539Y-102800000D01*
X246175000Y-102774220D01*
X246175000Y-102774212D01*
X246167403Y-102697082D01*
X246137383Y-102598119D01*
X246088633Y-102506914D01*
X246064061Y-102476973D01*
X246039466Y-102447003D01*
X246039462Y-102446999D01*
X246023027Y-102426973D01*
X246003001Y-102410538D01*
X244817461Y-101225000D01*
X247054220Y-101225000D01*
X247080000Y-101227539D01*
X247105780Y-101225000D01*
X247105788Y-101225000D01*
X247182918Y-101217403D01*
X247281881Y-101187383D01*
X247373086Y-101138633D01*
X247453027Y-101073027D01*
X247469471Y-101052990D01*
X248577433Y-99945029D01*
X248764957Y-100001913D01*
X248948595Y-100020000D01*
X249071405Y-100020000D01*
X249255043Y-100001913D01*
X249490669Y-99930437D01*
X249707823Y-99814366D01*
X249898160Y-99658160D01*
X250054366Y-99467823D01*
X250170437Y-99250669D01*
X250241913Y-99015043D01*
X250266048Y-98770000D01*
X250241913Y-98524957D01*
X250170437Y-98289331D01*
X250054366Y-98072177D01*
X249898160Y-97881840D01*
X249707823Y-97725634D01*
X249490669Y-97609563D01*
X249255043Y-97538087D01*
X249071405Y-97520000D01*
X248948595Y-97520000D01*
X248764957Y-97538087D01*
X248529331Y-97609563D01*
X248312177Y-97725634D01*
X248121840Y-97881840D01*
X247965634Y-98072177D01*
X247849563Y-98289331D01*
X247778087Y-98524957D01*
X247753952Y-98770000D01*
X247778087Y-99015043D01*
X247834971Y-99202567D01*
X246862539Y-100175000D01*
X233875788Y-100175000D01*
X233850000Y-100172460D01*
X233824212Y-100175000D01*
X233747082Y-100182597D01*
X233648119Y-100212617D01*
X233556914Y-100261367D01*
X233537898Y-100276973D01*
X233497003Y-100310534D01*
X233496999Y-100310538D01*
X233476973Y-100326973D01*
X233460538Y-100346999D01*
X232085032Y-101722507D01*
X232086500Y-101375000D01*
X232080515Y-101314229D01*
X232062788Y-101255794D01*
X232034003Y-101201940D01*
X231995264Y-101154736D01*
X231948060Y-101115997D01*
X231894206Y-101087212D01*
X231835771Y-101069485D01*
X231775000Y-101063500D01*
X231382500Y-101065000D01*
X231305000Y-101142500D01*
X231305000Y-101807500D01*
X231325000Y-101807500D01*
X231325000Y-101817500D01*
X231305000Y-101817500D01*
X231305000Y-101837500D01*
X231295000Y-101837500D01*
X231295000Y-101817500D01*
X230592500Y-101817500D01*
X230515000Y-101895000D01*
X230513500Y-102250000D01*
X230519485Y-102310771D01*
X230537212Y-102369206D01*
X230565997Y-102423060D01*
X230604736Y-102470264D01*
X230651940Y-102509003D01*
X230705794Y-102537788D01*
X230764229Y-102555515D01*
X230825000Y-102561500D01*
X230858985Y-102561370D01*
X230847543Y-102582778D01*
X230806224Y-102595312D01*
X230698916Y-102652669D01*
X230604859Y-102729859D01*
X230527669Y-102823916D01*
X230500000Y-102875681D01*
X230472331Y-102823916D01*
X230395141Y-102729859D01*
X230301084Y-102652669D01*
X230193776Y-102595312D01*
X230184355Y-102592454D01*
X230167795Y-102561472D01*
X230175000Y-102561500D01*
X230235771Y-102555515D01*
X230294206Y-102537788D01*
X230348060Y-102509003D01*
X230395264Y-102470264D01*
X230434003Y-102423060D01*
X230462788Y-102369206D01*
X230480515Y-102310771D01*
X230486500Y-102250000D01*
X230485000Y-101895000D01*
X230407500Y-101817500D01*
X229705000Y-101817500D01*
X229705000Y-101837500D01*
X229695000Y-101837500D01*
X229695000Y-101817500D01*
X229675000Y-101817500D01*
X229675000Y-101807500D01*
X229695000Y-101807500D01*
X229695000Y-101142500D01*
X229705000Y-101142500D01*
X229705000Y-101807500D01*
X230407500Y-101807500D01*
X230485000Y-101730000D01*
X230486500Y-101375000D01*
X230513500Y-101375000D01*
X230515000Y-101730000D01*
X230592500Y-101807500D01*
X231295000Y-101807500D01*
X231295000Y-101142500D01*
X231217500Y-101065000D01*
X230825000Y-101063500D01*
X230764229Y-101069485D01*
X230705794Y-101087212D01*
X230651940Y-101115997D01*
X230604736Y-101154736D01*
X230565997Y-101201940D01*
X230537212Y-101255794D01*
X230519485Y-101314229D01*
X230513500Y-101375000D01*
X230486500Y-101375000D01*
X230480515Y-101314229D01*
X230462788Y-101255794D01*
X230434003Y-101201940D01*
X230395264Y-101154736D01*
X230348060Y-101115997D01*
X230294206Y-101087212D01*
X230235771Y-101069485D01*
X230175000Y-101063500D01*
X229782500Y-101065000D01*
X229705000Y-101142500D01*
X229695000Y-101142500D01*
X229617500Y-101065000D01*
X229225000Y-101063500D01*
X229164229Y-101069485D01*
X229105794Y-101087212D01*
X229051940Y-101115997D01*
X229004736Y-101154736D01*
X228965997Y-101201940D01*
X228937212Y-101255794D01*
X228919485Y-101314229D01*
X228913500Y-101375000D01*
X228914756Y-101672294D01*
X227539471Y-100297010D01*
X227523027Y-100276973D01*
X227443086Y-100211367D01*
X227351881Y-100162617D01*
X227252918Y-100132597D01*
X227175788Y-100125000D01*
X227175780Y-100125000D01*
X227150000Y-100122461D01*
X227124220Y-100125000D01*
X223767462Y-100125000D01*
X223662462Y-100020000D01*
X223671405Y-100020000D01*
X223855043Y-100001913D01*
X224090669Y-99930437D01*
X224307823Y-99814366D01*
X224498160Y-99658160D01*
X224654366Y-99467823D01*
X224770437Y-99250669D01*
X224841913Y-99015043D01*
X224866048Y-98770000D01*
X224893952Y-98770000D01*
X224918087Y-99015043D01*
X224989563Y-99250669D01*
X225105634Y-99467823D01*
X225261840Y-99658160D01*
X225452177Y-99814366D01*
X225669331Y-99930437D01*
X225904957Y-100001913D01*
X226088595Y-100020000D01*
X226211405Y-100020000D01*
X226395043Y-100001913D01*
X226630669Y-99930437D01*
X226847823Y-99814366D01*
X227038160Y-99658160D01*
X227194366Y-99467823D01*
X227310437Y-99250669D01*
X227381913Y-99015043D01*
X227406048Y-98770000D01*
X227433952Y-98770000D01*
X227458087Y-99015043D01*
X227529563Y-99250669D01*
X227645634Y-99467823D01*
X227801840Y-99658160D01*
X227992177Y-99814366D01*
X228209331Y-99930437D01*
X228444957Y-100001913D01*
X228628595Y-100020000D01*
X228751405Y-100020000D01*
X228935043Y-100001913D01*
X229170669Y-99930437D01*
X229387823Y-99814366D01*
X229578160Y-99658160D01*
X229734366Y-99467823D01*
X229850437Y-99250669D01*
X229921913Y-99015043D01*
X229946048Y-98770000D01*
X229973952Y-98770000D01*
X229998087Y-99015043D01*
X230069563Y-99250669D01*
X230185634Y-99467823D01*
X230341840Y-99658160D01*
X230532177Y-99814366D01*
X230749331Y-99930437D01*
X230984957Y-100001913D01*
X231168595Y-100020000D01*
X231291405Y-100020000D01*
X231475043Y-100001913D01*
X231710669Y-99930437D01*
X231927823Y-99814366D01*
X232118160Y-99658160D01*
X232274366Y-99467823D01*
X232390437Y-99250669D01*
X232461913Y-99015043D01*
X232486048Y-98770000D01*
X232513952Y-98770000D01*
X232538087Y-99015043D01*
X232609563Y-99250669D01*
X232725634Y-99467823D01*
X232881840Y-99658160D01*
X233072177Y-99814366D01*
X233289331Y-99930437D01*
X233524957Y-100001913D01*
X233708595Y-100020000D01*
X233831405Y-100020000D01*
X234015043Y-100001913D01*
X234250669Y-99930437D01*
X234467823Y-99814366D01*
X234658160Y-99658160D01*
X234814366Y-99467823D01*
X234930437Y-99250669D01*
X235001913Y-99015043D01*
X235026048Y-98770000D01*
X235053952Y-98770000D01*
X235078087Y-99015043D01*
X235149563Y-99250669D01*
X235265634Y-99467823D01*
X235421840Y-99658160D01*
X235612177Y-99814366D01*
X235829331Y-99930437D01*
X236064957Y-100001913D01*
X236248595Y-100020000D01*
X236371405Y-100020000D01*
X236555043Y-100001913D01*
X236790669Y-99930437D01*
X237007823Y-99814366D01*
X237198160Y-99658160D01*
X237354366Y-99467823D01*
X237470437Y-99250669D01*
X237541913Y-99015043D01*
X237547688Y-98956401D01*
X237705075Y-98956401D01*
X237763439Y-99176183D01*
X237863559Y-99380356D01*
X238001588Y-99561073D01*
X238172221Y-99711390D01*
X238368900Y-99825530D01*
X238584068Y-99899106D01*
X238663599Y-99914925D01*
X238845000Y-99852488D01*
X238845000Y-98775000D01*
X238855000Y-98775000D01*
X238855000Y-99852488D01*
X239036401Y-99914925D01*
X239115932Y-99899106D01*
X239331100Y-99825530D01*
X239527779Y-99711390D01*
X239698412Y-99561073D01*
X239836441Y-99380356D01*
X239936561Y-99176183D01*
X239994925Y-98956401D01*
X239932489Y-98775000D01*
X238855000Y-98775000D01*
X238845000Y-98775000D01*
X237767511Y-98775000D01*
X237705075Y-98956401D01*
X237547688Y-98956401D01*
X237566048Y-98770000D01*
X240133952Y-98770000D01*
X240158087Y-99015043D01*
X240229563Y-99250669D01*
X240345634Y-99467823D01*
X240501840Y-99658160D01*
X240692177Y-99814366D01*
X240909331Y-99930437D01*
X241144957Y-100001913D01*
X241328595Y-100020000D01*
X241451405Y-100020000D01*
X241635043Y-100001913D01*
X241870669Y-99930437D01*
X242087823Y-99814366D01*
X242278160Y-99658160D01*
X242434366Y-99467823D01*
X242550437Y-99250669D01*
X242621913Y-99015043D01*
X242646048Y-98770000D01*
X242673952Y-98770000D01*
X242698087Y-99015043D01*
X242769563Y-99250669D01*
X242885634Y-99467823D01*
X243041840Y-99658160D01*
X243232177Y-99814366D01*
X243449331Y-99930437D01*
X243684957Y-100001913D01*
X243868595Y-100020000D01*
X243991405Y-100020000D01*
X244175043Y-100001913D01*
X244410669Y-99930437D01*
X244627823Y-99814366D01*
X244818160Y-99658160D01*
X244974366Y-99467823D01*
X245090437Y-99250669D01*
X245161913Y-99015043D01*
X245186048Y-98770000D01*
X245213952Y-98770000D01*
X245238087Y-99015043D01*
X245309563Y-99250669D01*
X245425634Y-99467823D01*
X245581840Y-99658160D01*
X245772177Y-99814366D01*
X245989331Y-99930437D01*
X246224957Y-100001913D01*
X246408595Y-100020000D01*
X246531405Y-100020000D01*
X246715043Y-100001913D01*
X246950669Y-99930437D01*
X247167823Y-99814366D01*
X247358160Y-99658160D01*
X247514366Y-99467823D01*
X247630437Y-99250669D01*
X247701913Y-99015043D01*
X247726048Y-98770000D01*
X247701913Y-98524957D01*
X247630437Y-98289331D01*
X247514366Y-98072177D01*
X247358160Y-97881840D01*
X247167823Y-97725634D01*
X246950669Y-97609563D01*
X246715043Y-97538087D01*
X246531405Y-97520000D01*
X246408595Y-97520000D01*
X246224957Y-97538087D01*
X245989331Y-97609563D01*
X245772177Y-97725634D01*
X245581840Y-97881840D01*
X245425634Y-98072177D01*
X245309563Y-98289331D01*
X245238087Y-98524957D01*
X245213952Y-98770000D01*
X245186048Y-98770000D01*
X245161913Y-98524957D01*
X245090437Y-98289331D01*
X244974366Y-98072177D01*
X244818160Y-97881840D01*
X244627823Y-97725634D01*
X244410669Y-97609563D01*
X244175043Y-97538087D01*
X243991405Y-97520000D01*
X243868595Y-97520000D01*
X243684957Y-97538087D01*
X243449331Y-97609563D01*
X243232177Y-97725634D01*
X243041840Y-97881840D01*
X242885634Y-98072177D01*
X242769563Y-98289331D01*
X242698087Y-98524957D01*
X242673952Y-98770000D01*
X242646048Y-98770000D01*
X242621913Y-98524957D01*
X242550437Y-98289331D01*
X242434366Y-98072177D01*
X242278160Y-97881840D01*
X242087823Y-97725634D01*
X241870669Y-97609563D01*
X241635043Y-97538087D01*
X241451405Y-97520000D01*
X241328595Y-97520000D01*
X241144957Y-97538087D01*
X240909331Y-97609563D01*
X240692177Y-97725634D01*
X240501840Y-97881840D01*
X240345634Y-98072177D01*
X240229563Y-98289331D01*
X240158087Y-98524957D01*
X240133952Y-98770000D01*
X237566048Y-98770000D01*
X237547689Y-98583599D01*
X237705075Y-98583599D01*
X237767511Y-98765000D01*
X238845000Y-98765000D01*
X238845000Y-97687512D01*
X238855000Y-97687512D01*
X238855000Y-98765000D01*
X239932489Y-98765000D01*
X239994925Y-98583599D01*
X239936561Y-98363817D01*
X239836441Y-98159644D01*
X239698412Y-97978927D01*
X239527779Y-97828610D01*
X239331100Y-97714470D01*
X239115932Y-97640894D01*
X239036401Y-97625075D01*
X238855000Y-97687512D01*
X238845000Y-97687512D01*
X238663599Y-97625075D01*
X238584068Y-97640894D01*
X238368900Y-97714470D01*
X238172221Y-97828610D01*
X238001588Y-97978927D01*
X237863559Y-98159644D01*
X237763439Y-98363817D01*
X237705075Y-98583599D01*
X237547689Y-98583599D01*
X237541913Y-98524957D01*
X237470437Y-98289331D01*
X237354366Y-98072177D01*
X237198160Y-97881840D01*
X237007823Y-97725634D01*
X236790669Y-97609563D01*
X236555043Y-97538087D01*
X236371405Y-97520000D01*
X236248595Y-97520000D01*
X236064957Y-97538087D01*
X235829331Y-97609563D01*
X235612177Y-97725634D01*
X235421840Y-97881840D01*
X235265634Y-98072177D01*
X235149563Y-98289331D01*
X235078087Y-98524957D01*
X235053952Y-98770000D01*
X235026048Y-98770000D01*
X235001913Y-98524957D01*
X234930437Y-98289331D01*
X234814366Y-98072177D01*
X234658160Y-97881840D01*
X234467823Y-97725634D01*
X234250669Y-97609563D01*
X234015043Y-97538087D01*
X233831405Y-97520000D01*
X233708595Y-97520000D01*
X233524957Y-97538087D01*
X233289331Y-97609563D01*
X233072177Y-97725634D01*
X232881840Y-97881840D01*
X232725634Y-98072177D01*
X232609563Y-98289331D01*
X232538087Y-98524957D01*
X232513952Y-98770000D01*
X232486048Y-98770000D01*
X232461913Y-98524957D01*
X232390437Y-98289331D01*
X232274366Y-98072177D01*
X232118160Y-97881840D01*
X231927823Y-97725634D01*
X231710669Y-97609563D01*
X231475043Y-97538087D01*
X231291405Y-97520000D01*
X231168595Y-97520000D01*
X230984957Y-97538087D01*
X230749331Y-97609563D01*
X230532177Y-97725634D01*
X230341840Y-97881840D01*
X230185634Y-98072177D01*
X230069563Y-98289331D01*
X229998087Y-98524957D01*
X229973952Y-98770000D01*
X229946048Y-98770000D01*
X229921913Y-98524957D01*
X229850437Y-98289331D01*
X229734366Y-98072177D01*
X229578160Y-97881840D01*
X229387823Y-97725634D01*
X229170669Y-97609563D01*
X228935043Y-97538087D01*
X228751405Y-97520000D01*
X228628595Y-97520000D01*
X228444957Y-97538087D01*
X228209331Y-97609563D01*
X227992177Y-97725634D01*
X227801840Y-97881840D01*
X227645634Y-98072177D01*
X227529563Y-98289331D01*
X227458087Y-98524957D01*
X227433952Y-98770000D01*
X227406048Y-98770000D01*
X227381913Y-98524957D01*
X227310437Y-98289331D01*
X227194366Y-98072177D01*
X227038160Y-97881840D01*
X226847823Y-97725634D01*
X226630669Y-97609563D01*
X226395043Y-97538087D01*
X226211405Y-97520000D01*
X226088595Y-97520000D01*
X225904957Y-97538087D01*
X225669331Y-97609563D01*
X225452177Y-97725634D01*
X225261840Y-97881840D01*
X225105634Y-98072177D01*
X224989563Y-98289331D01*
X224918087Y-98524957D01*
X224893952Y-98770000D01*
X224866048Y-98770000D01*
X224841913Y-98524957D01*
X224770437Y-98289331D01*
X224654366Y-98072177D01*
X224498160Y-97881840D01*
X224307823Y-97725634D01*
X224090669Y-97609563D01*
X223855043Y-97538087D01*
X223671405Y-97520000D01*
X223548595Y-97520000D01*
X223364957Y-97538087D01*
X223129331Y-97609563D01*
X222912177Y-97725634D01*
X222875000Y-97756144D01*
X222875000Y-97535779D01*
X222877539Y-97509999D01*
X222875000Y-97484219D01*
X222875000Y-97484212D01*
X222867403Y-97407082D01*
X222837383Y-97308119D01*
X222788633Y-97216914D01*
X222723027Y-97136973D01*
X222702996Y-97120534D01*
X222245029Y-96662567D01*
X222301913Y-96475043D01*
X222307688Y-96416401D01*
X222465075Y-96416401D01*
X222523439Y-96636183D01*
X222623559Y-96840356D01*
X222761588Y-97021073D01*
X222932221Y-97171390D01*
X223128900Y-97285530D01*
X223344068Y-97359106D01*
X223423599Y-97374925D01*
X223605000Y-97312488D01*
X223605000Y-96235000D01*
X223615000Y-96235000D01*
X223615000Y-97312488D01*
X223796401Y-97374925D01*
X223875932Y-97359106D01*
X224091100Y-97285530D01*
X224287779Y-97171390D01*
X224458412Y-97021073D01*
X224596441Y-96840356D01*
X224696561Y-96636183D01*
X224754925Y-96416401D01*
X224692489Y-96235000D01*
X223615000Y-96235000D01*
X223605000Y-96235000D01*
X222527511Y-96235000D01*
X222465075Y-96416401D01*
X222307688Y-96416401D01*
X222326048Y-96230000D01*
X224893952Y-96230000D01*
X224918087Y-96475043D01*
X224989563Y-96710669D01*
X225105634Y-96927823D01*
X225261840Y-97118160D01*
X225452177Y-97274366D01*
X225669331Y-97390437D01*
X225904957Y-97461913D01*
X226088595Y-97480000D01*
X226211405Y-97480000D01*
X226395043Y-97461913D01*
X226630669Y-97390437D01*
X226847823Y-97274366D01*
X227038160Y-97118160D01*
X227194366Y-96927823D01*
X227310437Y-96710669D01*
X227381913Y-96475043D01*
X227406048Y-96230000D01*
X227433952Y-96230000D01*
X227458087Y-96475043D01*
X227529563Y-96710669D01*
X227645634Y-96927823D01*
X227801840Y-97118160D01*
X227992177Y-97274366D01*
X228209331Y-97390437D01*
X228444957Y-97461913D01*
X228628595Y-97480000D01*
X228751405Y-97480000D01*
X228935043Y-97461913D01*
X229170669Y-97390437D01*
X229387823Y-97274366D01*
X229578160Y-97118160D01*
X229734366Y-96927823D01*
X229850437Y-96710669D01*
X229921913Y-96475043D01*
X229927688Y-96416401D01*
X230085075Y-96416401D01*
X230143439Y-96636183D01*
X230243559Y-96840356D01*
X230381588Y-97021073D01*
X230552221Y-97171390D01*
X230748900Y-97285530D01*
X230964068Y-97359106D01*
X231043599Y-97374925D01*
X231225000Y-97312488D01*
X231225000Y-96235000D01*
X231235000Y-96235000D01*
X231235000Y-97312488D01*
X231416401Y-97374925D01*
X231495932Y-97359106D01*
X231711100Y-97285530D01*
X231907779Y-97171390D01*
X232078412Y-97021073D01*
X232216441Y-96840356D01*
X232316561Y-96636183D01*
X232374925Y-96416401D01*
X232312489Y-96235000D01*
X231235000Y-96235000D01*
X231225000Y-96235000D01*
X230147511Y-96235000D01*
X230085075Y-96416401D01*
X229927688Y-96416401D01*
X229946048Y-96230000D01*
X232513952Y-96230000D01*
X232538087Y-96475043D01*
X232609563Y-96710669D01*
X232725634Y-96927823D01*
X232881840Y-97118160D01*
X233072177Y-97274366D01*
X233289331Y-97390437D01*
X233524957Y-97461913D01*
X233708595Y-97480000D01*
X233831405Y-97480000D01*
X234015043Y-97461913D01*
X234250669Y-97390437D01*
X234467823Y-97274366D01*
X234658160Y-97118160D01*
X234814366Y-96927823D01*
X234930437Y-96710669D01*
X235001913Y-96475043D01*
X235026048Y-96230000D01*
X235053952Y-96230000D01*
X235078087Y-96475043D01*
X235149563Y-96710669D01*
X235265634Y-96927823D01*
X235421840Y-97118160D01*
X235612177Y-97274366D01*
X235829331Y-97390437D01*
X236064957Y-97461913D01*
X236248595Y-97480000D01*
X236371405Y-97480000D01*
X236555043Y-97461913D01*
X236790669Y-97390437D01*
X237007823Y-97274366D01*
X237198160Y-97118160D01*
X237354366Y-96927823D01*
X237470437Y-96710669D01*
X237541913Y-96475043D01*
X237566048Y-96230000D01*
X237593952Y-96230000D01*
X237618087Y-96475043D01*
X237689563Y-96710669D01*
X237805634Y-96927823D01*
X237961840Y-97118160D01*
X238152177Y-97274366D01*
X238369331Y-97390437D01*
X238604957Y-97461913D01*
X238788595Y-97480000D01*
X238911405Y-97480000D01*
X239095043Y-97461913D01*
X239330669Y-97390437D01*
X239547823Y-97274366D01*
X239738160Y-97118160D01*
X239894366Y-96927823D01*
X240010437Y-96710669D01*
X240081913Y-96475043D01*
X240106048Y-96230000D01*
X240133952Y-96230000D01*
X240158087Y-96475043D01*
X240229563Y-96710669D01*
X240345634Y-96927823D01*
X240501840Y-97118160D01*
X240692177Y-97274366D01*
X240909331Y-97390437D01*
X241144957Y-97461913D01*
X241328595Y-97480000D01*
X241451405Y-97480000D01*
X241635043Y-97461913D01*
X241870669Y-97390437D01*
X242087823Y-97274366D01*
X242278160Y-97118160D01*
X242434366Y-96927823D01*
X242550437Y-96710669D01*
X242621913Y-96475043D01*
X242627688Y-96416401D01*
X242785075Y-96416401D01*
X242843439Y-96636183D01*
X242943559Y-96840356D01*
X243081588Y-97021073D01*
X243252221Y-97171390D01*
X243448900Y-97285530D01*
X243664068Y-97359106D01*
X243743599Y-97374925D01*
X243925000Y-97312488D01*
X243925000Y-96235000D01*
X243935000Y-96235000D01*
X243935000Y-97312488D01*
X244116401Y-97374925D01*
X244195932Y-97359106D01*
X244411100Y-97285530D01*
X244607779Y-97171390D01*
X244778412Y-97021073D01*
X244916441Y-96840356D01*
X245016561Y-96636183D01*
X245074925Y-96416401D01*
X245012489Y-96235000D01*
X243935000Y-96235000D01*
X243925000Y-96235000D01*
X242847511Y-96235000D01*
X242785075Y-96416401D01*
X242627688Y-96416401D01*
X242646048Y-96230000D01*
X245213952Y-96230000D01*
X245238087Y-96475043D01*
X245309563Y-96710669D01*
X245425634Y-96927823D01*
X245581840Y-97118160D01*
X245772177Y-97274366D01*
X245989331Y-97390437D01*
X246224957Y-97461913D01*
X246408595Y-97480000D01*
X246531405Y-97480000D01*
X246715043Y-97461913D01*
X246950669Y-97390437D01*
X247167823Y-97274366D01*
X247358160Y-97118160D01*
X247514366Y-96927823D01*
X247630437Y-96710669D01*
X247701913Y-96475043D01*
X247707688Y-96416401D01*
X247865075Y-96416401D01*
X247923439Y-96636183D01*
X248023559Y-96840356D01*
X248161588Y-97021073D01*
X248332221Y-97171390D01*
X248528900Y-97285530D01*
X248744068Y-97359106D01*
X248823599Y-97374925D01*
X249005000Y-97312488D01*
X249005000Y-96235000D01*
X249015000Y-96235000D01*
X249015000Y-97312488D01*
X249196401Y-97374925D01*
X249275932Y-97359106D01*
X249491100Y-97285530D01*
X249687779Y-97171390D01*
X249858412Y-97021073D01*
X249996441Y-96840356D01*
X250096561Y-96636183D01*
X250154925Y-96416401D01*
X250092489Y-96235000D01*
X249015000Y-96235000D01*
X249005000Y-96235000D01*
X247927511Y-96235000D01*
X247865075Y-96416401D01*
X247707688Y-96416401D01*
X247726048Y-96230000D01*
X250293952Y-96230000D01*
X250318087Y-96475043D01*
X250389563Y-96710669D01*
X250505634Y-96927823D01*
X250661840Y-97118160D01*
X250852177Y-97274366D01*
X251069331Y-97390437D01*
X251304957Y-97461913D01*
X251488595Y-97480000D01*
X251611405Y-97480000D01*
X251795043Y-97461913D01*
X252030669Y-97390437D01*
X252247823Y-97274366D01*
X252438160Y-97118160D01*
X252594366Y-96927823D01*
X252710437Y-96710669D01*
X252781913Y-96475043D01*
X252806048Y-96230000D01*
X252833952Y-96230000D01*
X252858087Y-96475043D01*
X252929563Y-96710669D01*
X253045634Y-96927823D01*
X253201840Y-97118160D01*
X253392177Y-97274366D01*
X253609331Y-97390437D01*
X253844957Y-97461913D01*
X254028595Y-97480000D01*
X254151405Y-97480000D01*
X254335043Y-97461913D01*
X254570669Y-97390437D01*
X254787823Y-97274366D01*
X254978160Y-97118160D01*
X255134366Y-96927823D01*
X255250437Y-96710669D01*
X255321913Y-96475043D01*
X255346048Y-96230000D01*
X255373952Y-96230000D01*
X255398087Y-96475043D01*
X255469563Y-96710669D01*
X255585634Y-96927823D01*
X255741840Y-97118160D01*
X255932177Y-97274366D01*
X256149331Y-97390437D01*
X256384957Y-97461913D01*
X256568595Y-97480000D01*
X256691405Y-97480000D01*
X256875043Y-97461913D01*
X257110669Y-97390437D01*
X257228154Y-97327640D01*
X259750000Y-97327640D01*
X259750000Y-97672360D01*
X259817251Y-98010456D01*
X259949170Y-98328936D01*
X260140686Y-98615560D01*
X260384440Y-98859314D01*
X260671064Y-99050830D01*
X260989544Y-99182749D01*
X261327640Y-99250000D01*
X261672360Y-99250000D01*
X262010456Y-99182749D01*
X262328936Y-99050830D01*
X262615560Y-98859314D01*
X262859314Y-98615560D01*
X263050830Y-98328936D01*
X263182749Y-98010456D01*
X263250000Y-97672360D01*
X263250000Y-97327640D01*
X263182749Y-96989544D01*
X263050830Y-96671064D01*
X262859314Y-96384440D01*
X262615560Y-96140686D01*
X262328936Y-95949170D01*
X262010456Y-95817251D01*
X261672360Y-95750000D01*
X261327640Y-95750000D01*
X260989544Y-95817251D01*
X260671064Y-95949170D01*
X260384440Y-96140686D01*
X260140686Y-96384440D01*
X259949170Y-96671064D01*
X259817251Y-96989544D01*
X259750000Y-97327640D01*
X257228154Y-97327640D01*
X257327823Y-97274366D01*
X257518160Y-97118160D01*
X257674366Y-96927823D01*
X257790437Y-96710669D01*
X257861913Y-96475043D01*
X257886048Y-96230000D01*
X257861913Y-95984957D01*
X257790437Y-95749331D01*
X257674366Y-95532177D01*
X257518160Y-95341840D01*
X257327823Y-95185634D01*
X257110669Y-95069563D01*
X256875043Y-94998087D01*
X256691405Y-94980000D01*
X256568595Y-94980000D01*
X256384957Y-94998087D01*
X256149331Y-95069563D01*
X255932177Y-95185634D01*
X255741840Y-95341840D01*
X255585634Y-95532177D01*
X255469563Y-95749331D01*
X255398087Y-95984957D01*
X255373952Y-96230000D01*
X255346048Y-96230000D01*
X255321913Y-95984957D01*
X255250437Y-95749331D01*
X255134366Y-95532177D01*
X254978160Y-95341840D01*
X254787823Y-95185634D01*
X254570669Y-95069563D01*
X254335043Y-94998087D01*
X254151405Y-94980000D01*
X254028595Y-94980000D01*
X253844957Y-94998087D01*
X253609331Y-95069563D01*
X253392177Y-95185634D01*
X253201840Y-95341840D01*
X253045634Y-95532177D01*
X252929563Y-95749331D01*
X252858087Y-95984957D01*
X252833952Y-96230000D01*
X252806048Y-96230000D01*
X252781913Y-95984957D01*
X252710437Y-95749331D01*
X252594366Y-95532177D01*
X252438160Y-95341840D01*
X252247823Y-95185634D01*
X252030669Y-95069563D01*
X251795043Y-94998087D01*
X251611405Y-94980000D01*
X251488595Y-94980000D01*
X251304957Y-94998087D01*
X251069331Y-95069563D01*
X250852177Y-95185634D01*
X250661840Y-95341840D01*
X250505634Y-95532177D01*
X250389563Y-95749331D01*
X250318087Y-95984957D01*
X250293952Y-96230000D01*
X247726048Y-96230000D01*
X247707689Y-96043599D01*
X247865075Y-96043599D01*
X247927511Y-96225000D01*
X249005000Y-96225000D01*
X249005000Y-95147512D01*
X249015000Y-95147512D01*
X249015000Y-96225000D01*
X250092489Y-96225000D01*
X250154925Y-96043599D01*
X250096561Y-95823817D01*
X249996441Y-95619644D01*
X249858412Y-95438927D01*
X249687779Y-95288610D01*
X249491100Y-95174470D01*
X249275932Y-95100894D01*
X249196401Y-95085075D01*
X249015000Y-95147512D01*
X249005000Y-95147512D01*
X248823599Y-95085075D01*
X248744068Y-95100894D01*
X248528900Y-95174470D01*
X248332221Y-95288610D01*
X248161588Y-95438927D01*
X248023559Y-95619644D01*
X247923439Y-95823817D01*
X247865075Y-96043599D01*
X247707689Y-96043599D01*
X247701913Y-95984957D01*
X247630437Y-95749331D01*
X247514366Y-95532177D01*
X247358160Y-95341840D01*
X247167823Y-95185634D01*
X246950669Y-95069563D01*
X246715043Y-94998087D01*
X246531405Y-94980000D01*
X246408595Y-94980000D01*
X246224957Y-94998087D01*
X245989331Y-95069563D01*
X245772177Y-95185634D01*
X245581840Y-95341840D01*
X245425634Y-95532177D01*
X245309563Y-95749331D01*
X245238087Y-95984957D01*
X245213952Y-96230000D01*
X242646048Y-96230000D01*
X242627689Y-96043599D01*
X242785075Y-96043599D01*
X242847511Y-96225000D01*
X243925000Y-96225000D01*
X243925000Y-95147512D01*
X243935000Y-95147512D01*
X243935000Y-96225000D01*
X245012489Y-96225000D01*
X245074925Y-96043599D01*
X245016561Y-95823817D01*
X244916441Y-95619644D01*
X244778412Y-95438927D01*
X244607779Y-95288610D01*
X244411100Y-95174470D01*
X244195932Y-95100894D01*
X244116401Y-95085075D01*
X243935000Y-95147512D01*
X243925000Y-95147512D01*
X243743599Y-95085075D01*
X243664068Y-95100894D01*
X243448900Y-95174470D01*
X243252221Y-95288610D01*
X243081588Y-95438927D01*
X242943559Y-95619644D01*
X242843439Y-95823817D01*
X242785075Y-96043599D01*
X242627689Y-96043599D01*
X242621913Y-95984957D01*
X242550437Y-95749331D01*
X242434366Y-95532177D01*
X242278160Y-95341840D01*
X242087823Y-95185634D01*
X241870669Y-95069563D01*
X241635043Y-94998087D01*
X241451405Y-94980000D01*
X241328595Y-94980000D01*
X241144957Y-94998087D01*
X240909331Y-95069563D01*
X240692177Y-95185634D01*
X240501840Y-95341840D01*
X240345634Y-95532177D01*
X240229563Y-95749331D01*
X240158087Y-95984957D01*
X240133952Y-96230000D01*
X240106048Y-96230000D01*
X240081913Y-95984957D01*
X240010437Y-95749331D01*
X239894366Y-95532177D01*
X239738160Y-95341840D01*
X239547823Y-95185634D01*
X239330669Y-95069563D01*
X239095043Y-94998087D01*
X238911405Y-94980000D01*
X238788595Y-94980000D01*
X238604957Y-94998087D01*
X238369331Y-95069563D01*
X238152177Y-95185634D01*
X237961840Y-95341840D01*
X237805634Y-95532177D01*
X237689563Y-95749331D01*
X237618087Y-95984957D01*
X237593952Y-96230000D01*
X237566048Y-96230000D01*
X237541913Y-95984957D01*
X237470437Y-95749331D01*
X237354366Y-95532177D01*
X237198160Y-95341840D01*
X237007823Y-95185634D01*
X236790669Y-95069563D01*
X236555043Y-94998087D01*
X236371405Y-94980000D01*
X236248595Y-94980000D01*
X236064957Y-94998087D01*
X235829331Y-95069563D01*
X235612177Y-95185634D01*
X235421840Y-95341840D01*
X235265634Y-95532177D01*
X235149563Y-95749331D01*
X235078087Y-95984957D01*
X235053952Y-96230000D01*
X235026048Y-96230000D01*
X235001913Y-95984957D01*
X234930437Y-95749331D01*
X234814366Y-95532177D01*
X234658160Y-95341840D01*
X234467823Y-95185634D01*
X234250669Y-95069563D01*
X234015043Y-94998087D01*
X233831405Y-94980000D01*
X233708595Y-94980000D01*
X233524957Y-94998087D01*
X233289331Y-95069563D01*
X233072177Y-95185634D01*
X232881840Y-95341840D01*
X232725634Y-95532177D01*
X232609563Y-95749331D01*
X232538087Y-95984957D01*
X232513952Y-96230000D01*
X229946048Y-96230000D01*
X229927689Y-96043599D01*
X230085075Y-96043599D01*
X230147511Y-96225000D01*
X231225000Y-96225000D01*
X231225000Y-95147512D01*
X231235000Y-95147512D01*
X231235000Y-96225000D01*
X232312489Y-96225000D01*
X232374925Y-96043599D01*
X232316561Y-95823817D01*
X232216441Y-95619644D01*
X232078412Y-95438927D01*
X231907779Y-95288610D01*
X231711100Y-95174470D01*
X231495932Y-95100894D01*
X231416401Y-95085075D01*
X231235000Y-95147512D01*
X231225000Y-95147512D01*
X231043599Y-95085075D01*
X230964068Y-95100894D01*
X230748900Y-95174470D01*
X230552221Y-95288610D01*
X230381588Y-95438927D01*
X230243559Y-95619644D01*
X230143439Y-95823817D01*
X230085075Y-96043599D01*
X229927689Y-96043599D01*
X229921913Y-95984957D01*
X229850437Y-95749331D01*
X229734366Y-95532177D01*
X229578160Y-95341840D01*
X229387823Y-95185634D01*
X229170669Y-95069563D01*
X228935043Y-94998087D01*
X228751405Y-94980000D01*
X228628595Y-94980000D01*
X228444957Y-94998087D01*
X228209331Y-95069563D01*
X227992177Y-95185634D01*
X227801840Y-95341840D01*
X227645634Y-95532177D01*
X227529563Y-95749331D01*
X227458087Y-95984957D01*
X227433952Y-96230000D01*
X227406048Y-96230000D01*
X227381913Y-95984957D01*
X227310437Y-95749331D01*
X227194366Y-95532177D01*
X227038160Y-95341840D01*
X226847823Y-95185634D01*
X226630669Y-95069563D01*
X226395043Y-94998087D01*
X226211405Y-94980000D01*
X226088595Y-94980000D01*
X225904957Y-94998087D01*
X225669331Y-95069563D01*
X225452177Y-95185634D01*
X225261840Y-95341840D01*
X225105634Y-95532177D01*
X224989563Y-95749331D01*
X224918087Y-95984957D01*
X224893952Y-96230000D01*
X222326048Y-96230000D01*
X222307689Y-96043599D01*
X222465075Y-96043599D01*
X222527511Y-96225000D01*
X223605000Y-96225000D01*
X223605000Y-95147512D01*
X223615000Y-95147512D01*
X223615000Y-96225000D01*
X224692489Y-96225000D01*
X224754925Y-96043599D01*
X224696561Y-95823817D01*
X224596441Y-95619644D01*
X224458412Y-95438927D01*
X224287779Y-95288610D01*
X224091100Y-95174470D01*
X223875932Y-95100894D01*
X223796401Y-95085075D01*
X223615000Y-95147512D01*
X223605000Y-95147512D01*
X223423599Y-95085075D01*
X223344068Y-95100894D01*
X223128900Y-95174470D01*
X222932221Y-95288610D01*
X222761588Y-95438927D01*
X222623559Y-95619644D01*
X222523439Y-95823817D01*
X222465075Y-96043599D01*
X222307689Y-96043599D01*
X222301913Y-95984957D01*
X222230437Y-95749331D01*
X222114366Y-95532177D01*
X221958160Y-95341840D01*
X221767823Y-95185634D01*
X221550669Y-95069563D01*
X221315043Y-94998087D01*
X221131405Y-94980000D01*
X221008595Y-94980000D01*
X220824957Y-94998087D01*
X220589331Y-95069563D01*
X220372177Y-95185634D01*
X220181840Y-95341840D01*
X220025634Y-95532177D01*
X219909563Y-95749331D01*
X219838087Y-95984957D01*
X219813952Y-96230000D01*
X219786048Y-96230000D01*
X219761913Y-95984957D01*
X219690437Y-95749331D01*
X219574366Y-95532177D01*
X219418160Y-95341840D01*
X219227823Y-95185634D01*
X219010669Y-95069563D01*
X218775043Y-94998087D01*
X218591405Y-94980000D01*
X218468595Y-94980000D01*
X218284957Y-94998087D01*
X218049331Y-95069563D01*
X217832177Y-95185634D01*
X217641840Y-95341840D01*
X217485634Y-95532177D01*
X217369563Y-95749331D01*
X217298087Y-95984957D01*
X217273952Y-96230000D01*
X217246048Y-96230000D01*
X217221913Y-95984957D01*
X217150437Y-95749331D01*
X217034366Y-95532177D01*
X216878160Y-95341840D01*
X216687823Y-95185634D01*
X216470669Y-95069563D01*
X216235043Y-94998087D01*
X216051405Y-94980000D01*
X215928595Y-94980000D01*
X215744957Y-94998087D01*
X215509331Y-95069563D01*
X215292177Y-95185634D01*
X215101840Y-95341840D01*
X214945634Y-95532177D01*
X214829563Y-95749331D01*
X214758087Y-95984957D01*
X214733952Y-96230000D01*
X212166048Y-96230000D01*
X212147689Y-96043599D01*
X212305075Y-96043599D01*
X212367511Y-96225000D01*
X213445000Y-96225000D01*
X213445000Y-95147512D01*
X213455000Y-95147512D01*
X213455000Y-96225000D01*
X214532489Y-96225000D01*
X214594925Y-96043599D01*
X214536561Y-95823817D01*
X214436441Y-95619644D01*
X214298412Y-95438927D01*
X214127779Y-95288610D01*
X213931100Y-95174470D01*
X213715932Y-95100894D01*
X213636401Y-95085075D01*
X213455000Y-95147512D01*
X213445000Y-95147512D01*
X213263599Y-95085075D01*
X213184068Y-95100894D01*
X212968900Y-95174470D01*
X212772221Y-95288610D01*
X212601588Y-95438927D01*
X212463559Y-95619644D01*
X212363439Y-95823817D01*
X212305075Y-96043599D01*
X212147689Y-96043599D01*
X212141913Y-95984957D01*
X212070437Y-95749331D01*
X211954366Y-95532177D01*
X211798160Y-95341840D01*
X211607823Y-95185634D01*
X211390669Y-95069563D01*
X211155043Y-94998087D01*
X210971405Y-94980000D01*
X210848595Y-94980000D01*
X210664957Y-94998087D01*
X210429331Y-95069563D01*
X210212177Y-95185634D01*
X210021840Y-95341840D01*
X209865634Y-95532177D01*
X209840072Y-95580000D01*
X209439928Y-95580000D01*
X209414366Y-95532177D01*
X209258160Y-95341840D01*
X209067823Y-95185634D01*
X208850669Y-95069563D01*
X208615043Y-94998087D01*
X208431405Y-94980000D01*
X208308595Y-94980000D01*
X208124957Y-94998087D01*
X207889331Y-95069563D01*
X207672177Y-95185634D01*
X207481840Y-95341840D01*
X207325634Y-95532177D01*
X207209563Y-95749331D01*
X207138087Y-95984957D01*
X207113952Y-96230000D01*
X207138087Y-96475043D01*
X207153828Y-96526934D01*
X206462962Y-97217800D01*
X206438157Y-97238157D01*
X206417802Y-97262960D01*
X206356930Y-97337132D01*
X206319541Y-97407082D01*
X206296573Y-97450053D01*
X206259405Y-97572579D01*
X206250000Y-97668069D01*
X206250000Y-97668079D01*
X206246856Y-97700000D01*
X206250000Y-97731922D01*
X206250001Y-98730761D01*
X200450000Y-104530762D01*
X200450000Y-97327640D01*
X201750000Y-97327640D01*
X201750000Y-97672360D01*
X201817251Y-98010456D01*
X201949170Y-98328936D01*
X202140686Y-98615560D01*
X202384440Y-98859314D01*
X202671064Y-99050830D01*
X202989544Y-99182749D01*
X203327640Y-99250000D01*
X203672360Y-99250000D01*
X204010456Y-99182749D01*
X204328936Y-99050830D01*
X204615560Y-98859314D01*
X204859314Y-98615560D01*
X205050830Y-98328936D01*
X205182749Y-98010456D01*
X205250000Y-97672360D01*
X205250000Y-97327640D01*
X205182749Y-96989544D01*
X205050830Y-96671064D01*
X204859314Y-96384440D01*
X204615560Y-96140686D01*
X204328936Y-95949170D01*
X204010456Y-95817251D01*
X203672360Y-95750000D01*
X203327640Y-95750000D01*
X202989544Y-95817251D01*
X202671064Y-95949170D01*
X202384440Y-96140686D01*
X202140686Y-96384440D01*
X201949170Y-96671064D01*
X201817251Y-96989544D01*
X201750000Y-97327640D01*
X200450000Y-97327640D01*
X200450000Y-97022006D01*
X200500681Y-96505124D01*
X200644403Y-96029094D01*
X200877850Y-95590043D01*
X201192125Y-95204704D01*
X201575266Y-94887742D01*
X202012670Y-94651239D01*
X202487684Y-94504197D01*
X203003335Y-94450000D01*
X261977994Y-94450000D01*
X262494876Y-94500681D01*
G36*
X237266221Y-111983377D02*
G01*
X237216235Y-112044285D01*
X237179092Y-112113774D01*
X237163890Y-112163890D01*
X237113774Y-112179092D01*
X237044285Y-112216235D01*
X236983377Y-112266221D01*
X236205560Y-113044038D01*
X236155574Y-113104946D01*
X236118431Y-113174435D01*
X236095559Y-113249835D01*
X236087836Y-113328249D01*
X236095559Y-113406663D01*
X236118431Y-113482063D01*
X236155574Y-113551552D01*
X236205560Y-113612460D01*
X237407641Y-114814541D01*
X237468549Y-114864527D01*
X237538038Y-114901670D01*
X237613438Y-114924542D01*
X237691852Y-114932265D01*
X237770266Y-114924542D01*
X237845666Y-114901670D01*
X237915155Y-114864527D01*
X237976063Y-114814541D01*
X238038111Y-114752493D01*
X238043651Y-114754173D01*
X238124452Y-114762131D01*
X238124462Y-114762131D01*
X238151470Y-114764791D01*
X238178478Y-114762131D01*
X238447265Y-114762131D01*
X238185459Y-115023937D01*
X238135473Y-115084845D01*
X238098330Y-115154334D01*
X238075458Y-115229734D01*
X238067735Y-115308148D01*
X238075458Y-115386562D01*
X238098330Y-115461962D01*
X238135473Y-115531451D01*
X238185459Y-115592359D01*
X238293100Y-115700000D01*
X236977818Y-115700000D01*
X234208012Y-112930195D01*
X234190790Y-112909210D01*
X234107042Y-112840479D01*
X234011494Y-112789408D01*
X233907819Y-112757958D01*
X233827018Y-112750000D01*
X233827008Y-112750000D01*
X233800000Y-112747340D01*
X233772992Y-112750000D01*
X229147816Y-112750000D01*
X228675316Y-112277501D01*
X229517445Y-111435372D01*
X229546586Y-111444212D01*
X229625000Y-111451935D01*
X230275000Y-111451935D01*
X230353414Y-111444212D01*
X230428814Y-111421340D01*
X230498303Y-111384197D01*
X230559211Y-111334211D01*
X230609197Y-111273303D01*
X230646340Y-111203814D01*
X230669212Y-111128414D01*
X230676935Y-111050000D01*
X231213500Y-111050000D01*
X231219485Y-111110771D01*
X231237212Y-111169206D01*
X231265997Y-111223060D01*
X231304736Y-111270264D01*
X231351940Y-111309003D01*
X231405794Y-111337788D01*
X231464229Y-111355515D01*
X231525000Y-111361500D01*
X231767500Y-111360000D01*
X231845000Y-111282500D01*
X231845000Y-110855000D01*
X231855000Y-110855000D01*
X231855000Y-111282500D01*
X231932500Y-111360000D01*
X232175000Y-111361500D01*
X232235771Y-111355515D01*
X232294206Y-111337788D01*
X232348060Y-111309003D01*
X232395264Y-111270264D01*
X232434003Y-111223060D01*
X232462788Y-111169206D01*
X232480515Y-111110771D01*
X232486500Y-111050000D01*
X232485000Y-110932500D01*
X232407500Y-110855000D01*
X231855000Y-110855000D01*
X231845000Y-110855000D01*
X231292500Y-110855000D01*
X231215000Y-110932500D01*
X231213500Y-111050000D01*
X230676935Y-111050000D01*
X230676935Y-110650000D01*
X230669212Y-110571586D01*
X230655081Y-110525000D01*
X230669212Y-110478414D01*
X230676935Y-110400000D01*
X230676935Y-110344396D01*
X230885529Y-110552990D01*
X230901973Y-110573027D01*
X230981914Y-110638633D01*
X231067185Y-110684211D01*
X231073119Y-110687383D01*
X231172082Y-110717403D01*
X231214414Y-110721572D01*
X231215000Y-110767500D01*
X231292500Y-110845000D01*
X231845000Y-110845000D01*
X231845000Y-110825000D01*
X231855000Y-110825000D01*
X231855000Y-110845000D01*
X232407500Y-110845000D01*
X232485000Y-110767500D01*
X232486488Y-110650974D01*
X232509197Y-110623303D01*
X232546340Y-110553814D01*
X232569212Y-110478414D01*
X232576935Y-110400000D01*
X232576935Y-110092622D01*
X232582819Y-110092042D01*
X232686494Y-110060592D01*
X232782042Y-110009521D01*
X232865790Y-109940790D01*
X232883013Y-109919804D01*
X234042831Y-108759987D01*
X237266221Y-111983377D01*
X237266221Y-111983377D01*
G37*
X237266221Y-111983377D02*
X237216235Y-112044285D01*
X237179092Y-112113774D01*
X237163890Y-112163890D01*
X237113774Y-112179092D01*
X237044285Y-112216235D01*
X236983377Y-112266221D01*
X236205560Y-113044038D01*
X236155574Y-113104946D01*
X236118431Y-113174435D01*
X236095559Y-113249835D01*
X236087836Y-113328249D01*
X236095559Y-113406663D01*
X236118431Y-113482063D01*
X236155574Y-113551552D01*
X236205560Y-113612460D01*
X237407641Y-114814541D01*
X237468549Y-114864527D01*
X237538038Y-114901670D01*
X237613438Y-114924542D01*
X237691852Y-114932265D01*
X237770266Y-114924542D01*
X237845666Y-114901670D01*
X237915155Y-114864527D01*
X237976063Y-114814541D01*
X238038111Y-114752493D01*
X238043651Y-114754173D01*
X238124452Y-114762131D01*
X238124462Y-114762131D01*
X238151470Y-114764791D01*
X238178478Y-114762131D01*
X238447265Y-114762131D01*
X238185459Y-115023937D01*
X238135473Y-115084845D01*
X238098330Y-115154334D01*
X238075458Y-115229734D01*
X238067735Y-115308148D01*
X238075458Y-115386562D01*
X238098330Y-115461962D01*
X238135473Y-115531451D01*
X238185459Y-115592359D01*
X238293100Y-115700000D01*
X236977818Y-115700000D01*
X234208012Y-112930195D01*
X234190790Y-112909210D01*
X234107042Y-112840479D01*
X234011494Y-112789408D01*
X233907819Y-112757958D01*
X233827018Y-112750000D01*
X233827008Y-112750000D01*
X233800000Y-112747340D01*
X233772992Y-112750000D01*
X229147816Y-112750000D01*
X228675316Y-112277501D01*
X229517445Y-111435372D01*
X229546586Y-111444212D01*
X229625000Y-111451935D01*
X230275000Y-111451935D01*
X230353414Y-111444212D01*
X230428814Y-111421340D01*
X230498303Y-111384197D01*
X230559211Y-111334211D01*
X230609197Y-111273303D01*
X230646340Y-111203814D01*
X230669212Y-111128414D01*
X230676935Y-111050000D01*
X231213500Y-111050000D01*
X231219485Y-111110771D01*
X231237212Y-111169206D01*
X231265997Y-111223060D01*
X231304736Y-111270264D01*
X231351940Y-111309003D01*
X231405794Y-111337788D01*
X231464229Y-111355515D01*
X231525000Y-111361500D01*
X231767500Y-111360000D01*
X231845000Y-111282500D01*
X231845000Y-110855000D01*
X231855000Y-110855000D01*
X231855000Y-111282500D01*
X231932500Y-111360000D01*
X232175000Y-111361500D01*
X232235771Y-111355515D01*
X232294206Y-111337788D01*
X232348060Y-111309003D01*
X232395264Y-111270264D01*
X232434003Y-111223060D01*
X232462788Y-111169206D01*
X232480515Y-111110771D01*
X232486500Y-111050000D01*
X232485000Y-110932500D01*
X232407500Y-110855000D01*
X231855000Y-110855000D01*
X231845000Y-110855000D01*
X231292500Y-110855000D01*
X231215000Y-110932500D01*
X231213500Y-111050000D01*
X230676935Y-111050000D01*
X230676935Y-110650000D01*
X230669212Y-110571586D01*
X230655081Y-110525000D01*
X230669212Y-110478414D01*
X230676935Y-110400000D01*
X230676935Y-110344396D01*
X230885529Y-110552990D01*
X230901973Y-110573027D01*
X230981914Y-110638633D01*
X231067185Y-110684211D01*
X231073119Y-110687383D01*
X231172082Y-110717403D01*
X231214414Y-110721572D01*
X231215000Y-110767500D01*
X231292500Y-110845000D01*
X231845000Y-110845000D01*
X231845000Y-110825000D01*
X231855000Y-110825000D01*
X231855000Y-110845000D01*
X232407500Y-110845000D01*
X232485000Y-110767500D01*
X232486488Y-110650974D01*
X232509197Y-110623303D01*
X232546340Y-110553814D01*
X232569212Y-110478414D01*
X232576935Y-110400000D01*
X232576935Y-110092622D01*
X232582819Y-110092042D01*
X232686494Y-110060592D01*
X232782042Y-110009521D01*
X232865790Y-109940790D01*
X232883013Y-109919804D01*
X234042831Y-108759987D01*
X237266221Y-111983377D01*
G36*
X230679655Y-107868439D02*
G01*
X230626888Y-107995831D01*
X230599987Y-108131069D01*
X230599987Y-108159854D01*
X230561355Y-108206927D01*
X230512605Y-108298132D01*
X230482585Y-108397095D01*
X230472449Y-108500012D01*
X230474989Y-108525802D01*
X230474989Y-109113097D01*
X230448060Y-109090997D01*
X230394206Y-109062212D01*
X230335771Y-109044485D01*
X230275000Y-109038500D01*
X230032500Y-109040000D01*
X229955000Y-109117500D01*
X229955000Y-109545000D01*
X229975000Y-109545000D01*
X229975000Y-109555000D01*
X229955000Y-109555000D01*
X229955000Y-109575000D01*
X229945000Y-109575000D01*
X229945000Y-109555000D01*
X229925000Y-109555000D01*
X229925000Y-109545000D01*
X229945000Y-109545000D01*
X229945000Y-109117500D01*
X229867500Y-109040000D01*
X229625000Y-109038500D01*
X229564229Y-109044485D01*
X229541374Y-109051419D01*
X229446229Y-108956274D01*
X229331579Y-108879668D01*
X229204187Y-108826901D01*
X229068949Y-108800000D01*
X228931061Y-108800000D01*
X228795823Y-108826901D01*
X228668431Y-108879668D01*
X228553781Y-108956274D01*
X228456279Y-109053776D01*
X228379673Y-109168426D01*
X228326906Y-109295818D01*
X228300005Y-109431056D01*
X228300005Y-109568944D01*
X228326906Y-109704182D01*
X228379673Y-109831574D01*
X228456279Y-109946224D01*
X228476633Y-109966578D01*
X228478201Y-109982500D01*
X228482602Y-110027181D01*
X228512622Y-110126144D01*
X228561372Y-110217349D01*
X228579498Y-110239435D01*
X228626979Y-110297291D01*
X228647010Y-110313730D01*
X228865231Y-110531951D01*
X227897499Y-111499683D01*
X224247815Y-107850000D01*
X230691975Y-107850000D01*
X230679655Y-107868439D01*
X230679655Y-107868439D01*
G37*
X230679655Y-107868439D02*
X230626888Y-107995831D01*
X230599987Y-108131069D01*
X230599987Y-108159854D01*
X230561355Y-108206927D01*
X230512605Y-108298132D01*
X230482585Y-108397095D01*
X230472449Y-108500012D01*
X230474989Y-108525802D01*
X230474989Y-109113097D01*
X230448060Y-109090997D01*
X230394206Y-109062212D01*
X230335771Y-109044485D01*
X230275000Y-109038500D01*
X230032500Y-109040000D01*
X229955000Y-109117500D01*
X229955000Y-109545000D01*
X229975000Y-109545000D01*
X229975000Y-109555000D01*
X229955000Y-109555000D01*
X229955000Y-109575000D01*
X229945000Y-109575000D01*
X229945000Y-109555000D01*
X229925000Y-109555000D01*
X229925000Y-109545000D01*
X229945000Y-109545000D01*
X229945000Y-109117500D01*
X229867500Y-109040000D01*
X229625000Y-109038500D01*
X229564229Y-109044485D01*
X229541374Y-109051419D01*
X229446229Y-108956274D01*
X229331579Y-108879668D01*
X229204187Y-108826901D01*
X229068949Y-108800000D01*
X228931061Y-108800000D01*
X228795823Y-108826901D01*
X228668431Y-108879668D01*
X228553781Y-108956274D01*
X228456279Y-109053776D01*
X228379673Y-109168426D01*
X228326906Y-109295818D01*
X228300005Y-109431056D01*
X228300005Y-109568944D01*
X228326906Y-109704182D01*
X228379673Y-109831574D01*
X228456279Y-109946224D01*
X228476633Y-109966578D01*
X228478201Y-109982500D01*
X228482602Y-110027181D01*
X228512622Y-110126144D01*
X228561372Y-110217349D01*
X228579498Y-110239435D01*
X228626979Y-110297291D01*
X228647010Y-110313730D01*
X228865231Y-110531951D01*
X227897499Y-111499683D01*
X224247815Y-107850000D01*
X230691975Y-107850000D01*
X230679655Y-107868439D01*
M02*
