G04 #@! TF.GenerationSoftware,KiCad,Pcbnew,(5.1.2)-1*
G04 #@! TF.CreationDate,2019-05-20T14:19:16+10:00*
G04 #@! TF.ProjectId,VeinCamHat,5665696e-4361-46d4-9861-742e6b696361,rev?*
G04 #@! TF.SameCoordinates,Original*
G04 #@! TF.FileFunction,Paste,Top*
G04 #@! TF.FilePolarity,Positive*
%FSLAX46Y46*%
G04 Gerber Fmt 4.6, Leading zero omitted, Abs format (unit mm)*
G04 Created by KiCad (PCBNEW (5.1.2)-1) date 2019-05-20 14:19:16*
%MOMM*%
%LPD*%
G04 APERTURE LIST*
%ADD10C,1.100000*%
%ADD11C,0.150000*%
%ADD12R,1.700000X1.100000*%
%ADD13R,0.650000X0.400000*%
%ADD14C,0.875000*%
%ADD15C,0.975000*%
G04 APERTURE END LIST*
D10*
X203479720Y-134540381D03*
D11*
G36*
X203691852Y-135530330D02*
G01*
X202489771Y-134328249D01*
X203267588Y-133550432D01*
X204469669Y-134752513D01*
X203691852Y-135530330D01*
X203691852Y-135530330D01*
G37*
D10*
X205459619Y-136520280D03*
D11*
G36*
X205671751Y-137510229D02*
G01*
X204469670Y-136308148D01*
X205247487Y-135530331D01*
X206449568Y-136732412D01*
X205671751Y-137510229D01*
X205671751Y-137510229D01*
G37*
D10*
X204540381Y-133479720D03*
D11*
G36*
X204752513Y-134469669D02*
G01*
X203550432Y-133267588D01*
X204328249Y-132489771D01*
X205530330Y-133691852D01*
X204752513Y-134469669D01*
X204752513Y-134469669D01*
G37*
D10*
X206520280Y-135459619D03*
D11*
G36*
X206732412Y-136449568D02*
G01*
X205530331Y-135247487D01*
X206308148Y-134469670D01*
X207510229Y-135671751D01*
X206732412Y-136449568D01*
X206732412Y-136449568D01*
G37*
D12*
X223400000Y-144249999D03*
X220600000Y-144249999D03*
X223400000Y-145750001D03*
X220600000Y-145750001D03*
D10*
X205459619Y-112479720D03*
D11*
G36*
X206449568Y-112267588D02*
G01*
X205247487Y-113469669D01*
X204469670Y-112691852D01*
X205671751Y-111489771D01*
X206449568Y-112267588D01*
X206449568Y-112267588D01*
G37*
D10*
X203479720Y-114459619D03*
D11*
G36*
X204469669Y-114247487D02*
G01*
X203267588Y-115449568D01*
X202489771Y-114671751D01*
X203691852Y-113469670D01*
X204469669Y-114247487D01*
X204469669Y-114247487D01*
G37*
D10*
X206520280Y-113540381D03*
D11*
G36*
X207510229Y-113328249D02*
G01*
X206308148Y-114530330D01*
X205530331Y-113752513D01*
X206732412Y-112550432D01*
X207510229Y-113328249D01*
X207510229Y-113328249D01*
G37*
D10*
X204540381Y-115520280D03*
D11*
G36*
X205530330Y-115308148D02*
G01*
X204328249Y-116510229D01*
X203550432Y-115732412D01*
X204752513Y-114530331D01*
X205530330Y-115308148D01*
X205530330Y-115308148D01*
G37*
D10*
X238540381Y-136520280D03*
D11*
G36*
X239530330Y-136308148D02*
G01*
X238328249Y-137510229D01*
X237550432Y-136732412D01*
X238752513Y-135530331D01*
X239530330Y-136308148D01*
X239530330Y-136308148D01*
G37*
D10*
X240520280Y-134540381D03*
D11*
G36*
X241510229Y-134328249D02*
G01*
X240308148Y-135530330D01*
X239530331Y-134752513D01*
X240732412Y-133550432D01*
X241510229Y-134328249D01*
X241510229Y-134328249D01*
G37*
D10*
X237479720Y-135459619D03*
D11*
G36*
X238469669Y-135247487D02*
G01*
X237267588Y-136449568D01*
X236489771Y-135671751D01*
X237691852Y-134469670D01*
X238469669Y-135247487D01*
X238469669Y-135247487D01*
G37*
D10*
X239459619Y-133479720D03*
D11*
G36*
X240449568Y-133267588D02*
G01*
X239247487Y-134469669D01*
X238469670Y-133691852D01*
X239671751Y-132489771D01*
X240449568Y-133267588D01*
X240449568Y-133267588D01*
G37*
D13*
X229950000Y-109550000D03*
X229950000Y-110850000D03*
X231850000Y-110200000D03*
X229950000Y-110200000D03*
X231850000Y-110850000D03*
X231850000Y-109550000D03*
D11*
G36*
X250815191Y-103976053D02*
G01*
X250836426Y-103979203D01*
X250857250Y-103984419D01*
X250877462Y-103991651D01*
X250896868Y-104000830D01*
X250915281Y-104011866D01*
X250932524Y-104024654D01*
X250948430Y-104039070D01*
X250962846Y-104054976D01*
X250975634Y-104072219D01*
X250986670Y-104090632D01*
X250995849Y-104110038D01*
X251003081Y-104130250D01*
X251008297Y-104151074D01*
X251011447Y-104172309D01*
X251012500Y-104193750D01*
X251012500Y-104631250D01*
X251011447Y-104652691D01*
X251008297Y-104673926D01*
X251003081Y-104694750D01*
X250995849Y-104714962D01*
X250986670Y-104734368D01*
X250975634Y-104752781D01*
X250962846Y-104770024D01*
X250948430Y-104785930D01*
X250932524Y-104800346D01*
X250915281Y-104813134D01*
X250896868Y-104824170D01*
X250877462Y-104833349D01*
X250857250Y-104840581D01*
X250836426Y-104845797D01*
X250815191Y-104848947D01*
X250793750Y-104850000D01*
X250281250Y-104850000D01*
X250259809Y-104848947D01*
X250238574Y-104845797D01*
X250217750Y-104840581D01*
X250197538Y-104833349D01*
X250178132Y-104824170D01*
X250159719Y-104813134D01*
X250142476Y-104800346D01*
X250126570Y-104785930D01*
X250112154Y-104770024D01*
X250099366Y-104752781D01*
X250088330Y-104734368D01*
X250079151Y-104714962D01*
X250071919Y-104694750D01*
X250066703Y-104673926D01*
X250063553Y-104652691D01*
X250062500Y-104631250D01*
X250062500Y-104193750D01*
X250063553Y-104172309D01*
X250066703Y-104151074D01*
X250071919Y-104130250D01*
X250079151Y-104110038D01*
X250088330Y-104090632D01*
X250099366Y-104072219D01*
X250112154Y-104054976D01*
X250126570Y-104039070D01*
X250142476Y-104024654D01*
X250159719Y-104011866D01*
X250178132Y-104000830D01*
X250197538Y-103991651D01*
X250217750Y-103984419D01*
X250238574Y-103979203D01*
X250259809Y-103976053D01*
X250281250Y-103975000D01*
X250793750Y-103975000D01*
X250815191Y-103976053D01*
X250815191Y-103976053D01*
G37*
D14*
X250537500Y-104412500D03*
D11*
G36*
X250815191Y-105551053D02*
G01*
X250836426Y-105554203D01*
X250857250Y-105559419D01*
X250877462Y-105566651D01*
X250896868Y-105575830D01*
X250915281Y-105586866D01*
X250932524Y-105599654D01*
X250948430Y-105614070D01*
X250962846Y-105629976D01*
X250975634Y-105647219D01*
X250986670Y-105665632D01*
X250995849Y-105685038D01*
X251003081Y-105705250D01*
X251008297Y-105726074D01*
X251011447Y-105747309D01*
X251012500Y-105768750D01*
X251012500Y-106206250D01*
X251011447Y-106227691D01*
X251008297Y-106248926D01*
X251003081Y-106269750D01*
X250995849Y-106289962D01*
X250986670Y-106309368D01*
X250975634Y-106327781D01*
X250962846Y-106345024D01*
X250948430Y-106360930D01*
X250932524Y-106375346D01*
X250915281Y-106388134D01*
X250896868Y-106399170D01*
X250877462Y-106408349D01*
X250857250Y-106415581D01*
X250836426Y-106420797D01*
X250815191Y-106423947D01*
X250793750Y-106425000D01*
X250281250Y-106425000D01*
X250259809Y-106423947D01*
X250238574Y-106420797D01*
X250217750Y-106415581D01*
X250197538Y-106408349D01*
X250178132Y-106399170D01*
X250159719Y-106388134D01*
X250142476Y-106375346D01*
X250126570Y-106360930D01*
X250112154Y-106345024D01*
X250099366Y-106327781D01*
X250088330Y-106309368D01*
X250079151Y-106289962D01*
X250071919Y-106269750D01*
X250066703Y-106248926D01*
X250063553Y-106227691D01*
X250062500Y-106206250D01*
X250062500Y-105768750D01*
X250063553Y-105747309D01*
X250066703Y-105726074D01*
X250071919Y-105705250D01*
X250079151Y-105685038D01*
X250088330Y-105665632D01*
X250099366Y-105647219D01*
X250112154Y-105629976D01*
X250126570Y-105614070D01*
X250142476Y-105599654D01*
X250159719Y-105586866D01*
X250178132Y-105575830D01*
X250197538Y-105566651D01*
X250217750Y-105559419D01*
X250238574Y-105554203D01*
X250259809Y-105551053D01*
X250281250Y-105550000D01*
X250793750Y-105550000D01*
X250815191Y-105551053D01*
X250815191Y-105551053D01*
G37*
D14*
X250537500Y-105987500D03*
D11*
G36*
X247177691Y-103926053D02*
G01*
X247198926Y-103929203D01*
X247219750Y-103934419D01*
X247239962Y-103941651D01*
X247259368Y-103950830D01*
X247277781Y-103961866D01*
X247295024Y-103974654D01*
X247310930Y-103989070D01*
X247325346Y-104004976D01*
X247338134Y-104022219D01*
X247349170Y-104040632D01*
X247358349Y-104060038D01*
X247365581Y-104080250D01*
X247370797Y-104101074D01*
X247373947Y-104122309D01*
X247375000Y-104143750D01*
X247375000Y-104581250D01*
X247373947Y-104602691D01*
X247370797Y-104623926D01*
X247365581Y-104644750D01*
X247358349Y-104664962D01*
X247349170Y-104684368D01*
X247338134Y-104702781D01*
X247325346Y-104720024D01*
X247310930Y-104735930D01*
X247295024Y-104750346D01*
X247277781Y-104763134D01*
X247259368Y-104774170D01*
X247239962Y-104783349D01*
X247219750Y-104790581D01*
X247198926Y-104795797D01*
X247177691Y-104798947D01*
X247156250Y-104800000D01*
X246643750Y-104800000D01*
X246622309Y-104798947D01*
X246601074Y-104795797D01*
X246580250Y-104790581D01*
X246560038Y-104783349D01*
X246540632Y-104774170D01*
X246522219Y-104763134D01*
X246504976Y-104750346D01*
X246489070Y-104735930D01*
X246474654Y-104720024D01*
X246461866Y-104702781D01*
X246450830Y-104684368D01*
X246441651Y-104664962D01*
X246434419Y-104644750D01*
X246429203Y-104623926D01*
X246426053Y-104602691D01*
X246425000Y-104581250D01*
X246425000Y-104143750D01*
X246426053Y-104122309D01*
X246429203Y-104101074D01*
X246434419Y-104080250D01*
X246441651Y-104060038D01*
X246450830Y-104040632D01*
X246461866Y-104022219D01*
X246474654Y-104004976D01*
X246489070Y-103989070D01*
X246504976Y-103974654D01*
X246522219Y-103961866D01*
X246540632Y-103950830D01*
X246560038Y-103941651D01*
X246580250Y-103934419D01*
X246601074Y-103929203D01*
X246622309Y-103926053D01*
X246643750Y-103925000D01*
X247156250Y-103925000D01*
X247177691Y-103926053D01*
X247177691Y-103926053D01*
G37*
D14*
X246900000Y-104362500D03*
D11*
G36*
X247177691Y-105501053D02*
G01*
X247198926Y-105504203D01*
X247219750Y-105509419D01*
X247239962Y-105516651D01*
X247259368Y-105525830D01*
X247277781Y-105536866D01*
X247295024Y-105549654D01*
X247310930Y-105564070D01*
X247325346Y-105579976D01*
X247338134Y-105597219D01*
X247349170Y-105615632D01*
X247358349Y-105635038D01*
X247365581Y-105655250D01*
X247370797Y-105676074D01*
X247373947Y-105697309D01*
X247375000Y-105718750D01*
X247375000Y-106156250D01*
X247373947Y-106177691D01*
X247370797Y-106198926D01*
X247365581Y-106219750D01*
X247358349Y-106239962D01*
X247349170Y-106259368D01*
X247338134Y-106277781D01*
X247325346Y-106295024D01*
X247310930Y-106310930D01*
X247295024Y-106325346D01*
X247277781Y-106338134D01*
X247259368Y-106349170D01*
X247239962Y-106358349D01*
X247219750Y-106365581D01*
X247198926Y-106370797D01*
X247177691Y-106373947D01*
X247156250Y-106375000D01*
X246643750Y-106375000D01*
X246622309Y-106373947D01*
X246601074Y-106370797D01*
X246580250Y-106365581D01*
X246560038Y-106358349D01*
X246540632Y-106349170D01*
X246522219Y-106338134D01*
X246504976Y-106325346D01*
X246489070Y-106310930D01*
X246474654Y-106295024D01*
X246461866Y-106277781D01*
X246450830Y-106259368D01*
X246441651Y-106239962D01*
X246434419Y-106219750D01*
X246429203Y-106198926D01*
X246426053Y-106177691D01*
X246425000Y-106156250D01*
X246425000Y-105718750D01*
X246426053Y-105697309D01*
X246429203Y-105676074D01*
X246434419Y-105655250D01*
X246441651Y-105635038D01*
X246450830Y-105615632D01*
X246461866Y-105597219D01*
X246474654Y-105579976D01*
X246489070Y-105564070D01*
X246504976Y-105549654D01*
X246522219Y-105536866D01*
X246540632Y-105525830D01*
X246560038Y-105516651D01*
X246580250Y-105509419D01*
X246601074Y-105504203D01*
X246622309Y-105501053D01*
X246643750Y-105500000D01*
X247156250Y-105500000D01*
X247177691Y-105501053D01*
X247177691Y-105501053D01*
G37*
D14*
X246900000Y-105937500D03*
D11*
G36*
X212227691Y-144726053D02*
G01*
X212248926Y-144729203D01*
X212269750Y-144734419D01*
X212289962Y-144741651D01*
X212309368Y-144750830D01*
X212327781Y-144761866D01*
X212345024Y-144774654D01*
X212360930Y-144789070D01*
X212375346Y-144804976D01*
X212388134Y-144822219D01*
X212399170Y-144840632D01*
X212408349Y-144860038D01*
X212415581Y-144880250D01*
X212420797Y-144901074D01*
X212423947Y-144922309D01*
X212425000Y-144943750D01*
X212425000Y-145456250D01*
X212423947Y-145477691D01*
X212420797Y-145498926D01*
X212415581Y-145519750D01*
X212408349Y-145539962D01*
X212399170Y-145559368D01*
X212388134Y-145577781D01*
X212375346Y-145595024D01*
X212360930Y-145610930D01*
X212345024Y-145625346D01*
X212327781Y-145638134D01*
X212309368Y-145649170D01*
X212289962Y-145658349D01*
X212269750Y-145665581D01*
X212248926Y-145670797D01*
X212227691Y-145673947D01*
X212206250Y-145675000D01*
X211768750Y-145675000D01*
X211747309Y-145673947D01*
X211726074Y-145670797D01*
X211705250Y-145665581D01*
X211685038Y-145658349D01*
X211665632Y-145649170D01*
X211647219Y-145638134D01*
X211629976Y-145625346D01*
X211614070Y-145610930D01*
X211599654Y-145595024D01*
X211586866Y-145577781D01*
X211575830Y-145559368D01*
X211566651Y-145539962D01*
X211559419Y-145519750D01*
X211554203Y-145498926D01*
X211551053Y-145477691D01*
X211550000Y-145456250D01*
X211550000Y-144943750D01*
X211551053Y-144922309D01*
X211554203Y-144901074D01*
X211559419Y-144880250D01*
X211566651Y-144860038D01*
X211575830Y-144840632D01*
X211586866Y-144822219D01*
X211599654Y-144804976D01*
X211614070Y-144789070D01*
X211629976Y-144774654D01*
X211647219Y-144761866D01*
X211665632Y-144750830D01*
X211685038Y-144741651D01*
X211705250Y-144734419D01*
X211726074Y-144729203D01*
X211747309Y-144726053D01*
X211768750Y-144725000D01*
X212206250Y-144725000D01*
X212227691Y-144726053D01*
X212227691Y-144726053D01*
G37*
D14*
X211987500Y-145200000D03*
D11*
G36*
X210652691Y-144726053D02*
G01*
X210673926Y-144729203D01*
X210694750Y-144734419D01*
X210714962Y-144741651D01*
X210734368Y-144750830D01*
X210752781Y-144761866D01*
X210770024Y-144774654D01*
X210785930Y-144789070D01*
X210800346Y-144804976D01*
X210813134Y-144822219D01*
X210824170Y-144840632D01*
X210833349Y-144860038D01*
X210840581Y-144880250D01*
X210845797Y-144901074D01*
X210848947Y-144922309D01*
X210850000Y-144943750D01*
X210850000Y-145456250D01*
X210848947Y-145477691D01*
X210845797Y-145498926D01*
X210840581Y-145519750D01*
X210833349Y-145539962D01*
X210824170Y-145559368D01*
X210813134Y-145577781D01*
X210800346Y-145595024D01*
X210785930Y-145610930D01*
X210770024Y-145625346D01*
X210752781Y-145638134D01*
X210734368Y-145649170D01*
X210714962Y-145658349D01*
X210694750Y-145665581D01*
X210673926Y-145670797D01*
X210652691Y-145673947D01*
X210631250Y-145675000D01*
X210193750Y-145675000D01*
X210172309Y-145673947D01*
X210151074Y-145670797D01*
X210130250Y-145665581D01*
X210110038Y-145658349D01*
X210090632Y-145649170D01*
X210072219Y-145638134D01*
X210054976Y-145625346D01*
X210039070Y-145610930D01*
X210024654Y-145595024D01*
X210011866Y-145577781D01*
X210000830Y-145559368D01*
X209991651Y-145539962D01*
X209984419Y-145519750D01*
X209979203Y-145498926D01*
X209976053Y-145477691D01*
X209975000Y-145456250D01*
X209975000Y-144943750D01*
X209976053Y-144922309D01*
X209979203Y-144901074D01*
X209984419Y-144880250D01*
X209991651Y-144860038D01*
X210000830Y-144840632D01*
X210011866Y-144822219D01*
X210024654Y-144804976D01*
X210039070Y-144789070D01*
X210054976Y-144774654D01*
X210072219Y-144761866D01*
X210090632Y-144750830D01*
X210110038Y-144741651D01*
X210130250Y-144734419D01*
X210151074Y-144729203D01*
X210172309Y-144726053D01*
X210193750Y-144725000D01*
X210631250Y-144725000D01*
X210652691Y-144726053D01*
X210652691Y-144726053D01*
G37*
D14*
X210412500Y-145200000D03*
D11*
G36*
X210652691Y-143126053D02*
G01*
X210673926Y-143129203D01*
X210694750Y-143134419D01*
X210714962Y-143141651D01*
X210734368Y-143150830D01*
X210752781Y-143161866D01*
X210770024Y-143174654D01*
X210785930Y-143189070D01*
X210800346Y-143204976D01*
X210813134Y-143222219D01*
X210824170Y-143240632D01*
X210833349Y-143260038D01*
X210840581Y-143280250D01*
X210845797Y-143301074D01*
X210848947Y-143322309D01*
X210850000Y-143343750D01*
X210850000Y-143856250D01*
X210848947Y-143877691D01*
X210845797Y-143898926D01*
X210840581Y-143919750D01*
X210833349Y-143939962D01*
X210824170Y-143959368D01*
X210813134Y-143977781D01*
X210800346Y-143995024D01*
X210785930Y-144010930D01*
X210770024Y-144025346D01*
X210752781Y-144038134D01*
X210734368Y-144049170D01*
X210714962Y-144058349D01*
X210694750Y-144065581D01*
X210673926Y-144070797D01*
X210652691Y-144073947D01*
X210631250Y-144075000D01*
X210193750Y-144075000D01*
X210172309Y-144073947D01*
X210151074Y-144070797D01*
X210130250Y-144065581D01*
X210110038Y-144058349D01*
X210090632Y-144049170D01*
X210072219Y-144038134D01*
X210054976Y-144025346D01*
X210039070Y-144010930D01*
X210024654Y-143995024D01*
X210011866Y-143977781D01*
X210000830Y-143959368D01*
X209991651Y-143939962D01*
X209984419Y-143919750D01*
X209979203Y-143898926D01*
X209976053Y-143877691D01*
X209975000Y-143856250D01*
X209975000Y-143343750D01*
X209976053Y-143322309D01*
X209979203Y-143301074D01*
X209984419Y-143280250D01*
X209991651Y-143260038D01*
X210000830Y-143240632D01*
X210011866Y-143222219D01*
X210024654Y-143204976D01*
X210039070Y-143189070D01*
X210054976Y-143174654D01*
X210072219Y-143161866D01*
X210090632Y-143150830D01*
X210110038Y-143141651D01*
X210130250Y-143134419D01*
X210151074Y-143129203D01*
X210172309Y-143126053D01*
X210193750Y-143125000D01*
X210631250Y-143125000D01*
X210652691Y-143126053D01*
X210652691Y-143126053D01*
G37*
D14*
X210412500Y-143600000D03*
D11*
G36*
X212227691Y-143126053D02*
G01*
X212248926Y-143129203D01*
X212269750Y-143134419D01*
X212289962Y-143141651D01*
X212309368Y-143150830D01*
X212327781Y-143161866D01*
X212345024Y-143174654D01*
X212360930Y-143189070D01*
X212375346Y-143204976D01*
X212388134Y-143222219D01*
X212399170Y-143240632D01*
X212408349Y-143260038D01*
X212415581Y-143280250D01*
X212420797Y-143301074D01*
X212423947Y-143322309D01*
X212425000Y-143343750D01*
X212425000Y-143856250D01*
X212423947Y-143877691D01*
X212420797Y-143898926D01*
X212415581Y-143919750D01*
X212408349Y-143939962D01*
X212399170Y-143959368D01*
X212388134Y-143977781D01*
X212375346Y-143995024D01*
X212360930Y-144010930D01*
X212345024Y-144025346D01*
X212327781Y-144038134D01*
X212309368Y-144049170D01*
X212289962Y-144058349D01*
X212269750Y-144065581D01*
X212248926Y-144070797D01*
X212227691Y-144073947D01*
X212206250Y-144075000D01*
X211768750Y-144075000D01*
X211747309Y-144073947D01*
X211726074Y-144070797D01*
X211705250Y-144065581D01*
X211685038Y-144058349D01*
X211665632Y-144049170D01*
X211647219Y-144038134D01*
X211629976Y-144025346D01*
X211614070Y-144010930D01*
X211599654Y-143995024D01*
X211586866Y-143977781D01*
X211575830Y-143959368D01*
X211566651Y-143939962D01*
X211559419Y-143919750D01*
X211554203Y-143898926D01*
X211551053Y-143877691D01*
X211550000Y-143856250D01*
X211550000Y-143343750D01*
X211551053Y-143322309D01*
X211554203Y-143301074D01*
X211559419Y-143280250D01*
X211566651Y-143260038D01*
X211575830Y-143240632D01*
X211586866Y-143222219D01*
X211599654Y-143204976D01*
X211614070Y-143189070D01*
X211629976Y-143174654D01*
X211647219Y-143161866D01*
X211665632Y-143150830D01*
X211685038Y-143141651D01*
X211705250Y-143134419D01*
X211726074Y-143129203D01*
X211747309Y-143126053D01*
X211768750Y-143125000D01*
X212206250Y-143125000D01*
X212227691Y-143126053D01*
X212227691Y-143126053D01*
G37*
D14*
X211987500Y-143600000D03*
D11*
G36*
X213752691Y-144726053D02*
G01*
X213773926Y-144729203D01*
X213794750Y-144734419D01*
X213814962Y-144741651D01*
X213834368Y-144750830D01*
X213852781Y-144761866D01*
X213870024Y-144774654D01*
X213885930Y-144789070D01*
X213900346Y-144804976D01*
X213913134Y-144822219D01*
X213924170Y-144840632D01*
X213933349Y-144860038D01*
X213940581Y-144880250D01*
X213945797Y-144901074D01*
X213948947Y-144922309D01*
X213950000Y-144943750D01*
X213950000Y-145456250D01*
X213948947Y-145477691D01*
X213945797Y-145498926D01*
X213940581Y-145519750D01*
X213933349Y-145539962D01*
X213924170Y-145559368D01*
X213913134Y-145577781D01*
X213900346Y-145595024D01*
X213885930Y-145610930D01*
X213870024Y-145625346D01*
X213852781Y-145638134D01*
X213834368Y-145649170D01*
X213814962Y-145658349D01*
X213794750Y-145665581D01*
X213773926Y-145670797D01*
X213752691Y-145673947D01*
X213731250Y-145675000D01*
X213293750Y-145675000D01*
X213272309Y-145673947D01*
X213251074Y-145670797D01*
X213230250Y-145665581D01*
X213210038Y-145658349D01*
X213190632Y-145649170D01*
X213172219Y-145638134D01*
X213154976Y-145625346D01*
X213139070Y-145610930D01*
X213124654Y-145595024D01*
X213111866Y-145577781D01*
X213100830Y-145559368D01*
X213091651Y-145539962D01*
X213084419Y-145519750D01*
X213079203Y-145498926D01*
X213076053Y-145477691D01*
X213075000Y-145456250D01*
X213075000Y-144943750D01*
X213076053Y-144922309D01*
X213079203Y-144901074D01*
X213084419Y-144880250D01*
X213091651Y-144860038D01*
X213100830Y-144840632D01*
X213111866Y-144822219D01*
X213124654Y-144804976D01*
X213139070Y-144789070D01*
X213154976Y-144774654D01*
X213172219Y-144761866D01*
X213190632Y-144750830D01*
X213210038Y-144741651D01*
X213230250Y-144734419D01*
X213251074Y-144729203D01*
X213272309Y-144726053D01*
X213293750Y-144725000D01*
X213731250Y-144725000D01*
X213752691Y-144726053D01*
X213752691Y-144726053D01*
G37*
D14*
X213512500Y-145200000D03*
D11*
G36*
X215327691Y-144726053D02*
G01*
X215348926Y-144729203D01*
X215369750Y-144734419D01*
X215389962Y-144741651D01*
X215409368Y-144750830D01*
X215427781Y-144761866D01*
X215445024Y-144774654D01*
X215460930Y-144789070D01*
X215475346Y-144804976D01*
X215488134Y-144822219D01*
X215499170Y-144840632D01*
X215508349Y-144860038D01*
X215515581Y-144880250D01*
X215520797Y-144901074D01*
X215523947Y-144922309D01*
X215525000Y-144943750D01*
X215525000Y-145456250D01*
X215523947Y-145477691D01*
X215520797Y-145498926D01*
X215515581Y-145519750D01*
X215508349Y-145539962D01*
X215499170Y-145559368D01*
X215488134Y-145577781D01*
X215475346Y-145595024D01*
X215460930Y-145610930D01*
X215445024Y-145625346D01*
X215427781Y-145638134D01*
X215409368Y-145649170D01*
X215389962Y-145658349D01*
X215369750Y-145665581D01*
X215348926Y-145670797D01*
X215327691Y-145673947D01*
X215306250Y-145675000D01*
X214868750Y-145675000D01*
X214847309Y-145673947D01*
X214826074Y-145670797D01*
X214805250Y-145665581D01*
X214785038Y-145658349D01*
X214765632Y-145649170D01*
X214747219Y-145638134D01*
X214729976Y-145625346D01*
X214714070Y-145610930D01*
X214699654Y-145595024D01*
X214686866Y-145577781D01*
X214675830Y-145559368D01*
X214666651Y-145539962D01*
X214659419Y-145519750D01*
X214654203Y-145498926D01*
X214651053Y-145477691D01*
X214650000Y-145456250D01*
X214650000Y-144943750D01*
X214651053Y-144922309D01*
X214654203Y-144901074D01*
X214659419Y-144880250D01*
X214666651Y-144860038D01*
X214675830Y-144840632D01*
X214686866Y-144822219D01*
X214699654Y-144804976D01*
X214714070Y-144789070D01*
X214729976Y-144774654D01*
X214747219Y-144761866D01*
X214765632Y-144750830D01*
X214785038Y-144741651D01*
X214805250Y-144734419D01*
X214826074Y-144729203D01*
X214847309Y-144726053D01*
X214868750Y-144725000D01*
X215306250Y-144725000D01*
X215327691Y-144726053D01*
X215327691Y-144726053D01*
G37*
D14*
X215087500Y-145200000D03*
D11*
G36*
X215327691Y-143126053D02*
G01*
X215348926Y-143129203D01*
X215369750Y-143134419D01*
X215389962Y-143141651D01*
X215409368Y-143150830D01*
X215427781Y-143161866D01*
X215445024Y-143174654D01*
X215460930Y-143189070D01*
X215475346Y-143204976D01*
X215488134Y-143222219D01*
X215499170Y-143240632D01*
X215508349Y-143260038D01*
X215515581Y-143280250D01*
X215520797Y-143301074D01*
X215523947Y-143322309D01*
X215525000Y-143343750D01*
X215525000Y-143856250D01*
X215523947Y-143877691D01*
X215520797Y-143898926D01*
X215515581Y-143919750D01*
X215508349Y-143939962D01*
X215499170Y-143959368D01*
X215488134Y-143977781D01*
X215475346Y-143995024D01*
X215460930Y-144010930D01*
X215445024Y-144025346D01*
X215427781Y-144038134D01*
X215409368Y-144049170D01*
X215389962Y-144058349D01*
X215369750Y-144065581D01*
X215348926Y-144070797D01*
X215327691Y-144073947D01*
X215306250Y-144075000D01*
X214868750Y-144075000D01*
X214847309Y-144073947D01*
X214826074Y-144070797D01*
X214805250Y-144065581D01*
X214785038Y-144058349D01*
X214765632Y-144049170D01*
X214747219Y-144038134D01*
X214729976Y-144025346D01*
X214714070Y-144010930D01*
X214699654Y-143995024D01*
X214686866Y-143977781D01*
X214675830Y-143959368D01*
X214666651Y-143939962D01*
X214659419Y-143919750D01*
X214654203Y-143898926D01*
X214651053Y-143877691D01*
X214650000Y-143856250D01*
X214650000Y-143343750D01*
X214651053Y-143322309D01*
X214654203Y-143301074D01*
X214659419Y-143280250D01*
X214666651Y-143260038D01*
X214675830Y-143240632D01*
X214686866Y-143222219D01*
X214699654Y-143204976D01*
X214714070Y-143189070D01*
X214729976Y-143174654D01*
X214747219Y-143161866D01*
X214765632Y-143150830D01*
X214785038Y-143141651D01*
X214805250Y-143134419D01*
X214826074Y-143129203D01*
X214847309Y-143126053D01*
X214868750Y-143125000D01*
X215306250Y-143125000D01*
X215327691Y-143126053D01*
X215327691Y-143126053D01*
G37*
D14*
X215087500Y-143600000D03*
D11*
G36*
X213752691Y-143126053D02*
G01*
X213773926Y-143129203D01*
X213794750Y-143134419D01*
X213814962Y-143141651D01*
X213834368Y-143150830D01*
X213852781Y-143161866D01*
X213870024Y-143174654D01*
X213885930Y-143189070D01*
X213900346Y-143204976D01*
X213913134Y-143222219D01*
X213924170Y-143240632D01*
X213933349Y-143260038D01*
X213940581Y-143280250D01*
X213945797Y-143301074D01*
X213948947Y-143322309D01*
X213950000Y-143343750D01*
X213950000Y-143856250D01*
X213948947Y-143877691D01*
X213945797Y-143898926D01*
X213940581Y-143919750D01*
X213933349Y-143939962D01*
X213924170Y-143959368D01*
X213913134Y-143977781D01*
X213900346Y-143995024D01*
X213885930Y-144010930D01*
X213870024Y-144025346D01*
X213852781Y-144038134D01*
X213834368Y-144049170D01*
X213814962Y-144058349D01*
X213794750Y-144065581D01*
X213773926Y-144070797D01*
X213752691Y-144073947D01*
X213731250Y-144075000D01*
X213293750Y-144075000D01*
X213272309Y-144073947D01*
X213251074Y-144070797D01*
X213230250Y-144065581D01*
X213210038Y-144058349D01*
X213190632Y-144049170D01*
X213172219Y-144038134D01*
X213154976Y-144025346D01*
X213139070Y-144010930D01*
X213124654Y-143995024D01*
X213111866Y-143977781D01*
X213100830Y-143959368D01*
X213091651Y-143939962D01*
X213084419Y-143919750D01*
X213079203Y-143898926D01*
X213076053Y-143877691D01*
X213075000Y-143856250D01*
X213075000Y-143343750D01*
X213076053Y-143322309D01*
X213079203Y-143301074D01*
X213084419Y-143280250D01*
X213091651Y-143260038D01*
X213100830Y-143240632D01*
X213111866Y-143222219D01*
X213124654Y-143204976D01*
X213139070Y-143189070D01*
X213154976Y-143174654D01*
X213172219Y-143161866D01*
X213190632Y-143150830D01*
X213210038Y-143141651D01*
X213230250Y-143134419D01*
X213251074Y-143129203D01*
X213272309Y-143126053D01*
X213293750Y-143125000D01*
X213731250Y-143125000D01*
X213752691Y-143126053D01*
X213752691Y-143126053D01*
G37*
D14*
X213512500Y-143600000D03*
D11*
G36*
X231577691Y-101376053D02*
G01*
X231598926Y-101379203D01*
X231619750Y-101384419D01*
X231639962Y-101391651D01*
X231659368Y-101400830D01*
X231677781Y-101411866D01*
X231695024Y-101424654D01*
X231710930Y-101439070D01*
X231725346Y-101454976D01*
X231738134Y-101472219D01*
X231749170Y-101490632D01*
X231758349Y-101510038D01*
X231765581Y-101530250D01*
X231770797Y-101551074D01*
X231773947Y-101572309D01*
X231775000Y-101593750D01*
X231775000Y-102031250D01*
X231773947Y-102052691D01*
X231770797Y-102073926D01*
X231765581Y-102094750D01*
X231758349Y-102114962D01*
X231749170Y-102134368D01*
X231738134Y-102152781D01*
X231725346Y-102170024D01*
X231710930Y-102185930D01*
X231695024Y-102200346D01*
X231677781Y-102213134D01*
X231659368Y-102224170D01*
X231639962Y-102233349D01*
X231619750Y-102240581D01*
X231598926Y-102245797D01*
X231577691Y-102248947D01*
X231556250Y-102250000D01*
X231043750Y-102250000D01*
X231022309Y-102248947D01*
X231001074Y-102245797D01*
X230980250Y-102240581D01*
X230960038Y-102233349D01*
X230940632Y-102224170D01*
X230922219Y-102213134D01*
X230904976Y-102200346D01*
X230889070Y-102185930D01*
X230874654Y-102170024D01*
X230861866Y-102152781D01*
X230850830Y-102134368D01*
X230841651Y-102114962D01*
X230834419Y-102094750D01*
X230829203Y-102073926D01*
X230826053Y-102052691D01*
X230825000Y-102031250D01*
X230825000Y-101593750D01*
X230826053Y-101572309D01*
X230829203Y-101551074D01*
X230834419Y-101530250D01*
X230841651Y-101510038D01*
X230850830Y-101490632D01*
X230861866Y-101472219D01*
X230874654Y-101454976D01*
X230889070Y-101439070D01*
X230904976Y-101424654D01*
X230922219Y-101411866D01*
X230940632Y-101400830D01*
X230960038Y-101391651D01*
X230980250Y-101384419D01*
X231001074Y-101379203D01*
X231022309Y-101376053D01*
X231043750Y-101375000D01*
X231556250Y-101375000D01*
X231577691Y-101376053D01*
X231577691Y-101376053D01*
G37*
D14*
X231300000Y-101812500D03*
D11*
G36*
X231577691Y-102951053D02*
G01*
X231598926Y-102954203D01*
X231619750Y-102959419D01*
X231639962Y-102966651D01*
X231659368Y-102975830D01*
X231677781Y-102986866D01*
X231695024Y-102999654D01*
X231710930Y-103014070D01*
X231725346Y-103029976D01*
X231738134Y-103047219D01*
X231749170Y-103065632D01*
X231758349Y-103085038D01*
X231765581Y-103105250D01*
X231770797Y-103126074D01*
X231773947Y-103147309D01*
X231775000Y-103168750D01*
X231775000Y-103606250D01*
X231773947Y-103627691D01*
X231770797Y-103648926D01*
X231765581Y-103669750D01*
X231758349Y-103689962D01*
X231749170Y-103709368D01*
X231738134Y-103727781D01*
X231725346Y-103745024D01*
X231710930Y-103760930D01*
X231695024Y-103775346D01*
X231677781Y-103788134D01*
X231659368Y-103799170D01*
X231639962Y-103808349D01*
X231619750Y-103815581D01*
X231598926Y-103820797D01*
X231577691Y-103823947D01*
X231556250Y-103825000D01*
X231043750Y-103825000D01*
X231022309Y-103823947D01*
X231001074Y-103820797D01*
X230980250Y-103815581D01*
X230960038Y-103808349D01*
X230940632Y-103799170D01*
X230922219Y-103788134D01*
X230904976Y-103775346D01*
X230889070Y-103760930D01*
X230874654Y-103745024D01*
X230861866Y-103727781D01*
X230850830Y-103709368D01*
X230841651Y-103689962D01*
X230834419Y-103669750D01*
X230829203Y-103648926D01*
X230826053Y-103627691D01*
X230825000Y-103606250D01*
X230825000Y-103168750D01*
X230826053Y-103147309D01*
X230829203Y-103126074D01*
X230834419Y-103105250D01*
X230841651Y-103085038D01*
X230850830Y-103065632D01*
X230861866Y-103047219D01*
X230874654Y-103029976D01*
X230889070Y-103014070D01*
X230904976Y-102999654D01*
X230922219Y-102986866D01*
X230940632Y-102975830D01*
X230960038Y-102966651D01*
X230980250Y-102959419D01*
X231001074Y-102954203D01*
X231022309Y-102951053D01*
X231043750Y-102950000D01*
X231556250Y-102950000D01*
X231577691Y-102951053D01*
X231577691Y-102951053D01*
G37*
D14*
X231300000Y-103387500D03*
D11*
G36*
X251030142Y-106976174D02*
G01*
X251053803Y-106979684D01*
X251077007Y-106985496D01*
X251099529Y-106993554D01*
X251121153Y-107003782D01*
X251141670Y-107016079D01*
X251160883Y-107030329D01*
X251178607Y-107046393D01*
X251194671Y-107064117D01*
X251208921Y-107083330D01*
X251221218Y-107103847D01*
X251231446Y-107125471D01*
X251239504Y-107147993D01*
X251245316Y-107171197D01*
X251248826Y-107194858D01*
X251250000Y-107218750D01*
X251250000Y-107706250D01*
X251248826Y-107730142D01*
X251245316Y-107753803D01*
X251239504Y-107777007D01*
X251231446Y-107799529D01*
X251221218Y-107821153D01*
X251208921Y-107841670D01*
X251194671Y-107860883D01*
X251178607Y-107878607D01*
X251160883Y-107894671D01*
X251141670Y-107908921D01*
X251121153Y-107921218D01*
X251099529Y-107931446D01*
X251077007Y-107939504D01*
X251053803Y-107945316D01*
X251030142Y-107948826D01*
X251006250Y-107950000D01*
X250093750Y-107950000D01*
X250069858Y-107948826D01*
X250046197Y-107945316D01*
X250022993Y-107939504D01*
X250000471Y-107931446D01*
X249978847Y-107921218D01*
X249958330Y-107908921D01*
X249939117Y-107894671D01*
X249921393Y-107878607D01*
X249905329Y-107860883D01*
X249891079Y-107841670D01*
X249878782Y-107821153D01*
X249868554Y-107799529D01*
X249860496Y-107777007D01*
X249854684Y-107753803D01*
X249851174Y-107730142D01*
X249850000Y-107706250D01*
X249850000Y-107218750D01*
X249851174Y-107194858D01*
X249854684Y-107171197D01*
X249860496Y-107147993D01*
X249868554Y-107125471D01*
X249878782Y-107103847D01*
X249891079Y-107083330D01*
X249905329Y-107064117D01*
X249921393Y-107046393D01*
X249939117Y-107030329D01*
X249958330Y-107016079D01*
X249978847Y-107003782D01*
X250000471Y-106993554D01*
X250022993Y-106985496D01*
X250046197Y-106979684D01*
X250069858Y-106976174D01*
X250093750Y-106975000D01*
X251006250Y-106975000D01*
X251030142Y-106976174D01*
X251030142Y-106976174D01*
G37*
D15*
X250550000Y-107462500D03*
D11*
G36*
X251030142Y-108851174D02*
G01*
X251053803Y-108854684D01*
X251077007Y-108860496D01*
X251099529Y-108868554D01*
X251121153Y-108878782D01*
X251141670Y-108891079D01*
X251160883Y-108905329D01*
X251178607Y-108921393D01*
X251194671Y-108939117D01*
X251208921Y-108958330D01*
X251221218Y-108978847D01*
X251231446Y-109000471D01*
X251239504Y-109022993D01*
X251245316Y-109046197D01*
X251248826Y-109069858D01*
X251250000Y-109093750D01*
X251250000Y-109581250D01*
X251248826Y-109605142D01*
X251245316Y-109628803D01*
X251239504Y-109652007D01*
X251231446Y-109674529D01*
X251221218Y-109696153D01*
X251208921Y-109716670D01*
X251194671Y-109735883D01*
X251178607Y-109753607D01*
X251160883Y-109769671D01*
X251141670Y-109783921D01*
X251121153Y-109796218D01*
X251099529Y-109806446D01*
X251077007Y-109814504D01*
X251053803Y-109820316D01*
X251030142Y-109823826D01*
X251006250Y-109825000D01*
X250093750Y-109825000D01*
X250069858Y-109823826D01*
X250046197Y-109820316D01*
X250022993Y-109814504D01*
X250000471Y-109806446D01*
X249978847Y-109796218D01*
X249958330Y-109783921D01*
X249939117Y-109769671D01*
X249921393Y-109753607D01*
X249905329Y-109735883D01*
X249891079Y-109716670D01*
X249878782Y-109696153D01*
X249868554Y-109674529D01*
X249860496Y-109652007D01*
X249854684Y-109628803D01*
X249851174Y-109605142D01*
X249850000Y-109581250D01*
X249850000Y-109093750D01*
X249851174Y-109069858D01*
X249854684Y-109046197D01*
X249860496Y-109022993D01*
X249868554Y-109000471D01*
X249878782Y-108978847D01*
X249891079Y-108958330D01*
X249905329Y-108939117D01*
X249921393Y-108921393D01*
X249939117Y-108905329D01*
X249958330Y-108891079D01*
X249978847Y-108878782D01*
X250000471Y-108868554D01*
X250022993Y-108860496D01*
X250046197Y-108854684D01*
X250069858Y-108851174D01*
X250093750Y-108850000D01*
X251006250Y-108850000D01*
X251030142Y-108851174D01*
X251030142Y-108851174D01*
G37*
D15*
X250550000Y-109337500D03*
D11*
G36*
X247380142Y-106988674D02*
G01*
X247403803Y-106992184D01*
X247427007Y-106997996D01*
X247449529Y-107006054D01*
X247471153Y-107016282D01*
X247491670Y-107028579D01*
X247510883Y-107042829D01*
X247528607Y-107058893D01*
X247544671Y-107076617D01*
X247558921Y-107095830D01*
X247571218Y-107116347D01*
X247581446Y-107137971D01*
X247589504Y-107160493D01*
X247595316Y-107183697D01*
X247598826Y-107207358D01*
X247600000Y-107231250D01*
X247600000Y-107718750D01*
X247598826Y-107742642D01*
X247595316Y-107766303D01*
X247589504Y-107789507D01*
X247581446Y-107812029D01*
X247571218Y-107833653D01*
X247558921Y-107854170D01*
X247544671Y-107873383D01*
X247528607Y-107891107D01*
X247510883Y-107907171D01*
X247491670Y-107921421D01*
X247471153Y-107933718D01*
X247449529Y-107943946D01*
X247427007Y-107952004D01*
X247403803Y-107957816D01*
X247380142Y-107961326D01*
X247356250Y-107962500D01*
X246443750Y-107962500D01*
X246419858Y-107961326D01*
X246396197Y-107957816D01*
X246372993Y-107952004D01*
X246350471Y-107943946D01*
X246328847Y-107933718D01*
X246308330Y-107921421D01*
X246289117Y-107907171D01*
X246271393Y-107891107D01*
X246255329Y-107873383D01*
X246241079Y-107854170D01*
X246228782Y-107833653D01*
X246218554Y-107812029D01*
X246210496Y-107789507D01*
X246204684Y-107766303D01*
X246201174Y-107742642D01*
X246200000Y-107718750D01*
X246200000Y-107231250D01*
X246201174Y-107207358D01*
X246204684Y-107183697D01*
X246210496Y-107160493D01*
X246218554Y-107137971D01*
X246228782Y-107116347D01*
X246241079Y-107095830D01*
X246255329Y-107076617D01*
X246271393Y-107058893D01*
X246289117Y-107042829D01*
X246308330Y-107028579D01*
X246328847Y-107016282D01*
X246350471Y-107006054D01*
X246372993Y-106997996D01*
X246396197Y-106992184D01*
X246419858Y-106988674D01*
X246443750Y-106987500D01*
X247356250Y-106987500D01*
X247380142Y-106988674D01*
X247380142Y-106988674D01*
G37*
D15*
X246900000Y-107475000D03*
D11*
G36*
X247380142Y-108863674D02*
G01*
X247403803Y-108867184D01*
X247427007Y-108872996D01*
X247449529Y-108881054D01*
X247471153Y-108891282D01*
X247491670Y-108903579D01*
X247510883Y-108917829D01*
X247528607Y-108933893D01*
X247544671Y-108951617D01*
X247558921Y-108970830D01*
X247571218Y-108991347D01*
X247581446Y-109012971D01*
X247589504Y-109035493D01*
X247595316Y-109058697D01*
X247598826Y-109082358D01*
X247600000Y-109106250D01*
X247600000Y-109593750D01*
X247598826Y-109617642D01*
X247595316Y-109641303D01*
X247589504Y-109664507D01*
X247581446Y-109687029D01*
X247571218Y-109708653D01*
X247558921Y-109729170D01*
X247544671Y-109748383D01*
X247528607Y-109766107D01*
X247510883Y-109782171D01*
X247491670Y-109796421D01*
X247471153Y-109808718D01*
X247449529Y-109818946D01*
X247427007Y-109827004D01*
X247403803Y-109832816D01*
X247380142Y-109836326D01*
X247356250Y-109837500D01*
X246443750Y-109837500D01*
X246419858Y-109836326D01*
X246396197Y-109832816D01*
X246372993Y-109827004D01*
X246350471Y-109818946D01*
X246328847Y-109808718D01*
X246308330Y-109796421D01*
X246289117Y-109782171D01*
X246271393Y-109766107D01*
X246255329Y-109748383D01*
X246241079Y-109729170D01*
X246228782Y-109708653D01*
X246218554Y-109687029D01*
X246210496Y-109664507D01*
X246204684Y-109641303D01*
X246201174Y-109617642D01*
X246200000Y-109593750D01*
X246200000Y-109106250D01*
X246201174Y-109082358D01*
X246204684Y-109058697D01*
X246210496Y-109035493D01*
X246218554Y-109012971D01*
X246228782Y-108991347D01*
X246241079Y-108970830D01*
X246255329Y-108951617D01*
X246271393Y-108933893D01*
X246289117Y-108917829D01*
X246308330Y-108903579D01*
X246328847Y-108891282D01*
X246350471Y-108881054D01*
X246372993Y-108872996D01*
X246396197Y-108867184D01*
X246419858Y-108863674D01*
X246443750Y-108862500D01*
X247356250Y-108862500D01*
X247380142Y-108863674D01*
X247380142Y-108863674D01*
G37*
D15*
X246900000Y-109350000D03*
D12*
X223400000Y-104250000D03*
X220600000Y-104250000D03*
X223400000Y-105750000D03*
X220600000Y-105750000D03*
D10*
X240520280Y-114459619D03*
D11*
G36*
X240732412Y-115449568D02*
G01*
X239530331Y-114247487D01*
X240308148Y-113469670D01*
X241510229Y-114671751D01*
X240732412Y-115449568D01*
X240732412Y-115449568D01*
G37*
D10*
X238540381Y-112479720D03*
D11*
G36*
X238752513Y-113469669D02*
G01*
X237550432Y-112267588D01*
X238328249Y-111489771D01*
X239530330Y-112691852D01*
X238752513Y-113469669D01*
X238752513Y-113469669D01*
G37*
D10*
X239459619Y-115520280D03*
D11*
G36*
X239671751Y-116510229D02*
G01*
X238469670Y-115308148D01*
X239247487Y-114530331D01*
X240449568Y-115732412D01*
X239671751Y-116510229D01*
X239671751Y-116510229D01*
G37*
D10*
X237479720Y-113540381D03*
D11*
G36*
X237691852Y-114530330D02*
G01*
X236489771Y-113328249D01*
X237267588Y-112550432D01*
X238469669Y-113752513D01*
X237691852Y-114530330D01*
X237691852Y-114530330D01*
G37*
G36*
X229977691Y-102951053D02*
G01*
X229998926Y-102954203D01*
X230019750Y-102959419D01*
X230039962Y-102966651D01*
X230059368Y-102975830D01*
X230077781Y-102986866D01*
X230095024Y-102999654D01*
X230110930Y-103014070D01*
X230125346Y-103029976D01*
X230138134Y-103047219D01*
X230149170Y-103065632D01*
X230158349Y-103085038D01*
X230165581Y-103105250D01*
X230170797Y-103126074D01*
X230173947Y-103147309D01*
X230175000Y-103168750D01*
X230175000Y-103606250D01*
X230173947Y-103627691D01*
X230170797Y-103648926D01*
X230165581Y-103669750D01*
X230158349Y-103689962D01*
X230149170Y-103709368D01*
X230138134Y-103727781D01*
X230125346Y-103745024D01*
X230110930Y-103760930D01*
X230095024Y-103775346D01*
X230077781Y-103788134D01*
X230059368Y-103799170D01*
X230039962Y-103808349D01*
X230019750Y-103815581D01*
X229998926Y-103820797D01*
X229977691Y-103823947D01*
X229956250Y-103825000D01*
X229443750Y-103825000D01*
X229422309Y-103823947D01*
X229401074Y-103820797D01*
X229380250Y-103815581D01*
X229360038Y-103808349D01*
X229340632Y-103799170D01*
X229322219Y-103788134D01*
X229304976Y-103775346D01*
X229289070Y-103760930D01*
X229274654Y-103745024D01*
X229261866Y-103727781D01*
X229250830Y-103709368D01*
X229241651Y-103689962D01*
X229234419Y-103669750D01*
X229229203Y-103648926D01*
X229226053Y-103627691D01*
X229225000Y-103606250D01*
X229225000Y-103168750D01*
X229226053Y-103147309D01*
X229229203Y-103126074D01*
X229234419Y-103105250D01*
X229241651Y-103085038D01*
X229250830Y-103065632D01*
X229261866Y-103047219D01*
X229274654Y-103029976D01*
X229289070Y-103014070D01*
X229304976Y-102999654D01*
X229322219Y-102986866D01*
X229340632Y-102975830D01*
X229360038Y-102966651D01*
X229380250Y-102959419D01*
X229401074Y-102954203D01*
X229422309Y-102951053D01*
X229443750Y-102950000D01*
X229956250Y-102950000D01*
X229977691Y-102951053D01*
X229977691Y-102951053D01*
G37*
D14*
X229700000Y-103387500D03*
D11*
G36*
X229977691Y-101376053D02*
G01*
X229998926Y-101379203D01*
X230019750Y-101384419D01*
X230039962Y-101391651D01*
X230059368Y-101400830D01*
X230077781Y-101411866D01*
X230095024Y-101424654D01*
X230110930Y-101439070D01*
X230125346Y-101454976D01*
X230138134Y-101472219D01*
X230149170Y-101490632D01*
X230158349Y-101510038D01*
X230165581Y-101530250D01*
X230170797Y-101551074D01*
X230173947Y-101572309D01*
X230175000Y-101593750D01*
X230175000Y-102031250D01*
X230173947Y-102052691D01*
X230170797Y-102073926D01*
X230165581Y-102094750D01*
X230158349Y-102114962D01*
X230149170Y-102134368D01*
X230138134Y-102152781D01*
X230125346Y-102170024D01*
X230110930Y-102185930D01*
X230095024Y-102200346D01*
X230077781Y-102213134D01*
X230059368Y-102224170D01*
X230039962Y-102233349D01*
X230019750Y-102240581D01*
X229998926Y-102245797D01*
X229977691Y-102248947D01*
X229956250Y-102250000D01*
X229443750Y-102250000D01*
X229422309Y-102248947D01*
X229401074Y-102245797D01*
X229380250Y-102240581D01*
X229360038Y-102233349D01*
X229340632Y-102224170D01*
X229322219Y-102213134D01*
X229304976Y-102200346D01*
X229289070Y-102185930D01*
X229274654Y-102170024D01*
X229261866Y-102152781D01*
X229250830Y-102134368D01*
X229241651Y-102114962D01*
X229234419Y-102094750D01*
X229229203Y-102073926D01*
X229226053Y-102052691D01*
X229225000Y-102031250D01*
X229225000Y-101593750D01*
X229226053Y-101572309D01*
X229229203Y-101551074D01*
X229234419Y-101530250D01*
X229241651Y-101510038D01*
X229250830Y-101490632D01*
X229261866Y-101472219D01*
X229274654Y-101454976D01*
X229289070Y-101439070D01*
X229304976Y-101424654D01*
X229322219Y-101411866D01*
X229340632Y-101400830D01*
X229360038Y-101391651D01*
X229380250Y-101384419D01*
X229401074Y-101379203D01*
X229422309Y-101376053D01*
X229443750Y-101375000D01*
X229956250Y-101375000D01*
X229977691Y-101376053D01*
X229977691Y-101376053D01*
G37*
D14*
X229700000Y-101812500D03*
M02*
