M48
; DRILL file {KiCad (5.1.2)-1} date 20/05/2019 14:19:19
; FORMAT={-:-/ absolute / metric / decimal}
; #@! TF.CreationDate,2019-05-20T14:19:19+10:00
; #@! TF.GenerationSoftware,Kicad,Pcbnew,(5.1.2)-1
FMAT,2
METRIC
T1C0.300
T2C1.000
T3C2.200
T4C2.700
%
G90
G05
T1
X207.4Y-148.1
X210.0Y-105.0
X219.4Y-148.3
X227.0Y-105.1
X227.0Y-108.6
X229.0Y-109.5
X229.7Y-100.85
X229.7Y-104.3
X230.0Y-108.4
X231.3Y-108.2
X231.3Y-100.85
X231.3Y-104.3
X231.9Y-112.0
X234.0Y-109.8
X234.303Y-112.691
X234.492Y-101.325
X235.6Y-111.5
X238.5Y-105.7
X240.0Y-145.0
X250.0Y-120.0
X250.0Y-130.0
X250.0Y-140.0
X250.55Y-110.25
X260.0Y-105.0
X260.0Y-115.0
X260.0Y-125.0
X260.0Y-135.0
T2
X208.37Y-96.23
X208.37Y-98.77
X210.91Y-96.23
X210.91Y-98.77
X213.45Y-96.23
X213.45Y-98.77
X215.99Y-96.23
X215.99Y-98.77
X218.53Y-96.23
X218.53Y-98.77
X221.07Y-96.23
X221.07Y-98.77
X223.61Y-96.23
X223.61Y-98.77
X226.15Y-96.23
X226.15Y-98.77
X228.69Y-96.23
X228.69Y-98.77
X231.23Y-96.23
X231.23Y-98.77
X233.77Y-96.23
X233.77Y-98.77
X236.31Y-96.23
X236.31Y-98.77
X238.85Y-96.23
X238.85Y-98.77
X241.39Y-96.23
X241.39Y-98.77
X243.93Y-96.23
X243.93Y-98.77
X246.47Y-96.23
X246.47Y-98.77
X249.01Y-96.23
X249.01Y-98.77
X251.55Y-96.23
X251.55Y-98.77
X254.09Y-96.23
X254.09Y-98.77
X256.63Y-96.23
X256.63Y-98.77
T3
X219.5Y-116.0
X219.5Y-137.0
X232.0Y-116.0
X232.0Y-137.0
T4
X203.5Y-97.5
X203.5Y-146.5
X261.5Y-146.5
X261.5Y-97.5
T0
M30
