G04 #@! TF.GenerationSoftware,KiCad,Pcbnew,(5.1.2)-1*
G04 #@! TF.CreationDate,2019-05-20T14:19:16+10:00*
G04 #@! TF.ProjectId,VeinCamHat,5665696e-4361-46d4-9861-742e6b696361,rev?*
G04 #@! TF.SameCoordinates,Original*
G04 #@! TF.FileFunction,Legend,Top*
G04 #@! TF.FilePolarity,Positive*
%FSLAX46Y46*%
G04 Gerber Fmt 4.6, Leading zero omitted, Abs format (unit mm)*
G04 Created by KiCad (PCBNEW (5.1.2)-1) date 2019-05-20 14:19:16*
%MOMM*%
%LPD*%
G04 APERTURE LIST*
%ADD10C,0.120000*%
%ADD11C,0.400000*%
%ADD12C,0.200000*%
%ADD13C,0.150000*%
G04 APERTURE END LIST*
D10*
X258428571Y-117542857D02*
X258961904Y-117352380D01*
X258428571Y-117161904D01*
X258161904Y-116704761D02*
X258161904Y-116628571D01*
X258200000Y-116552380D01*
X258238095Y-116514285D01*
X258314285Y-116476190D01*
X258466666Y-116438095D01*
X258657142Y-116438095D01*
X258809523Y-116476190D01*
X258885714Y-116514285D01*
X258923809Y-116552380D01*
X258961904Y-116628571D01*
X258961904Y-116704761D01*
X258923809Y-116780952D01*
X258885714Y-116819047D01*
X258809523Y-116857142D01*
X258657142Y-116895238D01*
X258466666Y-116895238D01*
X258314285Y-116857142D01*
X258238095Y-116819047D01*
X258200000Y-116780952D01*
X258161904Y-116704761D01*
X258885714Y-116095238D02*
X258923809Y-116057142D01*
X258961904Y-116095238D01*
X258923809Y-116133333D01*
X258885714Y-116095238D01*
X258961904Y-116095238D01*
X258161904Y-115790476D02*
X258161904Y-115295238D01*
X258466666Y-115561904D01*
X258466666Y-115447619D01*
X258504761Y-115371428D01*
X258542857Y-115333333D01*
X258619047Y-115295238D01*
X258809523Y-115295238D01*
X258885714Y-115333333D01*
X258923809Y-115371428D01*
X258961904Y-115447619D01*
X258961904Y-115676190D01*
X258923809Y-115752380D01*
X258885714Y-115790476D01*
D11*
X254757142Y-133414285D02*
X257757142Y-132414285D01*
X254757142Y-131414285D01*
X257614285Y-129271428D02*
X257757142Y-129557142D01*
X257757142Y-130128571D01*
X257614285Y-130414285D01*
X257328571Y-130557142D01*
X256185714Y-130557142D01*
X255900000Y-130414285D01*
X255757142Y-130128571D01*
X255757142Y-129557142D01*
X255900000Y-129271428D01*
X256185714Y-129128571D01*
X256471428Y-129128571D01*
X256757142Y-130557142D01*
X257757142Y-127842857D02*
X255757142Y-127842857D01*
X254757142Y-127842857D02*
X254900000Y-127985714D01*
X255042857Y-127842857D01*
X254900000Y-127700000D01*
X254757142Y-127842857D01*
X255042857Y-127842857D01*
X255757142Y-126414285D02*
X257757142Y-126414285D01*
X256042857Y-126414285D02*
X255900000Y-126271428D01*
X255757142Y-125985714D01*
X255757142Y-125557142D01*
X255900000Y-125271428D01*
X256185714Y-125128571D01*
X257757142Y-125128571D01*
X257471428Y-121985714D02*
X257614285Y-122128571D01*
X257757142Y-122557142D01*
X257757142Y-122842857D01*
X257614285Y-123271428D01*
X257328571Y-123557142D01*
X257042857Y-123700000D01*
X256471428Y-123842857D01*
X256042857Y-123842857D01*
X255471428Y-123700000D01*
X255185714Y-123557142D01*
X254900000Y-123271428D01*
X254757142Y-122842857D01*
X254757142Y-122557142D01*
X254900000Y-122128571D01*
X255042857Y-121985714D01*
X257757142Y-119414285D02*
X256185714Y-119414285D01*
X255900000Y-119557142D01*
X255757142Y-119842857D01*
X255757142Y-120414285D01*
X255900000Y-120700000D01*
X257614285Y-119414285D02*
X257757142Y-119700000D01*
X257757142Y-120414285D01*
X257614285Y-120700000D01*
X257328571Y-120842857D01*
X257042857Y-120842857D01*
X256757142Y-120700000D01*
X256614285Y-120414285D01*
X256614285Y-119700000D01*
X256471428Y-119414285D01*
X257757142Y-117985714D02*
X255757142Y-117985714D01*
X256042857Y-117985714D02*
X255900000Y-117842857D01*
X255757142Y-117557142D01*
X255757142Y-117128571D01*
X255900000Y-116842857D01*
X256185714Y-116700000D01*
X257757142Y-116700000D01*
X256185714Y-116700000D02*
X255900000Y-116557142D01*
X255757142Y-116271428D01*
X255757142Y-115842857D01*
X255900000Y-115557142D01*
X256185714Y-115414285D01*
X257757142Y-115414285D01*
D12*
X246967857Y-116060714D02*
X247039285Y-115846428D01*
X247110714Y-115775000D01*
X247253571Y-115703571D01*
X247467857Y-115703571D01*
X247610714Y-115775000D01*
X247682142Y-115846428D01*
X247753571Y-115989285D01*
X247753571Y-116560714D01*
X246253571Y-116560714D01*
X246253571Y-116060714D01*
X246325000Y-115917857D01*
X246396428Y-115846428D01*
X246539285Y-115775000D01*
X246682142Y-115775000D01*
X246825000Y-115846428D01*
X246896428Y-115917857D01*
X246967857Y-116060714D01*
X246967857Y-116560714D01*
X246253571Y-114775000D02*
X246253571Y-114489285D01*
X246325000Y-114346428D01*
X246467857Y-114203571D01*
X246753571Y-114132142D01*
X247253571Y-114132142D01*
X247539285Y-114203571D01*
X247682142Y-114346428D01*
X247753571Y-114489285D01*
X247753571Y-114775000D01*
X247682142Y-114917857D01*
X247539285Y-115060714D01*
X247253571Y-115132142D01*
X246753571Y-115132142D01*
X246467857Y-115060714D01*
X246325000Y-114917857D01*
X246253571Y-114775000D01*
X246253571Y-113203571D02*
X246253571Y-112917857D01*
X246325000Y-112775000D01*
X246467857Y-112632142D01*
X246753571Y-112560714D01*
X247253571Y-112560714D01*
X247539285Y-112632142D01*
X247682142Y-112775000D01*
X247753571Y-112917857D01*
X247753571Y-113203571D01*
X247682142Y-113346428D01*
X247539285Y-113489285D01*
X247253571Y-113560714D01*
X246753571Y-113560714D01*
X246467857Y-113489285D01*
X246325000Y-113346428D01*
X246253571Y-113203571D01*
X246253571Y-112132142D02*
X246253571Y-111275000D01*
X247753571Y-111703571D02*
X246253571Y-111703571D01*
X251278571Y-116700000D02*
X250564285Y-117200000D01*
X251278571Y-117557142D02*
X249778571Y-117557142D01*
X249778571Y-116985714D01*
X249850000Y-116842857D01*
X249921428Y-116771428D01*
X250064285Y-116700000D01*
X250278571Y-116700000D01*
X250421428Y-116771428D01*
X250492857Y-116842857D01*
X250564285Y-116985714D01*
X250564285Y-117557142D01*
X250492857Y-116057142D02*
X250492857Y-115557142D01*
X251278571Y-115342857D02*
X251278571Y-116057142D01*
X249778571Y-116057142D01*
X249778571Y-115342857D01*
X250850000Y-114771428D02*
X250850000Y-114057142D01*
X251278571Y-114914285D02*
X249778571Y-114414285D01*
X251278571Y-113914285D01*
X251278571Y-113414285D02*
X249778571Y-113414285D01*
X249778571Y-113057142D01*
X249850000Y-112842857D01*
X249992857Y-112700000D01*
X250135714Y-112628571D01*
X250421428Y-112557142D01*
X250635714Y-112557142D01*
X250921428Y-112628571D01*
X251064285Y-112700000D01*
X251207142Y-112842857D01*
X251278571Y-113057142D01*
X251278571Y-113414285D01*
X250564285Y-111628571D02*
X251278571Y-111628571D01*
X249778571Y-112128571D02*
X250564285Y-111628571D01*
X249778571Y-111128571D01*
D13*
X206237437Y-137651650D02*
X205106066Y-137651650D01*
X205106066Y-137651650D02*
X201782664Y-134328249D01*
X201782664Y-134328249D02*
X204328249Y-131782664D01*
X204328249Y-131782664D02*
X208217336Y-135671751D01*
X208217336Y-135671751D02*
X206237437Y-137651650D01*
X224750000Y-143200000D02*
X224750000Y-146000000D01*
X219250000Y-143200000D02*
X224750000Y-143200000D01*
X219250000Y-146800000D02*
X219250000Y-143200000D01*
X223950000Y-146800000D02*
X219250000Y-146800000D01*
X224750000Y-146000000D02*
X223950000Y-146800000D01*
X205671751Y-110782664D02*
X207651650Y-112762563D01*
X201782664Y-114671751D02*
X205671751Y-110782664D01*
X204328249Y-117217336D02*
X201782664Y-114671751D01*
X207651650Y-113893934D02*
X204328249Y-117217336D01*
X207651650Y-112762563D02*
X207651650Y-113893934D01*
X241651650Y-133762563D02*
X241651650Y-134893934D01*
X241651650Y-134893934D02*
X238328249Y-138217336D01*
X238328249Y-138217336D02*
X235782664Y-135671751D01*
X235782664Y-135671751D02*
X239671751Y-131782664D01*
X239671751Y-131782664D02*
X241651650Y-133762563D01*
D10*
X231600000Y-109040000D02*
X229700000Y-109040000D01*
X230200000Y-111360000D02*
X231600000Y-111360000D01*
X251047500Y-105362779D02*
X251047500Y-105037221D01*
X250027500Y-105362779D02*
X250027500Y-105037221D01*
X247410000Y-104987221D02*
X247410000Y-105312779D01*
X246390000Y-104987221D02*
X246390000Y-105312779D01*
X211037221Y-145710000D02*
X211362779Y-145710000D01*
X211037221Y-144690000D02*
X211362779Y-144690000D01*
X211037221Y-143090000D02*
X211362779Y-143090000D01*
X211037221Y-144110000D02*
X211362779Y-144110000D01*
X214462779Y-144690000D02*
X214137221Y-144690000D01*
X214462779Y-145710000D02*
X214137221Y-145710000D01*
X214462779Y-144110000D02*
X214137221Y-144110000D01*
X214462779Y-143090000D02*
X214137221Y-143090000D01*
X231810000Y-102762779D02*
X231810000Y-102437221D01*
X230790000Y-102762779D02*
X230790000Y-102437221D01*
X251510000Y-110085000D02*
X251510000Y-107400000D01*
X249590000Y-110085000D02*
X251510000Y-110085000D01*
X249590000Y-107400000D02*
X249590000Y-110085000D01*
X247860000Y-109412500D02*
X247860000Y-106727500D01*
X247860000Y-106727500D02*
X245940000Y-106727500D01*
X245940000Y-106727500D02*
X245940000Y-109412500D01*
D13*
X219250000Y-104000000D02*
X220050000Y-103200000D01*
X220050000Y-103200000D02*
X224750000Y-103200000D01*
X224750000Y-103200000D02*
X224750000Y-106800000D01*
X224750000Y-106800000D02*
X219250000Y-106800000D01*
X219250000Y-106800000D02*
X219250000Y-104000000D01*
X242217336Y-114671751D02*
X240237437Y-116651650D01*
X238328249Y-110782664D02*
X242217336Y-114671751D01*
X235782664Y-113328249D02*
X238328249Y-110782664D01*
X239106066Y-116651650D02*
X235782664Y-113328249D01*
X240237437Y-116651650D02*
X239106066Y-116651650D01*
D10*
X229190000Y-102762779D02*
X229190000Y-102437221D01*
X230210000Y-102762779D02*
X230210000Y-102437221D01*
D13*
X202178307Y-136777868D02*
X202885413Y-136070761D01*
X203053772Y-136239120D01*
X203121116Y-136373807D01*
X203121116Y-136508494D01*
X203087444Y-136609509D01*
X202986429Y-136777868D01*
X202885413Y-136878883D01*
X202717055Y-136979899D01*
X202616039Y-137013570D01*
X202481352Y-137013570D01*
X202346665Y-136946227D01*
X202178307Y-136777868D01*
X203525177Y-136710524D02*
X203962910Y-137148257D01*
X203457833Y-137181929D01*
X203558849Y-137282944D01*
X203592520Y-137383960D01*
X203592520Y-137451303D01*
X203558849Y-137552318D01*
X203390490Y-137720677D01*
X203289475Y-137754349D01*
X203222131Y-137754349D01*
X203121116Y-137720677D01*
X202919085Y-137518647D01*
X202885413Y-137417631D01*
X202885413Y-137350288D01*
X221261904Y-148252380D02*
X221261904Y-147252380D01*
X221500000Y-147252380D01*
X221642857Y-147300000D01*
X221738095Y-147395238D01*
X221785714Y-147490476D01*
X221833333Y-147680952D01*
X221833333Y-147823809D01*
X221785714Y-148014285D01*
X221738095Y-148109523D01*
X221642857Y-148204761D01*
X221500000Y-148252380D01*
X221261904Y-148252380D01*
X222690476Y-147585714D02*
X222690476Y-148252380D01*
X222452380Y-147204761D02*
X222214285Y-147919047D01*
X222833333Y-147919047D01*
X206777868Y-116821692D02*
X206070761Y-116114586D01*
X206239120Y-115946227D01*
X206373807Y-115878883D01*
X206508494Y-115878883D01*
X206609509Y-115912555D01*
X206777868Y-116013570D01*
X206878883Y-116114586D01*
X206979899Y-116282944D01*
X207013570Y-116383960D01*
X207013570Y-116518647D01*
X206946227Y-116653334D01*
X206777868Y-116821692D01*
X207114586Y-115070761D02*
X206777868Y-115407479D01*
X207080914Y-115777868D01*
X207080914Y-115710524D01*
X207114586Y-115609509D01*
X207282944Y-115441150D01*
X207383960Y-115407479D01*
X207451303Y-115407479D01*
X207552318Y-115441150D01*
X207720677Y-115609509D01*
X207754349Y-115710524D01*
X207754349Y-115777868D01*
X207720677Y-115878883D01*
X207552318Y-116047242D01*
X207451303Y-116080914D01*
X207383960Y-116080914D01*
X240777868Y-137821692D02*
X240070761Y-137114586D01*
X240239120Y-136946227D01*
X240373807Y-136878883D01*
X240508494Y-136878883D01*
X240609509Y-136912555D01*
X240777868Y-137013570D01*
X240878883Y-137114586D01*
X240979899Y-137282944D01*
X241013570Y-137383960D01*
X241013570Y-137518647D01*
X240946227Y-137653334D01*
X240777868Y-137821692D01*
X241080914Y-136104433D02*
X240946227Y-136239120D01*
X240912555Y-136340135D01*
X240912555Y-136407479D01*
X240946227Y-136575837D01*
X241047242Y-136744196D01*
X241316616Y-137013570D01*
X241417631Y-137047242D01*
X241484975Y-137047242D01*
X241585990Y-137013570D01*
X241720677Y-136878883D01*
X241754349Y-136777868D01*
X241754349Y-136710524D01*
X241720677Y-136609509D01*
X241552318Y-136441150D01*
X241451303Y-136407479D01*
X241383960Y-136407479D01*
X241282944Y-136441150D01*
X241148257Y-136575837D01*
X241114586Y-136676853D01*
X241114586Y-136744196D01*
X241148257Y-136845211D01*
X230804761Y-112847619D02*
X230709523Y-112800000D01*
X230614285Y-112704761D01*
X230471428Y-112561904D01*
X230376190Y-112514285D01*
X230280952Y-112514285D01*
X230328571Y-112752380D02*
X230233333Y-112704761D01*
X230138095Y-112609523D01*
X230090476Y-112419047D01*
X230090476Y-112085714D01*
X230138095Y-111895238D01*
X230233333Y-111800000D01*
X230328571Y-111752380D01*
X230519047Y-111752380D01*
X230614285Y-111800000D01*
X230709523Y-111895238D01*
X230757142Y-112085714D01*
X230757142Y-112419047D01*
X230709523Y-112609523D01*
X230614285Y-112704761D01*
X230519047Y-112752380D01*
X230328571Y-112752380D01*
X231709523Y-112752380D02*
X231138095Y-112752380D01*
X231423809Y-112752380D02*
X231423809Y-111752380D01*
X231328571Y-111895238D01*
X231233333Y-111990476D01*
X231138095Y-112038095D01*
X249402380Y-105366666D02*
X248926190Y-105700000D01*
X249402380Y-105938095D02*
X248402380Y-105938095D01*
X248402380Y-105557142D01*
X248450000Y-105461904D01*
X248497619Y-105414285D01*
X248592857Y-105366666D01*
X248735714Y-105366666D01*
X248830952Y-105414285D01*
X248878571Y-105461904D01*
X248926190Y-105557142D01*
X248926190Y-105938095D01*
X249402380Y-104414285D02*
X249402380Y-104985714D01*
X249402380Y-104700000D02*
X248402380Y-104700000D01*
X248545238Y-104795238D01*
X248640476Y-104890476D01*
X248688095Y-104985714D01*
X245702380Y-105316666D02*
X245226190Y-105650000D01*
X245702380Y-105888095D02*
X244702380Y-105888095D01*
X244702380Y-105507142D01*
X244750000Y-105411904D01*
X244797619Y-105364285D01*
X244892857Y-105316666D01*
X245035714Y-105316666D01*
X245130952Y-105364285D01*
X245178571Y-105411904D01*
X245226190Y-105507142D01*
X245226190Y-105888095D01*
X244797619Y-104935714D02*
X244750000Y-104888095D01*
X244702380Y-104792857D01*
X244702380Y-104554761D01*
X244750000Y-104459523D01*
X244797619Y-104411904D01*
X244892857Y-104364285D01*
X244988095Y-104364285D01*
X245130952Y-104411904D01*
X245702380Y-104983333D01*
X245702380Y-104364285D01*
X211033333Y-147152380D02*
X210700000Y-146676190D01*
X210461904Y-147152380D02*
X210461904Y-146152380D01*
X210842857Y-146152380D01*
X210938095Y-146200000D01*
X210985714Y-146247619D01*
X211033333Y-146342857D01*
X211033333Y-146485714D01*
X210985714Y-146580952D01*
X210938095Y-146628571D01*
X210842857Y-146676190D01*
X210461904Y-146676190D01*
X211366666Y-146152380D02*
X211985714Y-146152380D01*
X211652380Y-146533333D01*
X211795238Y-146533333D01*
X211890476Y-146580952D01*
X211938095Y-146628571D01*
X211985714Y-146723809D01*
X211985714Y-146961904D01*
X211938095Y-147057142D01*
X211890476Y-147104761D01*
X211795238Y-147152380D01*
X211509523Y-147152380D01*
X211414285Y-147104761D01*
X211366666Y-147057142D01*
X211033333Y-142622380D02*
X210700000Y-142146190D01*
X210461904Y-142622380D02*
X210461904Y-141622380D01*
X210842857Y-141622380D01*
X210938095Y-141670000D01*
X210985714Y-141717619D01*
X211033333Y-141812857D01*
X211033333Y-141955714D01*
X210985714Y-142050952D01*
X210938095Y-142098571D01*
X210842857Y-142146190D01*
X210461904Y-142146190D01*
X211890476Y-141955714D02*
X211890476Y-142622380D01*
X211652380Y-141574761D02*
X211414285Y-142289047D01*
X212033333Y-142289047D01*
X214133333Y-147082380D02*
X213800000Y-146606190D01*
X213561904Y-147082380D02*
X213561904Y-146082380D01*
X213942857Y-146082380D01*
X214038095Y-146130000D01*
X214085714Y-146177619D01*
X214133333Y-146272857D01*
X214133333Y-146415714D01*
X214085714Y-146510952D01*
X214038095Y-146558571D01*
X213942857Y-146606190D01*
X213561904Y-146606190D01*
X215038095Y-146082380D02*
X214561904Y-146082380D01*
X214514285Y-146558571D01*
X214561904Y-146510952D01*
X214657142Y-146463333D01*
X214895238Y-146463333D01*
X214990476Y-146510952D01*
X215038095Y-146558571D01*
X215085714Y-146653809D01*
X215085714Y-146891904D01*
X215038095Y-146987142D01*
X214990476Y-147034761D01*
X214895238Y-147082380D01*
X214657142Y-147082380D01*
X214561904Y-147034761D01*
X214514285Y-146987142D01*
X214133333Y-142652380D02*
X213800000Y-142176190D01*
X213561904Y-142652380D02*
X213561904Y-141652380D01*
X213942857Y-141652380D01*
X214038095Y-141700000D01*
X214085714Y-141747619D01*
X214133333Y-141842857D01*
X214133333Y-141985714D01*
X214085714Y-142080952D01*
X214038095Y-142128571D01*
X213942857Y-142176190D01*
X213561904Y-142176190D01*
X214990476Y-141652380D02*
X214800000Y-141652380D01*
X214704761Y-141700000D01*
X214657142Y-141747619D01*
X214561904Y-141890476D01*
X214514285Y-142080952D01*
X214514285Y-142461904D01*
X214561904Y-142557142D01*
X214609523Y-142604761D01*
X214704761Y-142652380D01*
X214895238Y-142652380D01*
X214990476Y-142604761D01*
X215038095Y-142557142D01*
X215085714Y-142461904D01*
X215085714Y-142223809D01*
X215038095Y-142128571D01*
X214990476Y-142080952D01*
X214895238Y-142033333D01*
X214704761Y-142033333D01*
X214609523Y-142080952D01*
X214561904Y-142128571D01*
X214514285Y-142223809D01*
X233252380Y-102766666D02*
X232776190Y-103100000D01*
X233252380Y-103338095D02*
X232252380Y-103338095D01*
X232252380Y-102957142D01*
X232300000Y-102861904D01*
X232347619Y-102814285D01*
X232442857Y-102766666D01*
X232585714Y-102766666D01*
X232680952Y-102814285D01*
X232728571Y-102861904D01*
X232776190Y-102957142D01*
X232776190Y-103338095D01*
X232680952Y-102195238D02*
X232633333Y-102290476D01*
X232585714Y-102338095D01*
X232490476Y-102385714D01*
X232442857Y-102385714D01*
X232347619Y-102338095D01*
X232300000Y-102290476D01*
X232252380Y-102195238D01*
X232252380Y-102004761D01*
X232300000Y-101909523D01*
X232347619Y-101861904D01*
X232442857Y-101814285D01*
X232490476Y-101814285D01*
X232585714Y-101861904D01*
X232633333Y-101909523D01*
X232680952Y-102004761D01*
X232680952Y-102195238D01*
X232728571Y-102290476D01*
X232776190Y-102338095D01*
X232871428Y-102385714D01*
X233061904Y-102385714D01*
X233157142Y-102338095D01*
X233204761Y-102290476D01*
X233252380Y-102195238D01*
X233252380Y-102004761D01*
X233204761Y-101909523D01*
X233157142Y-101861904D01*
X233061904Y-101814285D01*
X232871428Y-101814285D01*
X232776190Y-101861904D01*
X232728571Y-101909523D01*
X232680952Y-102004761D01*
X249402380Y-109138095D02*
X248402380Y-109138095D01*
X248402380Y-108900000D01*
X248450000Y-108757142D01*
X248545238Y-108661904D01*
X248640476Y-108614285D01*
X248830952Y-108566666D01*
X248973809Y-108566666D01*
X249164285Y-108614285D01*
X249259523Y-108661904D01*
X249354761Y-108757142D01*
X249402380Y-108900000D01*
X249402380Y-109138095D01*
X249402380Y-107614285D02*
X249402380Y-108185714D01*
X249402380Y-107900000D02*
X248402380Y-107900000D01*
X248545238Y-107995238D01*
X248640476Y-108090476D01*
X248688095Y-108185714D01*
X245752380Y-108988095D02*
X244752380Y-108988095D01*
X244752380Y-108750000D01*
X244800000Y-108607142D01*
X244895238Y-108511904D01*
X244990476Y-108464285D01*
X245180952Y-108416666D01*
X245323809Y-108416666D01*
X245514285Y-108464285D01*
X245609523Y-108511904D01*
X245704761Y-108607142D01*
X245752380Y-108750000D01*
X245752380Y-108988095D01*
X244847619Y-108035714D02*
X244800000Y-107988095D01*
X244752380Y-107892857D01*
X244752380Y-107654761D01*
X244800000Y-107559523D01*
X244847619Y-107511904D01*
X244942857Y-107464285D01*
X245038095Y-107464285D01*
X245180952Y-107511904D01*
X245752380Y-108083333D01*
X245752380Y-107464285D01*
X221261904Y-102652380D02*
X221261904Y-101652380D01*
X221500000Y-101652380D01*
X221642857Y-101700000D01*
X221738095Y-101795238D01*
X221785714Y-101890476D01*
X221833333Y-102080952D01*
X221833333Y-102223809D01*
X221785714Y-102414285D01*
X221738095Y-102509523D01*
X221642857Y-102604761D01*
X221500000Y-102652380D01*
X221261904Y-102652380D01*
X222166666Y-101652380D02*
X222833333Y-101652380D01*
X222404761Y-102652380D01*
X236178307Y-115777868D02*
X236885413Y-115070761D01*
X237053772Y-115239120D01*
X237121116Y-115373807D01*
X237121116Y-115508494D01*
X237087444Y-115609509D01*
X236986429Y-115777868D01*
X236885413Y-115878883D01*
X236717055Y-115979899D01*
X236616039Y-116013570D01*
X236481352Y-116013570D01*
X236346665Y-115946227D01*
X236178307Y-115777868D01*
X237390490Y-116181929D02*
X237356818Y-116080914D01*
X237356818Y-116013570D01*
X237390490Y-115912555D01*
X237424162Y-115878883D01*
X237525177Y-115845211D01*
X237592520Y-115845211D01*
X237693536Y-115878883D01*
X237828223Y-116013570D01*
X237861894Y-116114586D01*
X237861894Y-116181929D01*
X237828223Y-116282944D01*
X237794551Y-116316616D01*
X237693536Y-116350288D01*
X237626192Y-116350288D01*
X237525177Y-116316616D01*
X237390490Y-116181929D01*
X237289475Y-116148257D01*
X237222131Y-116148257D01*
X237121116Y-116181929D01*
X236986429Y-116316616D01*
X236952757Y-116417631D01*
X236952757Y-116484975D01*
X236986429Y-116585990D01*
X237121116Y-116720677D01*
X237222131Y-116754349D01*
X237289475Y-116754349D01*
X237390490Y-116720677D01*
X237525177Y-116585990D01*
X237558849Y-116484975D01*
X237558849Y-116417631D01*
X237525177Y-116316616D01*
X228722380Y-102766666D02*
X228246190Y-103100000D01*
X228722380Y-103338095D02*
X227722380Y-103338095D01*
X227722380Y-102957142D01*
X227770000Y-102861904D01*
X227817619Y-102814285D01*
X227912857Y-102766666D01*
X228055714Y-102766666D01*
X228150952Y-102814285D01*
X228198571Y-102861904D01*
X228246190Y-102957142D01*
X228246190Y-103338095D01*
X227722380Y-102433333D02*
X227722380Y-101766666D01*
X228722380Y-102195238D01*
M02*
