G04 #@! TF.GenerationSoftware,KiCad,Pcbnew,(5.1.2)-1*
G04 #@! TF.CreationDate,2019-05-20T14:19:16+10:00*
G04 #@! TF.ProjectId,VeinCamHat,5665696e-4361-46d4-9861-742e6b696361,rev?*
G04 #@! TF.SameCoordinates,Original*
G04 #@! TF.FileFunction,Soldermask,Top*
G04 #@! TF.FilePolarity,Negative*
%FSLAX46Y46*%
G04 Gerber Fmt 4.6, Leading zero omitted, Abs format (unit mm)*
G04 Created by KiCad (PCBNEW (5.1.2)-1) date 2019-05-20 14:19:16*
%MOMM*%
%LPD*%
G04 APERTURE LIST*
%ADD10C,0.150000*%
G04 APERTURE END LIST*
D10*
G36*
X261893779Y-145201879D02*
G01*
X262139463Y-145303645D01*
X262139465Y-145303646D01*
X262360575Y-145451387D01*
X262548613Y-145639425D01*
X262562380Y-145660029D01*
X262696355Y-145860537D01*
X262798121Y-146106221D01*
X262850000Y-146367035D01*
X262850000Y-146632965D01*
X262798121Y-146893779D01*
X262696355Y-147139463D01*
X262696354Y-147139465D01*
X262548613Y-147360575D01*
X262360575Y-147548613D01*
X262139465Y-147696354D01*
X262139464Y-147696355D01*
X262139463Y-147696355D01*
X261893779Y-147798121D01*
X261632965Y-147850000D01*
X261367035Y-147850000D01*
X261106221Y-147798121D01*
X260860537Y-147696355D01*
X260860536Y-147696355D01*
X260860535Y-147696354D01*
X260639425Y-147548613D01*
X260451387Y-147360575D01*
X260303646Y-147139465D01*
X260303645Y-147139463D01*
X260201879Y-146893779D01*
X260150000Y-146632965D01*
X260150000Y-146367035D01*
X260201879Y-146106221D01*
X260303645Y-145860537D01*
X260437620Y-145660029D01*
X260451387Y-145639425D01*
X260639425Y-145451387D01*
X260860535Y-145303646D01*
X260860537Y-145303645D01*
X261106221Y-145201879D01*
X261367035Y-145150000D01*
X261632965Y-145150000D01*
X261893779Y-145201879D01*
X261893779Y-145201879D01*
G37*
G36*
X203893779Y-145201879D02*
G01*
X204139463Y-145303645D01*
X204139465Y-145303646D01*
X204360575Y-145451387D01*
X204548613Y-145639425D01*
X204562380Y-145660029D01*
X204696355Y-145860537D01*
X204798121Y-146106221D01*
X204850000Y-146367035D01*
X204850000Y-146632965D01*
X204798121Y-146893779D01*
X204696355Y-147139463D01*
X204696354Y-147139465D01*
X204548613Y-147360575D01*
X204360575Y-147548613D01*
X204139465Y-147696354D01*
X204139464Y-147696355D01*
X204139463Y-147696355D01*
X203893779Y-147798121D01*
X203632965Y-147850000D01*
X203367035Y-147850000D01*
X203106221Y-147798121D01*
X202860537Y-147696355D01*
X202860536Y-147696355D01*
X202860535Y-147696354D01*
X202639425Y-147548613D01*
X202451387Y-147360575D01*
X202303646Y-147139465D01*
X202303645Y-147139463D01*
X202201879Y-146893779D01*
X202150000Y-146632965D01*
X202150000Y-146367035D01*
X202201879Y-146106221D01*
X202303645Y-145860537D01*
X202437620Y-145660029D01*
X202451387Y-145639425D01*
X202639425Y-145451387D01*
X202860535Y-145303646D01*
X202860537Y-145303645D01*
X203106221Y-145201879D01*
X203367035Y-145150000D01*
X203632965Y-145150000D01*
X203893779Y-145201879D01*
X203893779Y-145201879D01*
G37*
G36*
X221450000Y-146300001D02*
G01*
X219750000Y-146300001D01*
X219750000Y-145200001D01*
X221450000Y-145200001D01*
X221450000Y-146300001D01*
X221450000Y-146300001D01*
G37*
G36*
X224250000Y-146300001D02*
G01*
X222550000Y-146300001D01*
X222550000Y-145200001D01*
X224250000Y-145200001D01*
X224250000Y-146300001D01*
X224250000Y-146300001D01*
G37*
G36*
X212269002Y-144728960D02*
G01*
X212305301Y-144739971D01*
X212338757Y-144757854D01*
X212368081Y-144781919D01*
X212392146Y-144811243D01*
X212410029Y-144844699D01*
X212421040Y-144880998D01*
X212425000Y-144921204D01*
X212425000Y-145478796D01*
X212421040Y-145519002D01*
X212410029Y-145555301D01*
X212392146Y-145588757D01*
X212368081Y-145618081D01*
X212338757Y-145642146D01*
X212305301Y-145660029D01*
X212269002Y-145671040D01*
X212228796Y-145675000D01*
X211746204Y-145675000D01*
X211705998Y-145671040D01*
X211669699Y-145660029D01*
X211636243Y-145642146D01*
X211606919Y-145618081D01*
X211582854Y-145588757D01*
X211564971Y-145555301D01*
X211553960Y-145519002D01*
X211550000Y-145478796D01*
X211550000Y-144921204D01*
X211553960Y-144880998D01*
X211564971Y-144844699D01*
X211582854Y-144811243D01*
X211606919Y-144781919D01*
X211636243Y-144757854D01*
X211669699Y-144739971D01*
X211705998Y-144728960D01*
X211746204Y-144725000D01*
X212228796Y-144725000D01*
X212269002Y-144728960D01*
X212269002Y-144728960D01*
G37*
G36*
X210694002Y-144728960D02*
G01*
X210730301Y-144739971D01*
X210763757Y-144757854D01*
X210793081Y-144781919D01*
X210817146Y-144811243D01*
X210835029Y-144844699D01*
X210846040Y-144880998D01*
X210850000Y-144921204D01*
X210850000Y-145478796D01*
X210846040Y-145519002D01*
X210835029Y-145555301D01*
X210817146Y-145588757D01*
X210793081Y-145618081D01*
X210763757Y-145642146D01*
X210730301Y-145660029D01*
X210694002Y-145671040D01*
X210653796Y-145675000D01*
X210171204Y-145675000D01*
X210130998Y-145671040D01*
X210094699Y-145660029D01*
X210061243Y-145642146D01*
X210031919Y-145618081D01*
X210007854Y-145588757D01*
X209989971Y-145555301D01*
X209978960Y-145519002D01*
X209975000Y-145478796D01*
X209975000Y-144921204D01*
X209978960Y-144880998D01*
X209989971Y-144844699D01*
X210007854Y-144811243D01*
X210031919Y-144781919D01*
X210061243Y-144757854D01*
X210094699Y-144739971D01*
X210130998Y-144728960D01*
X210171204Y-144725000D01*
X210653796Y-144725000D01*
X210694002Y-144728960D01*
X210694002Y-144728960D01*
G37*
G36*
X215369002Y-144728960D02*
G01*
X215405301Y-144739971D01*
X215438757Y-144757854D01*
X215468081Y-144781919D01*
X215492146Y-144811243D01*
X215510029Y-144844699D01*
X215521040Y-144880998D01*
X215525000Y-144921204D01*
X215525000Y-145478796D01*
X215521040Y-145519002D01*
X215510029Y-145555301D01*
X215492146Y-145588757D01*
X215468081Y-145618081D01*
X215438757Y-145642146D01*
X215405301Y-145660029D01*
X215369002Y-145671040D01*
X215328796Y-145675000D01*
X214846204Y-145675000D01*
X214805998Y-145671040D01*
X214769699Y-145660029D01*
X214736243Y-145642146D01*
X214706919Y-145618081D01*
X214682854Y-145588757D01*
X214664971Y-145555301D01*
X214653960Y-145519002D01*
X214650000Y-145478796D01*
X214650000Y-144921204D01*
X214653960Y-144880998D01*
X214664971Y-144844699D01*
X214682854Y-144811243D01*
X214706919Y-144781919D01*
X214736243Y-144757854D01*
X214769699Y-144739971D01*
X214805998Y-144728960D01*
X214846204Y-144725000D01*
X215328796Y-144725000D01*
X215369002Y-144728960D01*
X215369002Y-144728960D01*
G37*
G36*
X213794002Y-144728960D02*
G01*
X213830301Y-144739971D01*
X213863757Y-144757854D01*
X213893081Y-144781919D01*
X213917146Y-144811243D01*
X213935029Y-144844699D01*
X213946040Y-144880998D01*
X213950000Y-144921204D01*
X213950000Y-145478796D01*
X213946040Y-145519002D01*
X213935029Y-145555301D01*
X213917146Y-145588757D01*
X213893081Y-145618081D01*
X213863757Y-145642146D01*
X213830301Y-145660029D01*
X213794002Y-145671040D01*
X213753796Y-145675000D01*
X213271204Y-145675000D01*
X213230998Y-145671040D01*
X213194699Y-145660029D01*
X213161243Y-145642146D01*
X213131919Y-145618081D01*
X213107854Y-145588757D01*
X213089971Y-145555301D01*
X213078960Y-145519002D01*
X213075000Y-145478796D01*
X213075000Y-144921204D01*
X213078960Y-144880998D01*
X213089971Y-144844699D01*
X213107854Y-144811243D01*
X213131919Y-144781919D01*
X213161243Y-144757854D01*
X213194699Y-144739971D01*
X213230998Y-144728960D01*
X213271204Y-144725000D01*
X213753796Y-144725000D01*
X213794002Y-144728960D01*
X213794002Y-144728960D01*
G37*
G36*
X224250000Y-144799999D02*
G01*
X222550000Y-144799999D01*
X222550000Y-143699999D01*
X224250000Y-143699999D01*
X224250000Y-144799999D01*
X224250000Y-144799999D01*
G37*
G36*
X221450000Y-144799999D02*
G01*
X219750000Y-144799999D01*
X219750000Y-143699999D01*
X221450000Y-143699999D01*
X221450000Y-144799999D01*
X221450000Y-144799999D01*
G37*
G36*
X215369002Y-143128960D02*
G01*
X215405301Y-143139971D01*
X215438757Y-143157854D01*
X215468081Y-143181919D01*
X215492146Y-143211243D01*
X215510029Y-143244699D01*
X215521040Y-143280998D01*
X215525000Y-143321204D01*
X215525000Y-143878796D01*
X215521040Y-143919002D01*
X215510029Y-143955301D01*
X215492146Y-143988757D01*
X215468081Y-144018081D01*
X215438757Y-144042146D01*
X215405301Y-144060029D01*
X215369002Y-144071040D01*
X215328796Y-144075000D01*
X214846204Y-144075000D01*
X214805998Y-144071040D01*
X214769699Y-144060029D01*
X214736243Y-144042146D01*
X214706919Y-144018081D01*
X214682854Y-143988757D01*
X214664971Y-143955301D01*
X214653960Y-143919002D01*
X214650000Y-143878796D01*
X214650000Y-143321204D01*
X214653960Y-143280998D01*
X214664971Y-143244699D01*
X214682854Y-143211243D01*
X214706919Y-143181919D01*
X214736243Y-143157854D01*
X214769699Y-143139971D01*
X214805998Y-143128960D01*
X214846204Y-143125000D01*
X215328796Y-143125000D01*
X215369002Y-143128960D01*
X215369002Y-143128960D01*
G37*
G36*
X213794002Y-143128960D02*
G01*
X213830301Y-143139971D01*
X213863757Y-143157854D01*
X213893081Y-143181919D01*
X213917146Y-143211243D01*
X213935029Y-143244699D01*
X213946040Y-143280998D01*
X213950000Y-143321204D01*
X213950000Y-143878796D01*
X213946040Y-143919002D01*
X213935029Y-143955301D01*
X213917146Y-143988757D01*
X213893081Y-144018081D01*
X213863757Y-144042146D01*
X213830301Y-144060029D01*
X213794002Y-144071040D01*
X213753796Y-144075000D01*
X213271204Y-144075000D01*
X213230998Y-144071040D01*
X213194699Y-144060029D01*
X213161243Y-144042146D01*
X213131919Y-144018081D01*
X213107854Y-143988757D01*
X213089971Y-143955301D01*
X213078960Y-143919002D01*
X213075000Y-143878796D01*
X213075000Y-143321204D01*
X213078960Y-143280998D01*
X213089971Y-143244699D01*
X213107854Y-143211243D01*
X213131919Y-143181919D01*
X213161243Y-143157854D01*
X213194699Y-143139971D01*
X213230998Y-143128960D01*
X213271204Y-143125000D01*
X213753796Y-143125000D01*
X213794002Y-143128960D01*
X213794002Y-143128960D01*
G37*
G36*
X212269002Y-143128960D02*
G01*
X212305301Y-143139971D01*
X212338757Y-143157854D01*
X212368081Y-143181919D01*
X212392146Y-143211243D01*
X212410029Y-143244699D01*
X212421040Y-143280998D01*
X212425000Y-143321204D01*
X212425000Y-143878796D01*
X212421040Y-143919002D01*
X212410029Y-143955301D01*
X212392146Y-143988757D01*
X212368081Y-144018081D01*
X212338757Y-144042146D01*
X212305301Y-144060029D01*
X212269002Y-144071040D01*
X212228796Y-144075000D01*
X211746204Y-144075000D01*
X211705998Y-144071040D01*
X211669699Y-144060029D01*
X211636243Y-144042146D01*
X211606919Y-144018081D01*
X211582854Y-143988757D01*
X211564971Y-143955301D01*
X211553960Y-143919002D01*
X211550000Y-143878796D01*
X211550000Y-143321204D01*
X211553960Y-143280998D01*
X211564971Y-143244699D01*
X211582854Y-143211243D01*
X211606919Y-143181919D01*
X211636243Y-143157854D01*
X211669699Y-143139971D01*
X211705998Y-143128960D01*
X211746204Y-143125000D01*
X212228796Y-143125000D01*
X212269002Y-143128960D01*
X212269002Y-143128960D01*
G37*
G36*
X210694002Y-143128960D02*
G01*
X210730301Y-143139971D01*
X210763757Y-143157854D01*
X210793081Y-143181919D01*
X210817146Y-143211243D01*
X210835029Y-143244699D01*
X210846040Y-143280998D01*
X210850000Y-143321204D01*
X210850000Y-143878796D01*
X210846040Y-143919002D01*
X210835029Y-143955301D01*
X210817146Y-143988757D01*
X210793081Y-144018081D01*
X210763757Y-144042146D01*
X210730301Y-144060029D01*
X210694002Y-144071040D01*
X210653796Y-144075000D01*
X210171204Y-144075000D01*
X210130998Y-144071040D01*
X210094699Y-144060029D01*
X210061243Y-144042146D01*
X210031919Y-144018081D01*
X210007854Y-143988757D01*
X209989971Y-143955301D01*
X209978960Y-143919002D01*
X209975000Y-143878796D01*
X209975000Y-143321204D01*
X209978960Y-143280998D01*
X209989971Y-143244699D01*
X210007854Y-143211243D01*
X210031919Y-143181919D01*
X210061243Y-143157854D01*
X210094699Y-143139971D01*
X210130998Y-143128960D01*
X210171204Y-143125000D01*
X210653796Y-143125000D01*
X210694002Y-143128960D01*
X210694002Y-143128960D01*
G37*
G36*
X232320856Y-135942272D02*
G01*
X232521044Y-136025192D01*
X232521045Y-136025193D01*
X232701209Y-136145575D01*
X232854425Y-136298791D01*
X232854426Y-136298793D01*
X232974808Y-136478956D01*
X233057728Y-136679144D01*
X233100000Y-136891658D01*
X233100000Y-137108342D01*
X233057728Y-137320856D01*
X232974808Y-137521044D01*
X232974807Y-137521045D01*
X232854425Y-137701209D01*
X232701209Y-137854425D01*
X232610513Y-137915026D01*
X232521044Y-137974808D01*
X232320856Y-138057728D01*
X232108342Y-138100000D01*
X231891658Y-138100000D01*
X231679144Y-138057728D01*
X231478956Y-137974808D01*
X231389487Y-137915026D01*
X231298791Y-137854425D01*
X231145575Y-137701209D01*
X231025193Y-137521045D01*
X231025192Y-137521044D01*
X230942272Y-137320856D01*
X230900000Y-137108342D01*
X230900000Y-136891658D01*
X230942272Y-136679144D01*
X231025192Y-136478956D01*
X231145574Y-136298793D01*
X231145575Y-136298791D01*
X231298791Y-136145575D01*
X231478955Y-136025193D01*
X231478956Y-136025192D01*
X231679144Y-135942272D01*
X231891658Y-135900000D01*
X232108342Y-135900000D01*
X232320856Y-135942272D01*
X232320856Y-135942272D01*
G37*
G36*
X219820856Y-135942272D02*
G01*
X220021044Y-136025192D01*
X220021045Y-136025193D01*
X220201209Y-136145575D01*
X220354425Y-136298791D01*
X220354426Y-136298793D01*
X220474808Y-136478956D01*
X220557728Y-136679144D01*
X220600000Y-136891658D01*
X220600000Y-137108342D01*
X220557728Y-137320856D01*
X220474808Y-137521044D01*
X220474807Y-137521045D01*
X220354425Y-137701209D01*
X220201209Y-137854425D01*
X220110513Y-137915026D01*
X220021044Y-137974808D01*
X219820856Y-138057728D01*
X219608342Y-138100000D01*
X219391658Y-138100000D01*
X219179144Y-138057728D01*
X218978956Y-137974808D01*
X218889487Y-137915026D01*
X218798791Y-137854425D01*
X218645575Y-137701209D01*
X218525193Y-137521045D01*
X218525192Y-137521044D01*
X218442272Y-137320856D01*
X218400000Y-137108342D01*
X218400000Y-136891658D01*
X218442272Y-136679144D01*
X218525192Y-136478956D01*
X218645574Y-136298793D01*
X218645575Y-136298791D01*
X218798791Y-136145575D01*
X218978955Y-136025193D01*
X218978956Y-136025192D01*
X219179144Y-135942272D01*
X219391658Y-135900000D01*
X219608342Y-135900000D01*
X219820856Y-135942272D01*
X219820856Y-135942272D01*
G37*
G36*
X206449568Y-136732412D02*
G01*
X205671751Y-137510229D01*
X204469670Y-136308148D01*
X205247487Y-135530331D01*
X206449568Y-136732412D01*
X206449568Y-136732412D01*
G37*
G36*
X239530330Y-136308148D02*
G01*
X238328249Y-137510229D01*
X237550432Y-136732412D01*
X238752513Y-135530331D01*
X239530330Y-136308148D01*
X239530330Y-136308148D01*
G37*
G36*
X207510229Y-135671751D02*
G01*
X206732412Y-136449568D01*
X205530331Y-135247487D01*
X206308148Y-134469670D01*
X207510229Y-135671751D01*
X207510229Y-135671751D01*
G37*
G36*
X238469669Y-135247487D02*
G01*
X237267588Y-136449568D01*
X236489771Y-135671751D01*
X237691852Y-134469670D01*
X238469669Y-135247487D01*
X238469669Y-135247487D01*
G37*
G36*
X204469669Y-134752513D02*
G01*
X203691852Y-135530330D01*
X202489771Y-134328249D01*
X203267588Y-133550432D01*
X204469669Y-134752513D01*
X204469669Y-134752513D01*
G37*
G36*
X241510229Y-134328249D02*
G01*
X240308148Y-135530330D01*
X239530331Y-134752513D01*
X240732412Y-133550432D01*
X241510229Y-134328249D01*
X241510229Y-134328249D01*
G37*
G36*
X240449568Y-133267588D02*
G01*
X239247487Y-134469669D01*
X238469670Y-133691852D01*
X239671751Y-132489771D01*
X240449568Y-133267588D01*
X240449568Y-133267588D01*
G37*
G36*
X205530330Y-133691852D02*
G01*
X204752513Y-134469669D01*
X203550432Y-133267588D01*
X204328249Y-132489771D01*
X205530330Y-133691852D01*
X205530330Y-133691852D01*
G37*
G36*
X219820856Y-114942272D02*
G01*
X220021044Y-115025192D01*
X220021045Y-115025193D01*
X220201209Y-115145575D01*
X220354425Y-115298791D01*
X220354426Y-115298793D01*
X220474808Y-115478956D01*
X220557728Y-115679144D01*
X220600000Y-115891658D01*
X220600000Y-116108342D01*
X220557728Y-116320856D01*
X220474808Y-116521044D01*
X220474807Y-116521045D01*
X220354425Y-116701209D01*
X220201209Y-116854425D01*
X220110513Y-116915026D01*
X220021044Y-116974808D01*
X219820856Y-117057728D01*
X219608342Y-117100000D01*
X219391658Y-117100000D01*
X219179144Y-117057728D01*
X218978956Y-116974808D01*
X218889487Y-116915026D01*
X218798791Y-116854425D01*
X218645575Y-116701209D01*
X218525193Y-116521045D01*
X218525192Y-116521044D01*
X218442272Y-116320856D01*
X218400000Y-116108342D01*
X218400000Y-115891658D01*
X218442272Y-115679144D01*
X218525192Y-115478956D01*
X218645574Y-115298793D01*
X218645575Y-115298791D01*
X218798791Y-115145575D01*
X218978955Y-115025193D01*
X218978956Y-115025192D01*
X219179144Y-114942272D01*
X219391658Y-114900000D01*
X219608342Y-114900000D01*
X219820856Y-114942272D01*
X219820856Y-114942272D01*
G37*
G36*
X232320856Y-114942272D02*
G01*
X232521044Y-115025192D01*
X232521045Y-115025193D01*
X232701209Y-115145575D01*
X232854425Y-115298791D01*
X232854426Y-115298793D01*
X232974808Y-115478956D01*
X233057728Y-115679144D01*
X233100000Y-115891658D01*
X233100000Y-116108342D01*
X233057728Y-116320856D01*
X232974808Y-116521044D01*
X232974807Y-116521045D01*
X232854425Y-116701209D01*
X232701209Y-116854425D01*
X232610513Y-116915026D01*
X232521044Y-116974808D01*
X232320856Y-117057728D01*
X232108342Y-117100000D01*
X231891658Y-117100000D01*
X231679144Y-117057728D01*
X231478956Y-116974808D01*
X231389487Y-116915026D01*
X231298791Y-116854425D01*
X231145575Y-116701209D01*
X231025193Y-116521045D01*
X231025192Y-116521044D01*
X230942272Y-116320856D01*
X230900000Y-116108342D01*
X230900000Y-115891658D01*
X230942272Y-115679144D01*
X231025192Y-115478956D01*
X231145574Y-115298793D01*
X231145575Y-115298791D01*
X231298791Y-115145575D01*
X231478955Y-115025193D01*
X231478956Y-115025192D01*
X231679144Y-114942272D01*
X231891658Y-114900000D01*
X232108342Y-114900000D01*
X232320856Y-114942272D01*
X232320856Y-114942272D01*
G37*
G36*
X205530330Y-115308148D02*
G01*
X204328249Y-116510229D01*
X203550432Y-115732412D01*
X204752513Y-114530331D01*
X205530330Y-115308148D01*
X205530330Y-115308148D01*
G37*
G36*
X240449568Y-115732412D02*
G01*
X239671751Y-116510229D01*
X238469670Y-115308148D01*
X239247487Y-114530331D01*
X240449568Y-115732412D01*
X240449568Y-115732412D01*
G37*
G36*
X241510229Y-114671751D02*
G01*
X240732412Y-115449568D01*
X239530331Y-114247487D01*
X240308148Y-113469670D01*
X241510229Y-114671751D01*
X241510229Y-114671751D01*
G37*
G36*
X204469669Y-114247487D02*
G01*
X203267588Y-115449568D01*
X202489771Y-114671751D01*
X203691852Y-113469670D01*
X204469669Y-114247487D01*
X204469669Y-114247487D01*
G37*
G36*
X238469669Y-113752513D02*
G01*
X237691852Y-114530330D01*
X236489771Y-113328249D01*
X237267588Y-112550432D01*
X238469669Y-113752513D01*
X238469669Y-113752513D01*
G37*
G36*
X207510229Y-113328249D02*
G01*
X206308148Y-114530330D01*
X205530331Y-113752513D01*
X206732412Y-112550432D01*
X207510229Y-113328249D01*
X207510229Y-113328249D01*
G37*
G36*
X206449568Y-112267588D02*
G01*
X205247487Y-113469669D01*
X204469670Y-112691852D01*
X205671751Y-111489771D01*
X206449568Y-112267588D01*
X206449568Y-112267588D01*
G37*
G36*
X239530330Y-112691852D02*
G01*
X238752513Y-113469669D01*
X237550432Y-112267588D01*
X238328249Y-111489771D01*
X239530330Y-112691852D01*
X239530330Y-112691852D01*
G37*
G36*
X230275000Y-111050000D02*
G01*
X229625000Y-111050000D01*
X229625000Y-110650000D01*
X230275000Y-110650000D01*
X230275000Y-111050000D01*
X230275000Y-111050000D01*
G37*
G36*
X232175000Y-111050000D02*
G01*
X231525000Y-111050000D01*
X231525000Y-110650000D01*
X232175000Y-110650000D01*
X232175000Y-111050000D01*
X232175000Y-111050000D01*
G37*
G36*
X230275000Y-110400000D02*
G01*
X229625000Y-110400000D01*
X229625000Y-110000000D01*
X230275000Y-110000000D01*
X230275000Y-110400000D01*
X230275000Y-110400000D01*
G37*
G36*
X232175000Y-110400000D02*
G01*
X231525000Y-110400000D01*
X231525000Y-110000000D01*
X232175000Y-110000000D01*
X232175000Y-110400000D01*
X232175000Y-110400000D01*
G37*
G36*
X247423879Y-108866940D02*
G01*
X247464870Y-108879374D01*
X247502645Y-108899565D01*
X247535758Y-108926742D01*
X247562935Y-108959855D01*
X247583126Y-108997630D01*
X247595560Y-109038621D01*
X247600000Y-109083704D01*
X247600000Y-109616296D01*
X247595560Y-109661379D01*
X247583126Y-109702370D01*
X247562935Y-109740145D01*
X247535758Y-109773258D01*
X247502645Y-109800435D01*
X247464870Y-109820626D01*
X247423879Y-109833060D01*
X247378796Y-109837500D01*
X246421204Y-109837500D01*
X246376121Y-109833060D01*
X246335130Y-109820626D01*
X246297355Y-109800435D01*
X246264242Y-109773258D01*
X246237065Y-109740145D01*
X246216874Y-109702370D01*
X246204440Y-109661379D01*
X246200000Y-109616296D01*
X246200000Y-109083704D01*
X246204440Y-109038621D01*
X246216874Y-108997630D01*
X246237065Y-108959855D01*
X246264242Y-108926742D01*
X246297355Y-108899565D01*
X246335130Y-108879374D01*
X246376121Y-108866940D01*
X246421204Y-108862500D01*
X247378796Y-108862500D01*
X247423879Y-108866940D01*
X247423879Y-108866940D01*
G37*
G36*
X251073879Y-108854440D02*
G01*
X251114870Y-108866874D01*
X251152645Y-108887065D01*
X251185758Y-108914242D01*
X251212935Y-108947355D01*
X251233126Y-108985130D01*
X251245560Y-109026121D01*
X251250000Y-109071204D01*
X251250000Y-109603796D01*
X251245560Y-109648879D01*
X251233126Y-109689870D01*
X251212935Y-109727645D01*
X251185758Y-109760758D01*
X251152645Y-109787935D01*
X251114870Y-109808126D01*
X251073879Y-109820560D01*
X251028796Y-109825000D01*
X250071204Y-109825000D01*
X250026121Y-109820560D01*
X249985130Y-109808126D01*
X249947355Y-109787935D01*
X249914242Y-109760758D01*
X249887065Y-109727645D01*
X249866874Y-109689870D01*
X249854440Y-109648879D01*
X249850000Y-109603796D01*
X249850000Y-109071204D01*
X249854440Y-109026121D01*
X249866874Y-108985130D01*
X249887065Y-108947355D01*
X249914242Y-108914242D01*
X249947355Y-108887065D01*
X249985130Y-108866874D01*
X250026121Y-108854440D01*
X250071204Y-108850000D01*
X251028796Y-108850000D01*
X251073879Y-108854440D01*
X251073879Y-108854440D01*
G37*
G36*
X232175000Y-109750000D02*
G01*
X231525000Y-109750000D01*
X231525000Y-109350000D01*
X232175000Y-109350000D01*
X232175000Y-109750000D01*
X232175000Y-109750000D01*
G37*
G36*
X230275000Y-109750000D02*
G01*
X229625000Y-109750000D01*
X229625000Y-109350000D01*
X230275000Y-109350000D01*
X230275000Y-109750000D01*
X230275000Y-109750000D01*
G37*
G36*
X247423879Y-106991940D02*
G01*
X247464870Y-107004374D01*
X247502645Y-107024565D01*
X247535758Y-107051742D01*
X247562935Y-107084855D01*
X247583126Y-107122630D01*
X247595560Y-107163621D01*
X247600000Y-107208704D01*
X247600000Y-107741296D01*
X247595560Y-107786379D01*
X247583126Y-107827370D01*
X247562935Y-107865145D01*
X247535758Y-107898258D01*
X247502645Y-107925435D01*
X247464870Y-107945626D01*
X247423879Y-107958060D01*
X247378796Y-107962500D01*
X246421204Y-107962500D01*
X246376121Y-107958060D01*
X246335130Y-107945626D01*
X246297355Y-107925435D01*
X246264242Y-107898258D01*
X246237065Y-107865145D01*
X246216874Y-107827370D01*
X246204440Y-107786379D01*
X246200000Y-107741296D01*
X246200000Y-107208704D01*
X246204440Y-107163621D01*
X246216874Y-107122630D01*
X246237065Y-107084855D01*
X246264242Y-107051742D01*
X246297355Y-107024565D01*
X246335130Y-107004374D01*
X246376121Y-106991940D01*
X246421204Y-106987500D01*
X247378796Y-106987500D01*
X247423879Y-106991940D01*
X247423879Y-106991940D01*
G37*
G36*
X251073879Y-106979440D02*
G01*
X251114870Y-106991874D01*
X251152645Y-107012065D01*
X251185758Y-107039242D01*
X251212935Y-107072355D01*
X251233126Y-107110130D01*
X251245560Y-107151121D01*
X251250000Y-107196204D01*
X251250000Y-107728796D01*
X251245560Y-107773879D01*
X251233126Y-107814870D01*
X251212935Y-107852645D01*
X251185758Y-107885758D01*
X251152645Y-107912935D01*
X251114870Y-107933126D01*
X251073879Y-107945560D01*
X251028796Y-107950000D01*
X250071204Y-107950000D01*
X250026121Y-107945560D01*
X249985130Y-107933126D01*
X249947355Y-107912935D01*
X249914242Y-107885758D01*
X249887065Y-107852645D01*
X249866874Y-107814870D01*
X249854440Y-107773879D01*
X249850000Y-107728796D01*
X249850000Y-107196204D01*
X249854440Y-107151121D01*
X249866874Y-107110130D01*
X249887065Y-107072355D01*
X249914242Y-107039242D01*
X249947355Y-107012065D01*
X249985130Y-106991874D01*
X250026121Y-106979440D01*
X250071204Y-106975000D01*
X251028796Y-106975000D01*
X251073879Y-106979440D01*
X251073879Y-106979440D01*
G37*
G36*
X250856502Y-105553960D02*
G01*
X250892801Y-105564971D01*
X250926257Y-105582854D01*
X250955581Y-105606919D01*
X250979646Y-105636243D01*
X250997529Y-105669699D01*
X251008540Y-105705998D01*
X251012500Y-105746204D01*
X251012500Y-106228796D01*
X251008540Y-106269002D01*
X250997529Y-106305301D01*
X250979646Y-106338757D01*
X250955581Y-106368081D01*
X250926257Y-106392146D01*
X250892801Y-106410029D01*
X250856502Y-106421040D01*
X250816296Y-106425000D01*
X250258704Y-106425000D01*
X250218498Y-106421040D01*
X250182199Y-106410029D01*
X250148743Y-106392146D01*
X250119419Y-106368081D01*
X250095354Y-106338757D01*
X250077471Y-106305301D01*
X250066460Y-106269002D01*
X250062500Y-106228796D01*
X250062500Y-105746204D01*
X250066460Y-105705998D01*
X250077471Y-105669699D01*
X250095354Y-105636243D01*
X250119419Y-105606919D01*
X250148743Y-105582854D01*
X250182199Y-105564971D01*
X250218498Y-105553960D01*
X250258704Y-105550000D01*
X250816296Y-105550000D01*
X250856502Y-105553960D01*
X250856502Y-105553960D01*
G37*
G36*
X247219002Y-105503960D02*
G01*
X247255301Y-105514971D01*
X247288757Y-105532854D01*
X247318081Y-105556919D01*
X247342146Y-105586243D01*
X247360029Y-105619699D01*
X247371040Y-105655998D01*
X247375000Y-105696204D01*
X247375000Y-106178796D01*
X247371040Y-106219002D01*
X247360029Y-106255301D01*
X247342146Y-106288757D01*
X247318081Y-106318081D01*
X247288757Y-106342146D01*
X247255301Y-106360029D01*
X247219002Y-106371040D01*
X247178796Y-106375000D01*
X246621204Y-106375000D01*
X246580998Y-106371040D01*
X246544699Y-106360029D01*
X246511243Y-106342146D01*
X246481919Y-106318081D01*
X246457854Y-106288757D01*
X246439971Y-106255301D01*
X246428960Y-106219002D01*
X246425000Y-106178796D01*
X246425000Y-105696204D01*
X246428960Y-105655998D01*
X246439971Y-105619699D01*
X246457854Y-105586243D01*
X246481919Y-105556919D01*
X246511243Y-105532854D01*
X246544699Y-105514971D01*
X246580998Y-105503960D01*
X246621204Y-105500000D01*
X247178796Y-105500000D01*
X247219002Y-105503960D01*
X247219002Y-105503960D01*
G37*
G36*
X221450000Y-106300000D02*
G01*
X219750000Y-106300000D01*
X219750000Y-105200000D01*
X221450000Y-105200000D01*
X221450000Y-106300000D01*
X221450000Y-106300000D01*
G37*
G36*
X224250000Y-106300000D02*
G01*
X222550000Y-106300000D01*
X222550000Y-105200000D01*
X224250000Y-105200000D01*
X224250000Y-106300000D01*
X224250000Y-106300000D01*
G37*
G36*
X250856502Y-103978960D02*
G01*
X250892801Y-103989971D01*
X250926257Y-104007854D01*
X250955581Y-104031919D01*
X250979646Y-104061243D01*
X250997529Y-104094699D01*
X251008540Y-104130998D01*
X251012500Y-104171204D01*
X251012500Y-104653796D01*
X251008540Y-104694002D01*
X250997529Y-104730301D01*
X250979646Y-104763757D01*
X250955581Y-104793081D01*
X250926257Y-104817146D01*
X250892801Y-104835029D01*
X250856502Y-104846040D01*
X250816296Y-104850000D01*
X250258704Y-104850000D01*
X250218498Y-104846040D01*
X250182199Y-104835029D01*
X250148743Y-104817146D01*
X250119419Y-104793081D01*
X250095354Y-104763757D01*
X250077471Y-104730301D01*
X250066460Y-104694002D01*
X250062500Y-104653796D01*
X250062500Y-104171204D01*
X250066460Y-104130998D01*
X250077471Y-104094699D01*
X250095354Y-104061243D01*
X250119419Y-104031919D01*
X250148743Y-104007854D01*
X250182199Y-103989971D01*
X250218498Y-103978960D01*
X250258704Y-103975000D01*
X250816296Y-103975000D01*
X250856502Y-103978960D01*
X250856502Y-103978960D01*
G37*
G36*
X247219002Y-103928960D02*
G01*
X247255301Y-103939971D01*
X247288757Y-103957854D01*
X247318081Y-103981919D01*
X247342146Y-104011243D01*
X247360029Y-104044699D01*
X247371040Y-104080998D01*
X247375000Y-104121204D01*
X247375000Y-104603796D01*
X247371040Y-104644002D01*
X247360029Y-104680301D01*
X247342146Y-104713757D01*
X247318081Y-104743081D01*
X247288757Y-104767146D01*
X247255301Y-104785029D01*
X247219002Y-104796040D01*
X247178796Y-104800000D01*
X246621204Y-104800000D01*
X246580998Y-104796040D01*
X246544699Y-104785029D01*
X246511243Y-104767146D01*
X246481919Y-104743081D01*
X246457854Y-104713757D01*
X246439971Y-104680301D01*
X246428960Y-104644002D01*
X246425000Y-104603796D01*
X246425000Y-104121204D01*
X246428960Y-104080998D01*
X246439971Y-104044699D01*
X246457854Y-104011243D01*
X246481919Y-103981919D01*
X246511243Y-103957854D01*
X246544699Y-103939971D01*
X246580998Y-103928960D01*
X246621204Y-103925000D01*
X247178796Y-103925000D01*
X247219002Y-103928960D01*
X247219002Y-103928960D01*
G37*
G36*
X224250000Y-104800000D02*
G01*
X222550000Y-104800000D01*
X222550000Y-103700000D01*
X224250000Y-103700000D01*
X224250000Y-104800000D01*
X224250000Y-104800000D01*
G37*
G36*
X221450000Y-104800000D02*
G01*
X219750000Y-104800000D01*
X219750000Y-103700000D01*
X221450000Y-103700000D01*
X221450000Y-104800000D01*
X221450000Y-104800000D01*
G37*
G36*
X231619002Y-102953960D02*
G01*
X231655301Y-102964971D01*
X231688757Y-102982854D01*
X231718081Y-103006919D01*
X231742146Y-103036243D01*
X231760029Y-103069699D01*
X231771040Y-103105998D01*
X231775000Y-103146204D01*
X231775000Y-103628796D01*
X231771040Y-103669002D01*
X231760029Y-103705301D01*
X231742146Y-103738757D01*
X231718081Y-103768081D01*
X231688757Y-103792146D01*
X231655301Y-103810029D01*
X231619002Y-103821040D01*
X231578796Y-103825000D01*
X231021204Y-103825000D01*
X230980998Y-103821040D01*
X230944699Y-103810029D01*
X230911243Y-103792146D01*
X230881919Y-103768081D01*
X230857854Y-103738757D01*
X230839971Y-103705301D01*
X230828960Y-103669002D01*
X230825000Y-103628796D01*
X230825000Y-103146204D01*
X230828960Y-103105998D01*
X230839971Y-103069699D01*
X230857854Y-103036243D01*
X230881919Y-103006919D01*
X230911243Y-102982854D01*
X230944699Y-102964971D01*
X230980998Y-102953960D01*
X231021204Y-102950000D01*
X231578796Y-102950000D01*
X231619002Y-102953960D01*
X231619002Y-102953960D01*
G37*
G36*
X230019002Y-102953960D02*
G01*
X230055301Y-102964971D01*
X230088757Y-102982854D01*
X230118081Y-103006919D01*
X230142146Y-103036243D01*
X230160029Y-103069699D01*
X230171040Y-103105998D01*
X230175000Y-103146204D01*
X230175000Y-103628796D01*
X230171040Y-103669002D01*
X230160029Y-103705301D01*
X230142146Y-103738757D01*
X230118081Y-103768081D01*
X230088757Y-103792146D01*
X230055301Y-103810029D01*
X230019002Y-103821040D01*
X229978796Y-103825000D01*
X229421204Y-103825000D01*
X229380998Y-103821040D01*
X229344699Y-103810029D01*
X229311243Y-103792146D01*
X229281919Y-103768081D01*
X229257854Y-103738757D01*
X229239971Y-103705301D01*
X229228960Y-103669002D01*
X229225000Y-103628796D01*
X229225000Y-103146204D01*
X229228960Y-103105998D01*
X229239971Y-103069699D01*
X229257854Y-103036243D01*
X229281919Y-103006919D01*
X229311243Y-102982854D01*
X229344699Y-102964971D01*
X229380998Y-102953960D01*
X229421204Y-102950000D01*
X229978796Y-102950000D01*
X230019002Y-102953960D01*
X230019002Y-102953960D01*
G37*
G36*
X231619002Y-101378960D02*
G01*
X231655301Y-101389971D01*
X231688757Y-101407854D01*
X231718081Y-101431919D01*
X231742146Y-101461243D01*
X231760029Y-101494699D01*
X231771040Y-101530998D01*
X231775000Y-101571204D01*
X231775000Y-102053796D01*
X231771040Y-102094002D01*
X231760029Y-102130301D01*
X231742146Y-102163757D01*
X231718081Y-102193081D01*
X231688757Y-102217146D01*
X231655301Y-102235029D01*
X231619002Y-102246040D01*
X231578796Y-102250000D01*
X231021204Y-102250000D01*
X230980998Y-102246040D01*
X230944699Y-102235029D01*
X230911243Y-102217146D01*
X230881919Y-102193081D01*
X230857854Y-102163757D01*
X230839971Y-102130301D01*
X230828960Y-102094002D01*
X230825000Y-102053796D01*
X230825000Y-101571204D01*
X230828960Y-101530998D01*
X230839971Y-101494699D01*
X230857854Y-101461243D01*
X230881919Y-101431919D01*
X230911243Y-101407854D01*
X230944699Y-101389971D01*
X230980998Y-101378960D01*
X231021204Y-101375000D01*
X231578796Y-101375000D01*
X231619002Y-101378960D01*
X231619002Y-101378960D01*
G37*
G36*
X230019002Y-101378960D02*
G01*
X230055301Y-101389971D01*
X230088757Y-101407854D01*
X230118081Y-101431919D01*
X230142146Y-101461243D01*
X230160029Y-101494699D01*
X230171040Y-101530998D01*
X230175000Y-101571204D01*
X230175000Y-102053796D01*
X230171040Y-102094002D01*
X230160029Y-102130301D01*
X230142146Y-102163757D01*
X230118081Y-102193081D01*
X230088757Y-102217146D01*
X230055301Y-102235029D01*
X230019002Y-102246040D01*
X229978796Y-102250000D01*
X229421204Y-102250000D01*
X229380998Y-102246040D01*
X229344699Y-102235029D01*
X229311243Y-102217146D01*
X229281919Y-102193081D01*
X229257854Y-102163757D01*
X229239971Y-102130301D01*
X229228960Y-102094002D01*
X229225000Y-102053796D01*
X229225000Y-101571204D01*
X229228960Y-101530998D01*
X229239971Y-101494699D01*
X229257854Y-101461243D01*
X229281919Y-101431919D01*
X229311243Y-101407854D01*
X229344699Y-101389971D01*
X229380998Y-101378960D01*
X229421204Y-101375000D01*
X229978796Y-101375000D01*
X230019002Y-101378960D01*
X230019002Y-101378960D01*
G37*
G36*
X254256629Y-97932299D02*
G01*
X254351066Y-97960946D01*
X254416855Y-97980903D01*
X254452452Y-97999930D01*
X254564518Y-98059830D01*
X254693948Y-98166052D01*
X254800170Y-98295482D01*
X254834961Y-98360573D01*
X254879097Y-98443145D01*
X254899054Y-98508934D01*
X254927701Y-98603371D01*
X254944112Y-98770000D01*
X254927701Y-98936629D01*
X254899054Y-99031066D01*
X254879097Y-99096855D01*
X254879096Y-99096856D01*
X254800170Y-99244518D01*
X254693948Y-99373948D01*
X254564518Y-99480170D01*
X254452452Y-99540070D01*
X254416855Y-99559097D01*
X254351066Y-99579054D01*
X254256629Y-99607701D01*
X254131753Y-99620000D01*
X254048247Y-99620000D01*
X253923371Y-99607701D01*
X253828934Y-99579054D01*
X253763145Y-99559097D01*
X253727548Y-99540070D01*
X253615482Y-99480170D01*
X253486052Y-99373948D01*
X253379830Y-99244518D01*
X253300904Y-99096856D01*
X253300903Y-99096855D01*
X253280946Y-99031066D01*
X253252299Y-98936629D01*
X253235888Y-98770000D01*
X253252299Y-98603371D01*
X253280946Y-98508934D01*
X253300903Y-98443145D01*
X253345039Y-98360573D01*
X253379830Y-98295482D01*
X253486052Y-98166052D01*
X253615482Y-98059830D01*
X253727548Y-97999930D01*
X253763145Y-97980903D01*
X253828934Y-97960946D01*
X253923371Y-97932299D01*
X254048247Y-97920000D01*
X254131753Y-97920000D01*
X254256629Y-97932299D01*
X254256629Y-97932299D01*
G37*
G36*
X256796629Y-97932299D02*
G01*
X256891066Y-97960946D01*
X256956855Y-97980903D01*
X256992452Y-97999930D01*
X257104518Y-98059830D01*
X257233948Y-98166052D01*
X257340170Y-98295482D01*
X257374961Y-98360573D01*
X257419097Y-98443145D01*
X257439054Y-98508934D01*
X257467701Y-98603371D01*
X257484112Y-98770000D01*
X257467701Y-98936629D01*
X257439054Y-99031066D01*
X257419097Y-99096855D01*
X257419096Y-99096856D01*
X257340170Y-99244518D01*
X257233948Y-99373948D01*
X257104518Y-99480170D01*
X256992452Y-99540070D01*
X256956855Y-99559097D01*
X256891066Y-99579054D01*
X256796629Y-99607701D01*
X256671753Y-99620000D01*
X256588247Y-99620000D01*
X256463371Y-99607701D01*
X256368934Y-99579054D01*
X256303145Y-99559097D01*
X256267548Y-99540070D01*
X256155482Y-99480170D01*
X256026052Y-99373948D01*
X255919830Y-99244518D01*
X255840904Y-99096856D01*
X255840903Y-99096855D01*
X255820946Y-99031066D01*
X255792299Y-98936629D01*
X255775888Y-98770000D01*
X255792299Y-98603371D01*
X255820946Y-98508934D01*
X255840903Y-98443145D01*
X255885039Y-98360573D01*
X255919830Y-98295482D01*
X256026052Y-98166052D01*
X256155482Y-98059830D01*
X256267548Y-97999930D01*
X256303145Y-97980903D01*
X256368934Y-97960946D01*
X256463371Y-97932299D01*
X256588247Y-97920000D01*
X256671753Y-97920000D01*
X256796629Y-97932299D01*
X256796629Y-97932299D01*
G37*
G36*
X251716629Y-97932299D02*
G01*
X251811066Y-97960946D01*
X251876855Y-97980903D01*
X251912452Y-97999930D01*
X252024518Y-98059830D01*
X252153948Y-98166052D01*
X252260170Y-98295482D01*
X252294961Y-98360573D01*
X252339097Y-98443145D01*
X252359054Y-98508934D01*
X252387701Y-98603371D01*
X252404112Y-98770000D01*
X252387701Y-98936629D01*
X252359054Y-99031066D01*
X252339097Y-99096855D01*
X252339096Y-99096856D01*
X252260170Y-99244518D01*
X252153948Y-99373948D01*
X252024518Y-99480170D01*
X251912452Y-99540070D01*
X251876855Y-99559097D01*
X251811066Y-99579054D01*
X251716629Y-99607701D01*
X251591753Y-99620000D01*
X251508247Y-99620000D01*
X251383371Y-99607701D01*
X251288934Y-99579054D01*
X251223145Y-99559097D01*
X251187548Y-99540070D01*
X251075482Y-99480170D01*
X250946052Y-99373948D01*
X250839830Y-99244518D01*
X250760904Y-99096856D01*
X250760903Y-99096855D01*
X250740946Y-99031066D01*
X250712299Y-98936629D01*
X250695888Y-98770000D01*
X250712299Y-98603371D01*
X250740946Y-98508934D01*
X250760903Y-98443145D01*
X250805039Y-98360573D01*
X250839830Y-98295482D01*
X250946052Y-98166052D01*
X251075482Y-98059830D01*
X251187548Y-97999930D01*
X251223145Y-97980903D01*
X251288934Y-97960946D01*
X251383371Y-97932299D01*
X251508247Y-97920000D01*
X251591753Y-97920000D01*
X251716629Y-97932299D01*
X251716629Y-97932299D01*
G37*
G36*
X249176629Y-97932299D02*
G01*
X249271066Y-97960946D01*
X249336855Y-97980903D01*
X249372452Y-97999930D01*
X249484518Y-98059830D01*
X249613948Y-98166052D01*
X249720170Y-98295482D01*
X249754961Y-98360573D01*
X249799097Y-98443145D01*
X249819054Y-98508934D01*
X249847701Y-98603371D01*
X249864112Y-98770000D01*
X249847701Y-98936629D01*
X249819054Y-99031066D01*
X249799097Y-99096855D01*
X249799096Y-99096856D01*
X249720170Y-99244518D01*
X249613948Y-99373948D01*
X249484518Y-99480170D01*
X249372452Y-99540070D01*
X249336855Y-99559097D01*
X249271066Y-99579054D01*
X249176629Y-99607701D01*
X249051753Y-99620000D01*
X248968247Y-99620000D01*
X248843371Y-99607701D01*
X248748934Y-99579054D01*
X248683145Y-99559097D01*
X248647548Y-99540070D01*
X248535482Y-99480170D01*
X248406052Y-99373948D01*
X248299830Y-99244518D01*
X248220904Y-99096856D01*
X248220903Y-99096855D01*
X248200946Y-99031066D01*
X248172299Y-98936629D01*
X248155888Y-98770000D01*
X248172299Y-98603371D01*
X248200946Y-98508934D01*
X248220903Y-98443145D01*
X248265039Y-98360573D01*
X248299830Y-98295482D01*
X248406052Y-98166052D01*
X248535482Y-98059830D01*
X248647548Y-97999930D01*
X248683145Y-97980903D01*
X248748934Y-97960946D01*
X248843371Y-97932299D01*
X248968247Y-97920000D01*
X249051753Y-97920000D01*
X249176629Y-97932299D01*
X249176629Y-97932299D01*
G37*
G36*
X246636629Y-97932299D02*
G01*
X246731066Y-97960946D01*
X246796855Y-97980903D01*
X246832452Y-97999930D01*
X246944518Y-98059830D01*
X247073948Y-98166052D01*
X247180170Y-98295482D01*
X247214961Y-98360573D01*
X247259097Y-98443145D01*
X247279054Y-98508934D01*
X247307701Y-98603371D01*
X247324112Y-98770000D01*
X247307701Y-98936629D01*
X247279054Y-99031066D01*
X247259097Y-99096855D01*
X247259096Y-99096856D01*
X247180170Y-99244518D01*
X247073948Y-99373948D01*
X246944518Y-99480170D01*
X246832452Y-99540070D01*
X246796855Y-99559097D01*
X246731066Y-99579054D01*
X246636629Y-99607701D01*
X246511753Y-99620000D01*
X246428247Y-99620000D01*
X246303371Y-99607701D01*
X246208934Y-99579054D01*
X246143145Y-99559097D01*
X246107548Y-99540070D01*
X245995482Y-99480170D01*
X245866052Y-99373948D01*
X245759830Y-99244518D01*
X245680904Y-99096856D01*
X245680903Y-99096855D01*
X245660946Y-99031066D01*
X245632299Y-98936629D01*
X245615888Y-98770000D01*
X245632299Y-98603371D01*
X245660946Y-98508934D01*
X245680903Y-98443145D01*
X245725039Y-98360573D01*
X245759830Y-98295482D01*
X245866052Y-98166052D01*
X245995482Y-98059830D01*
X246107548Y-97999930D01*
X246143145Y-97980903D01*
X246208934Y-97960946D01*
X246303371Y-97932299D01*
X246428247Y-97920000D01*
X246511753Y-97920000D01*
X246636629Y-97932299D01*
X246636629Y-97932299D01*
G37*
G36*
X244096629Y-97932299D02*
G01*
X244191066Y-97960946D01*
X244256855Y-97980903D01*
X244292452Y-97999930D01*
X244404518Y-98059830D01*
X244533948Y-98166052D01*
X244640170Y-98295482D01*
X244674961Y-98360573D01*
X244719097Y-98443145D01*
X244739054Y-98508934D01*
X244767701Y-98603371D01*
X244784112Y-98770000D01*
X244767701Y-98936629D01*
X244739054Y-99031066D01*
X244719097Y-99096855D01*
X244719096Y-99096856D01*
X244640170Y-99244518D01*
X244533948Y-99373948D01*
X244404518Y-99480170D01*
X244292452Y-99540070D01*
X244256855Y-99559097D01*
X244191066Y-99579054D01*
X244096629Y-99607701D01*
X243971753Y-99620000D01*
X243888247Y-99620000D01*
X243763371Y-99607701D01*
X243668934Y-99579054D01*
X243603145Y-99559097D01*
X243567548Y-99540070D01*
X243455482Y-99480170D01*
X243326052Y-99373948D01*
X243219830Y-99244518D01*
X243140904Y-99096856D01*
X243140903Y-99096855D01*
X243120946Y-99031066D01*
X243092299Y-98936629D01*
X243075888Y-98770000D01*
X243092299Y-98603371D01*
X243120946Y-98508934D01*
X243140903Y-98443145D01*
X243185039Y-98360573D01*
X243219830Y-98295482D01*
X243326052Y-98166052D01*
X243455482Y-98059830D01*
X243567548Y-97999930D01*
X243603145Y-97980903D01*
X243668934Y-97960946D01*
X243763371Y-97932299D01*
X243888247Y-97920000D01*
X243971753Y-97920000D01*
X244096629Y-97932299D01*
X244096629Y-97932299D01*
G37*
G36*
X241556629Y-97932299D02*
G01*
X241651066Y-97960946D01*
X241716855Y-97980903D01*
X241752452Y-97999930D01*
X241864518Y-98059830D01*
X241993948Y-98166052D01*
X242100170Y-98295482D01*
X242134961Y-98360573D01*
X242179097Y-98443145D01*
X242199054Y-98508934D01*
X242227701Y-98603371D01*
X242244112Y-98770000D01*
X242227701Y-98936629D01*
X242199054Y-99031066D01*
X242179097Y-99096855D01*
X242179096Y-99096856D01*
X242100170Y-99244518D01*
X241993948Y-99373948D01*
X241864518Y-99480170D01*
X241752452Y-99540070D01*
X241716855Y-99559097D01*
X241651066Y-99579054D01*
X241556629Y-99607701D01*
X241431753Y-99620000D01*
X241348247Y-99620000D01*
X241223371Y-99607701D01*
X241128934Y-99579054D01*
X241063145Y-99559097D01*
X241027548Y-99540070D01*
X240915482Y-99480170D01*
X240786052Y-99373948D01*
X240679830Y-99244518D01*
X240600904Y-99096856D01*
X240600903Y-99096855D01*
X240580946Y-99031066D01*
X240552299Y-98936629D01*
X240535888Y-98770000D01*
X240552299Y-98603371D01*
X240580946Y-98508934D01*
X240600903Y-98443145D01*
X240645039Y-98360573D01*
X240679830Y-98295482D01*
X240786052Y-98166052D01*
X240915482Y-98059830D01*
X241027548Y-97999930D01*
X241063145Y-97980903D01*
X241128934Y-97960946D01*
X241223371Y-97932299D01*
X241348247Y-97920000D01*
X241431753Y-97920000D01*
X241556629Y-97932299D01*
X241556629Y-97932299D01*
G37*
G36*
X239016629Y-97932299D02*
G01*
X239111066Y-97960946D01*
X239176855Y-97980903D01*
X239212452Y-97999930D01*
X239324518Y-98059830D01*
X239453948Y-98166052D01*
X239560170Y-98295482D01*
X239594961Y-98360573D01*
X239639097Y-98443145D01*
X239659054Y-98508934D01*
X239687701Y-98603371D01*
X239704112Y-98770000D01*
X239687701Y-98936629D01*
X239659054Y-99031066D01*
X239639097Y-99096855D01*
X239639096Y-99096856D01*
X239560170Y-99244518D01*
X239453948Y-99373948D01*
X239324518Y-99480170D01*
X239212452Y-99540070D01*
X239176855Y-99559097D01*
X239111066Y-99579054D01*
X239016629Y-99607701D01*
X238891753Y-99620000D01*
X238808247Y-99620000D01*
X238683371Y-99607701D01*
X238588934Y-99579054D01*
X238523145Y-99559097D01*
X238487548Y-99540070D01*
X238375482Y-99480170D01*
X238246052Y-99373948D01*
X238139830Y-99244518D01*
X238060904Y-99096856D01*
X238060903Y-99096855D01*
X238040946Y-99031066D01*
X238012299Y-98936629D01*
X237995888Y-98770000D01*
X238012299Y-98603371D01*
X238040946Y-98508934D01*
X238060903Y-98443145D01*
X238105039Y-98360573D01*
X238139830Y-98295482D01*
X238246052Y-98166052D01*
X238375482Y-98059830D01*
X238487548Y-97999930D01*
X238523145Y-97980903D01*
X238588934Y-97960946D01*
X238683371Y-97932299D01*
X238808247Y-97920000D01*
X238891753Y-97920000D01*
X239016629Y-97932299D01*
X239016629Y-97932299D01*
G37*
G36*
X236476629Y-97932299D02*
G01*
X236571066Y-97960946D01*
X236636855Y-97980903D01*
X236672452Y-97999930D01*
X236784518Y-98059830D01*
X236913948Y-98166052D01*
X237020170Y-98295482D01*
X237054961Y-98360573D01*
X237099097Y-98443145D01*
X237119054Y-98508934D01*
X237147701Y-98603371D01*
X237164112Y-98770000D01*
X237147701Y-98936629D01*
X237119054Y-99031066D01*
X237099097Y-99096855D01*
X237099096Y-99096856D01*
X237020170Y-99244518D01*
X236913948Y-99373948D01*
X236784518Y-99480170D01*
X236672452Y-99540070D01*
X236636855Y-99559097D01*
X236571066Y-99579054D01*
X236476629Y-99607701D01*
X236351753Y-99620000D01*
X236268247Y-99620000D01*
X236143371Y-99607701D01*
X236048934Y-99579054D01*
X235983145Y-99559097D01*
X235947548Y-99540070D01*
X235835482Y-99480170D01*
X235706052Y-99373948D01*
X235599830Y-99244518D01*
X235520904Y-99096856D01*
X235520903Y-99096855D01*
X235500946Y-99031066D01*
X235472299Y-98936629D01*
X235455888Y-98770000D01*
X235472299Y-98603371D01*
X235500946Y-98508934D01*
X235520903Y-98443145D01*
X235565039Y-98360573D01*
X235599830Y-98295482D01*
X235706052Y-98166052D01*
X235835482Y-98059830D01*
X235947548Y-97999930D01*
X235983145Y-97980903D01*
X236048934Y-97960946D01*
X236143371Y-97932299D01*
X236268247Y-97920000D01*
X236351753Y-97920000D01*
X236476629Y-97932299D01*
X236476629Y-97932299D01*
G37*
G36*
X233936629Y-97932299D02*
G01*
X234031066Y-97960946D01*
X234096855Y-97980903D01*
X234132452Y-97999930D01*
X234244518Y-98059830D01*
X234373948Y-98166052D01*
X234480170Y-98295482D01*
X234514961Y-98360573D01*
X234559097Y-98443145D01*
X234579054Y-98508934D01*
X234607701Y-98603371D01*
X234624112Y-98770000D01*
X234607701Y-98936629D01*
X234579054Y-99031066D01*
X234559097Y-99096855D01*
X234559096Y-99096856D01*
X234480170Y-99244518D01*
X234373948Y-99373948D01*
X234244518Y-99480170D01*
X234132452Y-99540070D01*
X234096855Y-99559097D01*
X234031066Y-99579054D01*
X233936629Y-99607701D01*
X233811753Y-99620000D01*
X233728247Y-99620000D01*
X233603371Y-99607701D01*
X233508934Y-99579054D01*
X233443145Y-99559097D01*
X233407548Y-99540070D01*
X233295482Y-99480170D01*
X233166052Y-99373948D01*
X233059830Y-99244518D01*
X232980904Y-99096856D01*
X232980903Y-99096855D01*
X232960946Y-99031066D01*
X232932299Y-98936629D01*
X232915888Y-98770000D01*
X232932299Y-98603371D01*
X232960946Y-98508934D01*
X232980903Y-98443145D01*
X233025039Y-98360573D01*
X233059830Y-98295482D01*
X233166052Y-98166052D01*
X233295482Y-98059830D01*
X233407548Y-97999930D01*
X233443145Y-97980903D01*
X233508934Y-97960946D01*
X233603371Y-97932299D01*
X233728247Y-97920000D01*
X233811753Y-97920000D01*
X233936629Y-97932299D01*
X233936629Y-97932299D01*
G37*
G36*
X228856629Y-97932299D02*
G01*
X228951066Y-97960946D01*
X229016855Y-97980903D01*
X229052452Y-97999930D01*
X229164518Y-98059830D01*
X229293948Y-98166052D01*
X229400170Y-98295482D01*
X229434961Y-98360573D01*
X229479097Y-98443145D01*
X229499054Y-98508934D01*
X229527701Y-98603371D01*
X229544112Y-98770000D01*
X229527701Y-98936629D01*
X229499054Y-99031066D01*
X229479097Y-99096855D01*
X229479096Y-99096856D01*
X229400170Y-99244518D01*
X229293948Y-99373948D01*
X229164518Y-99480170D01*
X229052452Y-99540070D01*
X229016855Y-99559097D01*
X228951066Y-99579054D01*
X228856629Y-99607701D01*
X228731753Y-99620000D01*
X228648247Y-99620000D01*
X228523371Y-99607701D01*
X228428934Y-99579054D01*
X228363145Y-99559097D01*
X228327548Y-99540070D01*
X228215482Y-99480170D01*
X228086052Y-99373948D01*
X227979830Y-99244518D01*
X227900904Y-99096856D01*
X227900903Y-99096855D01*
X227880946Y-99031066D01*
X227852299Y-98936629D01*
X227835888Y-98770000D01*
X227852299Y-98603371D01*
X227880946Y-98508934D01*
X227900903Y-98443145D01*
X227945039Y-98360573D01*
X227979830Y-98295482D01*
X228086052Y-98166052D01*
X228215482Y-98059830D01*
X228327548Y-97999930D01*
X228363145Y-97980903D01*
X228428934Y-97960946D01*
X228523371Y-97932299D01*
X228648247Y-97920000D01*
X228731753Y-97920000D01*
X228856629Y-97932299D01*
X228856629Y-97932299D01*
G37*
G36*
X226316629Y-97932299D02*
G01*
X226411066Y-97960946D01*
X226476855Y-97980903D01*
X226512452Y-97999930D01*
X226624518Y-98059830D01*
X226753948Y-98166052D01*
X226860170Y-98295482D01*
X226894961Y-98360573D01*
X226939097Y-98443145D01*
X226959054Y-98508934D01*
X226987701Y-98603371D01*
X227004112Y-98770000D01*
X226987701Y-98936629D01*
X226959054Y-99031066D01*
X226939097Y-99096855D01*
X226939096Y-99096856D01*
X226860170Y-99244518D01*
X226753948Y-99373948D01*
X226624518Y-99480170D01*
X226512452Y-99540070D01*
X226476855Y-99559097D01*
X226411066Y-99579054D01*
X226316629Y-99607701D01*
X226191753Y-99620000D01*
X226108247Y-99620000D01*
X225983371Y-99607701D01*
X225888934Y-99579054D01*
X225823145Y-99559097D01*
X225787548Y-99540070D01*
X225675482Y-99480170D01*
X225546052Y-99373948D01*
X225439830Y-99244518D01*
X225360904Y-99096856D01*
X225360903Y-99096855D01*
X225340946Y-99031066D01*
X225312299Y-98936629D01*
X225295888Y-98770000D01*
X225312299Y-98603371D01*
X225340946Y-98508934D01*
X225360903Y-98443145D01*
X225405039Y-98360573D01*
X225439830Y-98295482D01*
X225546052Y-98166052D01*
X225675482Y-98059830D01*
X225787548Y-97999930D01*
X225823145Y-97980903D01*
X225888934Y-97960946D01*
X225983371Y-97932299D01*
X226108247Y-97920000D01*
X226191753Y-97920000D01*
X226316629Y-97932299D01*
X226316629Y-97932299D01*
G37*
G36*
X223776629Y-97932299D02*
G01*
X223871066Y-97960946D01*
X223936855Y-97980903D01*
X223972452Y-97999930D01*
X224084518Y-98059830D01*
X224213948Y-98166052D01*
X224320170Y-98295482D01*
X224354961Y-98360573D01*
X224399097Y-98443145D01*
X224419054Y-98508934D01*
X224447701Y-98603371D01*
X224464112Y-98770000D01*
X224447701Y-98936629D01*
X224419054Y-99031066D01*
X224399097Y-99096855D01*
X224399096Y-99096856D01*
X224320170Y-99244518D01*
X224213948Y-99373948D01*
X224084518Y-99480170D01*
X223972452Y-99540070D01*
X223936855Y-99559097D01*
X223871066Y-99579054D01*
X223776629Y-99607701D01*
X223651753Y-99620000D01*
X223568247Y-99620000D01*
X223443371Y-99607701D01*
X223348934Y-99579054D01*
X223283145Y-99559097D01*
X223247548Y-99540070D01*
X223135482Y-99480170D01*
X223006052Y-99373948D01*
X222899830Y-99244518D01*
X222820904Y-99096856D01*
X222820903Y-99096855D01*
X222800946Y-99031066D01*
X222772299Y-98936629D01*
X222755888Y-98770000D01*
X222772299Y-98603371D01*
X222800946Y-98508934D01*
X222820903Y-98443145D01*
X222865039Y-98360573D01*
X222899830Y-98295482D01*
X223006052Y-98166052D01*
X223135482Y-98059830D01*
X223247548Y-97999930D01*
X223283145Y-97980903D01*
X223348934Y-97960946D01*
X223443371Y-97932299D01*
X223568247Y-97920000D01*
X223651753Y-97920000D01*
X223776629Y-97932299D01*
X223776629Y-97932299D01*
G37*
G36*
X221236629Y-97932299D02*
G01*
X221331066Y-97960946D01*
X221396855Y-97980903D01*
X221432452Y-97999930D01*
X221544518Y-98059830D01*
X221673948Y-98166052D01*
X221780170Y-98295482D01*
X221814961Y-98360573D01*
X221859097Y-98443145D01*
X221879054Y-98508934D01*
X221907701Y-98603371D01*
X221924112Y-98770000D01*
X221907701Y-98936629D01*
X221879054Y-99031066D01*
X221859097Y-99096855D01*
X221859096Y-99096856D01*
X221780170Y-99244518D01*
X221673948Y-99373948D01*
X221544518Y-99480170D01*
X221432452Y-99540070D01*
X221396855Y-99559097D01*
X221331066Y-99579054D01*
X221236629Y-99607701D01*
X221111753Y-99620000D01*
X221028247Y-99620000D01*
X220903371Y-99607701D01*
X220808934Y-99579054D01*
X220743145Y-99559097D01*
X220707548Y-99540070D01*
X220595482Y-99480170D01*
X220466052Y-99373948D01*
X220359830Y-99244518D01*
X220280904Y-99096856D01*
X220280903Y-99096855D01*
X220260946Y-99031066D01*
X220232299Y-98936629D01*
X220215888Y-98770000D01*
X220232299Y-98603371D01*
X220260946Y-98508934D01*
X220280903Y-98443145D01*
X220325039Y-98360573D01*
X220359830Y-98295482D01*
X220466052Y-98166052D01*
X220595482Y-98059830D01*
X220707548Y-97999930D01*
X220743145Y-97980903D01*
X220808934Y-97960946D01*
X220903371Y-97932299D01*
X221028247Y-97920000D01*
X221111753Y-97920000D01*
X221236629Y-97932299D01*
X221236629Y-97932299D01*
G37*
G36*
X218696629Y-97932299D02*
G01*
X218791066Y-97960946D01*
X218856855Y-97980903D01*
X218892452Y-97999930D01*
X219004518Y-98059830D01*
X219133948Y-98166052D01*
X219240170Y-98295482D01*
X219274961Y-98360573D01*
X219319097Y-98443145D01*
X219339054Y-98508934D01*
X219367701Y-98603371D01*
X219384112Y-98770000D01*
X219367701Y-98936629D01*
X219339054Y-99031066D01*
X219319097Y-99096855D01*
X219319096Y-99096856D01*
X219240170Y-99244518D01*
X219133948Y-99373948D01*
X219004518Y-99480170D01*
X218892452Y-99540070D01*
X218856855Y-99559097D01*
X218791066Y-99579054D01*
X218696629Y-99607701D01*
X218571753Y-99620000D01*
X218488247Y-99620000D01*
X218363371Y-99607701D01*
X218268934Y-99579054D01*
X218203145Y-99559097D01*
X218167548Y-99540070D01*
X218055482Y-99480170D01*
X217926052Y-99373948D01*
X217819830Y-99244518D01*
X217740904Y-99096856D01*
X217740903Y-99096855D01*
X217720946Y-99031066D01*
X217692299Y-98936629D01*
X217675888Y-98770000D01*
X217692299Y-98603371D01*
X217720946Y-98508934D01*
X217740903Y-98443145D01*
X217785039Y-98360573D01*
X217819830Y-98295482D01*
X217926052Y-98166052D01*
X218055482Y-98059830D01*
X218167548Y-97999930D01*
X218203145Y-97980903D01*
X218268934Y-97960946D01*
X218363371Y-97932299D01*
X218488247Y-97920000D01*
X218571753Y-97920000D01*
X218696629Y-97932299D01*
X218696629Y-97932299D01*
G37*
G36*
X213616629Y-97932299D02*
G01*
X213711066Y-97960946D01*
X213776855Y-97980903D01*
X213812452Y-97999930D01*
X213924518Y-98059830D01*
X214053948Y-98166052D01*
X214160170Y-98295482D01*
X214194961Y-98360573D01*
X214239097Y-98443145D01*
X214259054Y-98508934D01*
X214287701Y-98603371D01*
X214304112Y-98770000D01*
X214287701Y-98936629D01*
X214259054Y-99031066D01*
X214239097Y-99096855D01*
X214239096Y-99096856D01*
X214160170Y-99244518D01*
X214053948Y-99373948D01*
X213924518Y-99480170D01*
X213812452Y-99540070D01*
X213776855Y-99559097D01*
X213711066Y-99579054D01*
X213616629Y-99607701D01*
X213491753Y-99620000D01*
X213408247Y-99620000D01*
X213283371Y-99607701D01*
X213188934Y-99579054D01*
X213123145Y-99559097D01*
X213087548Y-99540070D01*
X212975482Y-99480170D01*
X212846052Y-99373948D01*
X212739830Y-99244518D01*
X212660904Y-99096856D01*
X212660903Y-99096855D01*
X212640946Y-99031066D01*
X212612299Y-98936629D01*
X212595888Y-98770000D01*
X212612299Y-98603371D01*
X212640946Y-98508934D01*
X212660903Y-98443145D01*
X212705039Y-98360573D01*
X212739830Y-98295482D01*
X212846052Y-98166052D01*
X212975482Y-98059830D01*
X213087548Y-97999930D01*
X213123145Y-97980903D01*
X213188934Y-97960946D01*
X213283371Y-97932299D01*
X213408247Y-97920000D01*
X213491753Y-97920000D01*
X213616629Y-97932299D01*
X213616629Y-97932299D01*
G37*
G36*
X209220000Y-99620000D02*
G01*
X207520000Y-99620000D01*
X207520000Y-97920000D01*
X209220000Y-97920000D01*
X209220000Y-99620000D01*
X209220000Y-99620000D01*
G37*
G36*
X211076629Y-97932299D02*
G01*
X211171066Y-97960946D01*
X211236855Y-97980903D01*
X211272452Y-97999930D01*
X211384518Y-98059830D01*
X211513948Y-98166052D01*
X211620170Y-98295482D01*
X211654961Y-98360573D01*
X211699097Y-98443145D01*
X211719054Y-98508934D01*
X211747701Y-98603371D01*
X211764112Y-98770000D01*
X211747701Y-98936629D01*
X211719054Y-99031066D01*
X211699097Y-99096855D01*
X211699096Y-99096856D01*
X211620170Y-99244518D01*
X211513948Y-99373948D01*
X211384518Y-99480170D01*
X211272452Y-99540070D01*
X211236855Y-99559097D01*
X211171066Y-99579054D01*
X211076629Y-99607701D01*
X210951753Y-99620000D01*
X210868247Y-99620000D01*
X210743371Y-99607701D01*
X210648934Y-99579054D01*
X210583145Y-99559097D01*
X210547548Y-99540070D01*
X210435482Y-99480170D01*
X210306052Y-99373948D01*
X210199830Y-99244518D01*
X210120904Y-99096856D01*
X210120903Y-99096855D01*
X210100946Y-99031066D01*
X210072299Y-98936629D01*
X210055888Y-98770000D01*
X210072299Y-98603371D01*
X210100946Y-98508934D01*
X210120903Y-98443145D01*
X210165039Y-98360573D01*
X210199830Y-98295482D01*
X210306052Y-98166052D01*
X210435482Y-98059830D01*
X210547548Y-97999930D01*
X210583145Y-97980903D01*
X210648934Y-97960946D01*
X210743371Y-97932299D01*
X210868247Y-97920000D01*
X210951753Y-97920000D01*
X211076629Y-97932299D01*
X211076629Y-97932299D01*
G37*
G36*
X216156629Y-97932299D02*
G01*
X216251066Y-97960946D01*
X216316855Y-97980903D01*
X216352452Y-97999930D01*
X216464518Y-98059830D01*
X216593948Y-98166052D01*
X216700170Y-98295482D01*
X216734961Y-98360573D01*
X216779097Y-98443145D01*
X216799054Y-98508934D01*
X216827701Y-98603371D01*
X216844112Y-98770000D01*
X216827701Y-98936629D01*
X216799054Y-99031066D01*
X216779097Y-99096855D01*
X216779096Y-99096856D01*
X216700170Y-99244518D01*
X216593948Y-99373948D01*
X216464518Y-99480170D01*
X216352452Y-99540070D01*
X216316855Y-99559097D01*
X216251066Y-99579054D01*
X216156629Y-99607701D01*
X216031753Y-99620000D01*
X215948247Y-99620000D01*
X215823371Y-99607701D01*
X215728934Y-99579054D01*
X215663145Y-99559097D01*
X215627548Y-99540070D01*
X215515482Y-99480170D01*
X215386052Y-99373948D01*
X215279830Y-99244518D01*
X215200904Y-99096856D01*
X215200903Y-99096855D01*
X215180946Y-99031066D01*
X215152299Y-98936629D01*
X215135888Y-98770000D01*
X215152299Y-98603371D01*
X215180946Y-98508934D01*
X215200903Y-98443145D01*
X215245039Y-98360573D01*
X215279830Y-98295482D01*
X215386052Y-98166052D01*
X215515482Y-98059830D01*
X215627548Y-97999930D01*
X215663145Y-97980903D01*
X215728934Y-97960946D01*
X215823371Y-97932299D01*
X215948247Y-97920000D01*
X216031753Y-97920000D01*
X216156629Y-97932299D01*
X216156629Y-97932299D01*
G37*
G36*
X231396629Y-97932299D02*
G01*
X231491066Y-97960946D01*
X231556855Y-97980903D01*
X231592452Y-97999930D01*
X231704518Y-98059830D01*
X231833948Y-98166052D01*
X231940170Y-98295482D01*
X231974961Y-98360573D01*
X232019097Y-98443145D01*
X232039054Y-98508934D01*
X232067701Y-98603371D01*
X232084112Y-98770000D01*
X232067701Y-98936629D01*
X232039054Y-99031066D01*
X232019097Y-99096855D01*
X232019096Y-99096856D01*
X231940170Y-99244518D01*
X231833948Y-99373948D01*
X231704518Y-99480170D01*
X231592452Y-99540070D01*
X231556855Y-99559097D01*
X231491066Y-99579054D01*
X231396629Y-99607701D01*
X231271753Y-99620000D01*
X231188247Y-99620000D01*
X231063371Y-99607701D01*
X230968934Y-99579054D01*
X230903145Y-99559097D01*
X230867548Y-99540070D01*
X230755482Y-99480170D01*
X230626052Y-99373948D01*
X230519830Y-99244518D01*
X230440904Y-99096856D01*
X230440903Y-99096855D01*
X230420946Y-99031066D01*
X230392299Y-98936629D01*
X230375888Y-98770000D01*
X230392299Y-98603371D01*
X230420946Y-98508934D01*
X230440903Y-98443145D01*
X230485039Y-98360573D01*
X230519830Y-98295482D01*
X230626052Y-98166052D01*
X230755482Y-98059830D01*
X230867548Y-97999930D01*
X230903145Y-97980903D01*
X230968934Y-97960946D01*
X231063371Y-97932299D01*
X231188247Y-97920000D01*
X231271753Y-97920000D01*
X231396629Y-97932299D01*
X231396629Y-97932299D01*
G37*
G36*
X261893779Y-96201879D02*
G01*
X262139463Y-96303645D01*
X262139465Y-96303646D01*
X262360575Y-96451387D01*
X262548613Y-96639425D01*
X262592107Y-96704519D01*
X262696355Y-96860537D01*
X262798121Y-97106221D01*
X262850000Y-97367035D01*
X262850000Y-97632965D01*
X262798121Y-97893779D01*
X262729340Y-98059830D01*
X262696354Y-98139465D01*
X262548613Y-98360575D01*
X262360575Y-98548613D01*
X262139465Y-98696354D01*
X262139464Y-98696355D01*
X262139463Y-98696355D01*
X261893779Y-98798121D01*
X261632965Y-98850000D01*
X261367035Y-98850000D01*
X261106221Y-98798121D01*
X260860537Y-98696355D01*
X260860536Y-98696355D01*
X260860535Y-98696354D01*
X260639425Y-98548613D01*
X260451387Y-98360575D01*
X260303646Y-98139465D01*
X260270660Y-98059830D01*
X260201879Y-97893779D01*
X260150000Y-97632965D01*
X260150000Y-97367035D01*
X260201879Y-97106221D01*
X260303645Y-96860537D01*
X260407893Y-96704519D01*
X260451387Y-96639425D01*
X260639425Y-96451387D01*
X260860535Y-96303646D01*
X260860537Y-96303645D01*
X261106221Y-96201879D01*
X261367035Y-96150000D01*
X261632965Y-96150000D01*
X261893779Y-96201879D01*
X261893779Y-96201879D01*
G37*
G36*
X203893779Y-96201879D02*
G01*
X204139463Y-96303645D01*
X204139465Y-96303646D01*
X204360575Y-96451387D01*
X204548613Y-96639425D01*
X204592107Y-96704519D01*
X204696355Y-96860537D01*
X204798121Y-97106221D01*
X204850000Y-97367035D01*
X204850000Y-97632965D01*
X204798121Y-97893779D01*
X204729340Y-98059830D01*
X204696354Y-98139465D01*
X204548613Y-98360575D01*
X204360575Y-98548613D01*
X204139465Y-98696354D01*
X204139464Y-98696355D01*
X204139463Y-98696355D01*
X203893779Y-98798121D01*
X203632965Y-98850000D01*
X203367035Y-98850000D01*
X203106221Y-98798121D01*
X202860537Y-98696355D01*
X202860536Y-98696355D01*
X202860535Y-98696354D01*
X202639425Y-98548613D01*
X202451387Y-98360575D01*
X202303646Y-98139465D01*
X202270660Y-98059830D01*
X202201879Y-97893779D01*
X202150000Y-97632965D01*
X202150000Y-97367035D01*
X202201879Y-97106221D01*
X202303645Y-96860537D01*
X202407893Y-96704519D01*
X202451387Y-96639425D01*
X202639425Y-96451387D01*
X202860535Y-96303646D01*
X202860537Y-96303645D01*
X203106221Y-96201879D01*
X203367035Y-96150000D01*
X203632965Y-96150000D01*
X203893779Y-96201879D01*
X203893779Y-96201879D01*
G37*
G36*
X249176629Y-95392299D02*
G01*
X249271066Y-95420946D01*
X249336855Y-95440903D01*
X249372452Y-95459930D01*
X249484518Y-95519830D01*
X249613948Y-95626052D01*
X249720170Y-95755482D01*
X249780070Y-95867548D01*
X249799097Y-95903145D01*
X249819054Y-95968934D01*
X249847701Y-96063371D01*
X249864112Y-96230000D01*
X249847701Y-96396629D01*
X249831090Y-96451386D01*
X249799097Y-96556855D01*
X249799096Y-96556856D01*
X249720170Y-96704518D01*
X249613948Y-96833948D01*
X249484518Y-96940170D01*
X249372452Y-97000070D01*
X249336855Y-97019097D01*
X249271066Y-97039054D01*
X249176629Y-97067701D01*
X249051753Y-97080000D01*
X248968247Y-97080000D01*
X248843371Y-97067701D01*
X248748934Y-97039054D01*
X248683145Y-97019097D01*
X248647548Y-97000070D01*
X248535482Y-96940170D01*
X248406052Y-96833948D01*
X248299830Y-96704518D01*
X248220904Y-96556856D01*
X248220903Y-96556855D01*
X248188910Y-96451386D01*
X248172299Y-96396629D01*
X248155888Y-96230000D01*
X248172299Y-96063371D01*
X248200946Y-95968934D01*
X248220903Y-95903145D01*
X248239930Y-95867548D01*
X248299830Y-95755482D01*
X248406052Y-95626052D01*
X248535482Y-95519830D01*
X248647548Y-95459930D01*
X248683145Y-95440903D01*
X248748934Y-95420946D01*
X248843371Y-95392299D01*
X248968247Y-95380000D01*
X249051753Y-95380000D01*
X249176629Y-95392299D01*
X249176629Y-95392299D01*
G37*
G36*
X251716629Y-95392299D02*
G01*
X251811066Y-95420946D01*
X251876855Y-95440903D01*
X251912452Y-95459930D01*
X252024518Y-95519830D01*
X252153948Y-95626052D01*
X252260170Y-95755482D01*
X252320070Y-95867548D01*
X252339097Y-95903145D01*
X252359054Y-95968934D01*
X252387701Y-96063371D01*
X252404112Y-96230000D01*
X252387701Y-96396629D01*
X252371090Y-96451386D01*
X252339097Y-96556855D01*
X252339096Y-96556856D01*
X252260170Y-96704518D01*
X252153948Y-96833948D01*
X252024518Y-96940170D01*
X251912452Y-97000070D01*
X251876855Y-97019097D01*
X251811066Y-97039054D01*
X251716629Y-97067701D01*
X251591753Y-97080000D01*
X251508247Y-97080000D01*
X251383371Y-97067701D01*
X251288934Y-97039054D01*
X251223145Y-97019097D01*
X251187548Y-97000070D01*
X251075482Y-96940170D01*
X250946052Y-96833948D01*
X250839830Y-96704518D01*
X250760904Y-96556856D01*
X250760903Y-96556855D01*
X250728910Y-96451386D01*
X250712299Y-96396629D01*
X250695888Y-96230000D01*
X250712299Y-96063371D01*
X250740946Y-95968934D01*
X250760903Y-95903145D01*
X250779930Y-95867548D01*
X250839830Y-95755482D01*
X250946052Y-95626052D01*
X251075482Y-95519830D01*
X251187548Y-95459930D01*
X251223145Y-95440903D01*
X251288934Y-95420946D01*
X251383371Y-95392299D01*
X251508247Y-95380000D01*
X251591753Y-95380000D01*
X251716629Y-95392299D01*
X251716629Y-95392299D01*
G37*
G36*
X208536629Y-95392299D02*
G01*
X208631066Y-95420946D01*
X208696855Y-95440903D01*
X208732452Y-95459930D01*
X208844518Y-95519830D01*
X208973948Y-95626052D01*
X209080170Y-95755482D01*
X209140070Y-95867548D01*
X209159097Y-95903145D01*
X209179054Y-95968934D01*
X209207701Y-96063371D01*
X209224112Y-96230000D01*
X209207701Y-96396629D01*
X209191090Y-96451386D01*
X209159097Y-96556855D01*
X209159096Y-96556856D01*
X209080170Y-96704518D01*
X208973948Y-96833948D01*
X208844518Y-96940170D01*
X208732452Y-97000070D01*
X208696855Y-97019097D01*
X208631066Y-97039054D01*
X208536629Y-97067701D01*
X208411753Y-97080000D01*
X208328247Y-97080000D01*
X208203371Y-97067701D01*
X208108934Y-97039054D01*
X208043145Y-97019097D01*
X208007548Y-97000070D01*
X207895482Y-96940170D01*
X207766052Y-96833948D01*
X207659830Y-96704518D01*
X207580904Y-96556856D01*
X207580903Y-96556855D01*
X207548910Y-96451386D01*
X207532299Y-96396629D01*
X207515888Y-96230000D01*
X207532299Y-96063371D01*
X207560946Y-95968934D01*
X207580903Y-95903145D01*
X207599930Y-95867548D01*
X207659830Y-95755482D01*
X207766052Y-95626052D01*
X207895482Y-95519830D01*
X208007548Y-95459930D01*
X208043145Y-95440903D01*
X208108934Y-95420946D01*
X208203371Y-95392299D01*
X208328247Y-95380000D01*
X208411753Y-95380000D01*
X208536629Y-95392299D01*
X208536629Y-95392299D01*
G37*
G36*
X211076629Y-95392299D02*
G01*
X211171066Y-95420946D01*
X211236855Y-95440903D01*
X211272452Y-95459930D01*
X211384518Y-95519830D01*
X211513948Y-95626052D01*
X211620170Y-95755482D01*
X211680070Y-95867548D01*
X211699097Y-95903145D01*
X211719054Y-95968934D01*
X211747701Y-96063371D01*
X211764112Y-96230000D01*
X211747701Y-96396629D01*
X211731090Y-96451386D01*
X211699097Y-96556855D01*
X211699096Y-96556856D01*
X211620170Y-96704518D01*
X211513948Y-96833948D01*
X211384518Y-96940170D01*
X211272452Y-97000070D01*
X211236855Y-97019097D01*
X211171066Y-97039054D01*
X211076629Y-97067701D01*
X210951753Y-97080000D01*
X210868247Y-97080000D01*
X210743371Y-97067701D01*
X210648934Y-97039054D01*
X210583145Y-97019097D01*
X210547548Y-97000070D01*
X210435482Y-96940170D01*
X210306052Y-96833948D01*
X210199830Y-96704518D01*
X210120904Y-96556856D01*
X210120903Y-96556855D01*
X210088910Y-96451386D01*
X210072299Y-96396629D01*
X210055888Y-96230000D01*
X210072299Y-96063371D01*
X210100946Y-95968934D01*
X210120903Y-95903145D01*
X210139930Y-95867548D01*
X210199830Y-95755482D01*
X210306052Y-95626052D01*
X210435482Y-95519830D01*
X210547548Y-95459930D01*
X210583145Y-95440903D01*
X210648934Y-95420946D01*
X210743371Y-95392299D01*
X210868247Y-95380000D01*
X210951753Y-95380000D01*
X211076629Y-95392299D01*
X211076629Y-95392299D01*
G37*
G36*
X254256629Y-95392299D02*
G01*
X254351066Y-95420946D01*
X254416855Y-95440903D01*
X254452452Y-95459930D01*
X254564518Y-95519830D01*
X254693948Y-95626052D01*
X254800170Y-95755482D01*
X254860070Y-95867548D01*
X254879097Y-95903145D01*
X254899054Y-95968934D01*
X254927701Y-96063371D01*
X254944112Y-96230000D01*
X254927701Y-96396629D01*
X254911090Y-96451386D01*
X254879097Y-96556855D01*
X254879096Y-96556856D01*
X254800170Y-96704518D01*
X254693948Y-96833948D01*
X254564518Y-96940170D01*
X254452452Y-97000070D01*
X254416855Y-97019097D01*
X254351066Y-97039054D01*
X254256629Y-97067701D01*
X254131753Y-97080000D01*
X254048247Y-97080000D01*
X253923371Y-97067701D01*
X253828934Y-97039054D01*
X253763145Y-97019097D01*
X253727548Y-97000070D01*
X253615482Y-96940170D01*
X253486052Y-96833948D01*
X253379830Y-96704518D01*
X253300904Y-96556856D01*
X253300903Y-96556855D01*
X253268910Y-96451386D01*
X253252299Y-96396629D01*
X253235888Y-96230000D01*
X253252299Y-96063371D01*
X253280946Y-95968934D01*
X253300903Y-95903145D01*
X253319930Y-95867548D01*
X253379830Y-95755482D01*
X253486052Y-95626052D01*
X253615482Y-95519830D01*
X253727548Y-95459930D01*
X253763145Y-95440903D01*
X253828934Y-95420946D01*
X253923371Y-95392299D01*
X254048247Y-95380000D01*
X254131753Y-95380000D01*
X254256629Y-95392299D01*
X254256629Y-95392299D01*
G37*
G36*
X256796629Y-95392299D02*
G01*
X256891066Y-95420946D01*
X256956855Y-95440903D01*
X256992452Y-95459930D01*
X257104518Y-95519830D01*
X257233948Y-95626052D01*
X257340170Y-95755482D01*
X257400070Y-95867548D01*
X257419097Y-95903145D01*
X257439054Y-95968934D01*
X257467701Y-96063371D01*
X257484112Y-96230000D01*
X257467701Y-96396629D01*
X257451090Y-96451386D01*
X257419097Y-96556855D01*
X257419096Y-96556856D01*
X257340170Y-96704518D01*
X257233948Y-96833948D01*
X257104518Y-96940170D01*
X256992452Y-97000070D01*
X256956855Y-97019097D01*
X256891066Y-97039054D01*
X256796629Y-97067701D01*
X256671753Y-97080000D01*
X256588247Y-97080000D01*
X256463371Y-97067701D01*
X256368934Y-97039054D01*
X256303145Y-97019097D01*
X256267548Y-97000070D01*
X256155482Y-96940170D01*
X256026052Y-96833948D01*
X255919830Y-96704518D01*
X255840904Y-96556856D01*
X255840903Y-96556855D01*
X255808910Y-96451386D01*
X255792299Y-96396629D01*
X255775888Y-96230000D01*
X255792299Y-96063371D01*
X255820946Y-95968934D01*
X255840903Y-95903145D01*
X255859930Y-95867548D01*
X255919830Y-95755482D01*
X256026052Y-95626052D01*
X256155482Y-95519830D01*
X256267548Y-95459930D01*
X256303145Y-95440903D01*
X256368934Y-95420946D01*
X256463371Y-95392299D01*
X256588247Y-95380000D01*
X256671753Y-95380000D01*
X256796629Y-95392299D01*
X256796629Y-95392299D01*
G37*
G36*
X233936629Y-95392299D02*
G01*
X234031066Y-95420946D01*
X234096855Y-95440903D01*
X234132452Y-95459930D01*
X234244518Y-95519830D01*
X234373948Y-95626052D01*
X234480170Y-95755482D01*
X234540070Y-95867548D01*
X234559097Y-95903145D01*
X234579054Y-95968934D01*
X234607701Y-96063371D01*
X234624112Y-96230000D01*
X234607701Y-96396629D01*
X234591090Y-96451386D01*
X234559097Y-96556855D01*
X234559096Y-96556856D01*
X234480170Y-96704518D01*
X234373948Y-96833948D01*
X234244518Y-96940170D01*
X234132452Y-97000070D01*
X234096855Y-97019097D01*
X234031066Y-97039054D01*
X233936629Y-97067701D01*
X233811753Y-97080000D01*
X233728247Y-97080000D01*
X233603371Y-97067701D01*
X233508934Y-97039054D01*
X233443145Y-97019097D01*
X233407548Y-97000070D01*
X233295482Y-96940170D01*
X233166052Y-96833948D01*
X233059830Y-96704518D01*
X232980904Y-96556856D01*
X232980903Y-96556855D01*
X232948910Y-96451386D01*
X232932299Y-96396629D01*
X232915888Y-96230000D01*
X232932299Y-96063371D01*
X232960946Y-95968934D01*
X232980903Y-95903145D01*
X232999930Y-95867548D01*
X233059830Y-95755482D01*
X233166052Y-95626052D01*
X233295482Y-95519830D01*
X233407548Y-95459930D01*
X233443145Y-95440903D01*
X233508934Y-95420946D01*
X233603371Y-95392299D01*
X233728247Y-95380000D01*
X233811753Y-95380000D01*
X233936629Y-95392299D01*
X233936629Y-95392299D01*
G37*
G36*
X221236629Y-95392299D02*
G01*
X221331066Y-95420946D01*
X221396855Y-95440903D01*
X221432452Y-95459930D01*
X221544518Y-95519830D01*
X221673948Y-95626052D01*
X221780170Y-95755482D01*
X221840070Y-95867548D01*
X221859097Y-95903145D01*
X221879054Y-95968934D01*
X221907701Y-96063371D01*
X221924112Y-96230000D01*
X221907701Y-96396629D01*
X221891090Y-96451386D01*
X221859097Y-96556855D01*
X221859096Y-96556856D01*
X221780170Y-96704518D01*
X221673948Y-96833948D01*
X221544518Y-96940170D01*
X221432452Y-97000070D01*
X221396855Y-97019097D01*
X221331066Y-97039054D01*
X221236629Y-97067701D01*
X221111753Y-97080000D01*
X221028247Y-97080000D01*
X220903371Y-97067701D01*
X220808934Y-97039054D01*
X220743145Y-97019097D01*
X220707548Y-97000070D01*
X220595482Y-96940170D01*
X220466052Y-96833948D01*
X220359830Y-96704518D01*
X220280904Y-96556856D01*
X220280903Y-96556855D01*
X220248910Y-96451386D01*
X220232299Y-96396629D01*
X220215888Y-96230000D01*
X220232299Y-96063371D01*
X220260946Y-95968934D01*
X220280903Y-95903145D01*
X220299930Y-95867548D01*
X220359830Y-95755482D01*
X220466052Y-95626052D01*
X220595482Y-95519830D01*
X220707548Y-95459930D01*
X220743145Y-95440903D01*
X220808934Y-95420946D01*
X220903371Y-95392299D01*
X221028247Y-95380000D01*
X221111753Y-95380000D01*
X221236629Y-95392299D01*
X221236629Y-95392299D01*
G37*
G36*
X236476629Y-95392299D02*
G01*
X236571066Y-95420946D01*
X236636855Y-95440903D01*
X236672452Y-95459930D01*
X236784518Y-95519830D01*
X236913948Y-95626052D01*
X237020170Y-95755482D01*
X237080070Y-95867548D01*
X237099097Y-95903145D01*
X237119054Y-95968934D01*
X237147701Y-96063371D01*
X237164112Y-96230000D01*
X237147701Y-96396629D01*
X237131090Y-96451386D01*
X237099097Y-96556855D01*
X237099096Y-96556856D01*
X237020170Y-96704518D01*
X236913948Y-96833948D01*
X236784518Y-96940170D01*
X236672452Y-97000070D01*
X236636855Y-97019097D01*
X236571066Y-97039054D01*
X236476629Y-97067701D01*
X236351753Y-97080000D01*
X236268247Y-97080000D01*
X236143371Y-97067701D01*
X236048934Y-97039054D01*
X235983145Y-97019097D01*
X235947548Y-97000070D01*
X235835482Y-96940170D01*
X235706052Y-96833948D01*
X235599830Y-96704518D01*
X235520904Y-96556856D01*
X235520903Y-96556855D01*
X235488910Y-96451386D01*
X235472299Y-96396629D01*
X235455888Y-96230000D01*
X235472299Y-96063371D01*
X235500946Y-95968934D01*
X235520903Y-95903145D01*
X235539930Y-95867548D01*
X235599830Y-95755482D01*
X235706052Y-95626052D01*
X235835482Y-95519830D01*
X235947548Y-95459930D01*
X235983145Y-95440903D01*
X236048934Y-95420946D01*
X236143371Y-95392299D01*
X236268247Y-95380000D01*
X236351753Y-95380000D01*
X236476629Y-95392299D01*
X236476629Y-95392299D01*
G37*
G36*
X223776629Y-95392299D02*
G01*
X223871066Y-95420946D01*
X223936855Y-95440903D01*
X223972452Y-95459930D01*
X224084518Y-95519830D01*
X224213948Y-95626052D01*
X224320170Y-95755482D01*
X224380070Y-95867548D01*
X224399097Y-95903145D01*
X224419054Y-95968934D01*
X224447701Y-96063371D01*
X224464112Y-96230000D01*
X224447701Y-96396629D01*
X224431090Y-96451386D01*
X224399097Y-96556855D01*
X224399096Y-96556856D01*
X224320170Y-96704518D01*
X224213948Y-96833948D01*
X224084518Y-96940170D01*
X223972452Y-97000070D01*
X223936855Y-97019097D01*
X223871066Y-97039054D01*
X223776629Y-97067701D01*
X223651753Y-97080000D01*
X223568247Y-97080000D01*
X223443371Y-97067701D01*
X223348934Y-97039054D01*
X223283145Y-97019097D01*
X223247548Y-97000070D01*
X223135482Y-96940170D01*
X223006052Y-96833948D01*
X222899830Y-96704518D01*
X222820904Y-96556856D01*
X222820903Y-96556855D01*
X222788910Y-96451386D01*
X222772299Y-96396629D01*
X222755888Y-96230000D01*
X222772299Y-96063371D01*
X222800946Y-95968934D01*
X222820903Y-95903145D01*
X222839930Y-95867548D01*
X222899830Y-95755482D01*
X223006052Y-95626052D01*
X223135482Y-95519830D01*
X223247548Y-95459930D01*
X223283145Y-95440903D01*
X223348934Y-95420946D01*
X223443371Y-95392299D01*
X223568247Y-95380000D01*
X223651753Y-95380000D01*
X223776629Y-95392299D01*
X223776629Y-95392299D01*
G37*
G36*
X239016629Y-95392299D02*
G01*
X239111066Y-95420946D01*
X239176855Y-95440903D01*
X239212452Y-95459930D01*
X239324518Y-95519830D01*
X239453948Y-95626052D01*
X239560170Y-95755482D01*
X239620070Y-95867548D01*
X239639097Y-95903145D01*
X239659054Y-95968934D01*
X239687701Y-96063371D01*
X239704112Y-96230000D01*
X239687701Y-96396629D01*
X239671090Y-96451386D01*
X239639097Y-96556855D01*
X239639096Y-96556856D01*
X239560170Y-96704518D01*
X239453948Y-96833948D01*
X239324518Y-96940170D01*
X239212452Y-97000070D01*
X239176855Y-97019097D01*
X239111066Y-97039054D01*
X239016629Y-97067701D01*
X238891753Y-97080000D01*
X238808247Y-97080000D01*
X238683371Y-97067701D01*
X238588934Y-97039054D01*
X238523145Y-97019097D01*
X238487548Y-97000070D01*
X238375482Y-96940170D01*
X238246052Y-96833948D01*
X238139830Y-96704518D01*
X238060904Y-96556856D01*
X238060903Y-96556855D01*
X238028910Y-96451386D01*
X238012299Y-96396629D01*
X237995888Y-96230000D01*
X238012299Y-96063371D01*
X238040946Y-95968934D01*
X238060903Y-95903145D01*
X238079930Y-95867548D01*
X238139830Y-95755482D01*
X238246052Y-95626052D01*
X238375482Y-95519830D01*
X238487548Y-95459930D01*
X238523145Y-95440903D01*
X238588934Y-95420946D01*
X238683371Y-95392299D01*
X238808247Y-95380000D01*
X238891753Y-95380000D01*
X239016629Y-95392299D01*
X239016629Y-95392299D01*
G37*
G36*
X218696629Y-95392299D02*
G01*
X218791066Y-95420946D01*
X218856855Y-95440903D01*
X218892452Y-95459930D01*
X219004518Y-95519830D01*
X219133948Y-95626052D01*
X219240170Y-95755482D01*
X219300070Y-95867548D01*
X219319097Y-95903145D01*
X219339054Y-95968934D01*
X219367701Y-96063371D01*
X219384112Y-96230000D01*
X219367701Y-96396629D01*
X219351090Y-96451386D01*
X219319097Y-96556855D01*
X219319096Y-96556856D01*
X219240170Y-96704518D01*
X219133948Y-96833948D01*
X219004518Y-96940170D01*
X218892452Y-97000070D01*
X218856855Y-97019097D01*
X218791066Y-97039054D01*
X218696629Y-97067701D01*
X218571753Y-97080000D01*
X218488247Y-97080000D01*
X218363371Y-97067701D01*
X218268934Y-97039054D01*
X218203145Y-97019097D01*
X218167548Y-97000070D01*
X218055482Y-96940170D01*
X217926052Y-96833948D01*
X217819830Y-96704518D01*
X217740904Y-96556856D01*
X217740903Y-96556855D01*
X217708910Y-96451386D01*
X217692299Y-96396629D01*
X217675888Y-96230000D01*
X217692299Y-96063371D01*
X217720946Y-95968934D01*
X217740903Y-95903145D01*
X217759930Y-95867548D01*
X217819830Y-95755482D01*
X217926052Y-95626052D01*
X218055482Y-95519830D01*
X218167548Y-95459930D01*
X218203145Y-95440903D01*
X218268934Y-95420946D01*
X218363371Y-95392299D01*
X218488247Y-95380000D01*
X218571753Y-95380000D01*
X218696629Y-95392299D01*
X218696629Y-95392299D01*
G37*
G36*
X231396629Y-95392299D02*
G01*
X231491066Y-95420946D01*
X231556855Y-95440903D01*
X231592452Y-95459930D01*
X231704518Y-95519830D01*
X231833948Y-95626052D01*
X231940170Y-95755482D01*
X232000070Y-95867548D01*
X232019097Y-95903145D01*
X232039054Y-95968934D01*
X232067701Y-96063371D01*
X232084112Y-96230000D01*
X232067701Y-96396629D01*
X232051090Y-96451386D01*
X232019097Y-96556855D01*
X232019096Y-96556856D01*
X231940170Y-96704518D01*
X231833948Y-96833948D01*
X231704518Y-96940170D01*
X231592452Y-97000070D01*
X231556855Y-97019097D01*
X231491066Y-97039054D01*
X231396629Y-97067701D01*
X231271753Y-97080000D01*
X231188247Y-97080000D01*
X231063371Y-97067701D01*
X230968934Y-97039054D01*
X230903145Y-97019097D01*
X230867548Y-97000070D01*
X230755482Y-96940170D01*
X230626052Y-96833948D01*
X230519830Y-96704518D01*
X230440904Y-96556856D01*
X230440903Y-96556855D01*
X230408910Y-96451386D01*
X230392299Y-96396629D01*
X230375888Y-96230000D01*
X230392299Y-96063371D01*
X230420946Y-95968934D01*
X230440903Y-95903145D01*
X230459930Y-95867548D01*
X230519830Y-95755482D01*
X230626052Y-95626052D01*
X230755482Y-95519830D01*
X230867548Y-95459930D01*
X230903145Y-95440903D01*
X230968934Y-95420946D01*
X231063371Y-95392299D01*
X231188247Y-95380000D01*
X231271753Y-95380000D01*
X231396629Y-95392299D01*
X231396629Y-95392299D01*
G37*
G36*
X228856629Y-95392299D02*
G01*
X228951066Y-95420946D01*
X229016855Y-95440903D01*
X229052452Y-95459930D01*
X229164518Y-95519830D01*
X229293948Y-95626052D01*
X229400170Y-95755482D01*
X229460070Y-95867548D01*
X229479097Y-95903145D01*
X229499054Y-95968934D01*
X229527701Y-96063371D01*
X229544112Y-96230000D01*
X229527701Y-96396629D01*
X229511090Y-96451386D01*
X229479097Y-96556855D01*
X229479096Y-96556856D01*
X229400170Y-96704518D01*
X229293948Y-96833948D01*
X229164518Y-96940170D01*
X229052452Y-97000070D01*
X229016855Y-97019097D01*
X228951066Y-97039054D01*
X228856629Y-97067701D01*
X228731753Y-97080000D01*
X228648247Y-97080000D01*
X228523371Y-97067701D01*
X228428934Y-97039054D01*
X228363145Y-97019097D01*
X228327548Y-97000070D01*
X228215482Y-96940170D01*
X228086052Y-96833948D01*
X227979830Y-96704518D01*
X227900904Y-96556856D01*
X227900903Y-96556855D01*
X227868910Y-96451386D01*
X227852299Y-96396629D01*
X227835888Y-96230000D01*
X227852299Y-96063371D01*
X227880946Y-95968934D01*
X227900903Y-95903145D01*
X227919930Y-95867548D01*
X227979830Y-95755482D01*
X228086052Y-95626052D01*
X228215482Y-95519830D01*
X228327548Y-95459930D01*
X228363145Y-95440903D01*
X228428934Y-95420946D01*
X228523371Y-95392299D01*
X228648247Y-95380000D01*
X228731753Y-95380000D01*
X228856629Y-95392299D01*
X228856629Y-95392299D01*
G37*
G36*
X244096629Y-95392299D02*
G01*
X244191066Y-95420946D01*
X244256855Y-95440903D01*
X244292452Y-95459930D01*
X244404518Y-95519830D01*
X244533948Y-95626052D01*
X244640170Y-95755482D01*
X244700070Y-95867548D01*
X244719097Y-95903145D01*
X244739054Y-95968934D01*
X244767701Y-96063371D01*
X244784112Y-96230000D01*
X244767701Y-96396629D01*
X244751090Y-96451386D01*
X244719097Y-96556855D01*
X244719096Y-96556856D01*
X244640170Y-96704518D01*
X244533948Y-96833948D01*
X244404518Y-96940170D01*
X244292452Y-97000070D01*
X244256855Y-97019097D01*
X244191066Y-97039054D01*
X244096629Y-97067701D01*
X243971753Y-97080000D01*
X243888247Y-97080000D01*
X243763371Y-97067701D01*
X243668934Y-97039054D01*
X243603145Y-97019097D01*
X243567548Y-97000070D01*
X243455482Y-96940170D01*
X243326052Y-96833948D01*
X243219830Y-96704518D01*
X243140904Y-96556856D01*
X243140903Y-96556855D01*
X243108910Y-96451386D01*
X243092299Y-96396629D01*
X243075888Y-96230000D01*
X243092299Y-96063371D01*
X243120946Y-95968934D01*
X243140903Y-95903145D01*
X243159930Y-95867548D01*
X243219830Y-95755482D01*
X243326052Y-95626052D01*
X243455482Y-95519830D01*
X243567548Y-95459930D01*
X243603145Y-95440903D01*
X243668934Y-95420946D01*
X243763371Y-95392299D01*
X243888247Y-95380000D01*
X243971753Y-95380000D01*
X244096629Y-95392299D01*
X244096629Y-95392299D01*
G37*
G36*
X226316629Y-95392299D02*
G01*
X226411066Y-95420946D01*
X226476855Y-95440903D01*
X226512452Y-95459930D01*
X226624518Y-95519830D01*
X226753948Y-95626052D01*
X226860170Y-95755482D01*
X226920070Y-95867548D01*
X226939097Y-95903145D01*
X226959054Y-95968934D01*
X226987701Y-96063371D01*
X227004112Y-96230000D01*
X226987701Y-96396629D01*
X226971090Y-96451386D01*
X226939097Y-96556855D01*
X226939096Y-96556856D01*
X226860170Y-96704518D01*
X226753948Y-96833948D01*
X226624518Y-96940170D01*
X226512452Y-97000070D01*
X226476855Y-97019097D01*
X226411066Y-97039054D01*
X226316629Y-97067701D01*
X226191753Y-97080000D01*
X226108247Y-97080000D01*
X225983371Y-97067701D01*
X225888934Y-97039054D01*
X225823145Y-97019097D01*
X225787548Y-97000070D01*
X225675482Y-96940170D01*
X225546052Y-96833948D01*
X225439830Y-96704518D01*
X225360904Y-96556856D01*
X225360903Y-96556855D01*
X225328910Y-96451386D01*
X225312299Y-96396629D01*
X225295888Y-96230000D01*
X225312299Y-96063371D01*
X225340946Y-95968934D01*
X225360903Y-95903145D01*
X225379930Y-95867548D01*
X225439830Y-95755482D01*
X225546052Y-95626052D01*
X225675482Y-95519830D01*
X225787548Y-95459930D01*
X225823145Y-95440903D01*
X225888934Y-95420946D01*
X225983371Y-95392299D01*
X226108247Y-95380000D01*
X226191753Y-95380000D01*
X226316629Y-95392299D01*
X226316629Y-95392299D01*
G37*
G36*
X216156629Y-95392299D02*
G01*
X216251066Y-95420946D01*
X216316855Y-95440903D01*
X216352452Y-95459930D01*
X216464518Y-95519830D01*
X216593948Y-95626052D01*
X216700170Y-95755482D01*
X216760070Y-95867548D01*
X216779097Y-95903145D01*
X216799054Y-95968934D01*
X216827701Y-96063371D01*
X216844112Y-96230000D01*
X216827701Y-96396629D01*
X216811090Y-96451386D01*
X216779097Y-96556855D01*
X216779096Y-96556856D01*
X216700170Y-96704518D01*
X216593948Y-96833948D01*
X216464518Y-96940170D01*
X216352452Y-97000070D01*
X216316855Y-97019097D01*
X216251066Y-97039054D01*
X216156629Y-97067701D01*
X216031753Y-97080000D01*
X215948247Y-97080000D01*
X215823371Y-97067701D01*
X215728934Y-97039054D01*
X215663145Y-97019097D01*
X215627548Y-97000070D01*
X215515482Y-96940170D01*
X215386052Y-96833948D01*
X215279830Y-96704518D01*
X215200904Y-96556856D01*
X215200903Y-96556855D01*
X215168910Y-96451386D01*
X215152299Y-96396629D01*
X215135888Y-96230000D01*
X215152299Y-96063371D01*
X215180946Y-95968934D01*
X215200903Y-95903145D01*
X215219930Y-95867548D01*
X215279830Y-95755482D01*
X215386052Y-95626052D01*
X215515482Y-95519830D01*
X215627548Y-95459930D01*
X215663145Y-95440903D01*
X215728934Y-95420946D01*
X215823371Y-95392299D01*
X215948247Y-95380000D01*
X216031753Y-95380000D01*
X216156629Y-95392299D01*
X216156629Y-95392299D01*
G37*
G36*
X246636629Y-95392299D02*
G01*
X246731066Y-95420946D01*
X246796855Y-95440903D01*
X246832452Y-95459930D01*
X246944518Y-95519830D01*
X247073948Y-95626052D01*
X247180170Y-95755482D01*
X247240070Y-95867548D01*
X247259097Y-95903145D01*
X247279054Y-95968934D01*
X247307701Y-96063371D01*
X247324112Y-96230000D01*
X247307701Y-96396629D01*
X247291090Y-96451386D01*
X247259097Y-96556855D01*
X247259096Y-96556856D01*
X247180170Y-96704518D01*
X247073948Y-96833948D01*
X246944518Y-96940170D01*
X246832452Y-97000070D01*
X246796855Y-97019097D01*
X246731066Y-97039054D01*
X246636629Y-97067701D01*
X246511753Y-97080000D01*
X246428247Y-97080000D01*
X246303371Y-97067701D01*
X246208934Y-97039054D01*
X246143145Y-97019097D01*
X246107548Y-97000070D01*
X245995482Y-96940170D01*
X245866052Y-96833948D01*
X245759830Y-96704518D01*
X245680904Y-96556856D01*
X245680903Y-96556855D01*
X245648910Y-96451386D01*
X245632299Y-96396629D01*
X245615888Y-96230000D01*
X245632299Y-96063371D01*
X245660946Y-95968934D01*
X245680903Y-95903145D01*
X245699930Y-95867548D01*
X245759830Y-95755482D01*
X245866052Y-95626052D01*
X245995482Y-95519830D01*
X246107548Y-95459930D01*
X246143145Y-95440903D01*
X246208934Y-95420946D01*
X246303371Y-95392299D01*
X246428247Y-95380000D01*
X246511753Y-95380000D01*
X246636629Y-95392299D01*
X246636629Y-95392299D01*
G37*
G36*
X213616629Y-95392299D02*
G01*
X213711066Y-95420946D01*
X213776855Y-95440903D01*
X213812452Y-95459930D01*
X213924518Y-95519830D01*
X214053948Y-95626052D01*
X214160170Y-95755482D01*
X214220070Y-95867548D01*
X214239097Y-95903145D01*
X214259054Y-95968934D01*
X214287701Y-96063371D01*
X214304112Y-96230000D01*
X214287701Y-96396629D01*
X214271090Y-96451386D01*
X214239097Y-96556855D01*
X214239096Y-96556856D01*
X214160170Y-96704518D01*
X214053948Y-96833948D01*
X213924518Y-96940170D01*
X213812452Y-97000070D01*
X213776855Y-97019097D01*
X213711066Y-97039054D01*
X213616629Y-97067701D01*
X213491753Y-97080000D01*
X213408247Y-97080000D01*
X213283371Y-97067701D01*
X213188934Y-97039054D01*
X213123145Y-97019097D01*
X213087548Y-97000070D01*
X212975482Y-96940170D01*
X212846052Y-96833948D01*
X212739830Y-96704518D01*
X212660904Y-96556856D01*
X212660903Y-96556855D01*
X212628910Y-96451386D01*
X212612299Y-96396629D01*
X212595888Y-96230000D01*
X212612299Y-96063371D01*
X212640946Y-95968934D01*
X212660903Y-95903145D01*
X212679930Y-95867548D01*
X212739830Y-95755482D01*
X212846052Y-95626052D01*
X212975482Y-95519830D01*
X213087548Y-95459930D01*
X213123145Y-95440903D01*
X213188934Y-95420946D01*
X213283371Y-95392299D01*
X213408247Y-95380000D01*
X213491753Y-95380000D01*
X213616629Y-95392299D01*
X213616629Y-95392299D01*
G37*
G36*
X241556629Y-95392299D02*
G01*
X241651066Y-95420946D01*
X241716855Y-95440903D01*
X241752452Y-95459930D01*
X241864518Y-95519830D01*
X241993948Y-95626052D01*
X242100170Y-95755482D01*
X242160070Y-95867548D01*
X242179097Y-95903145D01*
X242199054Y-95968934D01*
X242227701Y-96063371D01*
X242244112Y-96230000D01*
X242227701Y-96396629D01*
X242211090Y-96451386D01*
X242179097Y-96556855D01*
X242179096Y-96556856D01*
X242100170Y-96704518D01*
X241993948Y-96833948D01*
X241864518Y-96940170D01*
X241752452Y-97000070D01*
X241716855Y-97019097D01*
X241651066Y-97039054D01*
X241556629Y-97067701D01*
X241431753Y-97080000D01*
X241348247Y-97080000D01*
X241223371Y-97067701D01*
X241128934Y-97039054D01*
X241063145Y-97019097D01*
X241027548Y-97000070D01*
X240915482Y-96940170D01*
X240786052Y-96833948D01*
X240679830Y-96704518D01*
X240600904Y-96556856D01*
X240600903Y-96556855D01*
X240568910Y-96451386D01*
X240552299Y-96396629D01*
X240535888Y-96230000D01*
X240552299Y-96063371D01*
X240580946Y-95968934D01*
X240600903Y-95903145D01*
X240619930Y-95867548D01*
X240679830Y-95755482D01*
X240786052Y-95626052D01*
X240915482Y-95519830D01*
X241027548Y-95459930D01*
X241063145Y-95440903D01*
X241128934Y-95420946D01*
X241223371Y-95392299D01*
X241348247Y-95380000D01*
X241431753Y-95380000D01*
X241556629Y-95392299D01*
X241556629Y-95392299D01*
G37*
M02*
